<svg xmlns="http://www.w3.org/2000/svg">
<defs>
<font id="AFORA" horiz-adv-x="867" >
  <font-face 
    font-family="A FOR A"
    font-weight="400"
    font-stretch="normal"
    units-per-em="2048"
    panose-1="2 11 6 3 5 3 2 2 2 4"
    ascent="1638"
    descent="-410"
    x-height="1597"
    cap-height="1618"
    bbox="-11 -242.111 1493.7 1889.32"
    underline-thickness="0"
    underline-position="0"
    unicode-range="U+0008-00A5"
  />
<missing-glyph horiz-adv-x="2048" 
d="M478 55h-28q-36 -2 -37 -2h-14t-13 0h-5h-4v0.5v1.5h-2q-2 6 -2 9l-8 12l-2 19t-1 24q-3 -2 -2.5 11l0.5 13v3t2 6l-0.5 3.5t-0.5 6.5q0 10 3 8q-1 -1 0 10l1 11q0 -1 -2 6t-2 6l0.5 4t1.5 7q-1 -5 -1 9v8v10q0 -1 -2 12t-5 15l2 -2t-2 7q-1 -4 -6 8.5t-5 7.5
q0 3 -12 9.5l-12 6.5q-4 0 -4 1l-3.5 2t-4.5 2q0 -1 -11 2t-12 4h-16v-7t0 -3v-53v-58l1.5 -17t1.5 -16q0 -18 -1 -14q0 6 -5 -41v-33q1 -11 5 -14q0 -3 -5 -1v-4h-101v7h-1v0q-3 0 -4 5l-1 5q-3 -3 -3 13q0 -2 0 2v4v6v8q0 -1 0 25.5v47.5q0 -4 0 4.5v10.5q0 -2 0.5 4
l0.5 6l0.5 7.5t1.5 7.5l1.5 29.5t-1.5 36.5v7v7q-2 1 -4 66t1 60q-9 15 -2 45.5t7 45.5q0 -2 -2.5 16.5t-2.5 33.5q0 -1 0.5 34t0.5 62q0 -2 0 3.5v8.5l2 14.5t4 14.5q23 0 27.5 2.5t27.5 -4.5q1 0 40 -0.5t56 -3.5h3q144 0 149 -139q10 -44 4 -74q-2 -5 -4 -14t-5 -18
q-4 -20 -10 -32q-19 -53 -45 -50l-2 -1t-3 -1q66 -28 66 -135v-35q5 -62 1 -59q6 -27 4.5 -39t14.5 -42h-3h-7q0 -1 0.5 -1.5zM11 862q43 4 64 8.5t72 4.5q82 0 213 -5t199 -5q29 0 18.5 77.5t-2.5 111.5q23 102 19.5 279.5t-3.5 279.5q0 22 47.5 20t68.5 -2q0 -9 -2 -41
l-2 -32q22 -93 5 -216.5t-8 -197.5q4 -41 8.5 -151.5t-9.5 -143.5q-6 -16 71 -11.5t92 1.5q111 -23 199 -9.5t170 9.5q0 -159 0 -136t-96 3q-69 -15 -217.5 -3.5t-201.5 11.5q-16 0 -20.5 -46t-3.5 -101t4.5 -101t4.5 -46q30 -67 8 -160t-8 -165q18 -99 -16 -86t-95 1
q-3 -1 -6 79t-6 181t-5 193t-2 115q0 142 -4.5 152t-140.5 10q-14 0 -69 2.5t-116 5.5t-110 5.5l-49 2.5q-98 -21 -71 6t0 100zM869 1529q20 -6 21 -5h0.5t4.5 -2q-1 0 22.5 2.5l23.5 2.5h16h19l18.5 -2.5t15.5 -2.5q2 0 3.5 -1.5l1.5 -1.5l-1 -4t8 -16l4.5 -48t16.5 -74

<glyph glyph-name=".notdef" unicode="&#xa5;" horiz-adv-x="2048" 
d="M478 55h-28q-36 -2 -37 -2h-14t-13 0h-5h-4v0.5v1.5h-2q-2 6 -2 9l-8 12l-2 19t-1 24q-3 -2 -2.5 11l0.5 13v3t2 6l-0.5 3.5t-0.5 6.5q0 10 3 8q-1 -1 0 10l1 11q0 -1 -2 6t-2 6l0.5 4t1.5 7q-1 -5 -1 9v8v10q0 -1 -2 12t-5 15l2 -2t-2 7q-1 -4 -6 8.5t-5 7.5
q0 3 -12 9.5l-12 6.5q-4 0 -4 1l-3.5 2t-4.5 2q0 -1 -11 2t-12 4h-16v-7t0 -3v-53v-58l1.5 -17t1.5 -16q0 -18 -1 -14q0 6 -5 -41v-33q1 -11 5 -14q0 -3 -5 -1v-4h-101v7h-1v0q-3 0 -4 5l-1 5q-3 -3 -3 13q0 -2 0 2v4v6v8q0 -1 0 25.5v47.5q0 -4 0 4.5v10.5q0 -2 0.5 4
l0.5 6l0.5 7.5t1.5 7.5l1.5 29.5t-1.5 36.5v7v7q-2 1 -4 66t1 60q-9 15 -2 45.5t7 45.5q0 -2 -2.5 16.5t-2.5 33.5q0 -1 0.5 34t0.5 62q0 -2 0 3.5v8.5l2 14.5t4 14.5q23 0 27.5 2.5t27.5 -4.5q1 0 40 -0.5t56 -3.5h3q144 0 149 -139q10 -44 4 -74q-2 -5 -4 -14t-5 -18
q-4 -20 -10 -32q-19 -53 -45 -50l-2 -1t-3 -1q66 -28 66 -135v-35q5 -62 1 -59q6 -27 4.5 -39t14.5 -42h-3h-7q0 -1 0.5 -1.5zM11 862q43 4 64 8.5t72 4.5q82 0 213 -5t199 -5q29 0 18.5 77.5t-2.5 111.5q23 102 19.5 279.5t-3.5 279.5q0 22 47.5 20t68.5 -2q0 -9 -2 -41
l-2 -32q22 -93 5 -216.5t-8 -197.5q4 -41 8.5 -151.5t-9.5 -143.5q-6 -16 71 -11.5t92 1.5q111 -23 199 -9.5t170 9.5q0 -159 0 -136t-96 3q-69 -15 -217.5 -3.5t-201.5 11.5q-16 0 -20.5 -46t-3.5 -101t4.5 -101t4.5 -46q30 -67 8 -160t-8 -165q18 -99 -16 -86t-95 1
q-3 -1 -6 79t-6 181t-5 193t-2 115q0 142 -4.5 152t-140.5 10q-14 0 -69 2.5t-116 5.5t-110 5.5l-49 2.5q-98 -21 -71 6t0 100zM869 1529q20 -6 21 -5h0.5t4.5 -2q-1 0 22.5 2.5l23.5 2.5h16h19l18.5 -2.5t15.5 -2.5q2 0 3.5 -1.5l1.5 -1.5l-1 -4t8 -16l4.5 -48t16.5 -74
q0 -1 1 -12.5t1 -12.5q-3 -2 14.5 -88.5t20.5 -99.5q-3 1 3.5 -37.5l6.5 -38.5q1 1 3.5 -10.5l2.5 -11.5l5 -39.5t9 -54.5q0 -4 3 -25t7 -23q-1 0 1 -6.5l2 -6.5q0 -3 -27 -3q-26 0 -25.5 -0.5t-14.5 5.5h-9.5t-4.5 0q-8 0 -10 -2l-7 -1.5t-10 1.5q-4 0 -6 11
q-2 4 -7.5 27.5t-4.5 24.5q0 -1 -4 18.5l-4 19.5q0 2 -1 2.5t-1 4.5h-11l-21.5 -2.5t-33.5 -2.5h-14.5h-8.5l-2.5 -0.5t-6.5 -0.5q-3 -6 -9.5 -40t-6.5 -37q2 0 -1 -13l-2 -7t-2 -6q0 -1 -41 -1.5l-41 -0.5l-4.5 0.5t-4.5 2.5q2 3 -6 1.5t-8 2.5q0 -3 4 6.5l4 9.5q0 -1 0 3
v4q-6 18 3 18q-5 0 5 14q0 -3 2 6t5 6v5.5v6.5q0 -1 0 9v17q0 -1 0 3.5v6.5l3.5 12.5t5.5 15.5q1 1 1 18l0.5 6t0.5 9l1 10l1 10q0 3 5 18q0 -2 4 21t4 32q0 13 2 15q-5 9 5 13l1 21.5t2 23.5q-3 -8 6.5 24.5t11.5 41.5q0 -2 0 4v6q0 -2 0 2.5t0 3.5q0 12 -1 13
q-1 0 -0.5 4.5l0.5 4.5v4v7q0 -8 7 39.5t11 53.5q-3 -6 3.5 27t6.5 22q0 17 2 17zM937 1384q3 -32 -12 -91.5t-15 -104.5q0 6 -3.5 -19t-3.5 -46l-0.5 -1.5t-4.5 -5.5l1 -2.5t3 -2.5h2.5h3.5q-2 0 21 -1.5t35 -1.5q-1 0 1 0h3q-1 0 0.5 0h2.5q2 0 3 2q0 -1 5 -1v3.5v5.5
q0 4 -3 7q0 4 -4 4v2.5v2.5v2t6 11q-4 4 -2 4l-3.5 7t-3.5 8q0 -4 -1 6.5t-1 16.5q0 -1 -3 10t-3 23l-1 2t-1 4l-0.5 2t-0.5 5l-2 5t-2 8l-0.5 9t-0.5 16v12.5t-6 26.5q-1 0 -3.5 16.5t-2.5 17.5q0 -1 -1 2.5l-1 3.5v5v10q0 2 -1 3l-1 1t-1 4l0.5 3.5t0.5 5.5zM105 1544
q5 4 20.5 3t24.5 -1h36.5h60.5l5 -18.5t7 -23.5q0 -1 6 -37.5l6 -36.5q1 -33 8.5 -69t7.5 -67q0 10 9 -44.5t11 -55.5q-1 0 -0.5 -11t1.5 -15l-0.5 -6t-0.5 -10v-2l1 2t2 3q0 -1 2 15t3 26l6 38t7 38l10.5 71.5t11.5 71.5q-2 -2 6.5 32l8.5 34q-1 0 -0.5 15t0.5 18l1 6.5
t2 10.5q-1 0 2.5 8.5t5.5 9.5q6 6 17 -4q-2 1 11 -1h82q-4 -1 14 2q0 -1 14 -0.5t17 0.5l-5 -40.5t-5 -41.5l5 -41.5t1 -69.5q-4 -22 -5 -54t-1 -56l1 -33.5l1 -33.5q0 -9 1 -16.5t1 -13.5l-4 -6v-40t5 -46l-2.5 -39t-2.5 -48v-7v-7v-6t4 -9l1.5 -5.5t-2.5 -4.5
q1 0 -5.5 -0.5t-12.5 -0.5l-25.5 -2t-40.5 -2q1 0 -2.5 0h-3.5q4 0 -2.5 -0.5t-7.5 -0.5q-6 0 -4.5 25t1.5 34q0 -3 -2 22.5l-2 25.5l1 40t1 51q0 -2 0 8v15v8.5v9.5q0 -2 0 13v24q0 -3 -1 11t-1 23q0 -2 0 4v9q0 -1 0 9v16q0 -1 0 3.5v6.5q0 -3 0 14.5v25.5
q0 -1 -14 -105.5l-14 -104.5q-2 -3 -9 -50.5t-7 -55.5l-4 -28.5t-4 -29.5q0 1 0 -1v-2q0 -2 -2 -2q1 0 -1.5 -3l-2.5 -3v-1.5t-2 -1.5v-4h-92l-2 11v0v0q-4 4 -4 14q0 -2 -3 23t-9 35q-3 3 -3 13q0 -4 -1 6t-1 14q0 -2 -0.5 5.5t-0.5 10.5l-4.5 19l-4.5 19q0 36 -14.5 83
t-13.5 93q0 2 -5 28.5t-5 30.5q0 -13 1 -65.5t8 -58.5l-1 -22.5l-1 -22.5l-3 -18t-5 -40v-67q2 -4 3 -5q-2 -4 0 -28t2 -30l2.5 -20t-7.5 -26v-2h-85v4h-11v4.5v6.5l1 5t1 8q0 -1 1.5 5.5t1.5 9.5q0 -2 1 50.5t1 85.5q0 -1 -1 3t-1 8q0 -1 1.5 13.5t4.5 17.5v6
q-1 15 -3.5 52t-5.5 43l0.5 11.5t0.5 16.5q0 -1 2 8.5t2 15.5q0 -3 1.5 13t1.5 28q0 -1 0 19v22q0 -2 0 9v17q0 -1 -2.5 16t-4.5 19q5 0 5 25q0 -3 0 12v24l-2 13.5t4 21.5l-1 1.5zM936 566q-1 0 -6 -1.5t-3 -1.5q0 -1 -9 -8.5t-4 -4.5q-8 -4 -13 -20t-3 -19l-0.5 -12
l-0.5 -12q0 -9 6 -25l4 -8q6 -7 7 -12q3 -5 11 -15q2 -3 4.5 -6t5.5 -6q14 -16 30.5 -31t34.5 -31h0.5h0.5l0.5 -1t1.5 -2q38 -39 54 -67q13 -19 14 -19q9 -8 15 -31l6 -23q0 -21 -9 -60q0 -1 -4 -11q-21 -112 -141 -112q-64 0 -101 34q-33 23 -36 40q-6 28 -8.5 32.5
t-2.5 41.5q0 -2 0 11t0 12v6.5v5.5q-1 0 -2.5 3l-1.5 3l3.5 0.5t3.5 1.5v0.5t1 0.5v1h5q7 1 16.5 1h9.5q10 0 35 2.5l25 2.5q7 -7 7 2v-9.5v-9.5q0 3 0 -9.5t0 -9.5v-14.5t0 -8.5q2 -2 5.5 -11t2.5 -6q2 -3 3.5 -8l1.5 -5q24 -22 37.5 -16l13.5 6q25 9 23.5 42.5l-1.5 33.5
l-8.5 20.5t-10.5 21.5q-6 3 -22.5 22.5l-16.5 19.5q-6 10 -59.5 62t-55.5 58q-16 38 -13.5 80.5l2.5 42.5q2 0 5.5 17.5l3.5 17.5q0 -1 2 3q0 1 1 3l2 4v0.5v1.5l1 2q1 4 8 18q5 9 9.5 19l4.5 10q18 16 50 25l32 9q1 2 8 3.5l7 1.5h10h10q16 0 31 -5q8 -3 29.5 -15t26.5 -11
q1 -1 5 -4.5l4 -3.5l11.5 -13.5t11.5 -14.5q0 -6 5.5 -15l5.5 -9q0 -14 2 -11q5 0 5 -23l2 -18.5t2 -31.5l0.5 -3.5t0.5 -4.5l-0.5 -3l-0.5 -3h-3t-1 0q-6 0 -23.5 -1t-19.5 -1l-17 2.5t-32 2.5q-17 0 -12 43.5t-45 43.5z" />
    <glyph glyph-name=".notdef" unicode="&#xe01e;" horiz-adv-x="2048" 
d="M478 55h-28q-36 -2 -37 -2h-14t-13 0h-5h-4v0.5v1.5h-2q-2 6 -2 9l-8 12l-2 19t-1 24q-3 -2 -2.5 11l0.5 13v3t2 6l-0.5 3.5t-0.5 6.5q0 10 3 8q-1 -1 0 10l1 11q0 -1 -2 6t-2 6l0.5 4t1.5 7q-1 -5 -1 9v8v10q0 -1 -2 12t-5 15l2 -2t-2 7q-1 -4 -6 8.5t-5 7.5
q0 3 -12 9.5l-12 6.5q-4 0 -4 1l-3.5 2t-4.5 2q0 -1 -11 2t-12 4h-16v-7t0 -3v-53v-58l1.5 -17t1.5 -16q0 -18 -1 -14q0 6 -5 -41v-33q1 -11 5 -14q0 -3 -5 -1v-4h-101v7h-1v0q-3 0 -4 5l-1 5q-3 -3 -3 13q0 -2 0 2v4v6v8q0 -1 0 25.5v47.5q0 -4 0 4.5v10.5q0 -2 0.5 4
l0.5 6l0.5 7.5t1.5 7.5l1.5 29.5t-1.5 36.5v7v7q-2 1 -4 66t1 60q-9 15 -2 45.5t7 45.5q0 -2 -2.5 16.5t-2.5 33.5q0 -1 0.5 34t0.5 62q0 -2 0 3.5v8.5l2 14.5t4 14.5q23 0 27.5 2.5t27.5 -4.5q1 0 40 -0.5t56 -3.5h3q144 0 149 -139q10 -44 4 -74q-2 -5 -4 -14t-5 -18
q-4 -20 -10 -32q-19 -53 -45 -50l-2 -1t-3 -1q66 -28 66 -135v-35q5 -62 1 -59q6 -27 4.5 -39t14.5 -42h-3h-7q0 -1 0.5 -1.5zM11 862q43 4 64 8.5t72 4.5q82 0 213 -5t199 -5q29 0 18.5 77.5t-2.5 111.5q23 102 19.5 279.5t-3.5 279.5q0 22 47.5 20t68.5 -2q0 -9 -2 -41
l-2 -32q22 -93 5 -216.5t-8 -197.5q4 -41 8.5 -151.5t-9.5 -143.5q-6 -16 71 -11.5t92 1.5q111 -23 199 -9.5t170 9.5q0 -159 0 -136t-96 3q-69 -15 -217.5 -3.5t-201.5 11.5q-16 0 -20.5 -46t-3.5 -101t4.5 -101t4.5 -46q30 -67 8 -160t-8 -165q18 -99 -16 -86t-95 1
q-3 -1 -6 79t-6 181t-5 193t-2 115q0 142 -4.5 152t-140.5 10q-14 0 -69 2.5t-116 5.5t-110 5.5l-49 2.5q-98 -21 -71 6t0 100zM869 1529q20 -6 21 -5h0.5t4.5 -2q-1 0 22.5 2.5l23.5 2.5h16h19l18.5 -2.5t15.5 -2.5q2 0 3.5 -1.5l1.5 -1.5l-1 -4t8 -16l4.5 -48t16.5 -74
q0 -1 1 -12.5t1 -12.5q-3 -2 14.5 -88.5t20.5 -99.5q-3 1 3.5 -37.5l6.5 -38.5q1 1 3.5 -10.5l2.5 -11.5l5 -39.5t9 -54.5q0 -4 3 -25t7 -23q-1 0 1 -6.5l2 -6.5q0 -3 -27 -3q-26 0 -25.5 -0.5t-14.5 5.5h-9.5t-4.5 0q-8 0 -10 -2l-7 -1.5t-10 1.5q-4 0 -6 11
q-2 4 -7.5 27.5t-4.5 24.5q0 -1 -4 18.5l-4 19.5q0 2 -1 2.5t-1 4.5h-11l-21.5 -2.5t-33.5 -2.5h-14.5h-8.5l-2.5 -0.5t-6.5 -0.5q-3 -6 -9.5 -40t-6.5 -37q2 0 -1 -13l-2 -7t-2 -6q0 -1 -41 -1.5l-41 -0.5l-4.5 0.5t-4.5 2.5q2 3 -6 1.5t-8 2.5q0 -3 4 6.5l4 9.5q0 -1 0 3
v4q-6 18 3 18q-5 0 5 14q0 -3 2 6t5 6v5.5v6.5q0 -1 0 9v17q0 -1 0 3.5v6.5l3.5 12.5t5.5 15.5q1 1 1 18l0.5 6t0.5 9l1 10l1 10q0 3 5 18q0 -2 4 21t4 32q0 13 2 15q-5 9 5 13l1 21.5t2 23.5q-3 -8 6.5 24.5t11.5 41.5q0 -2 0 4v6q0 -2 0 2.5t0 3.5q0 12 -1 13
q-1 0 -0.5 4.5l0.5 4.5v4v7q0 -8 7 39.5t11 53.5q-3 -6 3.5 27t6.5 22q0 17 2 17zM937 1384q3 -32 -12 -91.5t-15 -104.5q0 6 -3.5 -19t-3.5 -46l-0.5 -1.5t-4.5 -5.5l1 -2.5t3 -2.5h2.5h3.5q-2 0 21 -1.5t35 -1.5q-1 0 1 0h3q-1 0 0.5 0h2.5q2 0 3 2q0 -1 5 -1v3.5v5.5
q0 4 -3 7q0 4 -4 4v2.5v2.5v2t6 11q-4 4 -2 4l-3.5 7t-3.5 8q0 -4 -1 6.5t-1 16.5q0 -1 -3 10t-3 23l-1 2t-1 4l-0.5 2t-0.5 5l-2 5t-2 8l-0.5 9t-0.5 16v12.5t-6 26.5q-1 0 -3.5 16.5t-2.5 17.5q0 -1 -1 2.5l-1 3.5v5v10q0 2 -1 3l-1 1t-1 4l0.5 3.5t0.5 5.5zM105 1544
q5 4 20.5 3t24.5 -1h36.5h60.5l5 -18.5t7 -23.5q0 -1 6 -37.5l6 -36.5q1 -33 8.5 -69t7.5 -67q0 10 9 -44.5t11 -55.5q-1 0 -0.5 -11t1.5 -15l-0.5 -6t-0.5 -10v-2l1 2t2 3q0 -1 2 15t3 26l6 38t7 38l10.5 71.5t11.5 71.5q-2 -2 6.5 32l8.5 34q-1 0 -0.5 15t0.5 18l1 6.5
t2 10.5q-1 0 2.5 8.5t5.5 9.5q6 6 17 -4q-2 1 11 -1h82q-4 -1 14 2q0 -1 14 -0.5t17 0.5l-5 -40.5t-5 -41.5l5 -41.5t1 -69.5q-4 -22 -5 -54t-1 -56l1 -33.5l1 -33.5q0 -9 1 -16.5t1 -13.5l-4 -6v-40t5 -46l-2.5 -39t-2.5 -48v-7v-7v-6t4 -9l1.5 -5.5t-2.5 -4.5
q1 0 -5.5 -0.5t-12.5 -0.5l-25.5 -2t-40.5 -2q1 0 -2.5 0h-3.5q4 0 -2.5 -0.5t-7.5 -0.5q-6 0 -4.5 25t1.5 34q0 -3 -2 22.5l-2 25.5l1 40t1 51q0 -2 0 8v15v8.5v9.5q0 -2 0 13v24q0 -3 -1 11t-1 23q0 -2 0 4v9q0 -1 0 9v16q0 -1 0 3.5v6.5q0 -3 0 14.5v25.5
q0 -1 -14 -105.5l-14 -104.5q-2 -3 -9 -50.5t-7 -55.5l-4 -28.5t-4 -29.5q0 1 0 -1v-2q0 -2 -2 -2q1 0 -1.5 -3l-2.5 -3v-1.5t-2 -1.5v-4h-92l-2 11v0v0q-4 4 -4 14q0 -2 -3 23t-9 35q-3 3 -3 13q0 -4 -1 6t-1 14q0 -2 -0.5 5.5t-0.5 10.5l-4.5 19l-4.5 19q0 36 -14.5 83
t-13.5 93q0 2 -5 28.5t-5 30.5q0 -13 1 -65.5t8 -58.5l-1 -22.5l-1 -22.5l-3 -18t-5 -40v-67q2 -4 3 -5q-2 -4 0 -28t2 -30l2.5 -20t-7.5 -26v-2h-85v4h-11v4.5v6.5l1 5t1 8q0 -1 1.5 5.5t1.5 9.5q0 -2 1 50.5t1 85.5q0 -1 -1 3t-1 8q0 -1 1.5 13.5t4.5 17.5v6
q-1 15 -3.5 52t-5.5 43l0.5 11.5t0.5 16.5q0 -1 2 8.5t2 15.5q0 -3 1.5 13t1.5 28q0 -1 0 19v22q0 -2 0 9v17q0 -1 -2.5 16t-4.5 19q5 0 5 25q0 -3 0 12v24l-2 13.5t4 21.5l-1 1.5zM936 566q-1 0 -6 -1.5t-3 -1.5q0 -1 -9 -8.5t-4 -4.5q-8 -4 -13 -20t-3 -19l-0.5 -12
l-0.5 -12q0 -9 6 -25l4 -8q6 -7 7 -12q3 -5 11 -15q2 -3 4.5 -6t5.5 -6q14 -16 30.5 -31t34.5 -31h0.5h0.5l0.5 -1t1.5 -2q38 -39 54 -67q13 -19 14 -19q9 -8 15 -31l6 -23q0 -21 -9 -60q0 -1 -4 -11q-21 -112 -141 -112q-64 0 -101 34q-33 23 -36 40q-6 28 -8.5 32.5
t-2.5 41.5q0 -2 0 11t0 12v6.5v5.5q-1 0 -2.5 3l-1.5 3l3.5 0.5t3.5 1.5v0.5t1 0.5v1h5q7 1 16.5 1h9.5q10 0 35 2.5l25 2.5q7 -7 7 2v-9.5v-9.5q0 3 0 -9.5t0 -9.5v-14.5t0 -8.5q2 -2 5.5 -11t2.5 -6q2 -3 3.5 -8l1.5 -5q24 -22 37.5 -16l13.5 6q25 9 23.5 42.5l-1.5 33.5
l-8.5 20.5t-10.5 21.5q-6 3 -22.5 22.5l-16.5 19.5q-6 10 -59.5 62t-55.5 58q-16 38 -13.5 80.5l2.5 42.5q2 0 5.5 17.5l3.5 17.5q0 -1 2 3q0 1 1 3l2 4v0.5v1.5l1 2q1 4 8 18q5 9 9.5 19l4.5 10q18 16 50 25l32 9q1 2 8 3.5l7 1.5h10h10q16 0 31 -5q8 -3 29.5 -15t26.5 -11
q1 -1 5 -4.5l4 -3.5l11.5 -13.5t11.5 -14.5q0 -6 5.5 -15l5.5 -9q0 -14 2 -11q5 0 5 -23l2 -18.5t2 -31.5l0.5 -3.5t0.5 -4.5l-0.5 -3l-0.5 -3h-3t-1 0q-6 0 -23.5 -1t-19.5 -1l-17 2.5t-32 2.5q-17 0 -12 43.5t-45 43.5z" />
    <glyph glyph-name=".notdef" unicode="&#x25ca;" horiz-adv-x="2048" 
d="M478 55h-28q-36 -2 -37 -2h-14t-13 0h-5h-4v0.5v1.5h-2q-2 6 -2 9l-8 12l-2 19t-1 24q-3 -2 -2.5 11l0.5 13v3t2 6l-0.5 3.5t-0.5 6.5q0 10 3 8q-1 -1 0 10l1 11q0 -1 -2 6t-2 6l0.5 4t1.5 7q-1 -5 -1 9v8v10q0 -1 -2 12t-5 15l2 -2t-2 7q-1 -4 -6 8.5t-5 7.5
q0 3 -12 9.5l-12 6.5q-4 0 -4 1l-3.5 2t-4.5 2q0 -1 -11 2t-12 4h-16v-7t0 -3v-53v-58l1.5 -17t1.5 -16q0 -18 -1 -14q0 6 -5 -41v-33q1 -11 5 -14q0 -3 -5 -1v-4h-101v7h-1v0q-3 0 -4 5l-1 5q-3 -3 -3 13q0 -2 0 2v4v6v8q0 -1 0 25.5v47.5q0 -4 0 4.5v10.5q0 -2 0.5 4
l0.5 6l0.5 7.5t1.5 7.5l1.5 29.5t-1.5 36.5v7v7q-2 1 -4 66t1 60q-9 15 -2 45.5t7 45.5q0 -2 -2.5 16.5t-2.5 33.5q0 -1 0.5 34t0.5 62q0 -2 0 3.5v8.5l2 14.5t4 14.5q23 0 27.5 2.5t27.5 -4.5q1 0 40 -0.5t56 -3.5h3q144 0 149 -139q10 -44 4 -74q-2 -5 -4 -14t-5 -18
q-4 -20 -10 -32q-19 -53 -45 -50l-2 -1t-3 -1q66 -28 66 -135v-35q5 -62 1 -59q6 -27 4.5 -39t14.5 -42h-3h-7q0 -1 0.5 -1.5zM11 862q43 4 64 8.5t72 4.5q82 0 213 -5t199 -5q29 0 18.5 77.5t-2.5 111.5q23 102 19.5 279.5t-3.5 279.5q0 22 47.5 20t68.5 -2q0 -9 -2 -41
l-2 -32q22 -93 5 -216.5t-8 -197.5q4 -41 8.5 -151.5t-9.5 -143.5q-6 -16 71 -11.5t92 1.5q111 -23 199 -9.5t170 9.5q0 -159 0 -136t-96 3q-69 -15 -217.5 -3.5t-201.5 11.5q-16 0 -20.5 -46t-3.5 -101t4.5 -101t4.5 -46q30 -67 8 -160t-8 -165q18 -99 -16 -86t-95 1
q-3 -1 -6 79t-6 181t-5 193t-2 115q0 142 -4.5 152t-140.5 10q-14 0 -69 2.5t-116 5.5t-110 5.5l-49 2.5q-98 -21 -71 6t0 100zM869 1529q20 -6 21 -5h0.5t4.5 -2q-1 0 22.5 2.5l23.5 2.5h16h19l18.5 -2.5t15.5 -2.5q2 0 3.5 -1.5l1.5 -1.5l-1 -4t8 -16l4.5 -48t16.5 -74
q0 -1 1 -12.5t1 -12.5q-3 -2 14.5 -88.5t20.5 -99.5q-3 1 3.5 -37.5l6.5 -38.5q1 1 3.5 -10.5l2.5 -11.5l5 -39.5t9 -54.5q0 -4 3 -25t7 -23q-1 0 1 -6.5l2 -6.5q0 -3 -27 -3q-26 0 -25.5 -0.5t-14.5 5.5h-9.5t-4.5 0q-8 0 -10 -2l-7 -1.5t-10 1.5q-4 0 -6 11
q-2 4 -7.5 27.5t-4.5 24.5q0 -1 -4 18.5l-4 19.5q0 2 -1 2.5t-1 4.5h-11l-21.5 -2.5t-33.5 -2.5h-14.5h-8.5l-2.5 -0.5t-6.5 -0.5q-3 -6 -9.5 -40t-6.5 -37q2 0 -1 -13l-2 -7t-2 -6q0 -1 -41 -1.5l-41 -0.5l-4.5 0.5t-4.5 2.5q2 3 -6 1.5t-8 2.5q0 -3 4 6.5l4 9.5q0 -1 0 3
v4q-6 18 3 18q-5 0 5 14q0 -3 2 6t5 6v5.5v6.5q0 -1 0 9v17q0 -1 0 3.5v6.5l3.5 12.5t5.5 15.5q1 1 1 18l0.5 6t0.5 9l1 10l1 10q0 3 5 18q0 -2 4 21t4 32q0 13 2 15q-5 9 5 13l1 21.5t2 23.5q-3 -8 6.5 24.5t11.5 41.5q0 -2 0 4v6q0 -2 0 2.5t0 3.5q0 12 -1 13
q-1 0 -0.5 4.5l0.5 4.5v4v7q0 -8 7 39.5t11 53.5q-3 -6 3.5 27t6.5 22q0 17 2 17zM937 1384q3 -32 -12 -91.5t-15 -104.5q0 6 -3.5 -19t-3.5 -46l-0.5 -1.5t-4.5 -5.5l1 -2.5t3 -2.5h2.5h3.5q-2 0 21 -1.5t35 -1.5q-1 0 1 0h3q-1 0 0.5 0h2.5q2 0 3 2q0 -1 5 -1v3.5v5.5
q0 4 -3 7q0 4 -4 4v2.5v2.5v2t6 11q-4 4 -2 4l-3.5 7t-3.5 8q0 -4 -1 6.5t-1 16.5q0 -1 -3 10t-3 23l-1 2t-1 4l-0.5 2t-0.5 5l-2 5t-2 8l-0.5 9t-0.5 16v12.5t-6 26.5q-1 0 -3.5 16.5t-2.5 17.5q0 -1 -1 2.5l-1 3.5v5v10q0 2 -1 3l-1 1t-1 4l0.5 3.5t0.5 5.5zM105 1544
q5 4 20.5 3t24.5 -1h36.5h60.5l5 -18.5t7 -23.5q0 -1 6 -37.5l6 -36.5q1 -33 8.5 -69t7.5 -67q0 10 9 -44.5t11 -55.5q-1 0 -0.5 -11t1.5 -15l-0.5 -6t-0.5 -10v-2l1 2t2 3q0 -1 2 15t3 26l6 38t7 38l10.5 71.5t11.5 71.5q-2 -2 6.5 32l8.5 34q-1 0 -0.5 15t0.5 18l1 6.5
t2 10.5q-1 0 2.5 8.5t5.5 9.5q6 6 17 -4q-2 1 11 -1h82q-4 -1 14 2q0 -1 14 -0.5t17 0.5l-5 -40.5t-5 -41.5l5 -41.5t1 -69.5q-4 -22 -5 -54t-1 -56l1 -33.5l1 -33.5q0 -9 1 -16.5t1 -13.5l-4 -6v-40t5 -46l-2.5 -39t-2.5 -48v-7v-7v-6t4 -9l1.5 -5.5t-2.5 -4.5
q1 0 -5.5 -0.5t-12.5 -0.5l-25.5 -2t-40.5 -2q1 0 -2.5 0h-3.5q4 0 -2.5 -0.5t-7.5 -0.5q-6 0 -4.5 25t1.5 34q0 -3 -2 22.5l-2 25.5l1 40t1 51q0 -2 0 8v15v8.5v9.5q0 -2 0 13v24q0 -3 -1 11t-1 23q0 -2 0 4v9q0 -1 0 9v16q0 -1 0 3.5v6.5q0 -3 0 14.5v25.5
q0 -1 -14 -105.5l-14 -104.5q-2 -3 -9 -50.5t-7 -55.5l-4 -28.5t-4 -29.5q0 1 0 -1v-2q0 -2 -2 -2q1 0 -1.5 -3l-2.5 -3v-1.5t-2 -1.5v-4h-92l-2 11v0v0q-4 4 -4 14q0 -2 -3 23t-9 35q-3 3 -3 13q0 -4 -1 6t-1 14q0 -2 -0.5 5.5t-0.5 10.5l-4.5 19l-4.5 19q0 36 -14.5 83
t-13.5 93q0 2 -5 28.5t-5 30.5q0 -13 1 -65.5t8 -58.5l-1 -22.5l-1 -22.5l-3 -18t-5 -40v-67q2 -4 3 -5q-2 -4 0 -28t2 -30l2.5 -20t-7.5 -26v-2h-85v4h-11v4.5v6.5l1 5t1 8q0 -1 1.5 5.5t1.5 9.5q0 -2 1 50.5t1 85.5q0 -1 -1 3t-1 8q0 -1 1.5 13.5t4.5 17.5v6
q-1 15 -3.5 52t-5.5 43l0.5 11.5t0.5 16.5q0 -1 2 8.5t2 15.5q0 -3 1.5 13t1.5 28q0 -1 0 19v22q0 -2 0 9v17q0 -1 -2.5 16t-4.5 19q5 0 5 25q0 -3 0 12v24l-2 13.5t4 21.5l-1 1.5zM936 566q-1 0 -6 -1.5t-3 -1.5q0 -1 -9 -8.5t-4 -4.5q-8 -4 -13 -20t-3 -19l-0.5 -12
l-0.5 -12q0 -9 6 -25l4 -8q6 -7 7 -12q3 -5 11 -15q2 -3 4.5 -6t5.5 -6q14 -16 30.5 -31t34.5 -31h0.5h0.5l0.5 -1t1.5 -2q38 -39 54 -67q13 -19 14 -19q9 -8 15 -31l6 -23q0 -21 -9 -60q0 -1 -4 -11q-21 -112 -141 -112q-64 0 -101 34q-33 23 -36 40q-6 28 -8.5 32.5
t-2.5 41.5q0 -2 0 11t0 12v6.5v5.5q-1 0 -2.5 3l-1.5 3l3.5 0.5t3.5 1.5v0.5t1 0.5v1h5q7 1 16.5 1h9.5q10 0 35 2.5l25 2.5q7 -7 7 2v-9.5v-9.5q0 3 0 -9.5t0 -9.5v-14.5t0 -8.5q2 -2 5.5 -11t2.5 -6q2 -3 3.5 -8l1.5 -5q24 -22 37.5 -16l13.5 6q25 9 23.5 42.5l-1.5 33.5
l-8.5 20.5t-10.5 21.5q-6 3 -22.5 22.5l-16.5 19.5q-6 10 -59.5 62t-55.5 58q-16 38 -13.5 80.5l2.5 42.5q2 0 5.5 17.5l3.5 17.5q0 -1 2 3q0 1 1 3l2 4v0.5v1.5l1 2q1 4 8 18q5 9 9.5 19l4.5 10q18 16 50 25l32 9q1 2 8 3.5l7 1.5h10h10q16 0 31 -5q8 -3 29.5 -15t26.5 -11
q1 -1 5 -4.5l4 -3.5l11.5 -13.5t11.5 -14.5q0 -6 5.5 -15l5.5 -9q0 -14 2 -11q5 0 5 -23l2 -18.5t2 -31.5l0.5 -3.5t0.5 -4.5l-0.5 -3l-0.5 -3h-3t-1 0q-6 0 -23.5 -1t-19.5 -1l-17 2.5t-32 2.5q-17 0 -12 43.5t-45 43.5z" />
    <glyph glyph-name=".notdef" unicode="&#x2260;" horiz-adv-x="2048" 
d="M478 55h-28q-36 -2 -37 -2h-14t-13 0h-5h-4v0.5v1.5h-2q-2 6 -2 9l-8 12l-2 19t-1 24q-3 -2 -2.5 11l0.5 13v3t2 6l-0.5 3.5t-0.5 6.5q0 10 3 8q-1 -1 0 10l1 11q0 -1 -2 6t-2 6l0.5 4t1.5 7q-1 -5 -1 9v8v10q0 -1 -2 12t-5 15l2 -2t-2 7q-1 -4 -6 8.5t-5 7.5
q0 3 -12 9.5l-12 6.5q-4 0 -4 1l-3.5 2t-4.5 2q0 -1 -11 2t-12 4h-16v-7t0 -3v-53v-58l1.5 -17t1.5 -16q0 -18 -1 -14q0 6 -5 -41v-33q1 -11 5 -14q0 -3 -5 -1v-4h-101v7h-1v0q-3 0 -4 5l-1 5q-3 -3 -3 13q0 -2 0 2v4v6v8q0 -1 0 25.5v47.5q0 -4 0 4.5v10.5q0 -2 0.5 4
l0.5 6l0.5 7.5t1.5 7.5l1.5 29.5t-1.5 36.5v7v7q-2 1 -4 66t1 60q-9 15 -2 45.5t7 45.5q0 -2 -2.5 16.5t-2.5 33.5q0 -1 0.5 34t0.5 62q0 -2 0 3.5v8.5l2 14.5t4 14.5q23 0 27.5 2.5t27.5 -4.5q1 0 40 -0.5t56 -3.5h3q144 0 149 -139q10 -44 4 -74q-2 -5 -4 -14t-5 -18
q-4 -20 -10 -32q-19 -53 -45 -50l-2 -1t-3 -1q66 -28 66 -135v-35q5 -62 1 -59q6 -27 4.5 -39t14.5 -42h-3h-7q0 -1 0.5 -1.5zM11 862q43 4 64 8.5t72 4.5q82 0 213 -5t199 -5q29 0 18.5 77.5t-2.5 111.5q23 102 19.5 279.5t-3.5 279.5q0 22 47.5 20t68.5 -2q0 -9 -2 -41
l-2 -32q22 -93 5 -216.5t-8 -197.5q4 -41 8.5 -151.5t-9.5 -143.5q-6 -16 71 -11.5t92 1.5q111 -23 199 -9.5t170 9.5q0 -159 0 -136t-96 3q-69 -15 -217.5 -3.5t-201.5 11.5q-16 0 -20.5 -46t-3.5 -101t4.5 -101t4.5 -46q30 -67 8 -160t-8 -165q18 -99 -16 -86t-95 1
q-3 -1 -6 79t-6 181t-5 193t-2 115q0 142 -4.5 152t-140.5 10q-14 0 -69 2.5t-116 5.5t-110 5.5l-49 2.5q-98 -21 -71 6t0 100zM869 1529q20 -6 21 -5h0.5t4.5 -2q-1 0 22.5 2.5l23.5 2.5h16h19l18.5 -2.5t15.5 -2.5q2 0 3.5 -1.5l1.5 -1.5l-1 -4t8 -16l4.5 -48t16.5 -74
q0 -1 1 -12.5t1 -12.5q-3 -2 14.5 -88.5t20.5 -99.5q-3 1 3.5 -37.5l6.5 -38.5q1 1 3.5 -10.5l2.5 -11.5l5 -39.5t9 -54.5q0 -4 3 -25t7 -23q-1 0 1 -6.5l2 -6.5q0 -3 -27 -3q-26 0 -25.5 -0.5t-14.5 5.5h-9.5t-4.5 0q-8 0 -10 -2l-7 -1.5t-10 1.5q-4 0 -6 11
q-2 4 -7.5 27.5t-4.5 24.5q0 -1 -4 18.5l-4 19.5q0 2 -1 2.5t-1 4.5h-11l-21.5 -2.5t-33.5 -2.5h-14.5h-8.5l-2.5 -0.5t-6.5 -0.5q-3 -6 -9.5 -40t-6.5 -37q2 0 -1 -13l-2 -7t-2 -6q0 -1 -41 -1.5l-41 -0.5l-4.5 0.5t-4.5 2.5q2 3 -6 1.5t-8 2.5q0 -3 4 6.5l4 9.5q0 -1 0 3
v4q-6 18 3 18q-5 0 5 14q0 -3 2 6t5 6v5.5v6.5q0 -1 0 9v17q0 -1 0 3.5v6.5l3.5 12.5t5.5 15.5q1 1 1 18l0.5 6t0.5 9l1 10l1 10q0 3 5 18q0 -2 4 21t4 32q0 13 2 15q-5 9 5 13l1 21.5t2 23.5q-3 -8 6.5 24.5t11.5 41.5q0 -2 0 4v6q0 -2 0 2.5t0 3.5q0 12 -1 13
q-1 0 -0.5 4.5l0.5 4.5v4v7q0 -8 7 39.5t11 53.5q-3 -6 3.5 27t6.5 22q0 17 2 17zM937 1384q3 -32 -12 -91.5t-15 -104.5q0 6 -3.5 -19t-3.5 -46l-0.5 -1.5t-4.5 -5.5l1 -2.5t3 -2.5h2.5h3.5q-2 0 21 -1.5t35 -1.5q-1 0 1 0h3q-1 0 0.5 0h2.5q2 0 3 2q0 -1 5 -1v3.5v5.5
q0 4 -3 7q0 4 -4 4v2.5v2.5v2t6 11q-4 4 -2 4l-3.5 7t-3.5 8q0 -4 -1 6.5t-1 16.5q0 -1 -3 10t-3 23l-1 2t-1 4l-0.5 2t-0.5 5l-2 5t-2 8l-0.5 9t-0.5 16v12.5t-6 26.5q-1 0 -3.5 16.5t-2.5 17.5q0 -1 -1 2.5l-1 3.5v5v10q0 2 -1 3l-1 1t-1 4l0.5 3.5t0.5 5.5zM105 1544
q5 4 20.5 3t24.5 -1h36.5h60.5l5 -18.5t7 -23.5q0 -1 6 -37.5l6 -36.5q1 -33 8.5 -69t7.5 -67q0 10 9 -44.5t11 -55.5q-1 0 -0.5 -11t1.5 -15l-0.5 -6t-0.5 -10v-2l1 2t2 3q0 -1 2 15t3 26l6 38t7 38l10.5 71.5t11.5 71.5q-2 -2 6.5 32l8.5 34q-1 0 -0.5 15t0.5 18l1 6.5
t2 10.5q-1 0 2.5 8.5t5.5 9.5q6 6 17 -4q-2 1 11 -1h82q-4 -1 14 2q0 -1 14 -0.5t17 0.5l-5 -40.5t-5 -41.5l5 -41.5t1 -69.5q-4 -22 -5 -54t-1 -56l1 -33.5l1 -33.5q0 -9 1 -16.5t1 -13.5l-4 -6v-40t5 -46l-2.5 -39t-2.5 -48v-7v-7v-6t4 -9l1.5 -5.5t-2.5 -4.5
q1 0 -5.5 -0.5t-12.5 -0.5l-25.5 -2t-40.5 -2q1 0 -2.5 0h-3.5q4 0 -2.5 -0.5t-7.5 -0.5q-6 0 -4.5 25t1.5 34q0 -3 -2 22.5l-2 25.5l1 40t1 51q0 -2 0 8v15v8.5v9.5q0 -2 0 13v24q0 -3 -1 11t-1 23q0 -2 0 4v9q0 -1 0 9v16q0 -1 0 3.5v6.5q0 -3 0 14.5v25.5
q0 -1 -14 -105.5l-14 -104.5q-2 -3 -9 -50.5t-7 -55.5l-4 -28.5t-4 -29.5q0 1 0 -1v-2q0 -2 -2 -2q1 0 -1.5 -3l-2.5 -3v-1.5t-2 -1.5v-4h-92l-2 11v0v0q-4 4 -4 14q0 -2 -3 23t-9 35q-3 3 -3 13q0 -4 -1 6t-1 14q0 -2 -0.5 5.5t-0.5 10.5l-4.5 19l-4.5 19q0 36 -14.5 83
t-13.5 93q0 2 -5 28.5t-5 30.5q0 -13 1 -65.5t8 -58.5l-1 -22.5l-1 -22.5l-3 -18t-5 -40v-67q2 -4 3 -5q-2 -4 0 -28t2 -30l2.5 -20t-7.5 -26v-2h-85v4h-11v4.5v6.5l1 5t1 8q0 -1 1.5 5.5t1.5 9.5q0 -2 1 50.5t1 85.5q0 -1 -1 3t-1 8q0 -1 1.5 13.5t4.5 17.5v6
q-1 15 -3.5 52t-5.5 43l0.5 11.5t0.5 16.5q0 -1 2 8.5t2 15.5q0 -3 1.5 13t1.5 28q0 -1 0 19v22q0 -2 0 9v17q0 -1 -2.5 16t-4.5 19q5 0 5 25q0 -3 0 12v24l-2 13.5t4 21.5l-1 1.5zM936 566q-1 0 -6 -1.5t-3 -1.5q0 -1 -9 -8.5t-4 -4.5q-8 -4 -13 -20t-3 -19l-0.5 -12
l-0.5 -12q0 -9 6 -25l4 -8q6 -7 7 -12q3 -5 11 -15q2 -3 4.5 -6t5.5 -6q14 -16 30.5 -31t34.5 -31h0.5h0.5l0.5 -1t1.5 -2q38 -39 54 -67q13 -19 14 -19q9 -8 15 -31l6 -23q0 -21 -9 -60q0 -1 -4 -11q-21 -112 -141 -112q-64 0 -101 34q-33 23 -36 40q-6 28 -8.5 32.5
t-2.5 41.5q0 -2 0 11t0 12v6.5v5.5q-1 0 -2.5 3l-1.5 3l3.5 0.5t3.5 1.5v0.5t1 0.5v1h5q7 1 16.5 1h9.5q10 0 35 2.5l25 2.5q7 -7 7 2v-9.5v-9.5q0 3 0 -9.5t0 -9.5v-14.5t0 -8.5q2 -2 5.5 -11t2.5 -6q2 -3 3.5 -8l1.5 -5q24 -22 37.5 -16l13.5 6q25 9 23.5 42.5l-1.5 33.5
l-8.5 20.5t-10.5 21.5q-6 3 -22.5 22.5l-16.5 19.5q-6 10 -59.5 62t-55.5 58q-16 38 -13.5 80.5l2.5 42.5q2 0 5.5 17.5l3.5 17.5q0 -1 2 3q0 1 1 3l2 4v0.5v1.5l1 2q1 4 8 18q5 9 9.5 19l4.5 10q18 16 50 25l32 9q1 2 8 3.5l7 1.5h10h10q16 0 31 -5q8 -3 29.5 -15t26.5 -11
q1 -1 5 -4.5l4 -3.5l11.5 -13.5t11.5 -14.5q0 -6 5.5 -15l5.5 -9q0 -14 2 -11q5 0 5 -23l2 -18.5t2 -31.5l0.5 -3.5t0.5 -4.5l-0.5 -3l-0.5 -3h-3t-1 0q-6 0 -23.5 -1t-19.5 -1l-17 2.5t-32 2.5q-17 0 -12 43.5t-45 43.5z" />
    <glyph glyph-name=".notdef" unicode="&#x2248;" horiz-adv-x="2048" 
d="M478 55h-28q-36 -2 -37 -2h-14t-13 0h-5h-4v0.5v1.5h-2q-2 6 -2 9l-8 12l-2 19t-1 24q-3 -2 -2.5 11l0.5 13v3t2 6l-0.5 3.5t-0.5 6.5q0 10 3 8q-1 -1 0 10l1 11q0 -1 -2 6t-2 6l0.5 4t1.5 7q-1 -5 -1 9v8v10q0 -1 -2 12t-5 15l2 -2t-2 7q-1 -4 -6 8.5t-5 7.5
q0 3 -12 9.5l-12 6.5q-4 0 -4 1l-3.5 2t-4.5 2q0 -1 -11 2t-12 4h-16v-7t0 -3v-53v-58l1.5 -17t1.5 -16q0 -18 -1 -14q0 6 -5 -41v-33q1 -11 5 -14q0 -3 -5 -1v-4h-101v7h-1v0q-3 0 -4 5l-1 5q-3 -3 -3 13q0 -2 0 2v4v6v8q0 -1 0 25.5v47.5q0 -4 0 4.5v10.5q0 -2 0.5 4
l0.5 6l0.5 7.5t1.5 7.5l1.5 29.5t-1.5 36.5v7v7q-2 1 -4 66t1 60q-9 15 -2 45.5t7 45.5q0 -2 -2.5 16.5t-2.5 33.5q0 -1 0.5 34t0.5 62q0 -2 0 3.5v8.5l2 14.5t4 14.5q23 0 27.5 2.5t27.5 -4.5q1 0 40 -0.5t56 -3.5h3q144 0 149 -139q10 -44 4 -74q-2 -5 -4 -14t-5 -18
q-4 -20 -10 -32q-19 -53 -45 -50l-2 -1t-3 -1q66 -28 66 -135v-35q5 -62 1 -59q6 -27 4.5 -39t14.5 -42h-3h-7q0 -1 0.5 -1.5zM11 862q43 4 64 8.5t72 4.5q82 0 213 -5t199 -5q29 0 18.5 77.5t-2.5 111.5q23 102 19.5 279.5t-3.5 279.5q0 22 47.5 20t68.5 -2q0 -9 -2 -41
l-2 -32q22 -93 5 -216.5t-8 -197.5q4 -41 8.5 -151.5t-9.5 -143.5q-6 -16 71 -11.5t92 1.5q111 -23 199 -9.5t170 9.5q0 -159 0 -136t-96 3q-69 -15 -217.5 -3.5t-201.5 11.5q-16 0 -20.5 -46t-3.5 -101t4.5 -101t4.5 -46q30 -67 8 -160t-8 -165q18 -99 -16 -86t-95 1
q-3 -1 -6 79t-6 181t-5 193t-2 115q0 142 -4.5 152t-140.5 10q-14 0 -69 2.5t-116 5.5t-110 5.5l-49 2.5q-98 -21 -71 6t0 100zM869 1529q20 -6 21 -5h0.5t4.5 -2q-1 0 22.5 2.5l23.5 2.5h16h19l18.5 -2.5t15.5 -2.5q2 0 3.5 -1.5l1.5 -1.5l-1 -4t8 -16l4.5 -48t16.5 -74
q0 -1 1 -12.5t1 -12.5q-3 -2 14.5 -88.5t20.5 -99.5q-3 1 3.5 -37.5l6.5 -38.5q1 1 3.5 -10.5l2.5 -11.5l5 -39.5t9 -54.5q0 -4 3 -25t7 -23q-1 0 1 -6.5l2 -6.5q0 -3 -27 -3q-26 0 -25.5 -0.5t-14.5 5.5h-9.5t-4.5 0q-8 0 -10 -2l-7 -1.5t-10 1.5q-4 0 -6 11
q-2 4 -7.5 27.5t-4.5 24.5q0 -1 -4 18.5l-4 19.5q0 2 -1 2.5t-1 4.5h-11l-21.5 -2.5t-33.5 -2.5h-14.5h-8.5l-2.5 -0.5t-6.5 -0.5q-3 -6 -9.5 -40t-6.5 -37q2 0 -1 -13l-2 -7t-2 -6q0 -1 -41 -1.5l-41 -0.5l-4.5 0.5t-4.5 2.5q2 3 -6 1.5t-8 2.5q0 -3 4 6.5l4 9.5q0 -1 0 3
v4q-6 18 3 18q-5 0 5 14q0 -3 2 6t5 6v5.5v6.5q0 -1 0 9v17q0 -1 0 3.5v6.5l3.5 12.5t5.5 15.5q1 1 1 18l0.5 6t0.5 9l1 10l1 10q0 3 5 18q0 -2 4 21t4 32q0 13 2 15q-5 9 5 13l1 21.5t2 23.5q-3 -8 6.5 24.5t11.5 41.5q0 -2 0 4v6q0 -2 0 2.5t0 3.5q0 12 -1 13
q-1 0 -0.5 4.5l0.5 4.5v4v7q0 -8 7 39.5t11 53.5q-3 -6 3.5 27t6.5 22q0 17 2 17zM937 1384q3 -32 -12 -91.5t-15 -104.5q0 6 -3.5 -19t-3.5 -46l-0.5 -1.5t-4.5 -5.5l1 -2.5t3 -2.5h2.5h3.5q-2 0 21 -1.5t35 -1.5q-1 0 1 0h3q-1 0 0.5 0h2.5q2 0 3 2q0 -1 5 -1v3.5v5.5
q0 4 -3 7q0 4 -4 4v2.5v2.5v2t6 11q-4 4 -2 4l-3.5 7t-3.5 8q0 -4 -1 6.5t-1 16.5q0 -1 -3 10t-3 23l-1 2t-1 4l-0.5 2t-0.5 5l-2 5t-2 8l-0.5 9t-0.5 16v12.5t-6 26.5q-1 0 -3.5 16.5t-2.5 17.5q0 -1 -1 2.5l-1 3.5v5v10q0 2 -1 3l-1 1t-1 4l0.5 3.5t0.5 5.5zM105 1544
q5 4 20.5 3t24.5 -1h36.5h60.5l5 -18.5t7 -23.5q0 -1 6 -37.5l6 -36.5q1 -33 8.5 -69t7.5 -67q0 10 9 -44.5t11 -55.5q-1 0 -0.5 -11t1.5 -15l-0.5 -6t-0.5 -10v-2l1 2t2 3q0 -1 2 15t3 26l6 38t7 38l10.5 71.5t11.5 71.5q-2 -2 6.5 32l8.5 34q-1 0 -0.5 15t0.5 18l1 6.5
t2 10.5q-1 0 2.5 8.5t5.5 9.5q6 6 17 -4q-2 1 11 -1h82q-4 -1 14 2q0 -1 14 -0.5t17 0.5l-5 -40.5t-5 -41.5l5 -41.5t1 -69.5q-4 -22 -5 -54t-1 -56l1 -33.5l1 -33.5q0 -9 1 -16.5t1 -13.5l-4 -6v-40t5 -46l-2.5 -39t-2.5 -48v-7v-7v-6t4 -9l1.5 -5.5t-2.5 -4.5
q1 0 -5.5 -0.5t-12.5 -0.5l-25.5 -2t-40.5 -2q1 0 -2.5 0h-3.5q4 0 -2.5 -0.5t-7.5 -0.5q-6 0 -4.5 25t1.5 34q0 -3 -2 22.5l-2 25.5l1 40t1 51q0 -2 0 8v15v8.5v9.5q0 -2 0 13v24q0 -3 -1 11t-1 23q0 -2 0 4v9q0 -1 0 9v16q0 -1 0 3.5v6.5q0 -3 0 14.5v25.5
q0 -1 -14 -105.5l-14 -104.5q-2 -3 -9 -50.5t-7 -55.5l-4 -28.5t-4 -29.5q0 1 0 -1v-2q0 -2 -2 -2q1 0 -1.5 -3l-2.5 -3v-1.5t-2 -1.5v-4h-92l-2 11v0v0q-4 4 -4 14q0 -2 -3 23t-9 35q-3 3 -3 13q0 -4 -1 6t-1 14q0 -2 -0.5 5.5t-0.5 10.5l-4.5 19l-4.5 19q0 36 -14.5 83
t-13.5 93q0 2 -5 28.5t-5 30.5q0 -13 1 -65.5t8 -58.5l-1 -22.5l-1 -22.5l-3 -18t-5 -40v-67q2 -4 3 -5q-2 -4 0 -28t2 -30l2.5 -20t-7.5 -26v-2h-85v4h-11v4.5v6.5l1 5t1 8q0 -1 1.5 5.5t1.5 9.5q0 -2 1 50.5t1 85.5q0 -1 -1 3t-1 8q0 -1 1.5 13.5t4.5 17.5v6
q-1 15 -3.5 52t-5.5 43l0.5 11.5t0.5 16.5q0 -1 2 8.5t2 15.5q0 -3 1.5 13t1.5 28q0 -1 0 19v22q0 -2 0 9v17q0 -1 -2.5 16t-4.5 19q5 0 5 25q0 -3 0 12v24l-2 13.5t4 21.5l-1 1.5zM936 566q-1 0 -6 -1.5t-3 -1.5q0 -1 -9 -8.5t-4 -4.5q-8 -4 -13 -20t-3 -19l-0.5 -12
l-0.5 -12q0 -9 6 -25l4 -8q6 -7 7 -12q3 -5 11 -15q2 -3 4.5 -6t5.5 -6q14 -16 30.5 -31t34.5 -31h0.5h0.5l0.5 -1t1.5 -2q38 -39 54 -67q13 -19 14 -19q9 -8 15 -31l6 -23q0 -21 -9 -60q0 -1 -4 -11q-21 -112 -141 -112q-64 0 -101 34q-33 23 -36 40q-6 28 -8.5 32.5
t-2.5 41.5q0 -2 0 11t0 12v6.5v5.5q-1 0 -2.5 3l-1.5 3l3.5 0.5t3.5 1.5v0.5t1 0.5v1h5q7 1 16.5 1h9.5q10 0 35 2.5l25 2.5q7 -7 7 2v-9.5v-9.5q0 3 0 -9.5t0 -9.5v-14.5t0 -8.5q2 -2 5.5 -11t2.5 -6q2 -3 3.5 -8l1.5 -5q24 -22 37.5 -16l13.5 6q25 9 23.5 42.5l-1.5 33.5
l-8.5 20.5t-10.5 21.5q-6 3 -22.5 22.5l-16.5 19.5q-6 10 -59.5 62t-55.5 58q-16 38 -13.5 80.5l2.5 42.5q2 0 5.5 17.5l3.5 17.5q0 -1 2 3q0 1 1 3l2 4v0.5v1.5l1 2q1 4 8 18q5 9 9.5 19l4.5 10q18 16 50 25l32 9q1 2 8 3.5l7 1.5h10h10q16 0 31 -5q8 -3 29.5 -15t26.5 -11
q1 -1 5 -4.5l4 -3.5l11.5 -13.5t11.5 -14.5q0 -6 5.5 -15l5.5 -9q0 -14 2 -11q5 0 5 -23l2 -18.5t2 -31.5l0.5 -3.5t0.5 -4.5l-0.5 -3l-0.5 -3h-3t-1 0q-6 0 -23.5 -1t-19.5 -1l-17 2.5t-32 2.5q-17 0 -12 43.5t-45 43.5z" />
    <glyph glyph-name=".notdef" unicode="&#x222b;" horiz-adv-x="2048" 
d="M478 55h-28q-36 -2 -37 -2h-14t-13 0h-5h-4v0.5v1.5h-2q-2 6 -2 9l-8 12l-2 19t-1 24q-3 -2 -2.5 11l0.5 13v3t2 6l-0.5 3.5t-0.5 6.5q0 10 3 8q-1 -1 0 10l1 11q0 -1 -2 6t-2 6l0.5 4t1.5 7q-1 -5 -1 9v8v10q0 -1 -2 12t-5 15l2 -2t-2 7q-1 -4 -6 8.5t-5 7.5
q0 3 -12 9.5l-12 6.5q-4 0 -4 1l-3.5 2t-4.5 2q0 -1 -11 2t-12 4h-16v-7t0 -3v-53v-58l1.5 -17t1.5 -16q0 -18 -1 -14q0 6 -5 -41v-33q1 -11 5 -14q0 -3 -5 -1v-4h-101v7h-1v0q-3 0 -4 5l-1 5q-3 -3 -3 13q0 -2 0 2v4v6v8q0 -1 0 25.5v47.5q0 -4 0 4.5v10.5q0 -2 0.5 4
l0.5 6l0.5 7.5t1.5 7.5l1.5 29.5t-1.5 36.5v7v7q-2 1 -4 66t1 60q-9 15 -2 45.5t7 45.5q0 -2 -2.5 16.5t-2.5 33.5q0 -1 0.5 34t0.5 62q0 -2 0 3.5v8.5l2 14.5t4 14.5q23 0 27.5 2.5t27.5 -4.5q1 0 40 -0.5t56 -3.5h3q144 0 149 -139q10 -44 4 -74q-2 -5 -4 -14t-5 -18
q-4 -20 -10 -32q-19 -53 -45 -50l-2 -1t-3 -1q66 -28 66 -135v-35q5 -62 1 -59q6 -27 4.5 -39t14.5 -42h-3h-7q0 -1 0.5 -1.5zM11 862q43 4 64 8.5t72 4.5q82 0 213 -5t199 -5q29 0 18.5 77.5t-2.5 111.5q23 102 19.5 279.5t-3.5 279.5q0 22 47.5 20t68.5 -2q0 -9 -2 -41
l-2 -32q22 -93 5 -216.5t-8 -197.5q4 -41 8.5 -151.5t-9.5 -143.5q-6 -16 71 -11.5t92 1.5q111 -23 199 -9.5t170 9.5q0 -159 0 -136t-96 3q-69 -15 -217.5 -3.5t-201.5 11.5q-16 0 -20.5 -46t-3.5 -101t4.5 -101t4.5 -46q30 -67 8 -160t-8 -165q18 -99 -16 -86t-95 1
q-3 -1 -6 79t-6 181t-5 193t-2 115q0 142 -4.5 152t-140.5 10q-14 0 -69 2.5t-116 5.5t-110 5.5l-49 2.5q-98 -21 -71 6t0 100zM869 1529q20 -6 21 -5h0.5t4.5 -2q-1 0 22.5 2.5l23.5 2.5h16h19l18.5 -2.5t15.5 -2.5q2 0 3.5 -1.5l1.5 -1.5l-1 -4t8 -16l4.5 -48t16.5 -74
q0 -1 1 -12.5t1 -12.5q-3 -2 14.5 -88.5t20.5 -99.5q-3 1 3.5 -37.5l6.5 -38.5q1 1 3.5 -10.5l2.5 -11.5l5 -39.5t9 -54.5q0 -4 3 -25t7 -23q-1 0 1 -6.5l2 -6.5q0 -3 -27 -3q-26 0 -25.5 -0.5t-14.5 5.5h-9.5t-4.5 0q-8 0 -10 -2l-7 -1.5t-10 1.5q-4 0 -6 11
q-2 4 -7.5 27.5t-4.5 24.5q0 -1 -4 18.5l-4 19.5q0 2 -1 2.5t-1 4.5h-11l-21.5 -2.5t-33.5 -2.5h-14.5h-8.5l-2.5 -0.5t-6.5 -0.5q-3 -6 -9.5 -40t-6.5 -37q2 0 -1 -13l-2 -7t-2 -6q0 -1 -41 -1.5l-41 -0.5l-4.5 0.5t-4.5 2.5q2 3 -6 1.5t-8 2.5q0 -3 4 6.5l4 9.5q0 -1 0 3
v4q-6 18 3 18q-5 0 5 14q0 -3 2 6t5 6v5.5v6.5q0 -1 0 9v17q0 -1 0 3.5v6.5l3.5 12.5t5.5 15.5q1 1 1 18l0.5 6t0.5 9l1 10l1 10q0 3 5 18q0 -2 4 21t4 32q0 13 2 15q-5 9 5 13l1 21.5t2 23.5q-3 -8 6.5 24.5t11.5 41.5q0 -2 0 4v6q0 -2 0 2.5t0 3.5q0 12 -1 13
q-1 0 -0.5 4.5l0.5 4.5v4v7q0 -8 7 39.5t11 53.5q-3 -6 3.5 27t6.5 22q0 17 2 17zM937 1384q3 -32 -12 -91.5t-15 -104.5q0 6 -3.5 -19t-3.5 -46l-0.5 -1.5t-4.5 -5.5l1 -2.5t3 -2.5h2.5h3.5q-2 0 21 -1.5t35 -1.5q-1 0 1 0h3q-1 0 0.5 0h2.5q2 0 3 2q0 -1 5 -1v3.5v5.5
q0 4 -3 7q0 4 -4 4v2.5v2.5v2t6 11q-4 4 -2 4l-3.5 7t-3.5 8q0 -4 -1 6.5t-1 16.5q0 -1 -3 10t-3 23l-1 2t-1 4l-0.5 2t-0.5 5l-2 5t-2 8l-0.5 9t-0.5 16v12.5t-6 26.5q-1 0 -3.5 16.5t-2.5 17.5q0 -1 -1 2.5l-1 3.5v5v10q0 2 -1 3l-1 1t-1 4l0.5 3.5t0.5 5.5zM105 1544
q5 4 20.5 3t24.5 -1h36.5h60.5l5 -18.5t7 -23.5q0 -1 6 -37.5l6 -36.5q1 -33 8.5 -69t7.5 -67q0 10 9 -44.5t11 -55.5q-1 0 -0.5 -11t1.5 -15l-0.5 -6t-0.5 -10v-2l1 2t2 3q0 -1 2 15t3 26l6 38t7 38l10.5 71.5t11.5 71.5q-2 -2 6.5 32l8.5 34q-1 0 -0.5 15t0.5 18l1 6.5
t2 10.5q-1 0 2.5 8.5t5.5 9.5q6 6 17 -4q-2 1 11 -1h82q-4 -1 14 2q0 -1 14 -0.5t17 0.5l-5 -40.5t-5 -41.5l5 -41.5t1 -69.5q-4 -22 -5 -54t-1 -56l1 -33.5l1 -33.5q0 -9 1 -16.5t1 -13.5l-4 -6v-40t5 -46l-2.5 -39t-2.5 -48v-7v-7v-6t4 -9l1.5 -5.5t-2.5 -4.5
q1 0 -5.5 -0.5t-12.5 -0.5l-25.5 -2t-40.5 -2q1 0 -2.5 0h-3.5q4 0 -2.5 -0.5t-7.5 -0.5q-6 0 -4.5 25t1.5 34q0 -3 -2 22.5l-2 25.5l1 40t1 51q0 -2 0 8v15v8.5v9.5q0 -2 0 13v24q0 -3 -1 11t-1 23q0 -2 0 4v9q0 -1 0 9v16q0 -1 0 3.5v6.5q0 -3 0 14.5v25.5
q0 -1 -14 -105.5l-14 -104.5q-2 -3 -9 -50.5t-7 -55.5l-4 -28.5t-4 -29.5q0 1 0 -1v-2q0 -2 -2 -2q1 0 -1.5 -3l-2.5 -3v-1.5t-2 -1.5v-4h-92l-2 11v0v0q-4 4 -4 14q0 -2 -3 23t-9 35q-3 3 -3 13q0 -4 -1 6t-1 14q0 -2 -0.5 5.5t-0.5 10.5l-4.5 19l-4.5 19q0 36 -14.5 83
t-13.5 93q0 2 -5 28.5t-5 30.5q0 -13 1 -65.5t8 -58.5l-1 -22.5l-1 -22.5l-3 -18t-5 -40v-67q2 -4 3 -5q-2 -4 0 -28t2 -30l2.5 -20t-7.5 -26v-2h-85v4h-11v4.5v6.5l1 5t1 8q0 -1 1.5 5.5t1.5 9.5q0 -2 1 50.5t1 85.5q0 -1 -1 3t-1 8q0 -1 1.5 13.5t4.5 17.5v6
q-1 15 -3.5 52t-5.5 43l0.5 11.5t0.5 16.5q0 -1 2 8.5t2 15.5q0 -3 1.5 13t1.5 28q0 -1 0 19v22q0 -2 0 9v17q0 -1 -2.5 16t-4.5 19q5 0 5 25q0 -3 0 12v24l-2 13.5t4 21.5l-1 1.5zM936 566q-1 0 -6 -1.5t-3 -1.5q0 -1 -9 -8.5t-4 -4.5q-8 -4 -13 -20t-3 -19l-0.5 -12
l-0.5 -12q0 -9 6 -25l4 -8q6 -7 7 -12q3 -5 11 -15q2 -3 4.5 -6t5.5 -6q14 -16 30.5 -31t34.5 -31h0.5h0.5l0.5 -1t1.5 -2q38 -39 54 -67q13 -19 14 -19q9 -8 15 -31l6 -23q0 -21 -9 -60q0 -1 -4 -11q-21 -112 -141 -112q-64 0 -101 34q-33 23 -36 40q-6 28 -8.5 32.5
t-2.5 41.5q0 -2 0 11t0 12v6.5v5.5q-1 0 -2.5 3l-1.5 3l3.5 0.5t3.5 1.5v0.5t1 0.5v1h5q7 1 16.5 1h9.5q10 0 35 2.5l25 2.5q7 -7 7 2v-9.5v-9.5q0 3 0 -9.5t0 -9.5v-14.5t0 -8.5q2 -2 5.5 -11t2.5 -6q2 -3 3.5 -8l1.5 -5q24 -22 37.5 -16l13.5 6q25 9 23.5 42.5l-1.5 33.5
l-8.5 20.5t-10.5 21.5q-6 3 -22.5 22.5l-16.5 19.5q-6 10 -59.5 62t-55.5 58q-16 38 -13.5 80.5l2.5 42.5q2 0 5.5 17.5l3.5 17.5q0 -1 2 3q0 1 1 3l2 4v0.5v1.5l1 2q1 4 8 18q5 9 9.5 19l4.5 10q18 16 50 25l32 9q1 2 8 3.5l7 1.5h10h10q16 0 31 -5q8 -3 29.5 -15t26.5 -11
q1 -1 5 -4.5l4 -3.5l11.5 -13.5t11.5 -14.5q0 -6 5.5 -15l5.5 -9q0 -14 2 -11q5 0 5 -23l2 -18.5t2 -31.5l0.5 -3.5t0.5 -4.5l-0.5 -3l-0.5 -3h-3t-1 0q-6 0 -23.5 -1t-19.5 -1l-17 2.5t-32 2.5q-17 0 -12 43.5t-45 43.5z" />
    <glyph glyph-name=".notdef" unicode="&#x221e;" horiz-adv-x="2048" 
d="M478 55h-28q-36 -2 -37 -2h-14t-13 0h-5h-4v0.5v1.5h-2q-2 6 -2 9l-8 12l-2 19t-1 24q-3 -2 -2.5 11l0.5 13v3t2 6l-0.5 3.5t-0.5 6.5q0 10 3 8q-1 -1 0 10l1 11q0 -1 -2 6t-2 6l0.5 4t1.5 7q-1 -5 -1 9v8v10q0 -1 -2 12t-5 15l2 -2t-2 7q-1 -4 -6 8.5t-5 7.5
q0 3 -12 9.5l-12 6.5q-4 0 -4 1l-3.5 2t-4.5 2q0 -1 -11 2t-12 4h-16v-7t0 -3v-53v-58l1.5 -17t1.5 -16q0 -18 -1 -14q0 6 -5 -41v-33q1 -11 5 -14q0 -3 -5 -1v-4h-101v7h-1v0q-3 0 -4 5l-1 5q-3 -3 -3 13q0 -2 0 2v4v6v8q0 -1 0 25.5v47.5q0 -4 0 4.5v10.5q0 -2 0.5 4
l0.5 6l0.5 7.5t1.5 7.5l1.5 29.5t-1.5 36.5v7v7q-2 1 -4 66t1 60q-9 15 -2 45.5t7 45.5q0 -2 -2.5 16.5t-2.5 33.5q0 -1 0.5 34t0.5 62q0 -2 0 3.5v8.5l2 14.5t4 14.5q23 0 27.5 2.5t27.5 -4.5q1 0 40 -0.5t56 -3.5h3q144 0 149 -139q10 -44 4 -74q-2 -5 -4 -14t-5 -18
q-4 -20 -10 -32q-19 -53 -45 -50l-2 -1t-3 -1q66 -28 66 -135v-35q5 -62 1 -59q6 -27 4.5 -39t14.5 -42h-3h-7q0 -1 0.5 -1.5zM11 862q43 4 64 8.5t72 4.5q82 0 213 -5t199 -5q29 0 18.5 77.5t-2.5 111.5q23 102 19.5 279.5t-3.5 279.5q0 22 47.5 20t68.5 -2q0 -9 -2 -41
l-2 -32q22 -93 5 -216.5t-8 -197.5q4 -41 8.5 -151.5t-9.5 -143.5q-6 -16 71 -11.5t92 1.5q111 -23 199 -9.5t170 9.5q0 -159 0 -136t-96 3q-69 -15 -217.5 -3.5t-201.5 11.5q-16 0 -20.5 -46t-3.5 -101t4.5 -101t4.5 -46q30 -67 8 -160t-8 -165q18 -99 -16 -86t-95 1
q-3 -1 -6 79t-6 181t-5 193t-2 115q0 142 -4.5 152t-140.5 10q-14 0 -69 2.5t-116 5.5t-110 5.5l-49 2.5q-98 -21 -71 6t0 100zM869 1529q20 -6 21 -5h0.5t4.5 -2q-1 0 22.5 2.5l23.5 2.5h16h19l18.5 -2.5t15.5 -2.5q2 0 3.5 -1.5l1.5 -1.5l-1 -4t8 -16l4.5 -48t16.5 -74
q0 -1 1 -12.5t1 -12.5q-3 -2 14.5 -88.5t20.5 -99.5q-3 1 3.5 -37.5l6.5 -38.5q1 1 3.5 -10.5l2.5 -11.5l5 -39.5t9 -54.5q0 -4 3 -25t7 -23q-1 0 1 -6.5l2 -6.5q0 -3 -27 -3q-26 0 -25.5 -0.5t-14.5 5.5h-9.5t-4.5 0q-8 0 -10 -2l-7 -1.5t-10 1.5q-4 0 -6 11
q-2 4 -7.5 27.5t-4.5 24.5q0 -1 -4 18.5l-4 19.5q0 2 -1 2.5t-1 4.5h-11l-21.5 -2.5t-33.5 -2.5h-14.5h-8.5l-2.5 -0.5t-6.5 -0.5q-3 -6 -9.5 -40t-6.5 -37q2 0 -1 -13l-2 -7t-2 -6q0 -1 -41 -1.5l-41 -0.5l-4.5 0.5t-4.5 2.5q2 3 -6 1.5t-8 2.5q0 -3 4 6.5l4 9.5q0 -1 0 3
v4q-6 18 3 18q-5 0 5 14q0 -3 2 6t5 6v5.5v6.5q0 -1 0 9v17q0 -1 0 3.5v6.5l3.5 12.5t5.5 15.5q1 1 1 18l0.5 6t0.5 9l1 10l1 10q0 3 5 18q0 -2 4 21t4 32q0 13 2 15q-5 9 5 13l1 21.5t2 23.5q-3 -8 6.5 24.5t11.5 41.5q0 -2 0 4v6q0 -2 0 2.5t0 3.5q0 12 -1 13
q-1 0 -0.5 4.5l0.5 4.5v4v7q0 -8 7 39.5t11 53.5q-3 -6 3.5 27t6.5 22q0 17 2 17zM937 1384q3 -32 -12 -91.5t-15 -104.5q0 6 -3.5 -19t-3.5 -46l-0.5 -1.5t-4.5 -5.5l1 -2.5t3 -2.5h2.5h3.5q-2 0 21 -1.5t35 -1.5q-1 0 1 0h3q-1 0 0.5 0h2.5q2 0 3 2q0 -1 5 -1v3.5v5.5
q0 4 -3 7q0 4 -4 4v2.5v2.5v2t6 11q-4 4 -2 4l-3.5 7t-3.5 8q0 -4 -1 6.5t-1 16.5q0 -1 -3 10t-3 23l-1 2t-1 4l-0.5 2t-0.5 5l-2 5t-2 8l-0.5 9t-0.5 16v12.5t-6 26.5q-1 0 -3.5 16.5t-2.5 17.5q0 -1 -1 2.5l-1 3.5v5v10q0 2 -1 3l-1 1t-1 4l0.5 3.5t0.5 5.5zM105 1544
q5 4 20.5 3t24.5 -1h36.5h60.5l5 -18.5t7 -23.5q0 -1 6 -37.5l6 -36.5q1 -33 8.5 -69t7.5 -67q0 10 9 -44.5t11 -55.5q-1 0 -0.5 -11t1.5 -15l-0.5 -6t-0.5 -10v-2l1 2t2 3q0 -1 2 15t3 26l6 38t7 38l10.5 71.5t11.5 71.5q-2 -2 6.5 32l8.5 34q-1 0 -0.5 15t0.5 18l1 6.5
t2 10.5q-1 0 2.5 8.5t5.5 9.5q6 6 17 -4q-2 1 11 -1h82q-4 -1 14 2q0 -1 14 -0.5t17 0.5l-5 -40.5t-5 -41.5l5 -41.5t1 -69.5q-4 -22 -5 -54t-1 -56l1 -33.5l1 -33.5q0 -9 1 -16.5t1 -13.5l-4 -6v-40t5 -46l-2.5 -39t-2.5 -48v-7v-7v-6t4 -9l1.5 -5.5t-2.5 -4.5
q1 0 -5.5 -0.5t-12.5 -0.5l-25.5 -2t-40.5 -2q1 0 -2.5 0h-3.5q4 0 -2.5 -0.5t-7.5 -0.5q-6 0 -4.5 25t1.5 34q0 -3 -2 22.5l-2 25.5l1 40t1 51q0 -2 0 8v15v8.5v9.5q0 -2 0 13v24q0 -3 -1 11t-1 23q0 -2 0 4v9q0 -1 0 9v16q0 -1 0 3.5v6.5q0 -3 0 14.5v25.5
q0 -1 -14 -105.5l-14 -104.5q-2 -3 -9 -50.5t-7 -55.5l-4 -28.5t-4 -29.5q0 1 0 -1v-2q0 -2 -2 -2q1 0 -1.5 -3l-2.5 -3v-1.5t-2 -1.5v-4h-92l-2 11v0v0q-4 4 -4 14q0 -2 -3 23t-9 35q-3 3 -3 13q0 -4 -1 6t-1 14q0 -2 -0.5 5.5t-0.5 10.5l-4.5 19l-4.5 19q0 36 -14.5 83
t-13.5 93q0 2 -5 28.5t-5 30.5q0 -13 1 -65.5t8 -58.5l-1 -22.5l-1 -22.5l-3 -18t-5 -40v-67q2 -4 3 -5q-2 -4 0 -28t2 -30l2.5 -20t-7.5 -26v-2h-85v4h-11v4.5v6.5l1 5t1 8q0 -1 1.5 5.5t1.5 9.5q0 -2 1 50.5t1 85.5q0 -1 -1 3t-1 8q0 -1 1.5 13.5t4.5 17.5v6
q-1 15 -3.5 52t-5.5 43l0.5 11.5t0.5 16.5q0 -1 2 8.5t2 15.5q0 -3 1.5 13t1.5 28q0 -1 0 19v22q0 -2 0 9v17q0 -1 -2.5 16t-4.5 19q5 0 5 25q0 -3 0 12v24l-2 13.5t4 21.5l-1 1.5zM936 566q-1 0 -6 -1.5t-3 -1.5q0 -1 -9 -8.5t-4 -4.5q-8 -4 -13 -20t-3 -19l-0.5 -12
l-0.5 -12q0 -9 6 -25l4 -8q6 -7 7 -12q3 -5 11 -15q2 -3 4.5 -6t5.5 -6q14 -16 30.5 -31t34.5 -31h0.5h0.5l0.5 -1t1.5 -2q38 -39 54 -67q13 -19 14 -19q9 -8 15 -31l6 -23q0 -21 -9 -60q0 -1 -4 -11q-21 -112 -141 -112q-64 0 -101 34q-33 23 -36 40q-6 28 -8.5 32.5
t-2.5 41.5q0 -2 0 11t0 12v6.5v5.5q-1 0 -2.5 3l-1.5 3l3.5 0.5t3.5 1.5v0.5t1 0.5v1h5q7 1 16.5 1h9.5q10 0 35 2.5l25 2.5q7 -7 7 2v-9.5v-9.5q0 3 0 -9.5t0 -9.5v-14.5t0 -8.5q2 -2 5.5 -11t2.5 -6q2 -3 3.5 -8l1.5 -5q24 -22 37.5 -16l13.5 6q25 9 23.5 42.5l-1.5 33.5
l-8.5 20.5t-10.5 21.5q-6 3 -22.5 22.5l-16.5 19.5q-6 10 -59.5 62t-55.5 58q-16 38 -13.5 80.5l2.5 42.5q2 0 5.5 17.5l3.5 17.5q0 -1 2 3q0 1 1 3l2 4v0.5v1.5l1 2q1 4 8 18q5 9 9.5 19l4.5 10q18 16 50 25l32 9q1 2 8 3.5l7 1.5h10h10q16 0 31 -5q8 -3 29.5 -15t26.5 -11
q1 -1 5 -4.5l4 -3.5l11.5 -13.5t11.5 -14.5q0 -6 5.5 -15l5.5 -9q0 -14 2 -11q5 0 5 -23l2 -18.5t2 -31.5l0.5 -3.5t0.5 -4.5l-0.5 -3l-0.5 -3h-3t-1 0q-6 0 -23.5 -1t-19.5 -1l-17 2.5t-32 2.5q-17 0 -12 43.5t-45 43.5z" />
    <glyph glyph-name=".notdef" unicode="&#x221a;" horiz-adv-x="2048" 
d="M478 55h-28q-36 -2 -37 -2h-14t-13 0h-5h-4v0.5v1.5h-2q-2 6 -2 9l-8 12l-2 19t-1 24q-3 -2 -2.5 11l0.5 13v3t2 6l-0.5 3.5t-0.5 6.5q0 10 3 8q-1 -1 0 10l1 11q0 -1 -2 6t-2 6l0.5 4t1.5 7q-1 -5 -1 9v8v10q0 -1 -2 12t-5 15l2 -2t-2 7q-1 -4 -6 8.5t-5 7.5
q0 3 -12 9.5l-12 6.5q-4 0 -4 1l-3.5 2t-4.5 2q0 -1 -11 2t-12 4h-16v-7t0 -3v-53v-58l1.5 -17t1.5 -16q0 -18 -1 -14q0 6 -5 -41v-33q1 -11 5 -14q0 -3 -5 -1v-4h-101v7h-1v0q-3 0 -4 5l-1 5q-3 -3 -3 13q0 -2 0 2v4v6v8q0 -1 0 25.5v47.5q0 -4 0 4.5v10.5q0 -2 0.5 4
l0.5 6l0.5 7.5t1.5 7.5l1.5 29.5t-1.5 36.5v7v7q-2 1 -4 66t1 60q-9 15 -2 45.5t7 45.5q0 -2 -2.5 16.5t-2.5 33.5q0 -1 0.5 34t0.5 62q0 -2 0 3.5v8.5l2 14.5t4 14.5q23 0 27.5 2.5t27.5 -4.5q1 0 40 -0.5t56 -3.5h3q144 0 149 -139q10 -44 4 -74q-2 -5 -4 -14t-5 -18
q-4 -20 -10 -32q-19 -53 -45 -50l-2 -1t-3 -1q66 -28 66 -135v-35q5 -62 1 -59q6 -27 4.5 -39t14.5 -42h-3h-7q0 -1 0.5 -1.5zM11 862q43 4 64 8.5t72 4.5q82 0 213 -5t199 -5q29 0 18.5 77.5t-2.5 111.5q23 102 19.5 279.5t-3.5 279.5q0 22 47.5 20t68.5 -2q0 -9 -2 -41
l-2 -32q22 -93 5 -216.5t-8 -197.5q4 -41 8.5 -151.5t-9.5 -143.5q-6 -16 71 -11.5t92 1.5q111 -23 199 -9.5t170 9.5q0 -159 0 -136t-96 3q-69 -15 -217.5 -3.5t-201.5 11.5q-16 0 -20.5 -46t-3.5 -101t4.5 -101t4.5 -46q30 -67 8 -160t-8 -165q18 -99 -16 -86t-95 1
q-3 -1 -6 79t-6 181t-5 193t-2 115q0 142 -4.5 152t-140.5 10q-14 0 -69 2.5t-116 5.5t-110 5.5l-49 2.5q-98 -21 -71 6t0 100zM869 1529q20 -6 21 -5h0.5t4.5 -2q-1 0 22.5 2.5l23.5 2.5h16h19l18.5 -2.5t15.5 -2.5q2 0 3.5 -1.5l1.5 -1.5l-1 -4t8 -16l4.5 -48t16.5 -74
q0 -1 1 -12.5t1 -12.5q-3 -2 14.5 -88.5t20.5 -99.5q-3 1 3.5 -37.5l6.5 -38.5q1 1 3.5 -10.5l2.5 -11.5l5 -39.5t9 -54.5q0 -4 3 -25t7 -23q-1 0 1 -6.5l2 -6.5q0 -3 -27 -3q-26 0 -25.5 -0.5t-14.5 5.5h-9.5t-4.5 0q-8 0 -10 -2l-7 -1.5t-10 1.5q-4 0 -6 11
q-2 4 -7.5 27.5t-4.5 24.5q0 -1 -4 18.5l-4 19.5q0 2 -1 2.5t-1 4.5h-11l-21.5 -2.5t-33.5 -2.5h-14.5h-8.5l-2.5 -0.5t-6.5 -0.5q-3 -6 -9.5 -40t-6.5 -37q2 0 -1 -13l-2 -7t-2 -6q0 -1 -41 -1.5l-41 -0.5l-4.5 0.5t-4.5 2.5q2 3 -6 1.5t-8 2.5q0 -3 4 6.5l4 9.5q0 -1 0 3
v4q-6 18 3 18q-5 0 5 14q0 -3 2 6t5 6v5.5v6.5q0 -1 0 9v17q0 -1 0 3.5v6.5l3.5 12.5t5.5 15.5q1 1 1 18l0.5 6t0.5 9l1 10l1 10q0 3 5 18q0 -2 4 21t4 32q0 13 2 15q-5 9 5 13l1 21.5t2 23.5q-3 -8 6.5 24.5t11.5 41.5q0 -2 0 4v6q0 -2 0 2.5t0 3.5q0 12 -1 13
q-1 0 -0.5 4.5l0.5 4.5v4v7q0 -8 7 39.5t11 53.5q-3 -6 3.5 27t6.5 22q0 17 2 17zM937 1384q3 -32 -12 -91.5t-15 -104.5q0 6 -3.5 -19t-3.5 -46l-0.5 -1.5t-4.5 -5.5l1 -2.5t3 -2.5h2.5h3.5q-2 0 21 -1.5t35 -1.5q-1 0 1 0h3q-1 0 0.5 0h2.5q2 0 3 2q0 -1 5 -1v3.5v5.5
q0 4 -3 7q0 4 -4 4v2.5v2.5v2t6 11q-4 4 -2 4l-3.5 7t-3.5 8q0 -4 -1 6.5t-1 16.5q0 -1 -3 10t-3 23l-1 2t-1 4l-0.5 2t-0.5 5l-2 5t-2 8l-0.5 9t-0.5 16v12.5t-6 26.5q-1 0 -3.5 16.5t-2.5 17.5q0 -1 -1 2.5l-1 3.5v5v10q0 2 -1 3l-1 1t-1 4l0.5 3.5t0.5 5.5zM105 1544
q5 4 20.5 3t24.5 -1h36.5h60.5l5 -18.5t7 -23.5q0 -1 6 -37.5l6 -36.5q1 -33 8.5 -69t7.5 -67q0 10 9 -44.5t11 -55.5q-1 0 -0.5 -11t1.5 -15l-0.5 -6t-0.5 -10v-2l1 2t2 3q0 -1 2 15t3 26l6 38t7 38l10.5 71.5t11.5 71.5q-2 -2 6.5 32l8.5 34q-1 0 -0.5 15t0.5 18l1 6.5
t2 10.5q-1 0 2.5 8.5t5.5 9.5q6 6 17 -4q-2 1 11 -1h82q-4 -1 14 2q0 -1 14 -0.5t17 0.5l-5 -40.5t-5 -41.5l5 -41.5t1 -69.5q-4 -22 -5 -54t-1 -56l1 -33.5l1 -33.5q0 -9 1 -16.5t1 -13.5l-4 -6v-40t5 -46l-2.5 -39t-2.5 -48v-7v-7v-6t4 -9l1.5 -5.5t-2.5 -4.5
q1 0 -5.5 -0.5t-12.5 -0.5l-25.5 -2t-40.5 -2q1 0 -2.5 0h-3.5q4 0 -2.5 -0.5t-7.5 -0.5q-6 0 -4.5 25t1.5 34q0 -3 -2 22.5l-2 25.5l1 40t1 51q0 -2 0 8v15v8.5v9.5q0 -2 0 13v24q0 -3 -1 11t-1 23q0 -2 0 4v9q0 -1 0 9v16q0 -1 0 3.5v6.5q0 -3 0 14.5v25.5
q0 -1 -14 -105.5l-14 -104.5q-2 -3 -9 -50.5t-7 -55.5l-4 -28.5t-4 -29.5q0 1 0 -1v-2q0 -2 -2 -2q1 0 -1.5 -3l-2.5 -3v-1.5t-2 -1.5v-4h-92l-2 11v0v0q-4 4 -4 14q0 -2 -3 23t-9 35q-3 3 -3 13q0 -4 -1 6t-1 14q0 -2 -0.5 5.5t-0.5 10.5l-4.5 19l-4.5 19q0 36 -14.5 83
t-13.5 93q0 2 -5 28.5t-5 30.5q0 -13 1 -65.5t8 -58.5l-1 -22.5l-1 -22.5l-3 -18t-5 -40v-67q2 -4 3 -5q-2 -4 0 -28t2 -30l2.5 -20t-7.5 -26v-2h-85v4h-11v4.5v6.5l1 5t1 8q0 -1 1.5 5.5t1.5 9.5q0 -2 1 50.5t1 85.5q0 -1 -1 3t-1 8q0 -1 1.5 13.5t4.5 17.5v6
q-1 15 -3.5 52t-5.5 43l0.5 11.5t0.5 16.5q0 -1 2 8.5t2 15.5q0 -3 1.5 13t1.5 28q0 -1 0 19v22q0 -2 0 9v17q0 -1 -2.5 16t-4.5 19q5 0 5 25q0 -3 0 12v24l-2 13.5t4 21.5l-1 1.5zM936 566q-1 0 -6 -1.5t-3 -1.5q0 -1 -9 -8.5t-4 -4.5q-8 -4 -13 -20t-3 -19l-0.5 -12
l-0.5 -12q0 -9 6 -25l4 -8q6 -7 7 -12q3 -5 11 -15q2 -3 4.5 -6t5.5 -6q14 -16 30.5 -31t34.5 -31h0.5h0.5l0.5 -1t1.5 -2q38 -39 54 -67q13 -19 14 -19q9 -8 15 -31l6 -23q0 -21 -9 -60q0 -1 -4 -11q-21 -112 -141 -112q-64 0 -101 34q-33 23 -36 40q-6 28 -8.5 32.5
t-2.5 41.5q0 -2 0 11t0 12v6.5v5.5q-1 0 -2.5 3l-1.5 3l3.5 0.5t3.5 1.5v0.5t1 0.5v1h5q7 1 16.5 1h9.5q10 0 35 2.5l25 2.5q7 -7 7 2v-9.5v-9.5q0 3 0 -9.5t0 -9.5v-14.5t0 -8.5q2 -2 5.5 -11t2.5 -6q2 -3 3.5 -8l1.5 -5q24 -22 37.5 -16l13.5 6q25 9 23.5 42.5l-1.5 33.5
l-8.5 20.5t-10.5 21.5q-6 3 -22.5 22.5l-16.5 19.5q-6 10 -59.5 62t-55.5 58q-16 38 -13.5 80.5l2.5 42.5q2 0 5.5 17.5l3.5 17.5q0 -1 2 3q0 1 1 3l2 4v0.5v1.5l1 2q1 4 8 18q5 9 9.5 19l4.5 10q18 16 50 25l32 9q1 2 8 3.5l7 1.5h10h10q16 0 31 -5q8 -3 29.5 -15t26.5 -11
q1 -1 5 -4.5l4 -3.5l11.5 -13.5t11.5 -14.5q0 -6 5.5 -15l5.5 -9q0 -14 2 -11q5 0 5 -23l2 -18.5t2 -31.5l0.5 -3.5t0.5 -4.5l-0.5 -3l-0.5 -3h-3t-1 0q-6 0 -23.5 -1t-19.5 -1l-17 2.5t-32 2.5q-17 0 -12 43.5t-45 43.5z" />
    <glyph glyph-name=".notdef" unicode="&#x2211;" horiz-adv-x="2048" 
d="M478 55h-28q-36 -2 -37 -2h-14t-13 0h-5h-4v0.5v1.5h-2q-2 6 -2 9l-8 12l-2 19t-1 24q-3 -2 -2.5 11l0.5 13v3t2 6l-0.5 3.5t-0.5 6.5q0 10 3 8q-1 -1 0 10l1 11q0 -1 -2 6t-2 6l0.5 4t1.5 7q-1 -5 -1 9v8v10q0 -1 -2 12t-5 15l2 -2t-2 7q-1 -4 -6 8.5t-5 7.5
q0 3 -12 9.5l-12 6.5q-4 0 -4 1l-3.5 2t-4.5 2q0 -1 -11 2t-12 4h-16v-7t0 -3v-53v-58l1.5 -17t1.5 -16q0 -18 -1 -14q0 6 -5 -41v-33q1 -11 5 -14q0 -3 -5 -1v-4h-101v7h-1v0q-3 0 -4 5l-1 5q-3 -3 -3 13q0 -2 0 2v4v6v8q0 -1 0 25.5v47.5q0 -4 0 4.5v10.5q0 -2 0.5 4
l0.5 6l0.5 7.5t1.5 7.5l1.5 29.5t-1.5 36.5v7v7q-2 1 -4 66t1 60q-9 15 -2 45.5t7 45.5q0 -2 -2.5 16.5t-2.5 33.5q0 -1 0.5 34t0.5 62q0 -2 0 3.5v8.5l2 14.5t4 14.5q23 0 27.5 2.5t27.5 -4.5q1 0 40 -0.5t56 -3.5h3q144 0 149 -139q10 -44 4 -74q-2 -5 -4 -14t-5 -18
q-4 -20 -10 -32q-19 -53 -45 -50l-2 -1t-3 -1q66 -28 66 -135v-35q5 -62 1 -59q6 -27 4.5 -39t14.5 -42h-3h-7q0 -1 0.5 -1.5zM11 862q43 4 64 8.5t72 4.5q82 0 213 -5t199 -5q29 0 18.5 77.5t-2.5 111.5q23 102 19.5 279.5t-3.5 279.5q0 22 47.5 20t68.5 -2q0 -9 -2 -41
l-2 -32q22 -93 5 -216.5t-8 -197.5q4 -41 8.5 -151.5t-9.5 -143.5q-6 -16 71 -11.5t92 1.5q111 -23 199 -9.5t170 9.5q0 -159 0 -136t-96 3q-69 -15 -217.5 -3.5t-201.5 11.5q-16 0 -20.5 -46t-3.5 -101t4.5 -101t4.5 -46q30 -67 8 -160t-8 -165q18 -99 -16 -86t-95 1
q-3 -1 -6 79t-6 181t-5 193t-2 115q0 142 -4.5 152t-140.5 10q-14 0 -69 2.5t-116 5.5t-110 5.5l-49 2.5q-98 -21 -71 6t0 100zM869 1529q20 -6 21 -5h0.5t4.5 -2q-1 0 22.5 2.5l23.5 2.5h16h19l18.5 -2.5t15.5 -2.5q2 0 3.5 -1.5l1.5 -1.5l-1 -4t8 -16l4.5 -48t16.5 -74
q0 -1 1 -12.5t1 -12.5q-3 -2 14.5 -88.5t20.5 -99.5q-3 1 3.5 -37.5l6.5 -38.5q1 1 3.5 -10.5l2.5 -11.5l5 -39.5t9 -54.5q0 -4 3 -25t7 -23q-1 0 1 -6.5l2 -6.5q0 -3 -27 -3q-26 0 -25.5 -0.5t-14.5 5.5h-9.5t-4.5 0q-8 0 -10 -2l-7 -1.5t-10 1.5q-4 0 -6 11
q-2 4 -7.5 27.5t-4.5 24.5q0 -1 -4 18.5l-4 19.5q0 2 -1 2.5t-1 4.5h-11l-21.5 -2.5t-33.5 -2.5h-14.5h-8.5l-2.5 -0.5t-6.5 -0.5q-3 -6 -9.5 -40t-6.5 -37q2 0 -1 -13l-2 -7t-2 -6q0 -1 -41 -1.5l-41 -0.5l-4.5 0.5t-4.5 2.5q2 3 -6 1.5t-8 2.5q0 -3 4 6.5l4 9.5q0 -1 0 3
v4q-6 18 3 18q-5 0 5 14q0 -3 2 6t5 6v5.5v6.5q0 -1 0 9v17q0 -1 0 3.5v6.5l3.5 12.5t5.5 15.5q1 1 1 18l0.5 6t0.5 9l1 10l1 10q0 3 5 18q0 -2 4 21t4 32q0 13 2 15q-5 9 5 13l1 21.5t2 23.5q-3 -8 6.5 24.5t11.5 41.5q0 -2 0 4v6q0 -2 0 2.5t0 3.5q0 12 -1 13
q-1 0 -0.5 4.5l0.5 4.5v4v7q0 -8 7 39.5t11 53.5q-3 -6 3.5 27t6.5 22q0 17 2 17zM937 1384q3 -32 -12 -91.5t-15 -104.5q0 6 -3.5 -19t-3.5 -46l-0.5 -1.5t-4.5 -5.5l1 -2.5t3 -2.5h2.5h3.5q-2 0 21 -1.5t35 -1.5q-1 0 1 0h3q-1 0 0.5 0h2.5q2 0 3 2q0 -1 5 -1v3.5v5.5
q0 4 -3 7q0 4 -4 4v2.5v2.5v2t6 11q-4 4 -2 4l-3.5 7t-3.5 8q0 -4 -1 6.5t-1 16.5q0 -1 -3 10t-3 23l-1 2t-1 4l-0.5 2t-0.5 5l-2 5t-2 8l-0.5 9t-0.5 16v12.5t-6 26.5q-1 0 -3.5 16.5t-2.5 17.5q0 -1 -1 2.5l-1 3.5v5v10q0 2 -1 3l-1 1t-1 4l0.5 3.5t0.5 5.5zM105 1544
q5 4 20.5 3t24.5 -1h36.5h60.5l5 -18.5t7 -23.5q0 -1 6 -37.5l6 -36.5q1 -33 8.5 -69t7.5 -67q0 10 9 -44.5t11 -55.5q-1 0 -0.5 -11t1.5 -15l-0.5 -6t-0.5 -10v-2l1 2t2 3q0 -1 2 15t3 26l6 38t7 38l10.5 71.5t11.5 71.5q-2 -2 6.5 32l8.5 34q-1 0 -0.5 15t0.5 18l1 6.5
t2 10.5q-1 0 2.5 8.5t5.5 9.5q6 6 17 -4q-2 1 11 -1h82q-4 -1 14 2q0 -1 14 -0.5t17 0.5l-5 -40.5t-5 -41.5l5 -41.5t1 -69.5q-4 -22 -5 -54t-1 -56l1 -33.5l1 -33.5q0 -9 1 -16.5t1 -13.5l-4 -6v-40t5 -46l-2.5 -39t-2.5 -48v-7v-7v-6t4 -9l1.5 -5.5t-2.5 -4.5
q1 0 -5.5 -0.5t-12.5 -0.5l-25.5 -2t-40.5 -2q1 0 -2.5 0h-3.5q4 0 -2.5 -0.5t-7.5 -0.5q-6 0 -4.5 25t1.5 34q0 -3 -2 22.5l-2 25.5l1 40t1 51q0 -2 0 8v15v8.5v9.5q0 -2 0 13v24q0 -3 -1 11t-1 23q0 -2 0 4v9q0 -1 0 9v16q0 -1 0 3.5v6.5q0 -3 0 14.5v25.5
q0 -1 -14 -105.5l-14 -104.5q-2 -3 -9 -50.5t-7 -55.5l-4 -28.5t-4 -29.5q0 1 0 -1v-2q0 -2 -2 -2q1 0 -1.5 -3l-2.5 -3v-1.5t-2 -1.5v-4h-92l-2 11v0v0q-4 4 -4 14q0 -2 -3 23t-9 35q-3 3 -3 13q0 -4 -1 6t-1 14q0 -2 -0.5 5.5t-0.5 10.5l-4.5 19l-4.5 19q0 36 -14.5 83
t-13.5 93q0 2 -5 28.5t-5 30.5q0 -13 1 -65.5t8 -58.5l-1 -22.5l-1 -22.5l-3 -18t-5 -40v-67q2 -4 3 -5q-2 -4 0 -28t2 -30l2.5 -20t-7.5 -26v-2h-85v4h-11v4.5v6.5l1 5t1 8q0 -1 1.5 5.5t1.5 9.5q0 -2 1 50.5t1 85.5q0 -1 -1 3t-1 8q0 -1 1.5 13.5t4.5 17.5v6
q-1 15 -3.5 52t-5.5 43l0.5 11.5t0.5 16.5q0 -1 2 8.5t2 15.5q0 -3 1.5 13t1.5 28q0 -1 0 19v22q0 -2 0 9v17q0 -1 -2.5 16t-4.5 19q5 0 5 25q0 -3 0 12v24l-2 13.5t4 21.5l-1 1.5zM936 566q-1 0 -6 -1.5t-3 -1.5q0 -1 -9 -8.5t-4 -4.5q-8 -4 -13 -20t-3 -19l-0.5 -12
l-0.5 -12q0 -9 6 -25l4 -8q6 -7 7 -12q3 -5 11 -15q2 -3 4.5 -6t5.5 -6q14 -16 30.5 -31t34.5 -31h0.5h0.5l0.5 -1t1.5 -2q38 -39 54 -67q13 -19 14 -19q9 -8 15 -31l6 -23q0 -21 -9 -60q0 -1 -4 -11q-21 -112 -141 -112q-64 0 -101 34q-33 23 -36 40q-6 28 -8.5 32.5
t-2.5 41.5q0 -2 0 11t0 12v6.5v5.5q-1 0 -2.5 3l-1.5 3l3.5 0.5t3.5 1.5v0.5t1 0.5v1h5q7 1 16.5 1h9.5q10 0 35 2.5l25 2.5q7 -7 7 2v-9.5v-9.5q0 3 0 -9.5t0 -9.5v-14.5t0 -8.5q2 -2 5.5 -11t2.5 -6q2 -3 3.5 -8l1.5 -5q24 -22 37.5 -16l13.5 6q25 9 23.5 42.5l-1.5 33.5
l-8.5 20.5t-10.5 21.5q-6 3 -22.5 22.5l-16.5 19.5q-6 10 -59.5 62t-55.5 58q-16 38 -13.5 80.5l2.5 42.5q2 0 5.5 17.5l3.5 17.5q0 -1 2 3q0 1 1 3l2 4v0.5v1.5l1 2q1 4 8 18q5 9 9.5 19l4.5 10q18 16 50 25l32 9q1 2 8 3.5l7 1.5h10h10q16 0 31 -5q8 -3 29.5 -15t26.5 -11
q1 -1 5 -4.5l4 -3.5l11.5 -13.5t11.5 -14.5q0 -6 5.5 -15l5.5 -9q0 -14 2 -11q5 0 5 -23l2 -18.5t2 -31.5l0.5 -3.5t0.5 -4.5l-0.5 -3l-0.5 -3h-3t-1 0q-6 0 -23.5 -1t-19.5 -1l-17 2.5t-32 2.5q-17 0 -12 43.5t-45 43.5z" />
    <glyph glyph-name=".notdef" unicode="&#x220f;" horiz-adv-x="2048" 
d="M478 55h-28q-36 -2 -37 -2h-14t-13 0h-5h-4v0.5v1.5h-2q-2 6 -2 9l-8 12l-2 19t-1 24q-3 -2 -2.5 11l0.5 13v3t2 6l-0.5 3.5t-0.5 6.5q0 10 3 8q-1 -1 0 10l1 11q0 -1 -2 6t-2 6l0.5 4t1.5 7q-1 -5 -1 9v8v10q0 -1 -2 12t-5 15l2 -2t-2 7q-1 -4 -6 8.5t-5 7.5
q0 3 -12 9.5l-12 6.5q-4 0 -4 1l-3.5 2t-4.5 2q0 -1 -11 2t-12 4h-16v-7t0 -3v-53v-58l1.5 -17t1.5 -16q0 -18 -1 -14q0 6 -5 -41v-33q1 -11 5 -14q0 -3 -5 -1v-4h-101v7h-1v0q-3 0 -4 5l-1 5q-3 -3 -3 13q0 -2 0 2v4v6v8q0 -1 0 25.5v47.5q0 -4 0 4.5v10.5q0 -2 0.5 4
l0.5 6l0.5 7.5t1.5 7.5l1.5 29.5t-1.5 36.5v7v7q-2 1 -4 66t1 60q-9 15 -2 45.5t7 45.5q0 -2 -2.5 16.5t-2.5 33.5q0 -1 0.5 34t0.5 62q0 -2 0 3.5v8.5l2 14.5t4 14.5q23 0 27.5 2.5t27.5 -4.5q1 0 40 -0.5t56 -3.5h3q144 0 149 -139q10 -44 4 -74q-2 -5 -4 -14t-5 -18
q-4 -20 -10 -32q-19 -53 -45 -50l-2 -1t-3 -1q66 -28 66 -135v-35q5 -62 1 -59q6 -27 4.5 -39t14.5 -42h-3h-7q0 -1 0.5 -1.5zM11 862q43 4 64 8.5t72 4.5q82 0 213 -5t199 -5q29 0 18.5 77.5t-2.5 111.5q23 102 19.5 279.5t-3.5 279.5q0 22 47.5 20t68.5 -2q0 -9 -2 -41
l-2 -32q22 -93 5 -216.5t-8 -197.5q4 -41 8.5 -151.5t-9.5 -143.5q-6 -16 71 -11.5t92 1.5q111 -23 199 -9.5t170 9.5q0 -159 0 -136t-96 3q-69 -15 -217.5 -3.5t-201.5 11.5q-16 0 -20.5 -46t-3.5 -101t4.5 -101t4.5 -46q30 -67 8 -160t-8 -165q18 -99 -16 -86t-95 1
q-3 -1 -6 79t-6 181t-5 193t-2 115q0 142 -4.5 152t-140.5 10q-14 0 -69 2.5t-116 5.5t-110 5.5l-49 2.5q-98 -21 -71 6t0 100zM869 1529q20 -6 21 -5h0.5t4.5 -2q-1 0 22.5 2.5l23.5 2.5h16h19l18.5 -2.5t15.5 -2.5q2 0 3.5 -1.5l1.5 -1.5l-1 -4t8 -16l4.5 -48t16.5 -74
q0 -1 1 -12.5t1 -12.5q-3 -2 14.5 -88.5t20.5 -99.5q-3 1 3.5 -37.5l6.5 -38.5q1 1 3.5 -10.5l2.5 -11.5l5 -39.5t9 -54.5q0 -4 3 -25t7 -23q-1 0 1 -6.5l2 -6.5q0 -3 -27 -3q-26 0 -25.5 -0.5t-14.5 5.5h-9.5t-4.5 0q-8 0 -10 -2l-7 -1.5t-10 1.5q-4 0 -6 11
q-2 4 -7.5 27.5t-4.5 24.5q0 -1 -4 18.5l-4 19.5q0 2 -1 2.5t-1 4.5h-11l-21.5 -2.5t-33.5 -2.5h-14.5h-8.5l-2.5 -0.5t-6.5 -0.5q-3 -6 -9.5 -40t-6.5 -37q2 0 -1 -13l-2 -7t-2 -6q0 -1 -41 -1.5l-41 -0.5l-4.5 0.5t-4.5 2.5q2 3 -6 1.5t-8 2.5q0 -3 4 6.5l4 9.5q0 -1 0 3
v4q-6 18 3 18q-5 0 5 14q0 -3 2 6t5 6v5.5v6.5q0 -1 0 9v17q0 -1 0 3.5v6.5l3.5 12.5t5.5 15.5q1 1 1 18l0.5 6t0.5 9l1 10l1 10q0 3 5 18q0 -2 4 21t4 32q0 13 2 15q-5 9 5 13l1 21.5t2 23.5q-3 -8 6.5 24.5t11.5 41.5q0 -2 0 4v6q0 -2 0 2.5t0 3.5q0 12 -1 13
q-1 0 -0.5 4.5l0.5 4.5v4v7q0 -8 7 39.5t11 53.5q-3 -6 3.5 27t6.5 22q0 17 2 17zM937 1384q3 -32 -12 -91.5t-15 -104.5q0 6 -3.5 -19t-3.5 -46l-0.5 -1.5t-4.5 -5.5l1 -2.5t3 -2.5h2.5h3.5q-2 0 21 -1.5t35 -1.5q-1 0 1 0h3q-1 0 0.5 0h2.5q2 0 3 2q0 -1 5 -1v3.5v5.5
q0 4 -3 7q0 4 -4 4v2.5v2.5v2t6 11q-4 4 -2 4l-3.5 7t-3.5 8q0 -4 -1 6.5t-1 16.5q0 -1 -3 10t-3 23l-1 2t-1 4l-0.5 2t-0.5 5l-2 5t-2 8l-0.5 9t-0.5 16v12.5t-6 26.5q-1 0 -3.5 16.5t-2.5 17.5q0 -1 -1 2.5l-1 3.5v5v10q0 2 -1 3l-1 1t-1 4l0.5 3.5t0.5 5.5zM105 1544
q5 4 20.5 3t24.5 -1h36.5h60.5l5 -18.5t7 -23.5q0 -1 6 -37.5l6 -36.5q1 -33 8.5 -69t7.5 -67q0 10 9 -44.5t11 -55.5q-1 0 -0.5 -11t1.5 -15l-0.5 -6t-0.5 -10v-2l1 2t2 3q0 -1 2 15t3 26l6 38t7 38l10.5 71.5t11.5 71.5q-2 -2 6.5 32l8.5 34q-1 0 -0.5 15t0.5 18l1 6.5
t2 10.5q-1 0 2.5 8.5t5.5 9.5q6 6 17 -4q-2 1 11 -1h82q-4 -1 14 2q0 -1 14 -0.5t17 0.5l-5 -40.5t-5 -41.5l5 -41.5t1 -69.5q-4 -22 -5 -54t-1 -56l1 -33.5l1 -33.5q0 -9 1 -16.5t1 -13.5l-4 -6v-40t5 -46l-2.5 -39t-2.5 -48v-7v-7v-6t4 -9l1.5 -5.5t-2.5 -4.5
q1 0 -5.5 -0.5t-12.5 -0.5l-25.5 -2t-40.5 -2q1 0 -2.5 0h-3.5q4 0 -2.5 -0.5t-7.5 -0.5q-6 0 -4.5 25t1.5 34q0 -3 -2 22.5l-2 25.5l1 40t1 51q0 -2 0 8v15v8.5v9.5q0 -2 0 13v24q0 -3 -1 11t-1 23q0 -2 0 4v9q0 -1 0 9v16q0 -1 0 3.5v6.5q0 -3 0 14.5v25.5
q0 -1 -14 -105.5l-14 -104.5q-2 -3 -9 -50.5t-7 -55.5l-4 -28.5t-4 -29.5q0 1 0 -1v-2q0 -2 -2 -2q1 0 -1.5 -3l-2.5 -3v-1.5t-2 -1.5v-4h-92l-2 11v0v0q-4 4 -4 14q0 -2 -3 23t-9 35q-3 3 -3 13q0 -4 -1 6t-1 14q0 -2 -0.5 5.5t-0.5 10.5l-4.5 19l-4.5 19q0 36 -14.5 83
t-13.5 93q0 2 -5 28.5t-5 30.5q0 -13 1 -65.5t8 -58.5l-1 -22.5l-1 -22.5l-3 -18t-5 -40v-67q2 -4 3 -5q-2 -4 0 -28t2 -30l2.5 -20t-7.5 -26v-2h-85v4h-11v4.5v6.5l1 5t1 8q0 -1 1.5 5.5t1.5 9.5q0 -2 1 50.5t1 85.5q0 -1 -1 3t-1 8q0 -1 1.5 13.5t4.5 17.5v6
q-1 15 -3.5 52t-5.5 43l0.5 11.5t0.5 16.5q0 -1 2 8.5t2 15.5q0 -3 1.5 13t1.5 28q0 -1 0 19v22q0 -2 0 9v17q0 -1 -2.5 16t-4.5 19q5 0 5 25q0 -3 0 12v24l-2 13.5t4 21.5l-1 1.5zM936 566q-1 0 -6 -1.5t-3 -1.5q0 -1 -9 -8.5t-4 -4.5q-8 -4 -13 -20t-3 -19l-0.5 -12
l-0.5 -12q0 -9 6 -25l4 -8q6 -7 7 -12q3 -5 11 -15q2 -3 4.5 -6t5.5 -6q14 -16 30.5 -31t34.5 -31h0.5h0.5l0.5 -1t1.5 -2q38 -39 54 -67q13 -19 14 -19q9 -8 15 -31l6 -23q0 -21 -9 -60q0 -1 -4 -11q-21 -112 -141 -112q-64 0 -101 34q-33 23 -36 40q-6 28 -8.5 32.5
t-2.5 41.5q0 -2 0 11t0 12v6.5v5.5q-1 0 -2.5 3l-1.5 3l3.5 0.5t3.5 1.5v0.5t1 0.5v1h5q7 1 16.5 1h9.5q10 0 35 2.5l25 2.5q7 -7 7 2v-9.5v-9.5q0 3 0 -9.5t0 -9.5v-14.5t0 -8.5q2 -2 5.5 -11t2.5 -6q2 -3 3.5 -8l1.5 -5q24 -22 37.5 -16l13.5 6q25 9 23.5 42.5l-1.5 33.5
l-8.5 20.5t-10.5 21.5q-6 3 -22.5 22.5l-16.5 19.5q-6 10 -59.5 62t-55.5 58q-16 38 -13.5 80.5l2.5 42.5q2 0 5.5 17.5l3.5 17.5q0 -1 2 3q0 1 1 3l2 4v0.5v1.5l1 2q1 4 8 18q5 9 9.5 19l4.5 10q18 16 50 25l32 9q1 2 8 3.5l7 1.5h10h10q16 0 31 -5q8 -3 29.5 -15t26.5 -11
q1 -1 5 -4.5l4 -3.5l11.5 -13.5t11.5 -14.5q0 -6 5.5 -15l5.5 -9q0 -14 2 -11q5 0 5 -23l2 -18.5t2 -31.5l0.5 -3.5t0.5 -4.5l-0.5 -3l-0.5 -3h-3t-1 0q-6 0 -23.5 -1t-19.5 -1l-17 2.5t-32 2.5q-17 0 -12 43.5t-45 43.5z" />
    <glyph glyph-name=".notdef" unicode="&#x2202;" horiz-adv-x="2048" 
d="M478 55h-28q-36 -2 -37 -2h-14t-13 0h-5h-4v0.5v1.5h-2q-2 6 -2 9l-8 12l-2 19t-1 24q-3 -2 -2.5 11l0.5 13v3t2 6l-0.5 3.5t-0.5 6.5q0 10 3 8q-1 -1 0 10l1 11q0 -1 -2 6t-2 6l0.5 4t1.5 7q-1 -5 -1 9v8v10q0 -1 -2 12t-5 15l2 -2t-2 7q-1 -4 -6 8.5t-5 7.5
q0 3 -12 9.5l-12 6.5q-4 0 -4 1l-3.5 2t-4.5 2q0 -1 -11 2t-12 4h-16v-7t0 -3v-53v-58l1.5 -17t1.5 -16q0 -18 -1 -14q0 6 -5 -41v-33q1 -11 5 -14q0 -3 -5 -1v-4h-101v7h-1v0q-3 0 -4 5l-1 5q-3 -3 -3 13q0 -2 0 2v4v6v8q0 -1 0 25.5v47.5q0 -4 0 4.5v10.5q0 -2 0.5 4
l0.5 6l0.5 7.5t1.5 7.5l1.5 29.5t-1.5 36.5v7v7q-2 1 -4 66t1 60q-9 15 -2 45.5t7 45.5q0 -2 -2.5 16.5t-2.5 33.5q0 -1 0.5 34t0.5 62q0 -2 0 3.5v8.5l2 14.5t4 14.5q23 0 27.5 2.5t27.5 -4.5q1 0 40 -0.5t56 -3.5h3q144 0 149 -139q10 -44 4 -74q-2 -5 -4 -14t-5 -18
q-4 -20 -10 -32q-19 -53 -45 -50l-2 -1t-3 -1q66 -28 66 -135v-35q5 -62 1 -59q6 -27 4.5 -39t14.5 -42h-3h-7q0 -1 0.5 -1.5zM11 862q43 4 64 8.5t72 4.5q82 0 213 -5t199 -5q29 0 18.5 77.5t-2.5 111.5q23 102 19.5 279.5t-3.5 279.5q0 22 47.5 20t68.5 -2q0 -9 -2 -41
l-2 -32q22 -93 5 -216.5t-8 -197.5q4 -41 8.5 -151.5t-9.5 -143.5q-6 -16 71 -11.5t92 1.5q111 -23 199 -9.5t170 9.5q0 -159 0 -136t-96 3q-69 -15 -217.5 -3.5t-201.5 11.5q-16 0 -20.5 -46t-3.5 -101t4.5 -101t4.5 -46q30 -67 8 -160t-8 -165q18 -99 -16 -86t-95 1
q-3 -1 -6 79t-6 181t-5 193t-2 115q0 142 -4.5 152t-140.5 10q-14 0 -69 2.5t-116 5.5t-110 5.5l-49 2.5q-98 -21 -71 6t0 100zM869 1529q20 -6 21 -5h0.5t4.5 -2q-1 0 22.5 2.5l23.5 2.5h16h19l18.5 -2.5t15.5 -2.5q2 0 3.5 -1.5l1.5 -1.5l-1 -4t8 -16l4.5 -48t16.5 -74
q0 -1 1 -12.5t1 -12.5q-3 -2 14.5 -88.5t20.5 -99.5q-3 1 3.5 -37.5l6.5 -38.5q1 1 3.5 -10.5l2.5 -11.5l5 -39.5t9 -54.5q0 -4 3 -25t7 -23q-1 0 1 -6.5l2 -6.5q0 -3 -27 -3q-26 0 -25.5 -0.5t-14.5 5.5h-9.5t-4.5 0q-8 0 -10 -2l-7 -1.5t-10 1.5q-4 0 -6 11
q-2 4 -7.5 27.5t-4.5 24.5q0 -1 -4 18.5l-4 19.5q0 2 -1 2.5t-1 4.5h-11l-21.5 -2.5t-33.5 -2.5h-14.5h-8.5l-2.5 -0.5t-6.5 -0.5q-3 -6 -9.5 -40t-6.5 -37q2 0 -1 -13l-2 -7t-2 -6q0 -1 -41 -1.5l-41 -0.5l-4.5 0.5t-4.5 2.5q2 3 -6 1.5t-8 2.5q0 -3 4 6.5l4 9.5q0 -1 0 3
v4q-6 18 3 18q-5 0 5 14q0 -3 2 6t5 6v5.5v6.5q0 -1 0 9v17q0 -1 0 3.5v6.5l3.5 12.5t5.5 15.5q1 1 1 18l0.5 6t0.5 9l1 10l1 10q0 3 5 18q0 -2 4 21t4 32q0 13 2 15q-5 9 5 13l1 21.5t2 23.5q-3 -8 6.5 24.5t11.5 41.5q0 -2 0 4v6q0 -2 0 2.5t0 3.5q0 12 -1 13
q-1 0 -0.5 4.5l0.5 4.5v4v7q0 -8 7 39.5t11 53.5q-3 -6 3.5 27t6.5 22q0 17 2 17zM937 1384q3 -32 -12 -91.5t-15 -104.5q0 6 -3.5 -19t-3.5 -46l-0.5 -1.5t-4.5 -5.5l1 -2.5t3 -2.5h2.5h3.5q-2 0 21 -1.5t35 -1.5q-1 0 1 0h3q-1 0 0.5 0h2.5q2 0 3 2q0 -1 5 -1v3.5v5.5
q0 4 -3 7q0 4 -4 4v2.5v2.5v2t6 11q-4 4 -2 4l-3.5 7t-3.5 8q0 -4 -1 6.5t-1 16.5q0 -1 -3 10t-3 23l-1 2t-1 4l-0.5 2t-0.5 5l-2 5t-2 8l-0.5 9t-0.5 16v12.5t-6 26.5q-1 0 -3.5 16.5t-2.5 17.5q0 -1 -1 2.5l-1 3.5v5v10q0 2 -1 3l-1 1t-1 4l0.5 3.5t0.5 5.5zM105 1544
q5 4 20.5 3t24.5 -1h36.5h60.5l5 -18.5t7 -23.5q0 -1 6 -37.5l6 -36.5q1 -33 8.5 -69t7.5 -67q0 10 9 -44.5t11 -55.5q-1 0 -0.5 -11t1.5 -15l-0.5 -6t-0.5 -10v-2l1 2t2 3q0 -1 2 15t3 26l6 38t7 38l10.5 71.5t11.5 71.5q-2 -2 6.5 32l8.5 34q-1 0 -0.5 15t0.5 18l1 6.5
t2 10.5q-1 0 2.5 8.5t5.5 9.5q6 6 17 -4q-2 1 11 -1h82q-4 -1 14 2q0 -1 14 -0.5t17 0.5l-5 -40.5t-5 -41.5l5 -41.5t1 -69.5q-4 -22 -5 -54t-1 -56l1 -33.5l1 -33.5q0 -9 1 -16.5t1 -13.5l-4 -6v-40t5 -46l-2.5 -39t-2.5 -48v-7v-7v-6t4 -9l1.5 -5.5t-2.5 -4.5
q1 0 -5.5 -0.5t-12.5 -0.5l-25.5 -2t-40.5 -2q1 0 -2.5 0h-3.5q4 0 -2.5 -0.5t-7.5 -0.5q-6 0 -4.5 25t1.5 34q0 -3 -2 22.5l-2 25.5l1 40t1 51q0 -2 0 8v15v8.5v9.5q0 -2 0 13v24q0 -3 -1 11t-1 23q0 -2 0 4v9q0 -1 0 9v16q0 -1 0 3.5v6.5q0 -3 0 14.5v25.5
q0 -1 -14 -105.5l-14 -104.5q-2 -3 -9 -50.5t-7 -55.5l-4 -28.5t-4 -29.5q0 1 0 -1v-2q0 -2 -2 -2q1 0 -1.5 -3l-2.5 -3v-1.5t-2 -1.5v-4h-92l-2 11v0v0q-4 4 -4 14q0 -2 -3 23t-9 35q-3 3 -3 13q0 -4 -1 6t-1 14q0 -2 -0.5 5.5t-0.5 10.5l-4.5 19l-4.5 19q0 36 -14.5 83
t-13.5 93q0 2 -5 28.5t-5 30.5q0 -13 1 -65.5t8 -58.5l-1 -22.5l-1 -22.5l-3 -18t-5 -40v-67q2 -4 3 -5q-2 -4 0 -28t2 -30l2.5 -20t-7.5 -26v-2h-85v4h-11v4.5v6.5l1 5t1 8q0 -1 1.5 5.5t1.5 9.5q0 -2 1 50.5t1 85.5q0 -1 -1 3t-1 8q0 -1 1.5 13.5t4.5 17.5v6
q-1 15 -3.5 52t-5.5 43l0.5 11.5t0.5 16.5q0 -1 2 8.5t2 15.5q0 -3 1.5 13t1.5 28q0 -1 0 19v22q0 -2 0 9v17q0 -1 -2.5 16t-4.5 19q5 0 5 25q0 -3 0 12v24l-2 13.5t4 21.5l-1 1.5zM936 566q-1 0 -6 -1.5t-3 -1.5q0 -1 -9 -8.5t-4 -4.5q-8 -4 -13 -20t-3 -19l-0.5 -12
l-0.5 -12q0 -9 6 -25l4 -8q6 -7 7 -12q3 -5 11 -15q2 -3 4.5 -6t5.5 -6q14 -16 30.5 -31t34.5 -31h0.5h0.5l0.5 -1t1.5 -2q38 -39 54 -67q13 -19 14 -19q9 -8 15 -31l6 -23q0 -21 -9 -60q0 -1 -4 -11q-21 -112 -141 -112q-64 0 -101 34q-33 23 -36 40q-6 28 -8.5 32.5
t-2.5 41.5q0 -2 0 11t0 12v6.5v5.5q-1 0 -2.5 3l-1.5 3l3.5 0.5t3.5 1.5v0.5t1 0.5v1h5q7 1 16.5 1h9.5q10 0 35 2.5l25 2.5q7 -7 7 2v-9.5v-9.5q0 3 0 -9.5t0 -9.5v-14.5t0 -8.5q2 -2 5.5 -11t2.5 -6q2 -3 3.5 -8l1.5 -5q24 -22 37.5 -16l13.5 6q25 9 23.5 42.5l-1.5 33.5
l-8.5 20.5t-10.5 21.5q-6 3 -22.5 22.5l-16.5 19.5q-6 10 -59.5 62t-55.5 58q-16 38 -13.5 80.5l2.5 42.5q2 0 5.5 17.5l3.5 17.5q0 -1 2 3q0 1 1 3l2 4v0.5v1.5l1 2q1 4 8 18q5 9 9.5 19l4.5 10q18 16 50 25l32 9q1 2 8 3.5l7 1.5h10h10q16 0 31 -5q8 -3 29.5 -15t26.5 -11
q1 -1 5 -4.5l4 -3.5l11.5 -13.5t11.5 -14.5q0 -6 5.5 -15l5.5 -9q0 -14 2 -11q5 0 5 -23l2 -18.5t2 -31.5l0.5 -3.5t0.5 -4.5l-0.5 -3l-0.5 -3h-3t-1 0q-6 0 -23.5 -1t-19.5 -1l-17 2.5t-32 2.5q-17 0 -12 43.5t-45 43.5z" />
    <glyph glyph-name=".notdef" unicode="&#x2122;" horiz-adv-x="2048" 
d="M478 55h-28q-36 -2 -37 -2h-14t-13 0h-5h-4v0.5v1.5h-2q-2 6 -2 9l-8 12l-2 19t-1 24q-3 -2 -2.5 11l0.5 13v3t2 6l-0.5 3.5t-0.5 6.5q0 10 3 8q-1 -1 0 10l1 11q0 -1 -2 6t-2 6l0.5 4t1.5 7q-1 -5 -1 9v8v10q0 -1 -2 12t-5 15l2 -2t-2 7q-1 -4 -6 8.5t-5 7.5
q0 3 -12 9.5l-12 6.5q-4 0 -4 1l-3.5 2t-4.5 2q0 -1 -11 2t-12 4h-16v-7t0 -3v-53v-58l1.5 -17t1.5 -16q0 -18 -1 -14q0 6 -5 -41v-33q1 -11 5 -14q0 -3 -5 -1v-4h-101v7h-1v0q-3 0 -4 5l-1 5q-3 -3 -3 13q0 -2 0 2v4v6v8q0 -1 0 25.5v47.5q0 -4 0 4.5v10.5q0 -2 0.5 4
l0.5 6l0.5 7.5t1.5 7.5l1.5 29.5t-1.5 36.5v7v7q-2 1 -4 66t1 60q-9 15 -2 45.5t7 45.5q0 -2 -2.5 16.5t-2.5 33.5q0 -1 0.5 34t0.5 62q0 -2 0 3.5v8.5l2 14.5t4 14.5q23 0 27.5 2.5t27.5 -4.5q1 0 40 -0.5t56 -3.5h3q144 0 149 -139q10 -44 4 -74q-2 -5 -4 -14t-5 -18
q-4 -20 -10 -32q-19 -53 -45 -50l-2 -1t-3 -1q66 -28 66 -135v-35q5 -62 1 -59q6 -27 4.5 -39t14.5 -42h-3h-7q0 -1 0.5 -1.5zM11 862q43 4 64 8.5t72 4.5q82 0 213 -5t199 -5q29 0 18.5 77.5t-2.5 111.5q23 102 19.5 279.5t-3.5 279.5q0 22 47.5 20t68.5 -2q0 -9 -2 -41
l-2 -32q22 -93 5 -216.5t-8 -197.5q4 -41 8.5 -151.5t-9.5 -143.5q-6 -16 71 -11.5t92 1.5q111 -23 199 -9.5t170 9.5q0 -159 0 -136t-96 3q-69 -15 -217.5 -3.5t-201.5 11.5q-16 0 -20.5 -46t-3.5 -101t4.5 -101t4.5 -46q30 -67 8 -160t-8 -165q18 -99 -16 -86t-95 1
q-3 -1 -6 79t-6 181t-5 193t-2 115q0 142 -4.5 152t-140.5 10q-14 0 -69 2.5t-116 5.5t-110 5.5l-49 2.5q-98 -21 -71 6t0 100zM869 1529q20 -6 21 -5h0.5t4.5 -2q-1 0 22.5 2.5l23.5 2.5h16h19l18.5 -2.5t15.5 -2.5q2 0 3.5 -1.5l1.5 -1.5l-1 -4t8 -16l4.5 -48t16.5 -74
q0 -1 1 -12.5t1 -12.5q-3 -2 14.5 -88.5t20.5 -99.5q-3 1 3.5 -37.5l6.5 -38.5q1 1 3.5 -10.5l2.5 -11.5l5 -39.5t9 -54.5q0 -4 3 -25t7 -23q-1 0 1 -6.5l2 -6.5q0 -3 -27 -3q-26 0 -25.5 -0.5t-14.5 5.5h-9.5t-4.5 0q-8 0 -10 -2l-7 -1.5t-10 1.5q-4 0 -6 11
q-2 4 -7.5 27.5t-4.5 24.5q0 -1 -4 18.5l-4 19.5q0 2 -1 2.5t-1 4.5h-11l-21.5 -2.5t-33.5 -2.5h-14.5h-8.5l-2.5 -0.5t-6.5 -0.5q-3 -6 -9.5 -40t-6.5 -37q2 0 -1 -13l-2 -7t-2 -6q0 -1 -41 -1.5l-41 -0.5l-4.5 0.5t-4.5 2.5q2 3 -6 1.5t-8 2.5q0 -3 4 6.5l4 9.5q0 -1 0 3
v4q-6 18 3 18q-5 0 5 14q0 -3 2 6t5 6v5.5v6.5q0 -1 0 9v17q0 -1 0 3.5v6.5l3.5 12.5t5.5 15.5q1 1 1 18l0.5 6t0.5 9l1 10l1 10q0 3 5 18q0 -2 4 21t4 32q0 13 2 15q-5 9 5 13l1 21.5t2 23.5q-3 -8 6.5 24.5t11.5 41.5q0 -2 0 4v6q0 -2 0 2.5t0 3.5q0 12 -1 13
q-1 0 -0.5 4.5l0.5 4.5v4v7q0 -8 7 39.5t11 53.5q-3 -6 3.5 27t6.5 22q0 17 2 17zM937 1384q3 -32 -12 -91.5t-15 -104.5q0 6 -3.5 -19t-3.5 -46l-0.5 -1.5t-4.5 -5.5l1 -2.5t3 -2.5h2.5h3.5q-2 0 21 -1.5t35 -1.5q-1 0 1 0h3q-1 0 0.5 0h2.5q2 0 3 2q0 -1 5 -1v3.5v5.5
q0 4 -3 7q0 4 -4 4v2.5v2.5v2t6 11q-4 4 -2 4l-3.5 7t-3.5 8q0 -4 -1 6.5t-1 16.5q0 -1 -3 10t-3 23l-1 2t-1 4l-0.5 2t-0.5 5l-2 5t-2 8l-0.5 9t-0.5 16v12.5t-6 26.5q-1 0 -3.5 16.5t-2.5 17.5q0 -1 -1 2.5l-1 3.5v5v10q0 2 -1 3l-1 1t-1 4l0.5 3.5t0.5 5.5zM105 1544
q5 4 20.5 3t24.5 -1h36.5h60.5l5 -18.5t7 -23.5q0 -1 6 -37.5l6 -36.5q1 -33 8.5 -69t7.5 -67q0 10 9 -44.5t11 -55.5q-1 0 -0.5 -11t1.5 -15l-0.5 -6t-0.5 -10v-2l1 2t2 3q0 -1 2 15t3 26l6 38t7 38l10.5 71.5t11.5 71.5q-2 -2 6.5 32l8.5 34q-1 0 -0.5 15t0.5 18l1 6.5
t2 10.5q-1 0 2.5 8.5t5.5 9.5q6 6 17 -4q-2 1 11 -1h82q-4 -1 14 2q0 -1 14 -0.5t17 0.5l-5 -40.5t-5 -41.5l5 -41.5t1 -69.5q-4 -22 -5 -54t-1 -56l1 -33.5l1 -33.5q0 -9 1 -16.5t1 -13.5l-4 -6v-40t5 -46l-2.5 -39t-2.5 -48v-7v-7v-6t4 -9l1.5 -5.5t-2.5 -4.5
q1 0 -5.5 -0.5t-12.5 -0.5l-25.5 -2t-40.5 -2q1 0 -2.5 0h-3.5q4 0 -2.5 -0.5t-7.5 -0.5q-6 0 -4.5 25t1.5 34q0 -3 -2 22.5l-2 25.5l1 40t1 51q0 -2 0 8v15v8.5v9.5q0 -2 0 13v24q0 -3 -1 11t-1 23q0 -2 0 4v9q0 -1 0 9v16q0 -1 0 3.5v6.5q0 -3 0 14.5v25.5
q0 -1 -14 -105.5l-14 -104.5q-2 -3 -9 -50.5t-7 -55.5l-4 -28.5t-4 -29.5q0 1 0 -1v-2q0 -2 -2 -2q1 0 -1.5 -3l-2.5 -3v-1.5t-2 -1.5v-4h-92l-2 11v0v0q-4 4 -4 14q0 -2 -3 23t-9 35q-3 3 -3 13q0 -4 -1 6t-1 14q0 -2 -0.5 5.5t-0.5 10.5l-4.5 19l-4.5 19q0 36 -14.5 83
t-13.5 93q0 2 -5 28.5t-5 30.5q0 -13 1 -65.5t8 -58.5l-1 -22.5l-1 -22.5l-3 -18t-5 -40v-67q2 -4 3 -5q-2 -4 0 -28t2 -30l2.5 -20t-7.5 -26v-2h-85v4h-11v4.5v6.5l1 5t1 8q0 -1 1.5 5.5t1.5 9.5q0 -2 1 50.5t1 85.5q0 -1 -1 3t-1 8q0 -1 1.5 13.5t4.5 17.5v6
q-1 15 -3.5 52t-5.5 43l0.5 11.5t0.5 16.5q0 -1 2 8.5t2 15.5q0 -3 1.5 13t1.5 28q0 -1 0 19v22q0 -2 0 9v17q0 -1 -2.5 16t-4.5 19q5 0 5 25q0 -3 0 12v24l-2 13.5t4 21.5l-1 1.5zM936 566q-1 0 -6 -1.5t-3 -1.5q0 -1 -9 -8.5t-4 -4.5q-8 -4 -13 -20t-3 -19l-0.5 -12
l-0.5 -12q0 -9 6 -25l4 -8q6 -7 7 -12q3 -5 11 -15q2 -3 4.5 -6t5.5 -6q14 -16 30.5 -31t34.5 -31h0.5h0.5l0.5 -1t1.5 -2q38 -39 54 -67q13 -19 14 -19q9 -8 15 -31l6 -23q0 -21 -9 -60q0 -1 -4 -11q-21 -112 -141 -112q-64 0 -101 34q-33 23 -36 40q-6 28 -8.5 32.5
t-2.5 41.5q0 -2 0 11t0 12v6.5v5.5q-1 0 -2.5 3l-1.5 3l3.5 0.5t3.5 1.5v0.5t1 0.5v1h5q7 1 16.5 1h9.5q10 0 35 2.5l25 2.5q7 -7 7 2v-9.5v-9.5q0 3 0 -9.5t0 -9.5v-14.5t0 -8.5q2 -2 5.5 -11t2.5 -6q2 -3 3.5 -8l1.5 -5q24 -22 37.5 -16l13.5 6q25 9 23.5 42.5l-1.5 33.5
l-8.5 20.5t-10.5 21.5q-6 3 -22.5 22.5l-16.5 19.5q-6 10 -59.5 62t-55.5 58q-16 38 -13.5 80.5l2.5 42.5q2 0 5.5 17.5l3.5 17.5q0 -1 2 3q0 1 1 3l2 4v0.5v1.5l1 2q1 4 8 18q5 9 9.5 19l4.5 10q18 16 50 25l32 9q1 2 8 3.5l7 1.5h10h10q16 0 31 -5q8 -3 29.5 -15t26.5 -11
q1 -1 5 -4.5l4 -3.5l11.5 -13.5t11.5 -14.5q0 -6 5.5 -15l5.5 -9q0 -14 2 -11q5 0 5 -23l2 -18.5t2 -31.5l0.5 -3.5t0.5 -4.5l-0.5 -3l-0.5 -3h-3t-1 0q-6 0 -23.5 -1t-19.5 -1l-17 2.5t-32 2.5q-17 0 -12 43.5t-45 43.5z" />
    <glyph glyph-name=".notdef" unicode="&#x20ac;" horiz-adv-x="2048" 
d="M478 55h-28q-36 -2 -37 -2h-14t-13 0h-5h-4v0.5v1.5h-2q-2 6 -2 9l-8 12l-2 19t-1 24q-3 -2 -2.5 11l0.5 13v3t2 6l-0.5 3.5t-0.5 6.5q0 10 3 8q-1 -1 0 10l1 11q0 -1 -2 6t-2 6l0.5 4t1.5 7q-1 -5 -1 9v8v10q0 -1 -2 12t-5 15l2 -2t-2 7q-1 -4 -6 8.5t-5 7.5
q0 3 -12 9.5l-12 6.5q-4 0 -4 1l-3.5 2t-4.5 2q0 -1 -11 2t-12 4h-16v-7t0 -3v-53v-58l1.5 -17t1.5 -16q0 -18 -1 -14q0 6 -5 -41v-33q1 -11 5 -14q0 -3 -5 -1v-4h-101v7h-1v0q-3 0 -4 5l-1 5q-3 -3 -3 13q0 -2 0 2v4v6v8q0 -1 0 25.5v47.5q0 -4 0 4.5v10.5q0 -2 0.5 4
l0.5 6l0.5 7.5t1.5 7.5l1.5 29.5t-1.5 36.5v7v7q-2 1 -4 66t1 60q-9 15 -2 45.5t7 45.5q0 -2 -2.5 16.5t-2.5 33.5q0 -1 0.5 34t0.5 62q0 -2 0 3.5v8.5l2 14.5t4 14.5q23 0 27.5 2.5t27.5 -4.5q1 0 40 -0.5t56 -3.5h3q144 0 149 -139q10 -44 4 -74q-2 -5 -4 -14t-5 -18
q-4 -20 -10 -32q-19 -53 -45 -50l-2 -1t-3 -1q66 -28 66 -135v-35q5 -62 1 -59q6 -27 4.5 -39t14.5 -42h-3h-7q0 -1 0.5 -1.5zM11 862q43 4 64 8.5t72 4.5q82 0 213 -5t199 -5q29 0 18.5 77.5t-2.5 111.5q23 102 19.5 279.5t-3.5 279.5q0 22 47.5 20t68.5 -2q0 -9 -2 -41
l-2 -32q22 -93 5 -216.5t-8 -197.5q4 -41 8.5 -151.5t-9.5 -143.5q-6 -16 71 -11.5t92 1.5q111 -23 199 -9.5t170 9.5q0 -159 0 -136t-96 3q-69 -15 -217.5 -3.5t-201.5 11.5q-16 0 -20.5 -46t-3.5 -101t4.5 -101t4.5 -46q30 -67 8 -160t-8 -165q18 -99 -16 -86t-95 1
q-3 -1 -6 79t-6 181t-5 193t-2 115q0 142 -4.5 152t-140.5 10q-14 0 -69 2.5t-116 5.5t-110 5.5l-49 2.5q-98 -21 -71 6t0 100zM869 1529q20 -6 21 -5h0.5t4.5 -2q-1 0 22.5 2.5l23.5 2.5h16h19l18.5 -2.5t15.5 -2.5q2 0 3.5 -1.5l1.5 -1.5l-1 -4t8 -16l4.5 -48t16.5 -74
q0 -1 1 -12.5t1 -12.5q-3 -2 14.5 -88.5t20.5 -99.5q-3 1 3.5 -37.5l6.5 -38.5q1 1 3.5 -10.5l2.5 -11.5l5 -39.5t9 -54.5q0 -4 3 -25t7 -23q-1 0 1 -6.5l2 -6.5q0 -3 -27 -3q-26 0 -25.5 -0.5t-14.5 5.5h-9.5t-4.5 0q-8 0 -10 -2l-7 -1.5t-10 1.5q-4 0 -6 11
q-2 4 -7.5 27.5t-4.5 24.5q0 -1 -4 18.5l-4 19.5q0 2 -1 2.5t-1 4.5h-11l-21.5 -2.5t-33.5 -2.5h-14.5h-8.5l-2.5 -0.5t-6.5 -0.5q-3 -6 -9.5 -40t-6.5 -37q2 0 -1 -13l-2 -7t-2 -6q0 -1 -41 -1.5l-41 -0.5l-4.5 0.5t-4.5 2.5q2 3 -6 1.5t-8 2.5q0 -3 4 6.5l4 9.5q0 -1 0 3
v4q-6 18 3 18q-5 0 5 14q0 -3 2 6t5 6v5.5v6.5q0 -1 0 9v17q0 -1 0 3.5v6.5l3.5 12.5t5.5 15.5q1 1 1 18l0.5 6t0.5 9l1 10l1 10q0 3 5 18q0 -2 4 21t4 32q0 13 2 15q-5 9 5 13l1 21.5t2 23.5q-3 -8 6.5 24.5t11.5 41.5q0 -2 0 4v6q0 -2 0 2.5t0 3.5q0 12 -1 13
q-1 0 -0.5 4.5l0.5 4.5v4v7q0 -8 7 39.5t11 53.5q-3 -6 3.5 27t6.5 22q0 17 2 17zM937 1384q3 -32 -12 -91.5t-15 -104.5q0 6 -3.5 -19t-3.5 -46l-0.5 -1.5t-4.5 -5.5l1 -2.5t3 -2.5h2.5h3.5q-2 0 21 -1.5t35 -1.5q-1 0 1 0h3q-1 0 0.5 0h2.5q2 0 3 2q0 -1 5 -1v3.5v5.5
q0 4 -3 7q0 4 -4 4v2.5v2.5v2t6 11q-4 4 -2 4l-3.5 7t-3.5 8q0 -4 -1 6.5t-1 16.5q0 -1 -3 10t-3 23l-1 2t-1 4l-0.5 2t-0.5 5l-2 5t-2 8l-0.5 9t-0.5 16v12.5t-6 26.5q-1 0 -3.5 16.5t-2.5 17.5q0 -1 -1 2.5l-1 3.5v5v10q0 2 -1 3l-1 1t-1 4l0.5 3.5t0.5 5.5zM105 1544
q5 4 20.5 3t24.5 -1h36.5h60.5l5 -18.5t7 -23.5q0 -1 6 -37.5l6 -36.5q1 -33 8.5 -69t7.5 -67q0 10 9 -44.5t11 -55.5q-1 0 -0.5 -11t1.5 -15l-0.5 -6t-0.5 -10v-2l1 2t2 3q0 -1 2 15t3 26l6 38t7 38l10.5 71.5t11.5 71.5q-2 -2 6.5 32l8.5 34q-1 0 -0.5 15t0.5 18l1 6.5
t2 10.5q-1 0 2.5 8.5t5.5 9.5q6 6 17 -4q-2 1 11 -1h82q-4 -1 14 2q0 -1 14 -0.5t17 0.5l-5 -40.5t-5 -41.5l5 -41.5t1 -69.5q-4 -22 -5 -54t-1 -56l1 -33.5l1 -33.5q0 -9 1 -16.5t1 -13.5l-4 -6v-40t5 -46l-2.5 -39t-2.5 -48v-7v-7v-6t4 -9l1.5 -5.5t-2.5 -4.5
q1 0 -5.5 -0.5t-12.5 -0.5l-25.5 -2t-40.5 -2q1 0 -2.5 0h-3.5q4 0 -2.5 -0.5t-7.5 -0.5q-6 0 -4.5 25t1.5 34q0 -3 -2 22.5l-2 25.5l1 40t1 51q0 -2 0 8v15v8.5v9.5q0 -2 0 13v24q0 -3 -1 11t-1 23q0 -2 0 4v9q0 -1 0 9v16q0 -1 0 3.5v6.5q0 -3 0 14.5v25.5
q0 -1 -14 -105.5l-14 -104.5q-2 -3 -9 -50.5t-7 -55.5l-4 -28.5t-4 -29.5q0 1 0 -1v-2q0 -2 -2 -2q1 0 -1.5 -3l-2.5 -3v-1.5t-2 -1.5v-4h-92l-2 11v0v0q-4 4 -4 14q0 -2 -3 23t-9 35q-3 3 -3 13q0 -4 -1 6t-1 14q0 -2 -0.5 5.5t-0.5 10.5l-4.5 19l-4.5 19q0 36 -14.5 83
t-13.5 93q0 2 -5 28.5t-5 30.5q0 -13 1 -65.5t8 -58.5l-1 -22.5l-1 -22.5l-3 -18t-5 -40v-67q2 -4 3 -5q-2 -4 0 -28t2 -30l2.5 -20t-7.5 -26v-2h-85v4h-11v4.5v6.5l1 5t1 8q0 -1 1.5 5.5t1.5 9.5q0 -2 1 50.5t1 85.5q0 -1 -1 3t-1 8q0 -1 1.5 13.5t4.5 17.5v6
q-1 15 -3.5 52t-5.5 43l0.5 11.5t0.5 16.5q0 -1 2 8.5t2 15.5q0 -3 1.5 13t1.5 28q0 -1 0 19v22q0 -2 0 9v17q0 -1 -2.5 16t-4.5 19q5 0 5 25q0 -3 0 12v24l-2 13.5t4 21.5l-1 1.5zM936 566q-1 0 -6 -1.5t-3 -1.5q0 -1 -9 -8.5t-4 -4.5q-8 -4 -13 -20t-3 -19l-0.5 -12
l-0.5 -12q0 -9 6 -25l4 -8q6 -7 7 -12q3 -5 11 -15q2 -3 4.5 -6t5.5 -6q14 -16 30.5 -31t34.5 -31h0.5h0.5l0.5 -1t1.5 -2q38 -39 54 -67q13 -19 14 -19q9 -8 15 -31l6 -23q0 -21 -9 -60q0 -1 -4 -11q-21 -112 -141 -112q-64 0 -101 34q-33 23 -36 40q-6 28 -8.5 32.5
t-2.5 41.5q0 -2 0 11t0 12v6.5v5.5q-1 0 -2.5 3l-1.5 3l3.5 0.5t3.5 1.5v0.5t1 0.5v1h5q7 1 16.5 1h9.5q10 0 35 2.5l25 2.5q7 -7 7 2v-9.5v-9.5q0 3 0 -9.5t0 -9.5v-14.5t0 -8.5q2 -2 5.5 -11t2.5 -6q2 -3 3.5 -8l1.5 -5q24 -22 37.5 -16l13.5 6q25 9 23.5 42.5l-1.5 33.5
l-8.5 20.5t-10.5 21.5q-6 3 -22.5 22.5l-16.5 19.5q-6 10 -59.5 62t-55.5 58q-16 38 -13.5 80.5l2.5 42.5q2 0 5.5 17.5l3.5 17.5q0 -1 2 3q0 1 1 3l2 4v0.5v1.5l1 2q1 4 8 18q5 9 9.5 19l4.5 10q18 16 50 25l32 9q1 2 8 3.5l7 1.5h10h10q16 0 31 -5q8 -3 29.5 -15t26.5 -11
q1 -1 5 -4.5l4 -3.5l11.5 -13.5t11.5 -14.5q0 -6 5.5 -15l5.5 -9q0 -14 2 -11q5 0 5 -23l2 -18.5t2 -31.5l0.5 -3.5t0.5 -4.5l-0.5 -3l-0.5 -3h-3t-1 0q-6 0 -23.5 -1t-19.5 -1l-17 2.5t-32 2.5q-17 0 -12 43.5t-45 43.5z" />
    <glyph glyph-name=".notdef" unicode="&#x2044;" horiz-adv-x="2048" 
d="M478 55h-28q-36 -2 -37 -2h-14t-13 0h-5h-4v0.5v1.5h-2q-2 6 -2 9l-8 12l-2 19t-1 24q-3 -2 -2.5 11l0.5 13v3t2 6l-0.5 3.5t-0.5 6.5q0 10 3 8q-1 -1 0 10l1 11q0 -1 -2 6t-2 6l0.5 4t1.5 7q-1 -5 -1 9v8v10q0 -1 -2 12t-5 15l2 -2t-2 7q-1 -4 -6 8.5t-5 7.5
q0 3 -12 9.5l-12 6.5q-4 0 -4 1l-3.5 2t-4.5 2q0 -1 -11 2t-12 4h-16v-7t0 -3v-53v-58l1.5 -17t1.5 -16q0 -18 -1 -14q0 6 -5 -41v-33q1 -11 5 -14q0 -3 -5 -1v-4h-101v7h-1v0q-3 0 -4 5l-1 5q-3 -3 -3 13q0 -2 0 2v4v6v8q0 -1 0 25.5v47.5q0 -4 0 4.5v10.5q0 -2 0.5 4
l0.5 6l0.5 7.5t1.5 7.5l1.5 29.5t-1.5 36.5v7v7q-2 1 -4 66t1 60q-9 15 -2 45.5t7 45.5q0 -2 -2.5 16.5t-2.5 33.5q0 -1 0.5 34t0.5 62q0 -2 0 3.5v8.5l2 14.5t4 14.5q23 0 27.5 2.5t27.5 -4.5q1 0 40 -0.5t56 -3.5h3q144 0 149 -139q10 -44 4 -74q-2 -5 -4 -14t-5 -18
q-4 -20 -10 -32q-19 -53 -45 -50l-2 -1t-3 -1q66 -28 66 -135v-35q5 -62 1 -59q6 -27 4.5 -39t14.5 -42h-3h-7q0 -1 0.5 -1.5zM11 862q43 4 64 8.5t72 4.5q82 0 213 -5t199 -5q29 0 18.5 77.5t-2.5 111.5q23 102 19.5 279.5t-3.5 279.5q0 22 47.5 20t68.5 -2q0 -9 -2 -41
l-2 -32q22 -93 5 -216.5t-8 -197.5q4 -41 8.5 -151.5t-9.5 -143.5q-6 -16 71 -11.5t92 1.5q111 -23 199 -9.5t170 9.5q0 -159 0 -136t-96 3q-69 -15 -217.5 -3.5t-201.5 11.5q-16 0 -20.5 -46t-3.5 -101t4.5 -101t4.5 -46q30 -67 8 -160t-8 -165q18 -99 -16 -86t-95 1
q-3 -1 -6 79t-6 181t-5 193t-2 115q0 142 -4.5 152t-140.5 10q-14 0 -69 2.5t-116 5.5t-110 5.5l-49 2.5q-98 -21 -71 6t0 100zM869 1529q20 -6 21 -5h0.5t4.5 -2q-1 0 22.5 2.5l23.5 2.5h16h19l18.5 -2.5t15.5 -2.5q2 0 3.5 -1.5l1.5 -1.5l-1 -4t8 -16l4.5 -48t16.5 -74
q0 -1 1 -12.5t1 -12.5q-3 -2 14.5 -88.5t20.5 -99.5q-3 1 3.5 -37.5l6.5 -38.5q1 1 3.5 -10.5l2.5 -11.5l5 -39.5t9 -54.5q0 -4 3 -25t7 -23q-1 0 1 -6.5l2 -6.5q0 -3 -27 -3q-26 0 -25.5 -0.5t-14.5 5.5h-9.5t-4.5 0q-8 0 -10 -2l-7 -1.5t-10 1.5q-4 0 -6 11
q-2 4 -7.5 27.5t-4.5 24.5q0 -1 -4 18.5l-4 19.5q0 2 -1 2.5t-1 4.5h-11l-21.5 -2.5t-33.5 -2.5h-14.5h-8.5l-2.5 -0.5t-6.5 -0.5q-3 -6 -9.5 -40t-6.5 -37q2 0 -1 -13l-2 -7t-2 -6q0 -1 -41 -1.5l-41 -0.5l-4.5 0.5t-4.5 2.5q2 3 -6 1.5t-8 2.5q0 -3 4 6.5l4 9.5q0 -1 0 3
v4q-6 18 3 18q-5 0 5 14q0 -3 2 6t5 6v5.5v6.5q0 -1 0 9v17q0 -1 0 3.5v6.5l3.5 12.5t5.5 15.5q1 1 1 18l0.5 6t0.5 9l1 10l1 10q0 3 5 18q0 -2 4 21t4 32q0 13 2 15q-5 9 5 13l1 21.5t2 23.5q-3 -8 6.5 24.5t11.5 41.5q0 -2 0 4v6q0 -2 0 2.5t0 3.5q0 12 -1 13
q-1 0 -0.5 4.5l0.5 4.5v4v7q0 -8 7 39.5t11 53.5q-3 -6 3.5 27t6.5 22q0 17 2 17zM937 1384q3 -32 -12 -91.5t-15 -104.5q0 6 -3.5 -19t-3.5 -46l-0.5 -1.5t-4.5 -5.5l1 -2.5t3 -2.5h2.5h3.5q-2 0 21 -1.5t35 -1.5q-1 0 1 0h3q-1 0 0.5 0h2.5q2 0 3 2q0 -1 5 -1v3.5v5.5
q0 4 -3 7q0 4 -4 4v2.5v2.5v2t6 11q-4 4 -2 4l-3.5 7t-3.5 8q0 -4 -1 6.5t-1 16.5q0 -1 -3 10t-3 23l-1 2t-1 4l-0.5 2t-0.5 5l-2 5t-2 8l-0.5 9t-0.5 16v12.5t-6 26.5q-1 0 -3.5 16.5t-2.5 17.5q0 -1 -1 2.5l-1 3.5v5v10q0 2 -1 3l-1 1t-1 4l0.5 3.5t0.5 5.5zM105 1544
q5 4 20.5 3t24.5 -1h36.5h60.5l5 -18.5t7 -23.5q0 -1 6 -37.5l6 -36.5q1 -33 8.5 -69t7.5 -67q0 10 9 -44.5t11 -55.5q-1 0 -0.5 -11t1.5 -15l-0.5 -6t-0.5 -10v-2l1 2t2 3q0 -1 2 15t3 26l6 38t7 38l10.5 71.5t11.5 71.5q-2 -2 6.5 32l8.5 34q-1 0 -0.5 15t0.5 18l1 6.5
t2 10.5q-1 0 2.5 8.5t5.5 9.5q6 6 17 -4q-2 1 11 -1h82q-4 -1 14 2q0 -1 14 -0.5t17 0.5l-5 -40.5t-5 -41.5l5 -41.5t1 -69.5q-4 -22 -5 -54t-1 -56l1 -33.5l1 -33.5q0 -9 1 -16.5t1 -13.5l-4 -6v-40t5 -46l-2.5 -39t-2.5 -48v-7v-7v-6t4 -9l1.5 -5.5t-2.5 -4.5
q1 0 -5.5 -0.5t-12.5 -0.5l-25.5 -2t-40.5 -2q1 0 -2.5 0h-3.5q4 0 -2.5 -0.5t-7.5 -0.5q-6 0 -4.5 25t1.5 34q0 -3 -2 22.5l-2 25.5l1 40t1 51q0 -2 0 8v15v8.5v9.5q0 -2 0 13v24q0 -3 -1 11t-1 23q0 -2 0 4v9q0 -1 0 9v16q0 -1 0 3.5v6.5q0 -3 0 14.5v25.5
q0 -1 -14 -105.5l-14 -104.5q-2 -3 -9 -50.5t-7 -55.5l-4 -28.5t-4 -29.5q0 1 0 -1v-2q0 -2 -2 -2q1 0 -1.5 -3l-2.5 -3v-1.5t-2 -1.5v-4h-92l-2 11v0v0q-4 4 -4 14q0 -2 -3 23t-9 35q-3 3 -3 13q0 -4 -1 6t-1 14q0 -2 -0.5 5.5t-0.5 10.5l-4.5 19l-4.5 19q0 36 -14.5 83
t-13.5 93q0 2 -5 28.5t-5 30.5q0 -13 1 -65.5t8 -58.5l-1 -22.5l-1 -22.5l-3 -18t-5 -40v-67q2 -4 3 -5q-2 -4 0 -28t2 -30l2.5 -20t-7.5 -26v-2h-85v4h-11v4.5v6.5l1 5t1 8q0 -1 1.5 5.5t1.5 9.5q0 -2 1 50.5t1 85.5q0 -1 -1 3t-1 8q0 -1 1.5 13.5t4.5 17.5v6
q-1 15 -3.5 52t-5.5 43l0.5 11.5t0.5 16.5q0 -1 2 8.5t2 15.5q0 -3 1.5 13t1.5 28q0 -1 0 19v22q0 -2 0 9v17q0 -1 -2.5 16t-4.5 19q5 0 5 25q0 -3 0 12v24l-2 13.5t4 21.5l-1 1.5zM936 566q-1 0 -6 -1.5t-3 -1.5q0 -1 -9 -8.5t-4 -4.5q-8 -4 -13 -20t-3 -19l-0.5 -12
l-0.5 -12q0 -9 6 -25l4 -8q6 -7 7 -12q3 -5 11 -15q2 -3 4.5 -6t5.5 -6q14 -16 30.5 -31t34.5 -31h0.5h0.5l0.5 -1t1.5 -2q38 -39 54 -67q13 -19 14 -19q9 -8 15 -31l6 -23q0 -21 -9 -60q0 -1 -4 -11q-21 -112 -141 -112q-64 0 -101 34q-33 23 -36 40q-6 28 -8.5 32.5
t-2.5 41.5q0 -2 0 11t0 12v6.5v5.5q-1 0 -2.5 3l-1.5 3l3.5 0.5t3.5 1.5v0.5t1 0.5v1h5q7 1 16.5 1h9.5q10 0 35 2.5l25 2.5q7 -7 7 2v-9.5v-9.5q0 3 0 -9.5t0 -9.5v-14.5t0 -8.5q2 -2 5.5 -11t2.5 -6q2 -3 3.5 -8l1.5 -5q24 -22 37.5 -16l13.5 6q25 9 23.5 42.5l-1.5 33.5
l-8.5 20.5t-10.5 21.5q-6 3 -22.5 22.5l-16.5 19.5q-6 10 -59.5 62t-55.5 58q-16 38 -13.5 80.5l2.5 42.5q2 0 5.5 17.5l3.5 17.5q0 -1 2 3q0 1 1 3l2 4v0.5v1.5l1 2q1 4 8 18q5 9 9.5 19l4.5 10q18 16 50 25l32 9q1 2 8 3.5l7 1.5h10h10q16 0 31 -5q8 -3 29.5 -15t26.5 -11
q1 -1 5 -4.5l4 -3.5l11.5 -13.5t11.5 -14.5q0 -6 5.5 -15l5.5 -9q0 -14 2 -11q5 0 5 -23l2 -18.5t2 -31.5l0.5 -3.5t0.5 -4.5l-0.5 -3l-0.5 -3h-3t-1 0q-6 0 -23.5 -1t-19.5 -1l-17 2.5t-32 2.5q-17 0 -12 43.5t-45 43.5z" />
    <glyph glyph-name=".notdef" unicode="&#x2030;" horiz-adv-x="2048" 
d="M478 55h-28q-36 -2 -37 -2h-14t-13 0h-5h-4v0.5v1.5h-2q-2 6 -2 9l-8 12l-2 19t-1 24q-3 -2 -2.5 11l0.5 13v3t2 6l-0.5 3.5t-0.5 6.5q0 10 3 8q-1 -1 0 10l1 11q0 -1 -2 6t-2 6l0.5 4t1.5 7q-1 -5 -1 9v8v10q0 -1 -2 12t-5 15l2 -2t-2 7q-1 -4 -6 8.5t-5 7.5
q0 3 -12 9.5l-12 6.5q-4 0 -4 1l-3.5 2t-4.5 2q0 -1 -11 2t-12 4h-16v-7t0 -3v-53v-58l1.5 -17t1.5 -16q0 -18 -1 -14q0 6 -5 -41v-33q1 -11 5 -14q0 -3 -5 -1v-4h-101v7h-1v0q-3 0 -4 5l-1 5q-3 -3 -3 13q0 -2 0 2v4v6v8q0 -1 0 25.5v47.5q0 -4 0 4.5v10.5q0 -2 0.5 4
l0.5 6l0.5 7.5t1.5 7.5l1.5 29.5t-1.5 36.5v7v7q-2 1 -4 66t1 60q-9 15 -2 45.5t7 45.5q0 -2 -2.5 16.5t-2.5 33.5q0 -1 0.5 34t0.5 62q0 -2 0 3.5v8.5l2 14.5t4 14.5q23 0 27.5 2.5t27.5 -4.5q1 0 40 -0.5t56 -3.5h3q144 0 149 -139q10 -44 4 -74q-2 -5 -4 -14t-5 -18
q-4 -20 -10 -32q-19 -53 -45 -50l-2 -1t-3 -1q66 -28 66 -135v-35q5 -62 1 -59q6 -27 4.5 -39t14.5 -42h-3h-7q0 -1 0.5 -1.5zM11 862q43 4 64 8.5t72 4.5q82 0 213 -5t199 -5q29 0 18.5 77.5t-2.5 111.5q23 102 19.5 279.5t-3.5 279.5q0 22 47.5 20t68.5 -2q0 -9 -2 -41
l-2 -32q22 -93 5 -216.5t-8 -197.5q4 -41 8.5 -151.5t-9.5 -143.5q-6 -16 71 -11.5t92 1.5q111 -23 199 -9.5t170 9.5q0 -159 0 -136t-96 3q-69 -15 -217.5 -3.5t-201.5 11.5q-16 0 -20.5 -46t-3.5 -101t4.5 -101t4.5 -46q30 -67 8 -160t-8 -165q18 -99 -16 -86t-95 1
q-3 -1 -6 79t-6 181t-5 193t-2 115q0 142 -4.5 152t-140.5 10q-14 0 -69 2.5t-116 5.5t-110 5.5l-49 2.5q-98 -21 -71 6t0 100zM869 1529q20 -6 21 -5h0.5t4.5 -2q-1 0 22.5 2.5l23.5 2.5h16h19l18.5 -2.5t15.5 -2.5q2 0 3.5 -1.5l1.5 -1.5l-1 -4t8 -16l4.5 -48t16.5 -74
q0 -1 1 -12.5t1 -12.5q-3 -2 14.5 -88.5t20.5 -99.5q-3 1 3.5 -37.5l6.5 -38.5q1 1 3.5 -10.5l2.5 -11.5l5 -39.5t9 -54.5q0 -4 3 -25t7 -23q-1 0 1 -6.5l2 -6.5q0 -3 -27 -3q-26 0 -25.5 -0.5t-14.5 5.5h-9.5t-4.5 0q-8 0 -10 -2l-7 -1.5t-10 1.5q-4 0 -6 11
q-2 4 -7.5 27.5t-4.5 24.5q0 -1 -4 18.5l-4 19.5q0 2 -1 2.5t-1 4.5h-11l-21.5 -2.5t-33.5 -2.5h-14.5h-8.5l-2.5 -0.5t-6.5 -0.5q-3 -6 -9.5 -40t-6.5 -37q2 0 -1 -13l-2 -7t-2 -6q0 -1 -41 -1.5l-41 -0.5l-4.5 0.5t-4.5 2.5q2 3 -6 1.5t-8 2.5q0 -3 4 6.5l4 9.5q0 -1 0 3
v4q-6 18 3 18q-5 0 5 14q0 -3 2 6t5 6v5.5v6.5q0 -1 0 9v17q0 -1 0 3.5v6.5l3.5 12.5t5.5 15.5q1 1 1 18l0.5 6t0.5 9l1 10l1 10q0 3 5 18q0 -2 4 21t4 32q0 13 2 15q-5 9 5 13l1 21.5t2 23.5q-3 -8 6.5 24.5t11.5 41.5q0 -2 0 4v6q0 -2 0 2.5t0 3.5q0 12 -1 13
q-1 0 -0.5 4.5l0.5 4.5v4v7q0 -8 7 39.5t11 53.5q-3 -6 3.5 27t6.5 22q0 17 2 17zM937 1384q3 -32 -12 -91.5t-15 -104.5q0 6 -3.5 -19t-3.5 -46l-0.5 -1.5t-4.5 -5.5l1 -2.5t3 -2.5h2.5h3.5q-2 0 21 -1.5t35 -1.5q-1 0 1 0h3q-1 0 0.5 0h2.5q2 0 3 2q0 -1 5 -1v3.5v5.5
q0 4 -3 7q0 4 -4 4v2.5v2.5v2t6 11q-4 4 -2 4l-3.5 7t-3.5 8q0 -4 -1 6.5t-1 16.5q0 -1 -3 10t-3 23l-1 2t-1 4l-0.5 2t-0.5 5l-2 5t-2 8l-0.5 9t-0.5 16v12.5t-6 26.5q-1 0 -3.5 16.5t-2.5 17.5q0 -1 -1 2.5l-1 3.5v5v10q0 2 -1 3l-1 1t-1 4l0.5 3.5t0.5 5.5zM105 1544
q5 4 20.5 3t24.5 -1h36.5h60.5l5 -18.5t7 -23.5q0 -1 6 -37.5l6 -36.5q1 -33 8.5 -69t7.5 -67q0 10 9 -44.5t11 -55.5q-1 0 -0.5 -11t1.5 -15l-0.5 -6t-0.5 -10v-2l1 2t2 3q0 -1 2 15t3 26l6 38t7 38l10.5 71.5t11.5 71.5q-2 -2 6.5 32l8.5 34q-1 0 -0.5 15t0.5 18l1 6.5
t2 10.5q-1 0 2.5 8.5t5.5 9.5q6 6 17 -4q-2 1 11 -1h82q-4 -1 14 2q0 -1 14 -0.5t17 0.5l-5 -40.5t-5 -41.5l5 -41.5t1 -69.5q-4 -22 -5 -54t-1 -56l1 -33.5l1 -33.5q0 -9 1 -16.5t1 -13.5l-4 -6v-40t5 -46l-2.5 -39t-2.5 -48v-7v-7v-6t4 -9l1.5 -5.5t-2.5 -4.5
q1 0 -5.5 -0.5t-12.5 -0.5l-25.5 -2t-40.5 -2q1 0 -2.5 0h-3.5q4 0 -2.5 -0.5t-7.5 -0.5q-6 0 -4.5 25t1.5 34q0 -3 -2 22.5l-2 25.5l1 40t1 51q0 -2 0 8v15v8.5v9.5q0 -2 0 13v24q0 -3 -1 11t-1 23q0 -2 0 4v9q0 -1 0 9v16q0 -1 0 3.5v6.5q0 -3 0 14.5v25.5
q0 -1 -14 -105.5l-14 -104.5q-2 -3 -9 -50.5t-7 -55.5l-4 -28.5t-4 -29.5q0 1 0 -1v-2q0 -2 -2 -2q1 0 -1.5 -3l-2.5 -3v-1.5t-2 -1.5v-4h-92l-2 11v0v0q-4 4 -4 14q0 -2 -3 23t-9 35q-3 3 -3 13q0 -4 -1 6t-1 14q0 -2 -0.5 5.5t-0.5 10.5l-4.5 19l-4.5 19q0 36 -14.5 83
t-13.5 93q0 2 -5 28.5t-5 30.5q0 -13 1 -65.5t8 -58.5l-1 -22.5l-1 -22.5l-3 -18t-5 -40v-67q2 -4 3 -5q-2 -4 0 -28t2 -30l2.5 -20t-7.5 -26v-2h-85v4h-11v4.5v6.5l1 5t1 8q0 -1 1.5 5.5t1.5 9.5q0 -2 1 50.5t1 85.5q0 -1 -1 3t-1 8q0 -1 1.5 13.5t4.5 17.5v6
q-1 15 -3.5 52t-5.5 43l0.5 11.5t0.5 16.5q0 -1 2 8.5t2 15.5q0 -3 1.5 13t1.5 28q0 -1 0 19v22q0 -2 0 9v17q0 -1 -2.5 16t-4.5 19q5 0 5 25q0 -3 0 12v24l-2 13.5t4 21.5l-1 1.5zM936 566q-1 0 -6 -1.5t-3 -1.5q0 -1 -9 -8.5t-4 -4.5q-8 -4 -13 -20t-3 -19l-0.5 -12
l-0.5 -12q0 -9 6 -25l4 -8q6 -7 7 -12q3 -5 11 -15q2 -3 4.5 -6t5.5 -6q14 -16 30.5 -31t34.5 -31h0.5h0.5l0.5 -1t1.5 -2q38 -39 54 -67q13 -19 14 -19q9 -8 15 -31l6 -23q0 -21 -9 -60q0 -1 -4 -11q-21 -112 -141 -112q-64 0 -101 34q-33 23 -36 40q-6 28 -8.5 32.5
t-2.5 41.5q0 -2 0 11t0 12v6.5v5.5q-1 0 -2.5 3l-1.5 3l3.5 0.5t3.5 1.5v0.5t1 0.5v1h5q7 1 16.5 1h9.5q10 0 35 2.5l25 2.5q7 -7 7 2v-9.5v-9.5q0 3 0 -9.5t0 -9.5v-14.5t0 -8.5q2 -2 5.5 -11t2.5 -6q2 -3 3.5 -8l1.5 -5q24 -22 37.5 -16l13.5 6q25 9 23.5 42.5l-1.5 33.5
l-8.5 20.5t-10.5 21.5q-6 3 -22.5 22.5l-16.5 19.5q-6 10 -59.5 62t-55.5 58q-16 38 -13.5 80.5l2.5 42.5q2 0 5.5 17.5l3.5 17.5q0 -1 2 3q0 1 1 3l2 4v0.5v1.5l1 2q1 4 8 18q5 9 9.5 19l4.5 10q18 16 50 25l32 9q1 2 8 3.5l7 1.5h10h10q16 0 31 -5q8 -3 29.5 -15t26.5 -11
q1 -1 5 -4.5l4 -3.5l11.5 -13.5t11.5 -14.5q0 -6 5.5 -15l5.5 -9q0 -14 2 -11q5 0 5 -23l2 -18.5t2 -31.5l0.5 -3.5t0.5 -4.5l-0.5 -3l-0.5 -3h-3t-1 0q-6 0 -23.5 -1t-19.5 -1l-17 2.5t-32 2.5q-17 0 -12 43.5t-45 43.5z" />
    <glyph glyph-name=".notdef" unicode="&#x2026;" horiz-adv-x="2048" 
d="M478 55h-28q-36 -2 -37 -2h-14t-13 0h-5h-4v0.5v1.5h-2q-2 6 -2 9l-8 12l-2 19t-1 24q-3 -2 -2.5 11l0.5 13v3t2 6l-0.5 3.5t-0.5 6.5q0 10 3 8q-1 -1 0 10l1 11q0 -1 -2 6t-2 6l0.5 4t1.5 7q-1 -5 -1 9v8v10q0 -1 -2 12t-5 15l2 -2t-2 7q-1 -4 -6 8.5t-5 7.5
q0 3 -12 9.5l-12 6.5q-4 0 -4 1l-3.5 2t-4.5 2q0 -1 -11 2t-12 4h-16v-7t0 -3v-53v-58l1.5 -17t1.5 -16q0 -18 -1 -14q0 6 -5 -41v-33q1 -11 5 -14q0 -3 -5 -1v-4h-101v7h-1v0q-3 0 -4 5l-1 5q-3 -3 -3 13q0 -2 0 2v4v6v8q0 -1 0 25.5v47.5q0 -4 0 4.5v10.5q0 -2 0.5 4
l0.5 6l0.5 7.5t1.5 7.5l1.5 29.5t-1.5 36.5v7v7q-2 1 -4 66t1 60q-9 15 -2 45.5t7 45.5q0 -2 -2.5 16.5t-2.5 33.5q0 -1 0.5 34t0.5 62q0 -2 0 3.5v8.5l2 14.5t4 14.5q23 0 27.5 2.5t27.5 -4.5q1 0 40 -0.5t56 -3.5h3q144 0 149 -139q10 -44 4 -74q-2 -5 -4 -14t-5 -18
q-4 -20 -10 -32q-19 -53 -45 -50l-2 -1t-3 -1q66 -28 66 -135v-35q5 -62 1 -59q6 -27 4.5 -39t14.5 -42h-3h-7q0 -1 0.5 -1.5zM11 862q43 4 64 8.5t72 4.5q82 0 213 -5t199 -5q29 0 18.5 77.5t-2.5 111.5q23 102 19.5 279.5t-3.5 279.5q0 22 47.5 20t68.5 -2q0 -9 -2 -41
l-2 -32q22 -93 5 -216.5t-8 -197.5q4 -41 8.5 -151.5t-9.5 -143.5q-6 -16 71 -11.5t92 1.5q111 -23 199 -9.5t170 9.5q0 -159 0 -136t-96 3q-69 -15 -217.5 -3.5t-201.5 11.5q-16 0 -20.5 -46t-3.5 -101t4.5 -101t4.5 -46q30 -67 8 -160t-8 -165q18 -99 -16 -86t-95 1
q-3 -1 -6 79t-6 181t-5 193t-2 115q0 142 -4.5 152t-140.5 10q-14 0 -69 2.5t-116 5.5t-110 5.5l-49 2.5q-98 -21 -71 6t0 100zM869 1529q20 -6 21 -5h0.5t4.5 -2q-1 0 22.5 2.5l23.5 2.5h16h19l18.5 -2.5t15.5 -2.5q2 0 3.5 -1.5l1.5 -1.5l-1 -4t8 -16l4.5 -48t16.5 -74
q0 -1 1 -12.5t1 -12.5q-3 -2 14.5 -88.5t20.5 -99.5q-3 1 3.5 -37.5l6.5 -38.5q1 1 3.5 -10.5l2.5 -11.5l5 -39.5t9 -54.5q0 -4 3 -25t7 -23q-1 0 1 -6.5l2 -6.5q0 -3 -27 -3q-26 0 -25.5 -0.5t-14.5 5.5h-9.5t-4.5 0q-8 0 -10 -2l-7 -1.5t-10 1.5q-4 0 -6 11
q-2 4 -7.5 27.5t-4.5 24.5q0 -1 -4 18.5l-4 19.5q0 2 -1 2.5t-1 4.5h-11l-21.5 -2.5t-33.5 -2.5h-14.5h-8.5l-2.5 -0.5t-6.5 -0.5q-3 -6 -9.5 -40t-6.5 -37q2 0 -1 -13l-2 -7t-2 -6q0 -1 -41 -1.5l-41 -0.5l-4.5 0.5t-4.5 2.5q2 3 -6 1.5t-8 2.5q0 -3 4 6.5l4 9.5q0 -1 0 3
v4q-6 18 3 18q-5 0 5 14q0 -3 2 6t5 6v5.5v6.5q0 -1 0 9v17q0 -1 0 3.5v6.5l3.5 12.5t5.5 15.5q1 1 1 18l0.5 6t0.5 9l1 10l1 10q0 3 5 18q0 -2 4 21t4 32q0 13 2 15q-5 9 5 13l1 21.5t2 23.5q-3 -8 6.5 24.5t11.5 41.5q0 -2 0 4v6q0 -2 0 2.5t0 3.5q0 12 -1 13
q-1 0 -0.5 4.5l0.5 4.5v4v7q0 -8 7 39.5t11 53.5q-3 -6 3.5 27t6.5 22q0 17 2 17zM937 1384q3 -32 -12 -91.5t-15 -104.5q0 6 -3.5 -19t-3.5 -46l-0.5 -1.5t-4.5 -5.5l1 -2.5t3 -2.5h2.5h3.5q-2 0 21 -1.5t35 -1.5q-1 0 1 0h3q-1 0 0.5 0h2.5q2 0 3 2q0 -1 5 -1v3.5v5.5
q0 4 -3 7q0 4 -4 4v2.5v2.5v2t6 11q-4 4 -2 4l-3.5 7t-3.5 8q0 -4 -1 6.5t-1 16.5q0 -1 -3 10t-3 23l-1 2t-1 4l-0.5 2t-0.5 5l-2 5t-2 8l-0.5 9t-0.5 16v12.5t-6 26.5q-1 0 -3.5 16.5t-2.5 17.5q0 -1 -1 2.5l-1 3.5v5v10q0 2 -1 3l-1 1t-1 4l0.5 3.5t0.5 5.5zM105 1544
q5 4 20.5 3t24.5 -1h36.5h60.5l5 -18.5t7 -23.5q0 -1 6 -37.5l6 -36.5q1 -33 8.5 -69t7.5 -67q0 10 9 -44.5t11 -55.5q-1 0 -0.5 -11t1.5 -15l-0.5 -6t-0.5 -10v-2l1 2t2 3q0 -1 2 15t3 26l6 38t7 38l10.5 71.5t11.5 71.5q-2 -2 6.5 32l8.5 34q-1 0 -0.5 15t0.5 18l1 6.5
t2 10.5q-1 0 2.5 8.5t5.5 9.5q6 6 17 -4q-2 1 11 -1h82q-4 -1 14 2q0 -1 14 -0.5t17 0.5l-5 -40.5t-5 -41.5l5 -41.5t1 -69.5q-4 -22 -5 -54t-1 -56l1 -33.5l1 -33.5q0 -9 1 -16.5t1 -13.5l-4 -6v-40t5 -46l-2.5 -39t-2.5 -48v-7v-7v-6t4 -9l1.5 -5.5t-2.5 -4.5
q1 0 -5.5 -0.5t-12.5 -0.5l-25.5 -2t-40.5 -2q1 0 -2.5 0h-3.5q4 0 -2.5 -0.5t-7.5 -0.5q-6 0 -4.5 25t1.5 34q0 -3 -2 22.5l-2 25.5l1 40t1 51q0 -2 0 8v15v8.5v9.5q0 -2 0 13v24q0 -3 -1 11t-1 23q0 -2 0 4v9q0 -1 0 9v16q0 -1 0 3.5v6.5q0 -3 0 14.5v25.5
q0 -1 -14 -105.5l-14 -104.5q-2 -3 -9 -50.5t-7 -55.5l-4 -28.5t-4 -29.5q0 1 0 -1v-2q0 -2 -2 -2q1 0 -1.5 -3l-2.5 -3v-1.5t-2 -1.5v-4h-92l-2 11v0v0q-4 4 -4 14q0 -2 -3 23t-9 35q-3 3 -3 13q0 -4 -1 6t-1 14q0 -2 -0.5 5.5t-0.5 10.5l-4.5 19l-4.5 19q0 36 -14.5 83
t-13.5 93q0 2 -5 28.5t-5 30.5q0 -13 1 -65.5t8 -58.5l-1 -22.5l-1 -22.5l-3 -18t-5 -40v-67q2 -4 3 -5q-2 -4 0 -28t2 -30l2.5 -20t-7.5 -26v-2h-85v4h-11v4.5v6.5l1 5t1 8q0 -1 1.5 5.5t1.5 9.5q0 -2 1 50.5t1 85.5q0 -1 -1 3t-1 8q0 -1 1.5 13.5t4.5 17.5v6
q-1 15 -3.5 52t-5.5 43l0.5 11.5t0.5 16.5q0 -1 2 8.5t2 15.5q0 -3 1.5 13t1.5 28q0 -1 0 19v22q0 -2 0 9v17q0 -1 -2.5 16t-4.5 19q5 0 5 25q0 -3 0 12v24l-2 13.5t4 21.5l-1 1.5zM936 566q-1 0 -6 -1.5t-3 -1.5q0 -1 -9 -8.5t-4 -4.5q-8 -4 -13 -20t-3 -19l-0.5 -12
l-0.5 -12q0 -9 6 -25l4 -8q6 -7 7 -12q3 -5 11 -15q2 -3 4.5 -6t5.5 -6q14 -16 30.5 -31t34.5 -31h0.5h0.5l0.5 -1t1.5 -2q38 -39 54 -67q13 -19 14 -19q9 -8 15 -31l6 -23q0 -21 -9 -60q0 -1 -4 -11q-21 -112 -141 -112q-64 0 -101 34q-33 23 -36 40q-6 28 -8.5 32.5
t-2.5 41.5q0 -2 0 11t0 12v6.5v5.5q-1 0 -2.5 3l-1.5 3l3.5 0.5t3.5 1.5v0.5t1 0.5v1h5q7 1 16.5 1h9.5q10 0 35 2.5l25 2.5q7 -7 7 2v-9.5v-9.5q0 3 0 -9.5t0 -9.5v-14.5t0 -8.5q2 -2 5.5 -11t2.5 -6q2 -3 3.5 -8l1.5 -5q24 -22 37.5 -16l13.5 6q25 9 23.5 42.5l-1.5 33.5
l-8.5 20.5t-10.5 21.5q-6 3 -22.5 22.5l-16.5 19.5q-6 10 -59.5 62t-55.5 58q-16 38 -13.5 80.5l2.5 42.5q2 0 5.5 17.5l3.5 17.5q0 -1 2 3q0 1 1 3l2 4v0.5v1.5l1 2q1 4 8 18q5 9 9.5 19l4.5 10q18 16 50 25l32 9q1 2 8 3.5l7 1.5h10h10q16 0 31 -5q8 -3 29.5 -15t26.5 -11
q1 -1 5 -4.5l4 -3.5l11.5 -13.5t11.5 -14.5q0 -6 5.5 -15l5.5 -9q0 -14 2 -11q5 0 5 -23l2 -18.5t2 -31.5l0.5 -3.5t0.5 -4.5l-0.5 -3l-0.5 -3h-3t-1 0q-6 0 -23.5 -1t-19.5 -1l-17 2.5t-32 2.5q-17 0 -12 43.5t-45 43.5z" />
    <glyph glyph-name=".notdef" unicode="&#x3c0;" horiz-adv-x="2048" 
d="M478 55h-28q-36 -2 -37 -2h-14t-13 0h-5h-4v0.5v1.5h-2q-2 6 -2 9l-8 12l-2 19t-1 24q-3 -2 -2.5 11l0.5 13v3t2 6l-0.5 3.5t-0.5 6.5q0 10 3 8q-1 -1 0 10l1 11q0 -1 -2 6t-2 6l0.5 4t1.5 7q-1 -5 -1 9v8v10q0 -1 -2 12t-5 15l2 -2t-2 7q-1 -4 -6 8.5t-5 7.5
q0 3 -12 9.5l-12 6.5q-4 0 -4 1l-3.5 2t-4.5 2q0 -1 -11 2t-12 4h-16v-7t0 -3v-53v-58l1.5 -17t1.5 -16q0 -18 -1 -14q0 6 -5 -41v-33q1 -11 5 -14q0 -3 -5 -1v-4h-101v7h-1v0q-3 0 -4 5l-1 5q-3 -3 -3 13q0 -2 0 2v4v6v8q0 -1 0 25.5v47.5q0 -4 0 4.5v10.5q0 -2 0.5 4
l0.5 6l0.5 7.5t1.5 7.5l1.5 29.5t-1.5 36.5v7v7q-2 1 -4 66t1 60q-9 15 -2 45.5t7 45.5q0 -2 -2.5 16.5t-2.5 33.5q0 -1 0.5 34t0.5 62q0 -2 0 3.5v8.5l2 14.5t4 14.5q23 0 27.5 2.5t27.5 -4.5q1 0 40 -0.5t56 -3.5h3q144 0 149 -139q10 -44 4 -74q-2 -5 -4 -14t-5 -18
q-4 -20 -10 -32q-19 -53 -45 -50l-2 -1t-3 -1q66 -28 66 -135v-35q5 -62 1 -59q6 -27 4.5 -39t14.5 -42h-3h-7q0 -1 0.5 -1.5zM11 862q43 4 64 8.5t72 4.5q82 0 213 -5t199 -5q29 0 18.5 77.5t-2.5 111.5q23 102 19.5 279.5t-3.5 279.5q0 22 47.5 20t68.5 -2q0 -9 -2 -41
l-2 -32q22 -93 5 -216.5t-8 -197.5q4 -41 8.5 -151.5t-9.5 -143.5q-6 -16 71 -11.5t92 1.5q111 -23 199 -9.5t170 9.5q0 -159 0 -136t-96 3q-69 -15 -217.5 -3.5t-201.5 11.5q-16 0 -20.5 -46t-3.5 -101t4.5 -101t4.5 -46q30 -67 8 -160t-8 -165q18 -99 -16 -86t-95 1
q-3 -1 -6 79t-6 181t-5 193t-2 115q0 142 -4.5 152t-140.5 10q-14 0 -69 2.5t-116 5.5t-110 5.5l-49 2.5q-98 -21 -71 6t0 100zM869 1529q20 -6 21 -5h0.5t4.5 -2q-1 0 22.5 2.5l23.5 2.5h16h19l18.5 -2.5t15.5 -2.5q2 0 3.5 -1.5l1.5 -1.5l-1 -4t8 -16l4.5 -48t16.5 -74
q0 -1 1 -12.5t1 -12.5q-3 -2 14.5 -88.5t20.5 -99.5q-3 1 3.5 -37.5l6.5 -38.5q1 1 3.5 -10.5l2.5 -11.5l5 -39.5t9 -54.5q0 -4 3 -25t7 -23q-1 0 1 -6.5l2 -6.5q0 -3 -27 -3q-26 0 -25.5 -0.5t-14.5 5.5h-9.5t-4.5 0q-8 0 -10 -2l-7 -1.5t-10 1.5q-4 0 -6 11
q-2 4 -7.5 27.5t-4.5 24.5q0 -1 -4 18.5l-4 19.5q0 2 -1 2.5t-1 4.5h-11l-21.5 -2.5t-33.5 -2.5h-14.5h-8.5l-2.5 -0.5t-6.5 -0.5q-3 -6 -9.5 -40t-6.5 -37q2 0 -1 -13l-2 -7t-2 -6q0 -1 -41 -1.5l-41 -0.5l-4.5 0.5t-4.5 2.5q2 3 -6 1.5t-8 2.5q0 -3 4 6.5l4 9.5q0 -1 0 3
v4q-6 18 3 18q-5 0 5 14q0 -3 2 6t5 6v5.5v6.5q0 -1 0 9v17q0 -1 0 3.5v6.5l3.5 12.5t5.5 15.5q1 1 1 18l0.5 6t0.5 9l1 10l1 10q0 3 5 18q0 -2 4 21t4 32q0 13 2 15q-5 9 5 13l1 21.5t2 23.5q-3 -8 6.5 24.5t11.5 41.5q0 -2 0 4v6q0 -2 0 2.5t0 3.5q0 12 -1 13
q-1 0 -0.5 4.5l0.5 4.5v4v7q0 -8 7 39.5t11 53.5q-3 -6 3.5 27t6.5 22q0 17 2 17zM937 1384q3 -32 -12 -91.5t-15 -104.5q0 6 -3.5 -19t-3.5 -46l-0.5 -1.5t-4.5 -5.5l1 -2.5t3 -2.5h2.5h3.5q-2 0 21 -1.5t35 -1.5q-1 0 1 0h3q-1 0 0.5 0h2.5q2 0 3 2q0 -1 5 -1v3.5v5.5
q0 4 -3 7q0 4 -4 4v2.5v2.5v2t6 11q-4 4 -2 4l-3.5 7t-3.5 8q0 -4 -1 6.5t-1 16.5q0 -1 -3 10t-3 23l-1 2t-1 4l-0.5 2t-0.5 5l-2 5t-2 8l-0.5 9t-0.5 16v12.5t-6 26.5q-1 0 -3.5 16.5t-2.5 17.5q0 -1 -1 2.5l-1 3.5v5v10q0 2 -1 3l-1 1t-1 4l0.5 3.5t0.5 5.5zM105 1544
q5 4 20.5 3t24.5 -1h36.5h60.5l5 -18.5t7 -23.5q0 -1 6 -37.5l6 -36.5q1 -33 8.5 -69t7.5 -67q0 10 9 -44.5t11 -55.5q-1 0 -0.5 -11t1.5 -15l-0.5 -6t-0.5 -10v-2l1 2t2 3q0 -1 2 15t3 26l6 38t7 38l10.5 71.5t11.5 71.5q-2 -2 6.5 32l8.5 34q-1 0 -0.5 15t0.5 18l1 6.5
t2 10.5q-1 0 2.5 8.5t5.5 9.5q6 6 17 -4q-2 1 11 -1h82q-4 -1 14 2q0 -1 14 -0.5t17 0.5l-5 -40.5t-5 -41.5l5 -41.5t1 -69.5q-4 -22 -5 -54t-1 -56l1 -33.5l1 -33.5q0 -9 1 -16.5t1 -13.5l-4 -6v-40t5 -46l-2.5 -39t-2.5 -48v-7v-7v-6t4 -9l1.5 -5.5t-2.5 -4.5
q1 0 -5.5 -0.5t-12.5 -0.5l-25.5 -2t-40.5 -2q1 0 -2.5 0h-3.5q4 0 -2.5 -0.5t-7.5 -0.5q-6 0 -4.5 25t1.5 34q0 -3 -2 22.5l-2 25.5l1 40t1 51q0 -2 0 8v15v8.5v9.5q0 -2 0 13v24q0 -3 -1 11t-1 23q0 -2 0 4v9q0 -1 0 9v16q0 -1 0 3.5v6.5q0 -3 0 14.5v25.5
q0 -1 -14 -105.5l-14 -104.5q-2 -3 -9 -50.5t-7 -55.5l-4 -28.5t-4 -29.5q0 1 0 -1v-2q0 -2 -2 -2q1 0 -1.5 -3l-2.5 -3v-1.5t-2 -1.5v-4h-92l-2 11v0v0q-4 4 -4 14q0 -2 -3 23t-9 35q-3 3 -3 13q0 -4 -1 6t-1 14q0 -2 -0.5 5.5t-0.5 10.5l-4.5 19l-4.5 19q0 36 -14.5 83
t-13.5 93q0 2 -5 28.5t-5 30.5q0 -13 1 -65.5t8 -58.5l-1 -22.5l-1 -22.5l-3 -18t-5 -40v-67q2 -4 3 -5q-2 -4 0 -28t2 -30l2.5 -20t-7.5 -26v-2h-85v4h-11v4.5v6.5l1 5t1 8q0 -1 1.5 5.5t1.5 9.5q0 -2 1 50.5t1 85.5q0 -1 -1 3t-1 8q0 -1 1.5 13.5t4.5 17.5v6
q-1 15 -3.5 52t-5.5 43l0.5 11.5t0.5 16.5q0 -1 2 8.5t2 15.5q0 -3 1.5 13t1.5 28q0 -1 0 19v22q0 -2 0 9v17q0 -1 -2.5 16t-4.5 19q5 0 5 25q0 -3 0 12v24l-2 13.5t4 21.5l-1 1.5zM936 566q-1 0 -6 -1.5t-3 -1.5q0 -1 -9 -8.5t-4 -4.5q-8 -4 -13 -20t-3 -19l-0.5 -12
l-0.5 -12q0 -9 6 -25l4 -8q6 -7 7 -12q3 -5 11 -15q2 -3 4.5 -6t5.5 -6q14 -16 30.5 -31t34.5 -31h0.5h0.5l0.5 -1t1.5 -2q38 -39 54 -67q13 -19 14 -19q9 -8 15 -31l6 -23q0 -21 -9 -60q0 -1 -4 -11q-21 -112 -141 -112q-64 0 -101 34q-33 23 -36 40q-6 28 -8.5 32.5
t-2.5 41.5q0 -2 0 11t0 12v6.5v5.5q-1 0 -2.5 3l-1.5 3l3.5 0.5t3.5 1.5v0.5t1 0.5v1h5q7 1 16.5 1h9.5q10 0 35 2.5l25 2.5q7 -7 7 2v-9.5v-9.5q0 3 0 -9.5t0 -9.5v-14.5t0 -8.5q2 -2 5.5 -11t2.5 -6q2 -3 3.5 -8l1.5 -5q24 -22 37.5 -16l13.5 6q25 9 23.5 42.5l-1.5 33.5
l-8.5 20.5t-10.5 21.5q-6 3 -22.5 22.5l-16.5 19.5q-6 10 -59.5 62t-55.5 58q-16 38 -13.5 80.5l2.5 42.5q2 0 5.5 17.5l3.5 17.5q0 -1 2 3q0 1 1 3l2 4v0.5v1.5l1 2q1 4 8 18q5 9 9.5 19l4.5 10q18 16 50 25l32 9q1 2 8 3.5l7 1.5h10h10q16 0 31 -5q8 -3 29.5 -15t26.5 -11
q1 -1 5 -4.5l4 -3.5l11.5 -13.5t11.5 -14.5q0 -6 5.5 -15l5.5 -9q0 -14 2 -11q5 0 5 -23l2 -18.5t2 -31.5l0.5 -3.5t0.5 -4.5l-0.5 -3l-0.5 -3h-3t-1 0q-6 0 -23.5 -1t-19.5 -1l-17 2.5t-32 2.5q-17 0 -12 43.5t-45 43.5z" />
    <glyph glyph-name=".notdef" unicode="&#x3a9;" horiz-adv-x="2048" 
d="M478 55h-28q-36 -2 -37 -2h-14t-13 0h-5h-4v0.5v1.5h-2q-2 6 -2 9l-8 12l-2 19t-1 24q-3 -2 -2.5 11l0.5 13v3t2 6l-0.5 3.5t-0.5 6.5q0 10 3 8q-1 -1 0 10l1 11q0 -1 -2 6t-2 6l0.5 4t1.5 7q-1 -5 -1 9v8v10q0 -1 -2 12t-5 15l2 -2t-2 7q-1 -4 -6 8.5t-5 7.5
q0 3 -12 9.5l-12 6.5q-4 0 -4 1l-3.5 2t-4.5 2q0 -1 -11 2t-12 4h-16v-7t0 -3v-53v-58l1.5 -17t1.5 -16q0 -18 -1 -14q0 6 -5 -41v-33q1 -11 5 -14q0 -3 -5 -1v-4h-101v7h-1v0q-3 0 -4 5l-1 5q-3 -3 -3 13q0 -2 0 2v4v6v8q0 -1 0 25.5v47.5q0 -4 0 4.5v10.5q0 -2 0.5 4
l0.5 6l0.5 7.5t1.5 7.5l1.5 29.5t-1.5 36.5v7v7q-2 1 -4 66t1 60q-9 15 -2 45.5t7 45.5q0 -2 -2.5 16.5t-2.5 33.5q0 -1 0.5 34t0.5 62q0 -2 0 3.5v8.5l2 14.5t4 14.5q23 0 27.5 2.5t27.5 -4.5q1 0 40 -0.5t56 -3.5h3q144 0 149 -139q10 -44 4 -74q-2 -5 -4 -14t-5 -18
q-4 -20 -10 -32q-19 -53 -45 -50l-2 -1t-3 -1q66 -28 66 -135v-35q5 -62 1 -59q6 -27 4.5 -39t14.5 -42h-3h-7q0 -1 0.5 -1.5zM11 862q43 4 64 8.5t72 4.5q82 0 213 -5t199 -5q29 0 18.5 77.5t-2.5 111.5q23 102 19.5 279.5t-3.5 279.5q0 22 47.5 20t68.5 -2q0 -9 -2 -41
l-2 -32q22 -93 5 -216.5t-8 -197.5q4 -41 8.5 -151.5t-9.5 -143.5q-6 -16 71 -11.5t92 1.5q111 -23 199 -9.5t170 9.5q0 -159 0 -136t-96 3q-69 -15 -217.5 -3.5t-201.5 11.5q-16 0 -20.5 -46t-3.5 -101t4.5 -101t4.5 -46q30 -67 8 -160t-8 -165q18 -99 -16 -86t-95 1
q-3 -1 -6 79t-6 181t-5 193t-2 115q0 142 -4.5 152t-140.5 10q-14 0 -69 2.5t-116 5.5t-110 5.5l-49 2.5q-98 -21 -71 6t0 100zM869 1529q20 -6 21 -5h0.5t4.5 -2q-1 0 22.5 2.5l23.5 2.5h16h19l18.5 -2.5t15.5 -2.5q2 0 3.5 -1.5l1.5 -1.5l-1 -4t8 -16l4.5 -48t16.5 -74
q0 -1 1 -12.5t1 -12.5q-3 -2 14.5 -88.5t20.5 -99.5q-3 1 3.5 -37.5l6.5 -38.5q1 1 3.5 -10.5l2.5 -11.5l5 -39.5t9 -54.5q0 -4 3 -25t7 -23q-1 0 1 -6.5l2 -6.5q0 -3 -27 -3q-26 0 -25.5 -0.5t-14.5 5.5h-9.5t-4.5 0q-8 0 -10 -2l-7 -1.5t-10 1.5q-4 0 -6 11
q-2 4 -7.5 27.5t-4.5 24.5q0 -1 -4 18.5l-4 19.5q0 2 -1 2.5t-1 4.5h-11l-21.5 -2.5t-33.5 -2.5h-14.5h-8.5l-2.5 -0.5t-6.5 -0.5q-3 -6 -9.5 -40t-6.5 -37q2 0 -1 -13l-2 -7t-2 -6q0 -1 -41 -1.5l-41 -0.5l-4.5 0.5t-4.5 2.5q2 3 -6 1.5t-8 2.5q0 -3 4 6.5l4 9.5q0 -1 0 3
v4q-6 18 3 18q-5 0 5 14q0 -3 2 6t5 6v5.5v6.5q0 -1 0 9v17q0 -1 0 3.5v6.5l3.5 12.5t5.5 15.5q1 1 1 18l0.5 6t0.5 9l1 10l1 10q0 3 5 18q0 -2 4 21t4 32q0 13 2 15q-5 9 5 13l1 21.5t2 23.5q-3 -8 6.5 24.5t11.5 41.5q0 -2 0 4v6q0 -2 0 2.5t0 3.5q0 12 -1 13
q-1 0 -0.5 4.5l0.5 4.5v4v7q0 -8 7 39.5t11 53.5q-3 -6 3.5 27t6.5 22q0 17 2 17zM937 1384q3 -32 -12 -91.5t-15 -104.5q0 6 -3.5 -19t-3.5 -46l-0.5 -1.5t-4.5 -5.5l1 -2.5t3 -2.5h2.5h3.5q-2 0 21 -1.5t35 -1.5q-1 0 1 0h3q-1 0 0.5 0h2.5q2 0 3 2q0 -1 5 -1v3.5v5.5
q0 4 -3 7q0 4 -4 4v2.5v2.5v2t6 11q-4 4 -2 4l-3.5 7t-3.5 8q0 -4 -1 6.5t-1 16.5q0 -1 -3 10t-3 23l-1 2t-1 4l-0.5 2t-0.5 5l-2 5t-2 8l-0.5 9t-0.5 16v12.5t-6 26.5q-1 0 -3.5 16.5t-2.5 17.5q0 -1 -1 2.5l-1 3.5v5v10q0 2 -1 3l-1 1t-1 4l0.5 3.5t0.5 5.5zM105 1544
q5 4 20.5 3t24.5 -1h36.5h60.5l5 -18.5t7 -23.5q0 -1 6 -37.5l6 -36.5q1 -33 8.5 -69t7.5 -67q0 10 9 -44.5t11 -55.5q-1 0 -0.5 -11t1.5 -15l-0.5 -6t-0.5 -10v-2l1 2t2 3q0 -1 2 15t3 26l6 38t7 38l10.5 71.5t11.5 71.5q-2 -2 6.5 32l8.5 34q-1 0 -0.5 15t0.5 18l1 6.5
t2 10.5q-1 0 2.5 8.5t5.5 9.5q6 6 17 -4q-2 1 11 -1h82q-4 -1 14 2q0 -1 14 -0.5t17 0.5l-5 -40.5t-5 -41.5l5 -41.5t1 -69.5q-4 -22 -5 -54t-1 -56l1 -33.5l1 -33.5q0 -9 1 -16.5t1 -13.5l-4 -6v-40t5 -46l-2.5 -39t-2.5 -48v-7v-7v-6t4 -9l1.5 -5.5t-2.5 -4.5
q1 0 -5.5 -0.5t-12.5 -0.5l-25.5 -2t-40.5 -2q1 0 -2.5 0h-3.5q4 0 -2.5 -0.5t-7.5 -0.5q-6 0 -4.5 25t1.5 34q0 -3 -2 22.5l-2 25.5l1 40t1 51q0 -2 0 8v15v8.5v9.5q0 -2 0 13v24q0 -3 -1 11t-1 23q0 -2 0 4v9q0 -1 0 9v16q0 -1 0 3.5v6.5q0 -3 0 14.5v25.5
q0 -1 -14 -105.5l-14 -104.5q-2 -3 -9 -50.5t-7 -55.5l-4 -28.5t-4 -29.5q0 1 0 -1v-2q0 -2 -2 -2q1 0 -1.5 -3l-2.5 -3v-1.5t-2 -1.5v-4h-92l-2 11v0v0q-4 4 -4 14q0 -2 -3 23t-9 35q-3 3 -3 13q0 -4 -1 6t-1 14q0 -2 -0.5 5.5t-0.5 10.5l-4.5 19l-4.5 19q0 36 -14.5 83
t-13.5 93q0 2 -5 28.5t-5 30.5q0 -13 1 -65.5t8 -58.5l-1 -22.5l-1 -22.5l-3 -18t-5 -40v-67q2 -4 3 -5q-2 -4 0 -28t2 -30l2.5 -20t-7.5 -26v-2h-85v4h-11v4.5v6.5l1 5t1 8q0 -1 1.5 5.5t1.5 9.5q0 -2 1 50.5t1 85.5q0 -1 -1 3t-1 8q0 -1 1.5 13.5t4.5 17.5v6
q-1 15 -3.5 52t-5.5 43l0.5 11.5t0.5 16.5q0 -1 2 8.5t2 15.5q0 -3 1.5 13t1.5 28q0 -1 0 19v22q0 -2 0 9v17q0 -1 -2.5 16t-4.5 19q5 0 5 25q0 -3 0 12v24l-2 13.5t4 21.5l-1 1.5zM936 566q-1 0 -6 -1.5t-3 -1.5q0 -1 -9 -8.5t-4 -4.5q-8 -4 -13 -20t-3 -19l-0.5 -12
l-0.5 -12q0 -9 6 -25l4 -8q6 -7 7 -12q3 -5 11 -15q2 -3 4.5 -6t5.5 -6q14 -16 30.5 -31t34.5 -31h0.5h0.5l0.5 -1t1.5 -2q38 -39 54 -67q13 -19 14 -19q9 -8 15 -31l6 -23q0 -21 -9 -60q0 -1 -4 -11q-21 -112 -141 -112q-64 0 -101 34q-33 23 -36 40q-6 28 -8.5 32.5
t-2.5 41.5q0 -2 0 11t0 12v6.5v5.5q-1 0 -2.5 3l-1.5 3l3.5 0.5t3.5 1.5v0.5t1 0.5v1h5q7 1 16.5 1h9.5q10 0 35 2.5l25 2.5q7 -7 7 2v-9.5v-9.5q0 3 0 -9.5t0 -9.5v-14.5t0 -8.5q2 -2 5.5 -11t2.5 -6q2 -3 3.5 -8l1.5 -5q24 -22 37.5 -16l13.5 6q25 9 23.5 42.5l-1.5 33.5
l-8.5 20.5t-10.5 21.5q-6 3 -22.5 22.5l-16.5 19.5q-6 10 -59.5 62t-55.5 58q-16 38 -13.5 80.5l2.5 42.5q2 0 5.5 17.5l3.5 17.5q0 -1 2 3q0 1 1 3l2 4v0.5v1.5l1 2q1 4 8 18q5 9 9.5 19l4.5 10q18 16 50 25l32 9q1 2 8 3.5l7 1.5h10h10q16 0 31 -5q8 -3 29.5 -15t26.5 -11
q1 -1 5 -4.5l4 -3.5l11.5 -13.5t11.5 -14.5q0 -6 5.5 -15l5.5 -9q0 -14 2 -11q5 0 5 -23l2 -18.5t2 -31.5l0.5 -3.5t0.5 -4.5l-0.5 -3l-0.5 -3h-3t-1 0q-6 0 -23.5 -1t-19.5 -1l-17 2.5t-32 2.5q-17 0 -12 43.5t-45 43.5z" />
    <glyph glyph-name=".notdef" unicode="&#x394;" horiz-adv-x="2048" 
d="M478 55h-28q-36 -2 -37 -2h-14t-13 0h-5h-4v0.5v1.5h-2q-2 6 -2 9l-8 12l-2 19t-1 24q-3 -2 -2.5 11l0.5 13v3t2 6l-0.5 3.5t-0.5 6.5q0 10 3 8q-1 -1 0 10l1 11q0 -1 -2 6t-2 6l0.5 4t1.5 7q-1 -5 -1 9v8v10q0 -1 -2 12t-5 15l2 -2t-2 7q-1 -4 -6 8.5t-5 7.5
q0 3 -12 9.5l-12 6.5q-4 0 -4 1l-3.5 2t-4.5 2q0 -1 -11 2t-12 4h-16v-7t0 -3v-53v-58l1.5 -17t1.5 -16q0 -18 -1 -14q0 6 -5 -41v-33q1 -11 5 -14q0 -3 -5 -1v-4h-101v7h-1v0q-3 0 -4 5l-1 5q-3 -3 -3 13q0 -2 0 2v4v6v8q0 -1 0 25.5v47.5q0 -4 0 4.5v10.5q0 -2 0.5 4
l0.5 6l0.5 7.5t1.5 7.5l1.5 29.5t-1.5 36.5v7v7q-2 1 -4 66t1 60q-9 15 -2 45.5t7 45.5q0 -2 -2.5 16.5t-2.5 33.5q0 -1 0.5 34t0.5 62q0 -2 0 3.5v8.5l2 14.5t4 14.5q23 0 27.5 2.5t27.5 -4.5q1 0 40 -0.5t56 -3.5h3q144 0 149 -139q10 -44 4 -74q-2 -5 -4 -14t-5 -18
q-4 -20 -10 -32q-19 -53 -45 -50l-2 -1t-3 -1q66 -28 66 -135v-35q5 -62 1 -59q6 -27 4.5 -39t14.5 -42h-3h-7q0 -1 0.5 -1.5zM11 862q43 4 64 8.5t72 4.5q82 0 213 -5t199 -5q29 0 18.5 77.5t-2.5 111.5q23 102 19.5 279.5t-3.5 279.5q0 22 47.5 20t68.5 -2q0 -9 -2 -41
l-2 -32q22 -93 5 -216.5t-8 -197.5q4 -41 8.5 -151.5t-9.5 -143.5q-6 -16 71 -11.5t92 1.5q111 -23 199 -9.5t170 9.5q0 -159 0 -136t-96 3q-69 -15 -217.5 -3.5t-201.5 11.5q-16 0 -20.5 -46t-3.5 -101t4.5 -101t4.5 -46q30 -67 8 -160t-8 -165q18 -99 -16 -86t-95 1
q-3 -1 -6 79t-6 181t-5 193t-2 115q0 142 -4.5 152t-140.5 10q-14 0 -69 2.5t-116 5.5t-110 5.5l-49 2.5q-98 -21 -71 6t0 100zM869 1529q20 -6 21 -5h0.5t4.5 -2q-1 0 22.5 2.5l23.5 2.5h16h19l18.5 -2.5t15.5 -2.5q2 0 3.5 -1.5l1.5 -1.5l-1 -4t8 -16l4.5 -48t16.5 -74
q0 -1 1 -12.5t1 -12.5q-3 -2 14.5 -88.5t20.5 -99.5q-3 1 3.5 -37.5l6.5 -38.5q1 1 3.5 -10.5l2.5 -11.5l5 -39.5t9 -54.5q0 -4 3 -25t7 -23q-1 0 1 -6.5l2 -6.5q0 -3 -27 -3q-26 0 -25.5 -0.5t-14.5 5.5h-9.5t-4.5 0q-8 0 -10 -2l-7 -1.5t-10 1.5q-4 0 -6 11
q-2 4 -7.5 27.5t-4.5 24.5q0 -1 -4 18.5l-4 19.5q0 2 -1 2.5t-1 4.5h-11l-21.5 -2.5t-33.5 -2.5h-14.5h-8.5l-2.5 -0.5t-6.5 -0.5q-3 -6 -9.5 -40t-6.5 -37q2 0 -1 -13l-2 -7t-2 -6q0 -1 -41 -1.5l-41 -0.5l-4.5 0.5t-4.5 2.5q2 3 -6 1.5t-8 2.5q0 -3 4 6.5l4 9.5q0 -1 0 3
v4q-6 18 3 18q-5 0 5 14q0 -3 2 6t5 6v5.5v6.5q0 -1 0 9v17q0 -1 0 3.5v6.5l3.5 12.5t5.5 15.5q1 1 1 18l0.5 6t0.5 9l1 10l1 10q0 3 5 18q0 -2 4 21t4 32q0 13 2 15q-5 9 5 13l1 21.5t2 23.5q-3 -8 6.5 24.5t11.5 41.5q0 -2 0 4v6q0 -2 0 2.5t0 3.5q0 12 -1 13
q-1 0 -0.5 4.5l0.5 4.5v4v7q0 -8 7 39.5t11 53.5q-3 -6 3.5 27t6.5 22q0 17 2 17zM937 1384q3 -32 -12 -91.5t-15 -104.5q0 6 -3.5 -19t-3.5 -46l-0.5 -1.5t-4.5 -5.5l1 -2.5t3 -2.5h2.5h3.5q-2 0 21 -1.5t35 -1.5q-1 0 1 0h3q-1 0 0.5 0h2.5q2 0 3 2q0 -1 5 -1v3.5v5.5
q0 4 -3 7q0 4 -4 4v2.5v2.5v2t6 11q-4 4 -2 4l-3.5 7t-3.5 8q0 -4 -1 6.5t-1 16.5q0 -1 -3 10t-3 23l-1 2t-1 4l-0.5 2t-0.5 5l-2 5t-2 8l-0.5 9t-0.5 16v12.5t-6 26.5q-1 0 -3.5 16.5t-2.5 17.5q0 -1 -1 2.5l-1 3.5v5v10q0 2 -1 3l-1 1t-1 4l0.5 3.5t0.5 5.5zM105 1544
q5 4 20.5 3t24.5 -1h36.5h60.5l5 -18.5t7 -23.5q0 -1 6 -37.5l6 -36.5q1 -33 8.5 -69t7.5 -67q0 10 9 -44.5t11 -55.5q-1 0 -0.5 -11t1.5 -15l-0.5 -6t-0.5 -10v-2l1 2t2 3q0 -1 2 15t3 26l6 38t7 38l10.5 71.5t11.5 71.5q-2 -2 6.5 32l8.5 34q-1 0 -0.5 15t0.5 18l1 6.5
t2 10.5q-1 0 2.5 8.5t5.5 9.5q6 6 17 -4q-2 1 11 -1h82q-4 -1 14 2q0 -1 14 -0.5t17 0.5l-5 -40.5t-5 -41.5l5 -41.5t1 -69.5q-4 -22 -5 -54t-1 -56l1 -33.5l1 -33.5q0 -9 1 -16.5t1 -13.5l-4 -6v-40t5 -46l-2.5 -39t-2.5 -48v-7v-7v-6t4 -9l1.5 -5.5t-2.5 -4.5
q1 0 -5.5 -0.5t-12.5 -0.5l-25.5 -2t-40.5 -2q1 0 -2.5 0h-3.5q4 0 -2.5 -0.5t-7.5 -0.5q-6 0 -4.5 25t1.5 34q0 -3 -2 22.5l-2 25.5l1 40t1 51q0 -2 0 8v15v8.5v9.5q0 -2 0 13v24q0 -3 -1 11t-1 23q0 -2 0 4v9q0 -1 0 9v16q0 -1 0 3.5v6.5q0 -3 0 14.5v25.5
q0 -1 -14 -105.5l-14 -104.5q-2 -3 -9 -50.5t-7 -55.5l-4 -28.5t-4 -29.5q0 1 0 -1v-2q0 -2 -2 -2q1 0 -1.5 -3l-2.5 -3v-1.5t-2 -1.5v-4h-92l-2 11v0v0q-4 4 -4 14q0 -2 -3 23t-9 35q-3 3 -3 13q0 -4 -1 6t-1 14q0 -2 -0.5 5.5t-0.5 10.5l-4.5 19l-4.5 19q0 36 -14.5 83
t-13.5 93q0 2 -5 28.5t-5 30.5q0 -13 1 -65.5t8 -58.5l-1 -22.5l-1 -22.5l-3 -18t-5 -40v-67q2 -4 3 -5q-2 -4 0 -28t2 -30l2.5 -20t-7.5 -26v-2h-85v4h-11v4.5v6.5l1 5t1 8q0 -1 1.5 5.5t1.5 9.5q0 -2 1 50.5t1 85.5q0 -1 -1 3t-1 8q0 -1 1.5 13.5t4.5 17.5v6
q-1 15 -3.5 52t-5.5 43l0.5 11.5t0.5 16.5q0 -1 2 8.5t2 15.5q0 -3 1.5 13t1.5 28q0 -1 0 19v22q0 -2 0 9v17q0 -1 -2.5 16t-4.5 19q5 0 5 25q0 -3 0 12v24l-2 13.5t4 21.5l-1 1.5zM936 566q-1 0 -6 -1.5t-3 -1.5q0 -1 -9 -8.5t-4 -4.5q-8 -4 -13 -20t-3 -19l-0.5 -12
l-0.5 -12q0 -9 6 -25l4 -8q6 -7 7 -12q3 -5 11 -15q2 -3 4.5 -6t5.5 -6q14 -16 30.5 -31t34.5 -31h0.5h0.5l0.5 -1t1.5 -2q38 -39 54 -67q13 -19 14 -19q9 -8 15 -31l6 -23q0 -21 -9 -60q0 -1 -4 -11q-21 -112 -141 -112q-64 0 -101 34q-33 23 -36 40q-6 28 -8.5 32.5
t-2.5 41.5q0 -2 0 11t0 12v6.5v5.5q-1 0 -2.5 3l-1.5 3l3.5 0.5t3.5 1.5v0.5t1 0.5v1h5q7 1 16.5 1h9.5q10 0 35 2.5l25 2.5q7 -7 7 2v-9.5v-9.5q0 3 0 -9.5t0 -9.5v-14.5t0 -8.5q2 -2 5.5 -11t2.5 -6q2 -3 3.5 -8l1.5 -5q24 -22 37.5 -16l13.5 6q25 9 23.5 42.5l-1.5 33.5
l-8.5 20.5t-10.5 21.5q-6 3 -22.5 22.5l-16.5 19.5q-6 10 -59.5 62t-55.5 58q-16 38 -13.5 80.5l2.5 42.5q2 0 5.5 17.5l3.5 17.5q0 -1 2 3q0 1 1 3l2 4v0.5v1.5l1 2q1 4 8 18q5 9 9.5 19l4.5 10q18 16 50 25l32 9q1 2 8 3.5l7 1.5h10h10q16 0 31 -5q8 -3 29.5 -15t26.5 -11
q1 -1 5 -4.5l4 -3.5l11.5 -13.5t11.5 -14.5q0 -6 5.5 -15l5.5 -9q0 -14 2 -11q5 0 5 -23l2 -18.5t2 -31.5l0.5 -3.5t0.5 -4.5l-0.5 -3l-0.5 -3h-3t-1 0q-6 0 -23.5 -1t-19.5 -1l-17 2.5t-32 2.5q-17 0 -12 43.5t-45 43.5z" />
    <glyph glyph-name=".notdef" unicode="&#x192;" horiz-adv-x="2048" 
d="M478 55h-28q-36 -2 -37 -2h-14t-13 0h-5h-4v0.5v1.5h-2q-2 6 -2 9l-8 12l-2 19t-1 24q-3 -2 -2.5 11l0.5 13v3t2 6l-0.5 3.5t-0.5 6.5q0 10 3 8q-1 -1 0 10l1 11q0 -1 -2 6t-2 6l0.5 4t1.5 7q-1 -5 -1 9v8v10q0 -1 -2 12t-5 15l2 -2t-2 7q-1 -4 -6 8.5t-5 7.5
q0 3 -12 9.5l-12 6.5q-4 0 -4 1l-3.5 2t-4.5 2q0 -1 -11 2t-12 4h-16v-7t0 -3v-53v-58l1.5 -17t1.5 -16q0 -18 -1 -14q0 6 -5 -41v-33q1 -11 5 -14q0 -3 -5 -1v-4h-101v7h-1v0q-3 0 -4 5l-1 5q-3 -3 -3 13q0 -2 0 2v4v6v8q0 -1 0 25.5v47.5q0 -4 0 4.5v10.5q0 -2 0.5 4
l0.5 6l0.5 7.5t1.5 7.5l1.5 29.5t-1.5 36.5v7v7q-2 1 -4 66t1 60q-9 15 -2 45.5t7 45.5q0 -2 -2.5 16.5t-2.5 33.5q0 -1 0.5 34t0.5 62q0 -2 0 3.5v8.5l2 14.5t4 14.5q23 0 27.5 2.5t27.5 -4.5q1 0 40 -0.5t56 -3.5h3q144 0 149 -139q10 -44 4 -74q-2 -5 -4 -14t-5 -18
q-4 -20 -10 -32q-19 -53 -45 -50l-2 -1t-3 -1q66 -28 66 -135v-35q5 -62 1 -59q6 -27 4.5 -39t14.5 -42h-3h-7q0 -1 0.5 -1.5zM11 862q43 4 64 8.5t72 4.5q82 0 213 -5t199 -5q29 0 18.5 77.5t-2.5 111.5q23 102 19.5 279.5t-3.5 279.5q0 22 47.5 20t68.5 -2q0 -9 -2 -41
l-2 -32q22 -93 5 -216.5t-8 -197.5q4 -41 8.5 -151.5t-9.5 -143.5q-6 -16 71 -11.5t92 1.5q111 -23 199 -9.5t170 9.5q0 -159 0 -136t-96 3q-69 -15 -217.5 -3.5t-201.5 11.5q-16 0 -20.5 -46t-3.5 -101t4.5 -101t4.5 -46q30 -67 8 -160t-8 -165q18 -99 -16 -86t-95 1
q-3 -1 -6 79t-6 181t-5 193t-2 115q0 142 -4.5 152t-140.5 10q-14 0 -69 2.5t-116 5.5t-110 5.5l-49 2.5q-98 -21 -71 6t0 100zM869 1529q20 -6 21 -5h0.5t4.5 -2q-1 0 22.5 2.5l23.5 2.5h16h19l18.5 -2.5t15.5 -2.5q2 0 3.5 -1.5l1.5 -1.5l-1 -4t8 -16l4.5 -48t16.5 -74
q0 -1 1 -12.5t1 -12.5q-3 -2 14.5 -88.5t20.5 -99.5q-3 1 3.5 -37.5l6.5 -38.5q1 1 3.5 -10.5l2.5 -11.5l5 -39.5t9 -54.5q0 -4 3 -25t7 -23q-1 0 1 -6.5l2 -6.5q0 -3 -27 -3q-26 0 -25.5 -0.5t-14.5 5.5h-9.5t-4.5 0q-8 0 -10 -2l-7 -1.5t-10 1.5q-4 0 -6 11
q-2 4 -7.5 27.5t-4.5 24.5q0 -1 -4 18.5l-4 19.5q0 2 -1 2.5t-1 4.5h-11l-21.5 -2.5t-33.5 -2.5h-14.5h-8.5l-2.5 -0.5t-6.5 -0.5q-3 -6 -9.5 -40t-6.5 -37q2 0 -1 -13l-2 -7t-2 -6q0 -1 -41 -1.5l-41 -0.5l-4.5 0.5t-4.5 2.5q2 3 -6 1.5t-8 2.5q0 -3 4 6.5l4 9.5q0 -1 0 3
v4q-6 18 3 18q-5 0 5 14q0 -3 2 6t5 6v5.5v6.5q0 -1 0 9v17q0 -1 0 3.5v6.5l3.5 12.5t5.5 15.5q1 1 1 18l0.5 6t0.5 9l1 10l1 10q0 3 5 18q0 -2 4 21t4 32q0 13 2 15q-5 9 5 13l1 21.5t2 23.5q-3 -8 6.5 24.5t11.5 41.5q0 -2 0 4v6q0 -2 0 2.5t0 3.5q0 12 -1 13
q-1 0 -0.5 4.5l0.5 4.5v4v7q0 -8 7 39.5t11 53.5q-3 -6 3.5 27t6.5 22q0 17 2 17zM937 1384q3 -32 -12 -91.5t-15 -104.5q0 6 -3.5 -19t-3.5 -46l-0.5 -1.5t-4.5 -5.5l1 -2.5t3 -2.5h2.5h3.5q-2 0 21 -1.5t35 -1.5q-1 0 1 0h3q-1 0 0.5 0h2.5q2 0 3 2q0 -1 5 -1v3.5v5.5
q0 4 -3 7q0 4 -4 4v2.5v2.5v2t6 11q-4 4 -2 4l-3.5 7t-3.5 8q0 -4 -1 6.5t-1 16.5q0 -1 -3 10t-3 23l-1 2t-1 4l-0.5 2t-0.5 5l-2 5t-2 8l-0.5 9t-0.5 16v12.5t-6 26.5q-1 0 -3.5 16.5t-2.5 17.5q0 -1 -1 2.5l-1 3.5v5v10q0 2 -1 3l-1 1t-1 4l0.5 3.5t0.5 5.5zM105 1544
q5 4 20.5 3t24.5 -1h36.5h60.5l5 -18.5t7 -23.5q0 -1 6 -37.5l6 -36.5q1 -33 8.5 -69t7.5 -67q0 10 9 -44.5t11 -55.5q-1 0 -0.5 -11t1.5 -15l-0.5 -6t-0.5 -10v-2l1 2t2 3q0 -1 2 15t3 26l6 38t7 38l10.5 71.5t11.5 71.5q-2 -2 6.5 32l8.5 34q-1 0 -0.5 15t0.5 18l1 6.5
t2 10.5q-1 0 2.5 8.5t5.5 9.5q6 6 17 -4q-2 1 11 -1h82q-4 -1 14 2q0 -1 14 -0.5t17 0.5l-5 -40.5t-5 -41.5l5 -41.5t1 -69.5q-4 -22 -5 -54t-1 -56l1 -33.5l1 -33.5q0 -9 1 -16.5t1 -13.5l-4 -6v-40t5 -46l-2.5 -39t-2.5 -48v-7v-7v-6t4 -9l1.5 -5.5t-2.5 -4.5
q1 0 -5.5 -0.5t-12.5 -0.5l-25.5 -2t-40.5 -2q1 0 -2.5 0h-3.5q4 0 -2.5 -0.5t-7.5 -0.5q-6 0 -4.5 25t1.5 34q0 -3 -2 22.5l-2 25.5l1 40t1 51q0 -2 0 8v15v8.5v9.5q0 -2 0 13v24q0 -3 -1 11t-1 23q0 -2 0 4v9q0 -1 0 9v16q0 -1 0 3.5v6.5q0 -3 0 14.5v25.5
q0 -1 -14 -105.5l-14 -104.5q-2 -3 -9 -50.5t-7 -55.5l-4 -28.5t-4 -29.5q0 1 0 -1v-2q0 -2 -2 -2q1 0 -1.5 -3l-2.5 -3v-1.5t-2 -1.5v-4h-92l-2 11v0v0q-4 4 -4 14q0 -2 -3 23t-9 35q-3 3 -3 13q0 -4 -1 6t-1 14q0 -2 -0.5 5.5t-0.5 10.5l-4.5 19l-4.5 19q0 36 -14.5 83
t-13.5 93q0 2 -5 28.5t-5 30.5q0 -13 1 -65.5t8 -58.5l-1 -22.5l-1 -22.5l-3 -18t-5 -40v-67q2 -4 3 -5q-2 -4 0 -28t2 -30l2.5 -20t-7.5 -26v-2h-85v4h-11v4.5v6.5l1 5t1 8q0 -1 1.5 5.5t1.5 9.5q0 -2 1 50.5t1 85.5q0 -1 -1 3t-1 8q0 -1 1.5 13.5t4.5 17.5v6
q-1 15 -3.5 52t-5.5 43l0.5 11.5t0.5 16.5q0 -1 2 8.5t2 15.5q0 -3 1.5 13t1.5 28q0 -1 0 19v22q0 -2 0 9v17q0 -1 -2.5 16t-4.5 19q5 0 5 25q0 -3 0 12v24l-2 13.5t4 21.5l-1 1.5zM936 566q-1 0 -6 -1.5t-3 -1.5q0 -1 -9 -8.5t-4 -4.5q-8 -4 -13 -20t-3 -19l-0.5 -12
l-0.5 -12q0 -9 6 -25l4 -8q6 -7 7 -12q3 -5 11 -15q2 -3 4.5 -6t5.5 -6q14 -16 30.5 -31t34.5 -31h0.5h0.5l0.5 -1t1.5 -2q38 -39 54 -67q13 -19 14 -19q9 -8 15 -31l6 -23q0 -21 -9 -60q0 -1 -4 -11q-21 -112 -141 -112q-64 0 -101 34q-33 23 -36 40q-6 28 -8.5 32.5
t-2.5 41.5q0 -2 0 11t0 12v6.5v5.5q-1 0 -2.5 3l-1.5 3l3.5 0.5t3.5 1.5v0.5t1 0.5v1h5q7 1 16.5 1h9.5q10 0 35 2.5l25 2.5q7 -7 7 2v-9.5v-9.5q0 3 0 -9.5t0 -9.5v-14.5t0 -8.5q2 -2 5.5 -11t2.5 -6q2 -3 3.5 -8l1.5 -5q24 -22 37.5 -16l13.5 6q25 9 23.5 42.5l-1.5 33.5
l-8.5 20.5t-10.5 21.5q-6 3 -22.5 22.5l-16.5 19.5q-6 10 -59.5 62t-55.5 58q-16 38 -13.5 80.5l2.5 42.5q2 0 5.5 17.5l3.5 17.5q0 -1 2 3q0 1 1 3l2 4v0.5v1.5l1 2q1 4 8 18q5 9 9.5 19l4.5 10q18 16 50 25l32 9q1 2 8 3.5l7 1.5h10h10q16 0 31 -5q8 -3 29.5 -15t26.5 -11
q1 -1 5 -4.5l4 -3.5l11.5 -13.5t11.5 -14.5q0 -6 5.5 -15l5.5 -9q0 -14 2 -11q5 0 5 -23l2 -18.5t2 -31.5l0.5 -3.5t0.5 -4.5l-0.5 -3l-0.5 -3h-3t-1 0q-6 0 -23.5 -1t-19.5 -1l-17 2.5t-32 2.5q-17 0 -12 43.5t-45 43.5z" />
    <glyph glyph-name=".notdef" unicode="&#x178;" horiz-adv-x="2048" 
d="M478 55h-28q-36 -2 -37 -2h-14t-13 0h-5h-4v0.5v1.5h-2q-2 6 -2 9l-8 12l-2 19t-1 24q-3 -2 -2.5 11l0.5 13v3t2 6l-0.5 3.5t-0.5 6.5q0 10 3 8q-1 -1 0 10l1 11q0 -1 -2 6t-2 6l0.5 4t1.5 7q-1 -5 -1 9v8v10q0 -1 -2 12t-5 15l2 -2t-2 7q-1 -4 -6 8.5t-5 7.5
q0 3 -12 9.5l-12 6.5q-4 0 -4 1l-3.5 2t-4.5 2q0 -1 -11 2t-12 4h-16v-7t0 -3v-53v-58l1.5 -17t1.5 -16q0 -18 -1 -14q0 6 -5 -41v-33q1 -11 5 -14q0 -3 -5 -1v-4h-101v7h-1v0q-3 0 -4 5l-1 5q-3 -3 -3 13q0 -2 0 2v4v6v8q0 -1 0 25.5v47.5q0 -4 0 4.5v10.5q0 -2 0.5 4
l0.5 6l0.5 7.5t1.5 7.5l1.5 29.5t-1.5 36.5v7v7q-2 1 -4 66t1 60q-9 15 -2 45.5t7 45.5q0 -2 -2.5 16.5t-2.5 33.5q0 -1 0.5 34t0.5 62q0 -2 0 3.5v8.5l2 14.5t4 14.5q23 0 27.5 2.5t27.5 -4.5q1 0 40 -0.5t56 -3.5h3q144 0 149 -139q10 -44 4 -74q-2 -5 -4 -14t-5 -18
q-4 -20 -10 -32q-19 -53 -45 -50l-2 -1t-3 -1q66 -28 66 -135v-35q5 -62 1 -59q6 -27 4.5 -39t14.5 -42h-3h-7q0 -1 0.5 -1.5zM11 862q43 4 64 8.5t72 4.5q82 0 213 -5t199 -5q29 0 18.5 77.5t-2.5 111.5q23 102 19.5 279.5t-3.5 279.5q0 22 47.5 20t68.5 -2q0 -9 -2 -41
l-2 -32q22 -93 5 -216.5t-8 -197.5q4 -41 8.5 -151.5t-9.5 -143.5q-6 -16 71 -11.5t92 1.5q111 -23 199 -9.5t170 9.5q0 -159 0 -136t-96 3q-69 -15 -217.5 -3.5t-201.5 11.5q-16 0 -20.5 -46t-3.5 -101t4.5 -101t4.5 -46q30 -67 8 -160t-8 -165q18 -99 -16 -86t-95 1
q-3 -1 -6 79t-6 181t-5 193t-2 115q0 142 -4.5 152t-140.5 10q-14 0 -69 2.5t-116 5.5t-110 5.5l-49 2.5q-98 -21 -71 6t0 100zM869 1529q20 -6 21 -5h0.5t4.5 -2q-1 0 22.5 2.5l23.5 2.5h16h19l18.5 -2.5t15.5 -2.5q2 0 3.5 -1.5l1.5 -1.5l-1 -4t8 -16l4.5 -48t16.5 -74
q0 -1 1 -12.5t1 -12.5q-3 -2 14.5 -88.5t20.5 -99.5q-3 1 3.5 -37.5l6.5 -38.5q1 1 3.5 -10.5l2.5 -11.5l5 -39.5t9 -54.5q0 -4 3 -25t7 -23q-1 0 1 -6.5l2 -6.5q0 -3 -27 -3q-26 0 -25.5 -0.5t-14.5 5.5h-9.5t-4.5 0q-8 0 -10 -2l-7 -1.5t-10 1.5q-4 0 -6 11
q-2 4 -7.5 27.5t-4.5 24.5q0 -1 -4 18.5l-4 19.5q0 2 -1 2.5t-1 4.5h-11l-21.5 -2.5t-33.5 -2.5h-14.5h-8.5l-2.5 -0.5t-6.5 -0.5q-3 -6 -9.5 -40t-6.5 -37q2 0 -1 -13l-2 -7t-2 -6q0 -1 -41 -1.5l-41 -0.5l-4.5 0.5t-4.5 2.5q2 3 -6 1.5t-8 2.5q0 -3 4 6.5l4 9.5q0 -1 0 3
v4q-6 18 3 18q-5 0 5 14q0 -3 2 6t5 6v5.5v6.5q0 -1 0 9v17q0 -1 0 3.5v6.5l3.5 12.5t5.5 15.5q1 1 1 18l0.5 6t0.5 9l1 10l1 10q0 3 5 18q0 -2 4 21t4 32q0 13 2 15q-5 9 5 13l1 21.5t2 23.5q-3 -8 6.5 24.5t11.5 41.5q0 -2 0 4v6q0 -2 0 2.5t0 3.5q0 12 -1 13
q-1 0 -0.5 4.5l0.5 4.5v4v7q0 -8 7 39.5t11 53.5q-3 -6 3.5 27t6.5 22q0 17 2 17zM937 1384q3 -32 -12 -91.5t-15 -104.5q0 6 -3.5 -19t-3.5 -46l-0.5 -1.5t-4.5 -5.5l1 -2.5t3 -2.5h2.5h3.5q-2 0 21 -1.5t35 -1.5q-1 0 1 0h3q-1 0 0.5 0h2.5q2 0 3 2q0 -1 5 -1v3.5v5.5
q0 4 -3 7q0 4 -4 4v2.5v2.5v2t6 11q-4 4 -2 4l-3.5 7t-3.5 8q0 -4 -1 6.5t-1 16.5q0 -1 -3 10t-3 23l-1 2t-1 4l-0.5 2t-0.5 5l-2 5t-2 8l-0.5 9t-0.5 16v12.5t-6 26.5q-1 0 -3.5 16.5t-2.5 17.5q0 -1 -1 2.5l-1 3.5v5v10q0 2 -1 3l-1 1t-1 4l0.5 3.5t0.5 5.5zM105 1544
q5 4 20.5 3t24.5 -1h36.5h60.5l5 -18.5t7 -23.5q0 -1 6 -37.5l6 -36.5q1 -33 8.5 -69t7.5 -67q0 10 9 -44.5t11 -55.5q-1 0 -0.5 -11t1.5 -15l-0.5 -6t-0.5 -10v-2l1 2t2 3q0 -1 2 15t3 26l6 38t7 38l10.5 71.5t11.5 71.5q-2 -2 6.5 32l8.5 34q-1 0 -0.5 15t0.5 18l1 6.5
t2 10.5q-1 0 2.5 8.5t5.5 9.5q6 6 17 -4q-2 1 11 -1h82q-4 -1 14 2q0 -1 14 -0.5t17 0.5l-5 -40.5t-5 -41.5l5 -41.5t1 -69.5q-4 -22 -5 -54t-1 -56l1 -33.5l1 -33.5q0 -9 1 -16.5t1 -13.5l-4 -6v-40t5 -46l-2.5 -39t-2.5 -48v-7v-7v-6t4 -9l1.5 -5.5t-2.5 -4.5
q1 0 -5.5 -0.5t-12.5 -0.5l-25.5 -2t-40.5 -2q1 0 -2.5 0h-3.5q4 0 -2.5 -0.5t-7.5 -0.5q-6 0 -4.5 25t1.5 34q0 -3 -2 22.5l-2 25.5l1 40t1 51q0 -2 0 8v15v8.5v9.5q0 -2 0 13v24q0 -3 -1 11t-1 23q0 -2 0 4v9q0 -1 0 9v16q0 -1 0 3.5v6.5q0 -3 0 14.5v25.5
q0 -1 -14 -105.5l-14 -104.5q-2 -3 -9 -50.5t-7 -55.5l-4 -28.5t-4 -29.5q0 1 0 -1v-2q0 -2 -2 -2q1 0 -1.5 -3l-2.5 -3v-1.5t-2 -1.5v-4h-92l-2 11v0v0q-4 4 -4 14q0 -2 -3 23t-9 35q-3 3 -3 13q0 -4 -1 6t-1 14q0 -2 -0.5 5.5t-0.5 10.5l-4.5 19l-4.5 19q0 36 -14.5 83
t-13.5 93q0 2 -5 28.5t-5 30.5q0 -13 1 -65.5t8 -58.5l-1 -22.5l-1 -22.5l-3 -18t-5 -40v-67q2 -4 3 -5q-2 -4 0 -28t2 -30l2.5 -20t-7.5 -26v-2h-85v4h-11v4.5v6.5l1 5t1 8q0 -1 1.5 5.5t1.5 9.5q0 -2 1 50.5t1 85.5q0 -1 -1 3t-1 8q0 -1 1.5 13.5t4.5 17.5v6
q-1 15 -3.5 52t-5.5 43l0.5 11.5t0.5 16.5q0 -1 2 8.5t2 15.5q0 -3 1.5 13t1.5 28q0 -1 0 19v22q0 -2 0 9v17q0 -1 -2.5 16t-4.5 19q5 0 5 25q0 -3 0 12v24l-2 13.5t4 21.5l-1 1.5zM936 566q-1 0 -6 -1.5t-3 -1.5q0 -1 -9 -8.5t-4 -4.5q-8 -4 -13 -20t-3 -19l-0.5 -12
l-0.5 -12q0 -9 6 -25l4 -8q6 -7 7 -12q3 -5 11 -15q2 -3 4.5 -6t5.5 -6q14 -16 30.5 -31t34.5 -31h0.5h0.5l0.5 -1t1.5 -2q38 -39 54 -67q13 -19 14 -19q9 -8 15 -31l6 -23q0 -21 -9 -60q0 -1 -4 -11q-21 -112 -141 -112q-64 0 -101 34q-33 23 -36 40q-6 28 -8.5 32.5
t-2.5 41.5q0 -2 0 11t0 12v6.5v5.5q-1 0 -2.5 3l-1.5 3l3.5 0.5t3.5 1.5v0.5t1 0.5v1h5q7 1 16.5 1h9.5q10 0 35 2.5l25 2.5q7 -7 7 2v-9.5v-9.5q0 3 0 -9.5t0 -9.5v-14.5t0 -8.5q2 -2 5.5 -11t2.5 -6q2 -3 3.5 -8l1.5 -5q24 -22 37.5 -16l13.5 6q25 9 23.5 42.5l-1.5 33.5
l-8.5 20.5t-10.5 21.5q-6 3 -22.5 22.5l-16.5 19.5q-6 10 -59.5 62t-55.5 58q-16 38 -13.5 80.5l2.5 42.5q2 0 5.5 17.5l3.5 17.5q0 -1 2 3q0 1 1 3l2 4v0.5v1.5l1 2q1 4 8 18q5 9 9.5 19l4.5 10q18 16 50 25l32 9q1 2 8 3.5l7 1.5h10h10q16 0 31 -5q8 -3 29.5 -15t26.5 -11
q1 -1 5 -4.5l4 -3.5l11.5 -13.5t11.5 -14.5q0 -6 5.5 -15l5.5 -9q0 -14 2 -11q5 0 5 -23l2 -18.5t2 -31.5l0.5 -3.5t0.5 -4.5l-0.5 -3l-0.5 -3h-3t-1 0q-6 0 -23.5 -1t-19.5 -1l-17 2.5t-32 2.5q-17 0 -12 43.5t-45 43.5z" />
    <glyph glyph-name=".notdef" unicode="&#x131;" horiz-adv-x="2048" 
d="M478 55h-28q-36 -2 -37 -2h-14t-13 0h-5h-4v0.5v1.5h-2q-2 6 -2 9l-8 12l-2 19t-1 24q-3 -2 -2.5 11l0.5 13v3t2 6l-0.5 3.5t-0.5 6.5q0 10 3 8q-1 -1 0 10l1 11q0 -1 -2 6t-2 6l0.5 4t1.5 7q-1 -5 -1 9v8v10q0 -1 -2 12t-5 15l2 -2t-2 7q-1 -4 -6 8.5t-5 7.5
q0 3 -12 9.5l-12 6.5q-4 0 -4 1l-3.5 2t-4.5 2q0 -1 -11 2t-12 4h-16v-7t0 -3v-53v-58l1.5 -17t1.5 -16q0 -18 -1 -14q0 6 -5 -41v-33q1 -11 5 -14q0 -3 -5 -1v-4h-101v7h-1v0q-3 0 -4 5l-1 5q-3 -3 -3 13q0 -2 0 2v4v6v8q0 -1 0 25.5v47.5q0 -4 0 4.5v10.5q0 -2 0.5 4
l0.5 6l0.5 7.5t1.5 7.5l1.5 29.5t-1.5 36.5v7v7q-2 1 -4 66t1 60q-9 15 -2 45.5t7 45.5q0 -2 -2.5 16.5t-2.5 33.5q0 -1 0.5 34t0.5 62q0 -2 0 3.5v8.5l2 14.5t4 14.5q23 0 27.5 2.5t27.5 -4.5q1 0 40 -0.5t56 -3.5h3q144 0 149 -139q10 -44 4 -74q-2 -5 -4 -14t-5 -18
q-4 -20 -10 -32q-19 -53 -45 -50l-2 -1t-3 -1q66 -28 66 -135v-35q5 -62 1 -59q6 -27 4.5 -39t14.5 -42h-3h-7q0 -1 0.5 -1.5zM11 862q43 4 64 8.5t72 4.5q82 0 213 -5t199 -5q29 0 18.5 77.5t-2.5 111.5q23 102 19.5 279.5t-3.5 279.5q0 22 47.5 20t68.5 -2q0 -9 -2 -41
l-2 -32q22 -93 5 -216.5t-8 -197.5q4 -41 8.5 -151.5t-9.5 -143.5q-6 -16 71 -11.5t92 1.5q111 -23 199 -9.5t170 9.5q0 -159 0 -136t-96 3q-69 -15 -217.5 -3.5t-201.5 11.5q-16 0 -20.5 -46t-3.5 -101t4.5 -101t4.5 -46q30 -67 8 -160t-8 -165q18 -99 -16 -86t-95 1
q-3 -1 -6 79t-6 181t-5 193t-2 115q0 142 -4.5 152t-140.5 10q-14 0 -69 2.5t-116 5.5t-110 5.5l-49 2.5q-98 -21 -71 6t0 100zM869 1529q20 -6 21 -5h0.5t4.5 -2q-1 0 22.5 2.5l23.5 2.5h16h19l18.5 -2.5t15.5 -2.5q2 0 3.5 -1.5l1.5 -1.5l-1 -4t8 -16l4.5 -48t16.5 -74
q0 -1 1 -12.5t1 -12.5q-3 -2 14.5 -88.5t20.5 -99.5q-3 1 3.5 -37.5l6.5 -38.5q1 1 3.5 -10.5l2.5 -11.5l5 -39.5t9 -54.5q0 -4 3 -25t7 -23q-1 0 1 -6.5l2 -6.5q0 -3 -27 -3q-26 0 -25.5 -0.5t-14.5 5.5h-9.5t-4.5 0q-8 0 -10 -2l-7 -1.5t-10 1.5q-4 0 -6 11
q-2 4 -7.5 27.5t-4.5 24.5q0 -1 -4 18.5l-4 19.5q0 2 -1 2.5t-1 4.5h-11l-21.5 -2.5t-33.5 -2.5h-14.5h-8.5l-2.5 -0.5t-6.5 -0.5q-3 -6 -9.5 -40t-6.5 -37q2 0 -1 -13l-2 -7t-2 -6q0 -1 -41 -1.5l-41 -0.5l-4.5 0.5t-4.5 2.5q2 3 -6 1.5t-8 2.5q0 -3 4 6.5l4 9.5q0 -1 0 3
v4q-6 18 3 18q-5 0 5 14q0 -3 2 6t5 6v5.5v6.5q0 -1 0 9v17q0 -1 0 3.5v6.5l3.5 12.5t5.5 15.5q1 1 1 18l0.5 6t0.5 9l1 10l1 10q0 3 5 18q0 -2 4 21t4 32q0 13 2 15q-5 9 5 13l1 21.5t2 23.5q-3 -8 6.5 24.5t11.5 41.5q0 -2 0 4v6q0 -2 0 2.5t0 3.5q0 12 -1 13
q-1 0 -0.5 4.5l0.5 4.5v4v7q0 -8 7 39.5t11 53.5q-3 -6 3.5 27t6.5 22q0 17 2 17zM937 1384q3 -32 -12 -91.5t-15 -104.5q0 6 -3.5 -19t-3.5 -46l-0.5 -1.5t-4.5 -5.5l1 -2.5t3 -2.5h2.5h3.5q-2 0 21 -1.5t35 -1.5q-1 0 1 0h3q-1 0 0.5 0h2.5q2 0 3 2q0 -1 5 -1v3.5v5.5
q0 4 -3 7q0 4 -4 4v2.5v2.5v2t6 11q-4 4 -2 4l-3.5 7t-3.5 8q0 -4 -1 6.5t-1 16.5q0 -1 -3 10t-3 23l-1 2t-1 4l-0.5 2t-0.5 5l-2 5t-2 8l-0.5 9t-0.5 16v12.5t-6 26.5q-1 0 -3.5 16.5t-2.5 17.5q0 -1 -1 2.5l-1 3.5v5v10q0 2 -1 3l-1 1t-1 4l0.5 3.5t0.5 5.5zM105 1544
q5 4 20.5 3t24.5 -1h36.5h60.5l5 -18.5t7 -23.5q0 -1 6 -37.5l6 -36.5q1 -33 8.5 -69t7.5 -67q0 10 9 -44.5t11 -55.5q-1 0 -0.5 -11t1.5 -15l-0.5 -6t-0.5 -10v-2l1 2t2 3q0 -1 2 15t3 26l6 38t7 38l10.5 71.5t11.5 71.5q-2 -2 6.5 32l8.5 34q-1 0 -0.5 15t0.5 18l1 6.5
t2 10.5q-1 0 2.5 8.5t5.5 9.5q6 6 17 -4q-2 1 11 -1h82q-4 -1 14 2q0 -1 14 -0.5t17 0.5l-5 -40.5t-5 -41.5l5 -41.5t1 -69.5q-4 -22 -5 -54t-1 -56l1 -33.5l1 -33.5q0 -9 1 -16.5t1 -13.5l-4 -6v-40t5 -46l-2.5 -39t-2.5 -48v-7v-7v-6t4 -9l1.5 -5.5t-2.5 -4.5
q1 0 -5.5 -0.5t-12.5 -0.5l-25.5 -2t-40.5 -2q1 0 -2.5 0h-3.5q4 0 -2.5 -0.5t-7.5 -0.5q-6 0 -4.5 25t1.5 34q0 -3 -2 22.5l-2 25.5l1 40t1 51q0 -2 0 8v15v8.5v9.5q0 -2 0 13v24q0 -3 -1 11t-1 23q0 -2 0 4v9q0 -1 0 9v16q0 -1 0 3.5v6.5q0 -3 0 14.5v25.5
q0 -1 -14 -105.5l-14 -104.5q-2 -3 -9 -50.5t-7 -55.5l-4 -28.5t-4 -29.5q0 1 0 -1v-2q0 -2 -2 -2q1 0 -1.5 -3l-2.5 -3v-1.5t-2 -1.5v-4h-92l-2 11v0v0q-4 4 -4 14q0 -2 -3 23t-9 35q-3 3 -3 13q0 -4 -1 6t-1 14q0 -2 -0.5 5.5t-0.5 10.5l-4.5 19l-4.5 19q0 36 -14.5 83
t-13.5 93q0 2 -5 28.5t-5 30.5q0 -13 1 -65.5t8 -58.5l-1 -22.5l-1 -22.5l-3 -18t-5 -40v-67q2 -4 3 -5q-2 -4 0 -28t2 -30l2.5 -20t-7.5 -26v-2h-85v4h-11v4.5v6.5l1 5t1 8q0 -1 1.5 5.5t1.5 9.5q0 -2 1 50.5t1 85.5q0 -1 -1 3t-1 8q0 -1 1.5 13.5t4.5 17.5v6
q-1 15 -3.5 52t-5.5 43l0.5 11.5t0.5 16.5q0 -1 2 8.5t2 15.5q0 -3 1.5 13t1.5 28q0 -1 0 19v22q0 -2 0 9v17q0 -1 -2.5 16t-4.5 19q5 0 5 25q0 -3 0 12v24l-2 13.5t4 21.5l-1 1.5zM936 566q-1 0 -6 -1.5t-3 -1.5q0 -1 -9 -8.5t-4 -4.5q-8 -4 -13 -20t-3 -19l-0.5 -12
l-0.5 -12q0 -9 6 -25l4 -8q6 -7 7 -12q3 -5 11 -15q2 -3 4.5 -6t5.5 -6q14 -16 30.5 -31t34.5 -31h0.5h0.5l0.5 -1t1.5 -2q38 -39 54 -67q13 -19 14 -19q9 -8 15 -31l6 -23q0 -21 -9 -60q0 -1 -4 -11q-21 -112 -141 -112q-64 0 -101 34q-33 23 -36 40q-6 28 -8.5 32.5
t-2.5 41.5q0 -2 0 11t0 12v6.5v5.5q-1 0 -2.5 3l-1.5 3l3.5 0.5t3.5 1.5v0.5t1 0.5v1h5q7 1 16.5 1h9.5q10 0 35 2.5l25 2.5q7 -7 7 2v-9.5v-9.5q0 3 0 -9.5t0 -9.5v-14.5t0 -8.5q2 -2 5.5 -11t2.5 -6q2 -3 3.5 -8l1.5 -5q24 -22 37.5 -16l13.5 6q25 9 23.5 42.5l-1.5 33.5
l-8.5 20.5t-10.5 21.5q-6 3 -22.5 22.5l-16.5 19.5q-6 10 -59.5 62t-55.5 58q-16 38 -13.5 80.5l2.5 42.5q2 0 5.5 17.5l3.5 17.5q0 -1 2 3q0 1 1 3l2 4v0.5v1.5l1 2q1 4 8 18q5 9 9.5 19l4.5 10q18 16 50 25l32 9q1 2 8 3.5l7 1.5h10h10q16 0 31 -5q8 -3 29.5 -15t26.5 -11
q1 -1 5 -4.5l4 -3.5l11.5 -13.5t11.5 -14.5q0 -6 5.5 -15l5.5 -9q0 -14 2 -11q5 0 5 -23l2 -18.5t2 -31.5l0.5 -3.5t0.5 -4.5l-0.5 -3l-0.5 -3h-3t-1 0q-6 0 -23.5 -1t-19.5 -1l-17 2.5t-32 2.5q-17 0 -12 43.5t-45 43.5z" />
    <glyph glyph-name=".notdef" unicode="&#xff;" horiz-adv-x="2048" 
d="M478 55h-28q-36 -2 -37 -2h-14t-13 0h-5h-4v0.5v1.5h-2q-2 6 -2 9l-8 12l-2 19t-1 24q-3 -2 -2.5 11l0.5 13v3t2 6l-0.5 3.5t-0.5 6.5q0 10 3 8q-1 -1 0 10l1 11q0 -1 -2 6t-2 6l0.5 4t1.5 7q-1 -5 -1 9v8v10q0 -1 -2 12t-5 15l2 -2t-2 7q-1 -4 -6 8.5t-5 7.5
q0 3 -12 9.5l-12 6.5q-4 0 -4 1l-3.5 2t-4.5 2q0 -1 -11 2t-12 4h-16v-7t0 -3v-53v-58l1.5 -17t1.5 -16q0 -18 -1 -14q0 6 -5 -41v-33q1 -11 5 -14q0 -3 -5 -1v-4h-101v7h-1v0q-3 0 -4 5l-1 5q-3 -3 -3 13q0 -2 0 2v4v6v8q0 -1 0 25.5v47.5q0 -4 0 4.5v10.5q0 -2 0.5 4
l0.5 6l0.5 7.5t1.5 7.5l1.5 29.5t-1.5 36.5v7v7q-2 1 -4 66t1 60q-9 15 -2 45.5t7 45.5q0 -2 -2.5 16.5t-2.5 33.5q0 -1 0.5 34t0.5 62q0 -2 0 3.5v8.5l2 14.5t4 14.5q23 0 27.5 2.5t27.5 -4.5q1 0 40 -0.5t56 -3.5h3q144 0 149 -139q10 -44 4 -74q-2 -5 -4 -14t-5 -18
q-4 -20 -10 -32q-19 -53 -45 -50l-2 -1t-3 -1q66 -28 66 -135v-35q5 -62 1 -59q6 -27 4.5 -39t14.5 -42h-3h-7q0 -1 0.5 -1.5zM11 862q43 4 64 8.5t72 4.5q82 0 213 -5t199 -5q29 0 18.5 77.5t-2.5 111.5q23 102 19.5 279.5t-3.5 279.5q0 22 47.5 20t68.5 -2q0 -9 -2 -41
l-2 -32q22 -93 5 -216.5t-8 -197.5q4 -41 8.5 -151.5t-9.5 -143.5q-6 -16 71 -11.5t92 1.5q111 -23 199 -9.5t170 9.5q0 -159 0 -136t-96 3q-69 -15 -217.5 -3.5t-201.5 11.5q-16 0 -20.5 -46t-3.5 -101t4.5 -101t4.5 -46q30 -67 8 -160t-8 -165q18 -99 -16 -86t-95 1
q-3 -1 -6 79t-6 181t-5 193t-2 115q0 142 -4.5 152t-140.5 10q-14 0 -69 2.5t-116 5.5t-110 5.5l-49 2.5q-98 -21 -71 6t0 100zM869 1529q20 -6 21 -5h0.5t4.5 -2q-1 0 22.5 2.5l23.5 2.5h16h19l18.5 -2.5t15.5 -2.5q2 0 3.5 -1.5l1.5 -1.5l-1 -4t8 -16l4.5 -48t16.5 -74
q0 -1 1 -12.5t1 -12.5q-3 -2 14.5 -88.5t20.5 -99.5q-3 1 3.5 -37.5l6.5 -38.5q1 1 3.5 -10.5l2.5 -11.5l5 -39.5t9 -54.5q0 -4 3 -25t7 -23q-1 0 1 -6.5l2 -6.5q0 -3 -27 -3q-26 0 -25.5 -0.5t-14.5 5.5h-9.5t-4.5 0q-8 0 -10 -2l-7 -1.5t-10 1.5q-4 0 -6 11
q-2 4 -7.5 27.5t-4.5 24.5q0 -1 -4 18.5l-4 19.5q0 2 -1 2.5t-1 4.5h-11l-21.5 -2.5t-33.5 -2.5h-14.5h-8.5l-2.5 -0.5t-6.5 -0.5q-3 -6 -9.5 -40t-6.5 -37q2 0 -1 -13l-2 -7t-2 -6q0 -1 -41 -1.5l-41 -0.5l-4.5 0.5t-4.5 2.5q2 3 -6 1.5t-8 2.5q0 -3 4 6.5l4 9.5q0 -1 0 3
v4q-6 18 3 18q-5 0 5 14q0 -3 2 6t5 6v5.5v6.5q0 -1 0 9v17q0 -1 0 3.5v6.5l3.5 12.5t5.5 15.5q1 1 1 18l0.5 6t0.5 9l1 10l1 10q0 3 5 18q0 -2 4 21t4 32q0 13 2 15q-5 9 5 13l1 21.5t2 23.5q-3 -8 6.5 24.5t11.5 41.5q0 -2 0 4v6q0 -2 0 2.5t0 3.5q0 12 -1 13
q-1 0 -0.5 4.5l0.5 4.5v4v7q0 -8 7 39.5t11 53.5q-3 -6 3.5 27t6.5 22q0 17 2 17zM937 1384q3 -32 -12 -91.5t-15 -104.5q0 6 -3.5 -19t-3.5 -46l-0.5 -1.5t-4.5 -5.5l1 -2.5t3 -2.5h2.5h3.5q-2 0 21 -1.5t35 -1.5q-1 0 1 0h3q-1 0 0.5 0h2.5q2 0 3 2q0 -1 5 -1v3.5v5.5
q0 4 -3 7q0 4 -4 4v2.5v2.5v2t6 11q-4 4 -2 4l-3.5 7t-3.5 8q0 -4 -1 6.5t-1 16.5q0 -1 -3 10t-3 23l-1 2t-1 4l-0.5 2t-0.5 5l-2 5t-2 8l-0.5 9t-0.5 16v12.5t-6 26.5q-1 0 -3.5 16.5t-2.5 17.5q0 -1 -1 2.5l-1 3.5v5v10q0 2 -1 3l-1 1t-1 4l0.5 3.5t0.5 5.5zM105 1544
q5 4 20.5 3t24.5 -1h36.5h60.5l5 -18.5t7 -23.5q0 -1 6 -37.5l6 -36.5q1 -33 8.5 -69t7.5 -67q0 10 9 -44.5t11 -55.5q-1 0 -0.5 -11t1.5 -15l-0.5 -6t-0.5 -10v-2l1 2t2 3q0 -1 2 15t3 26l6 38t7 38l10.5 71.5t11.5 71.5q-2 -2 6.5 32l8.5 34q-1 0 -0.5 15t0.5 18l1 6.5
t2 10.5q-1 0 2.5 8.5t5.5 9.5q6 6 17 -4q-2 1 11 -1h82q-4 -1 14 2q0 -1 14 -0.5t17 0.5l-5 -40.5t-5 -41.5l5 -41.5t1 -69.5q-4 -22 -5 -54t-1 -56l1 -33.5l1 -33.5q0 -9 1 -16.5t1 -13.5l-4 -6v-40t5 -46l-2.5 -39t-2.5 -48v-7v-7v-6t4 -9l1.5 -5.5t-2.5 -4.5
q1 0 -5.5 -0.5t-12.5 -0.5l-25.5 -2t-40.5 -2q1 0 -2.5 0h-3.5q4 0 -2.5 -0.5t-7.5 -0.5q-6 0 -4.5 25t1.5 34q0 -3 -2 22.5l-2 25.5l1 40t1 51q0 -2 0 8v15v8.5v9.5q0 -2 0 13v24q0 -3 -1 11t-1 23q0 -2 0 4v9q0 -1 0 9v16q0 -1 0 3.5v6.5q0 -3 0 14.5v25.5
q0 -1 -14 -105.5l-14 -104.5q-2 -3 -9 -50.5t-7 -55.5l-4 -28.5t-4 -29.5q0 1 0 -1v-2q0 -2 -2 -2q1 0 -1.5 -3l-2.5 -3v-1.5t-2 -1.5v-4h-92l-2 11v0v0q-4 4 -4 14q0 -2 -3 23t-9 35q-3 3 -3 13q0 -4 -1 6t-1 14q0 -2 -0.5 5.5t-0.5 10.5l-4.5 19l-4.5 19q0 36 -14.5 83
t-13.5 93q0 2 -5 28.5t-5 30.5q0 -13 1 -65.5t8 -58.5l-1 -22.5l-1 -22.5l-3 -18t-5 -40v-67q2 -4 3 -5q-2 -4 0 -28t2 -30l2.5 -20t-7.5 -26v-2h-85v4h-11v4.5v6.5l1 5t1 8q0 -1 1.5 5.5t1.5 9.5q0 -2 1 50.5t1 85.5q0 -1 -1 3t-1 8q0 -1 1.5 13.5t4.5 17.5v6
q-1 15 -3.5 52t-5.5 43l0.5 11.5t0.5 16.5q0 -1 2 8.5t2 15.5q0 -3 1.5 13t1.5 28q0 -1 0 19v22q0 -2 0 9v17q0 -1 -2.5 16t-4.5 19q5 0 5 25q0 -3 0 12v24l-2 13.5t4 21.5l-1 1.5zM936 566q-1 0 -6 -1.5t-3 -1.5q0 -1 -9 -8.5t-4 -4.5q-8 -4 -13 -20t-3 -19l-0.5 -12
l-0.5 -12q0 -9 6 -25l4 -8q6 -7 7 -12q3 -5 11 -15q2 -3 4.5 -6t5.5 -6q14 -16 30.5 -31t34.5 -31h0.5h0.5l0.5 -1t1.5 -2q38 -39 54 -67q13 -19 14 -19q9 -8 15 -31l6 -23q0 -21 -9 -60q0 -1 -4 -11q-21 -112 -141 -112q-64 0 -101 34q-33 23 -36 40q-6 28 -8.5 32.5
t-2.5 41.5q0 -2 0 11t0 12v6.5v5.5q-1 0 -2.5 3l-1.5 3l3.5 0.5t3.5 1.5v0.5t1 0.5v1h5q7 1 16.5 1h9.5q10 0 35 2.5l25 2.5q7 -7 7 2v-9.5v-9.5q0 3 0 -9.5t0 -9.5v-14.5t0 -8.5q2 -2 5.5 -11t2.5 -6q2 -3 3.5 -8l1.5 -5q24 -22 37.5 -16l13.5 6q25 9 23.5 42.5l-1.5 33.5
l-8.5 20.5t-10.5 21.5q-6 3 -22.5 22.5l-16.5 19.5q-6 10 -59.5 62t-55.5 58q-16 38 -13.5 80.5l2.5 42.5q2 0 5.5 17.5l3.5 17.5q0 -1 2 3q0 1 1 3l2 4v0.5v1.5l1 2q1 4 8 18q5 9 9.5 19l4.5 10q18 16 50 25l32 9q1 2 8 3.5l7 1.5h10h10q16 0 31 -5q8 -3 29.5 -15t26.5 -11
q1 -1 5 -4.5l4 -3.5l11.5 -13.5t11.5 -14.5q0 -6 5.5 -15l5.5 -9q0 -14 2 -11q5 0 5 -23l2 -18.5t2 -31.5l0.5 -3.5t0.5 -4.5l-0.5 -3l-0.5 -3h-3t-1 0q-6 0 -23.5 -1t-19.5 -1l-17 2.5t-32 2.5q-17 0 -12 43.5t-45 43.5z" />
    <glyph glyph-name=".null" horiz-adv-x="0" 
 />
    <glyph glyph-name="nonmarkingreturn" horiz-adv-x="682" 
 />
    <glyph glyph-name="uni001D" horiz-adv-x="0" 
 />
    <glyph glyph-name="uni001D" horiz-adv-x="0" 
 />
    <glyph glyph-name="uni001D" horiz-adv-x="0" 
 />
    <glyph glyph-name="space" unicode="&#x9;" horiz-adv-x="750" 
 />
    <glyph glyph-name="space" unicode=" " horiz-adv-x="750" 
 />
    <glyph glyph-name="uni00A0" unicode="&#xd;" horiz-adv-x="2048" 
 />
    <glyph glyph-name="uni00A0" unicode="&#xa0;" horiz-adv-x="2048" 
 />
    <glyph glyph-name="exclam" unicode="!" horiz-adv-x="359" 
d="M32 1641q27 9 161 10t134 -4q0 -36 -10 -44.5t6 -86.5q14 -71 -7 -181.5t6 -177.5q2 -8 -1.5 -61t-9.5 -116.5t-13.5 -120t-12.5 -69.5q-8 -20 -11 -87.5t-8 -140t-16 -129.5t-34 -57q-166 0 -155.5 19.5t-11.5 202.5q-14 113 -23.5 332.5t11.5 324.5q1 4 -1.5 62t-5 127
t-3 128.5t4.5 68.5zM34 289q15 2 137 -1t122 -6q-15 -75 -7.5 -148t-0.5 -117q-2 -4 -127.5 -2.5t-124.5 16.5q2 51 -5.5 135t6.5 123z" />
    <glyph glyph-name="quotedbl" unicode="&#x22;" horiz-adv-x="707" 
d="M137 1585q6 -10 60 3l54 13q-6 -4 -44.5 -132t-32.5 -127q16 0 55.5 5.5t43.5 -6.5q6 -20 11.5 -98t5.5 -103q0 -15 2 -35.5t-2 -20.5q-75 0 -141 4t-137 4q-9 0 -6 61.5t5 65.5q12 30 8.5 56.5t-3.5 53.5q-1 27 50.5 125t70.5 131zM466 1585q6 -10 59.5 3l53.5 13
q-6 -4 -44.5 -132t-31.5 -127q16 0 55 5.5t43 -6.5q6 -20 11.5 -98t5.5 -103q0 -15 2 -35.5t-2 -20.5q-74 0 -140.5 4t-137.5 4q-9 0 -6 61.5t5 65.5q12 30 9 56.5t-3 53.5q-1 27 50 125t71 131z" />
    <glyph glyph-name="numbersign" unicode="#" horiz-adv-x="949" 
d="M434 1233q43 20 88.5 1t41.5 42l12.5 78t12.5 118q0 147 37.5 144.5t163.5 9.5q71 6 44.5 -41.5t-23.5 -129.5q1 -23 -21 -128.5t-4 -102.5q118 15 116.5 7t-14.5 -164q-2 -25 -56 -24.5t-54 -9.5q-3 -33 -27.5 -128.5t-24.5 -154.5q-1 -137 11 -94.5t96 6.5
q2 -2 -14 -101.5t-55 -99.5q-68 0 -64.5 -14.5t-1.5 -77.5q-1 -12 -8.5 -22.5t-9.5 -21.5q-2 -9 2 -18t2 -16q-7 -26 -19.5 -102t-32.5 -127q-3 -7 -3.5 -19t-3.5 -17q-6 -9 -31 -9q-29 0 -114 -7t-67 17q2 2 8 52.5t19 73.5l10.5 48t20 107t14 110t-7.5 59q-3 1 -7 0
q-64 -27 -73 -17t-40 -1q-12 -4 -15 -13q-5 -10 -3 -30.5t-4 -38.5q-26 -63 -43.5 -211.5t-51.5 -148.5q-22 0 -101 1t-79 16q0 12 29 173.5t35 205.5q9 67 -15.5 55.5t-90.5 -11.5q0 44 4 128.5t60 84.5q114 0 82.5 31t1.5 80q17 27 26.5 150t8.5 123q-33 0 -91.5 -3.5
t-37.5 29.5q44 69 21 122t108 44q10 -1 19.5 57.5t20.5 129t23.5 129.5t28.5 59q30 -1 112 10t82 -28q0 -24 -12.5 -83t-25.5 -120t-20.5 -108t3.5 -46q60 2 35.5 -7t-33.5 -6zM414 1058q-15 -34 -11 -63.5t-13 -74.5q-1 -1 -14 -118t-19 -148q13 -5 77.5 -3t65.5 14
q0 15 3.5 27.5t2.5 41.5q0 7 8.5 104t11.5 105q9 39 4 47.5t14 59.5q5 12 -24 7t-50 -5q-37 0 -56 6z" />
    <glyph glyph-name="dollar" unicode="$" horiz-adv-x="831" 
d="M277 1613q18 54 12 79.5t4 34.5t55.5 7.5t167.5 -1.5q0 -80 -2.5 -102t5.5 -25t31.5 -5.5t76.5 -42.5q82 -66 92 -89.5t50 -124.5q5 -14 14 -117.5t-11 -103.5q-35 0 -136.5 6t-118.5 0q-16 12 -9.5 67.5t2 109t-36.5 81t-126 -17.5q-31 -15 -47.5 -121.5t37.5 -151.5
q15 -13 44.5 -65t108.5 -99q60 -36 148.5 -149.5t94.5 -184.5q6 -76 26 -139.5t-3 -143.5q-40 -135 -65.5 -196t-183.5 -93q-21 -4 -17 -27t8 -42t-8.5 -28t-84.5 -9q-103 0 -120.5 3.5t-12.5 18.5q4 12 0 51v24q-1 1 -6 1.5t-5 2.5q-6 6 -16.5 10t-19.5 10q-14 9 -26.5 19
t-24.5 16q-31 13 -83.5 88t-56.5 126q-3 24 -19 111t-5 133q3 18 2 17q5 8 22 8q21 0 132 -3.5t111 -16.5q-2 -44 -0.5 -105.5t18 -107.5t53.5 -59t108 42q69 53 28 168.5t-101 148.5q-16 9 -8 31.5t-43 57.5q-1 0 -42.5 46t-91.5 102t-91.5 103.5t-41.5 50.5
q-27 94 -29.5 76.5t-9.5 116.5q-4 54 -10.5 100.5t28.5 93.5q36 46 86.5 127.5t146.5 81.5z" />
    <glyph glyph-name="percent" unicode="%" horiz-adv-x="1466" 
d="M385 1640q51 -60 98 -90t54 -138q7 -110 23.5 -167.5t-10.5 -189.5q-10 -49 0 -123.5t-20 -145.5q-36 -87 -84.5 -137.5t-150.5 -62.5q-158 -20 -192 81t-72 212q-5 13 -8.5 78t-3 142t5 146t15.5 91q9 20 5.5 36t26.5 32q25 13 27 76t141 134q18 9 73.5 26.5t71.5 -0.5z
M302 1468q-41 3 -57.5 -44t-20 -109.5t1 -123t4.5 -85.5q0 -19 -1.5 -91.5t6 -143.5t29.5 -115t69 -5q16 13 32 127.5t18 246.5t-15 238.5t-66 104.5zM919 1617q9 1 96 3t83 -10q-17 -45 -66 -163.5t-50 -150.5q-1 -13 -48 -112.5t-104 -226t-106 -250.5t-54 -186
q-2 -20 -28.5 -78t-36.5 -129q-6 -36 -62 -168t-91 -132q-20 0 -82.5 -4.5t-59.5 -0.5q6 6 23 47.5t17 42.5q6 7 57 123.5t49 144.5q-1 15 29.5 107t70 200t77 202t51.5 114q6 9 40.5 132t93.5 207q30 43 52 143t43 137zM1024 1054q63 26 102 12.5t82 -39.5
q110 -67 105 -112t28 -125q56 -136 33.5 -248.5t-17.5 -229.5q4 -91 -44.5 -189t-138.5 -110q-129 -16 -199 37.5t-101 142.5t-33.5 196t5.5 197q7 95 25 274t153 194zM1092 909l-8 5q-48 4 -67.5 -73t-24 -178t-1 -197t2.5 -128q-8 -201 89 -203.5t90 160.5
q-6 139 18 327.5t-99 286.5z" />
    <glyph glyph-name="ampersand" unicode="&#x26;" horiz-adv-x="998" 
d="M743 839q24 -12 101 -37t77 -42q0 -48 -31.5 -156.5t-61.5 -150.5q-33 -45 7 -76t58 -68q16 -37 34 -38.5t24 -5.5t-5 -29t-52 -108q-81 -162 -58 -139t-77 102q-28 22 -41.5 70t-36.5 -18q-8 -22 -61 -56.5t-117 -62.5t-122 -42t-75 5q-68 75 -100.5 81.5t-122.5 150.5
q-74 117 -75.5 211t7.5 238q2 43 65.5 131t93.5 119q57 57 39.5 56.5t-65.5 152.5q-48 150 -19.5 310t146.5 220q34 17 57.5 40.5t89.5 -2.5q36 -15 85 -14t109 -66q59 -69 79 -195.5t-11 -231.5q-19 -62 -70.5 -141.5t-76.5 -124.5q-14 -24 -9 -27q6 -5 12.5 -23t11.5 -27
q19 -39 34.5 -88.5t65.5 -86.5q38 -30 23.5 -40.5t33.5 95.5q7 16 10.5 69.5t23.5 44.5zM352 734q-9 -22 -63 -68.5t-52 -93.5q3 -128 22 -170.5t116 -42.5q44 0 99 36.5t19 73.5q-52 51 -77 128t-64 137zM387 1131q25 -5 51 36.5t36 91t-4.5 88t-70.5 28.5
q-27 -6 -52 -92.5t35 -144.5z" />
    <glyph glyph-name="quotesingle" unicode="'" horiz-adv-x="707" 
d="M137 1585q6 -10 60 3l54 13q-6 -4 -44.5 -132t-32.5 -127q16 0 55.5 5.5t43.5 -6.5q6 -20 11.5 -98t5.5 -103q0 -15 2 -35.5t-2 -20.5q-75 0 -141 4t-137 4q-9 0 -6 61.5t5 65.5q12 30 8.5 56.5t-3.5 53.5q-1 27 50.5 125t70.5 131z" />
    <glyph glyph-name="parenleft" unicode="(" horiz-adv-x="520" 
d="M443 1593q2 -6 10 -53.5t11 -99.5t-5 -90.5t-37 -25.5q-46 18 -94 -2.5t-18 -79.5q4 -9 -2 -170t8 -226q0 -1 -2 -65t-4 -142t-4.5 -145.5t-2.5 -74.5q-4 -31 -8.5 -109.5t33.5 -78.5q22 0 78 2t58 -11q5 -38 18.5 -135.5t-38.5 -97.5q-18 0 -81.5 -2t-133 -2.5t-124.5 3
t-54 13.5q3 90 3.5 189.5t-23.5 188.5q-17 63 -13.5 191.5t11.5 271.5t12.5 273.5t-10.5 198.5q-6 24 -2.5 149t4.5 125q84 0 140.5 10t159.5 2q21 -2 57.5 0t52.5 -7z" />
    <glyph glyph-name="parenright" unicode=")" horiz-adv-x="500" 
d="M13 1640q13 8 31 8q96 -4 191 6.5t180 10.5q18 0 22.5 -105.5t4 -238t-1.5 -254t6 -154.5q6 -36 7.5 -192.5t4.5 -159.5q19 -28 14.5 -97.5t-15.5 -150.5t-18.5 -158t6.5 -120q3 -12 -119.5 -19t-146.5 -7q-114 0 -131 11.5t-17 93.5q0 101 6.5 132t24 31t47 -11t75.5 9
q14 6 9.5 95.5t-4.5 115.5q-6 114 4.5 217.5t3.5 205.5q-3 53 3 205t6 154q-27 129 -23.5 130.5t-121.5 1.5q-66 0 -47 90t-1 150z" />
    <glyph glyph-name="asterisk" unicode="*" horiz-adv-x="993" 
d="M44 1389q33 -15 187.5 -25t154.5 4q0 25 -15 150.5t9 125.5q101 0 148 4.5t62.5 -15t12 -77t-3.5 -181.5q34 0 186.5 5t155.5 -10q3 -26 -0.5 -119t-21.5 -93q-19 0 -82.5 9t-117 12t-68 -9t64.5 -54q9 -6 92 -102t68 -107q-130 -94 -169.5 -126.5t-112.5 129.5l-60 73
t-65 51q-2 -6 -27 -47.5t-55 -87.5t-57 -82t-33 -32q-64 42 -98 56.5t-90 48.5q-33 19 0 46.5t52 63.5q14 26 85.5 92t36.5 66q-38 -2 -148 -19t-112 36q-1 27 -6.5 116t27.5 98z" />
    <glyph glyph-name="plus" unicode="+" horiz-adv-x="895" 
d="M5 942q9 6 131 7.5t152 1.5q21 0 8.5 117.5t-12.5 118.5q-8 11 -5 31q1 8 6 11q8 5 75 4q8 -1 18.5 2t19.5 3q35 -3 68.5 -6.5t51.5 -3.5q16 0 19.5 -82.5t-5.5 -103.5q-5 -10 -2 -19.5t2 -16.5q-6 -36 -4 -43q2 -9 26 -10q16 -2 38 -2h40q90 0 142.5 11t42.5 -71
q-19 -156 8.5 -171.5t-88.5 -15.5q-17 0 -90.5 -5t-77.5 0q-9 7 -28 4q-10 -3 -14 -17q-7 -28 -3 -73q0 -15 5.5 -29.5t8.5 -28.5q1 -18 -1 -35t1 -33q3 -24 3 -41v-20q-9 -2 -38 -1t-40 1q-41 0 -101 -9t-61 5q-11 85 -8 138.5t-6 125.5q-3 25 -112.5 15t-133.5 -5
q-10 21 -23 118.5t-13 127.5z" />
    <glyph glyph-name="comma" unicode="," horiz-adv-x="480" 
d="M6 388q24 3 136.5 14.5t118.5 15.5q24 18 25.5 -80t1.5 -112q0 -82 -25.5 -124.5t-70.5 -108.5q-12 -18 -22.5 -42t-13.5 -30q-8 -12 -67 -13l-59 -1q0 1 32.5 98t34.5 99q37 47 -6.5 38.5t-75.5 -1.5q-1 0 -5.5 122.5t-3.5 124.5z" />
    <glyph glyph-name="hyphen" unicode="-" horiz-adv-x="569" 
d="M0 941q6 -2 75.5 -2h151t149.5 0.5t70 1.5q96 39 64.5 -35t6.5 -175q8 -24 -113.5 -14.5t-140.5 0.5q-65 -33 -125.5 -24t-105.5 8q-7 -1 -19.5 115t-12.5 125z" />
    <glyph glyph-name="period" unicode="." horiz-adv-x="480" 
d="M8 266l8 -0.5l8 -0.5q93 12 132.5 6.5t123.5 -5.5q11 0 11.5 -104t0.5 -131q0 -10 -136.5 -17.5t-136.5 9.5q0 21 -5.5 132z" />
    <glyph glyph-name="slash" unicode="/" horiz-adv-x="938" 
d="M655 1610q24 21 131.5 20t101.5 -8q-20 -22 -44.5 -96.5t-54 -166.5t-65 -183.5t-78.5 -146.5q-28 -37 -69 -168l-41 -131q-30 -36 -73 -153t-87.5 -243.5t-85.5 -225.5t-66 -99q-30 0 -148 -8t-61 37q75 58 107.5 162.5t62.5 192.5q16 51 35 75t29 88q10 60 90.5 234.5
t107.5 269.5q24 85 64.5 149t36.5 161q0 1 47.5 102.5t59.5 137.5z" />
    <glyph glyph-name="zero" unicode="0" horiz-adv-x="849" 
d="M419 1676q116 -25 144 -36t133 -93q52 -42 71 -131t22.5 -183.5t2 -173.5t10.5 -100q4 -10 5.5 -105t-2 -210.5t-12 -219.5t-22.5 -130q-30 -57 -59 -129t-123 -102q-132 -44 -200 -51t-212 74q-98 55 -130 161.5t-33.5 232t9 252.5t-0.5 224q-9 60 -1 213.5t26 212.5
q37 126 136 210.5t236 83.5zM417 1425q-105 3 -119 -141t-16 -221q-4 -115 9 -247t-1 -244q-5 -38 5.5 -142.5t33.5 -126.5q47 -48 72.5 -47t73.5 37q70 53 64.5 160t-5.5 200q0 42 0.5 130t0.5 183.5t-2 178t-8 113.5q-4 19 -23 103t-85 64z" />
    <glyph glyph-name="one" unicode="1" horiz-adv-x="500" 
d="M13 1220v9q-13 13 0 36v90q-4 18 -4 24l1.5 1t2.5 2v16q24 0 36 1q66 27 120.5 44t92.5 126q14 41 81 50.5t111 9.5v-16v-15h3v-278q4 -75 18 -135q0 -1 -2.5 -76.5t-6 -170t-6 -181.5t-2.5 -111q0 -16 -0.5 -56.5t-0.5 -93.5v-179q0 -71 2 -123t7 -58q2 -5 -1.5 -32
t-1.5 -45q0 -11 -6 -18v-36h-250v6q-10 0 -17.5 0.5t-13.5 0.5q0 42 13 95.5t-3 95.5q-1 2 0 63t2.5 136.5t3.5 143t2 84.5q0 84 -5.5 106t5.5 108q3 25 -4 175t-11 201h-76q-44 -4 -67 0h-23z" />
    <glyph glyph-name="two" unicode="2" horiz-adv-x="808" 
d="M45 420q17 84 38 122q1 2 47.5 63.5t102 134t102 133.5t47.5 62q29 25 56.5 94t38.5 145.5t-1 141.5t-61 83q-71 25 -105 -20.5t-46 -110.5t-9.5 -123.5t3.5 -59.5q5 -14 -108.5 -9t-133.5 5q-23 18 -12.5 119t10.5 141q0 137 57.5 176.5t96.5 92.5q33 44 105 57.5t150 7
t145 -27t89 -43.5q109 -118 108.5 -198.5t-0.5 -226.5q0 -57 -19.5 -112.5t-45.5 -107.5q-28 -61 -61 -112q-25 -47 -38 -78q-52 -125 -183.5 -225t-134.5 -283h454v0q4 0 8.5 0.5t9.5 0.5q15 0 12.5 -105.5t-2.5 -133.5q0 -10 -117 -13.5t-257 -4t-256.5 1t-116.5 3.5
q-16 57 -4 195v24q0 104 31 191z" />
    <glyph glyph-name="three" unicode="3" horiz-adv-x="852" 
d="M32 1158q4 31 -3.5 19t0.5 36q28 180 42.5 257.5t182.5 170.5q58 32 173 26t169 -41q77 -51 107 -76.5t40.5 -47.5t15.5 -51.5t31 -87.5q22 -54 3 -151.5t-17 -130.5q1 -49 -36 -131.5t-63 -81.5q-55 2 1.5 -38.5t79.5 -104.5q53 -157 34.5 -191t-12.5 -152
q4 -113 -60.5 -219.5t-178.5 -135.5q-204 -52 -364.5 32t-160.5 318q0 144 5.5 161.5t104.5 17.5q127 0 143.5 11t7.5 -66q-18 -142 17.5 -195.5t85 -48t93 55t42.5 115.5q-2 96 -15.5 182t-100.5 138q-44 25 -69.5 21t-38 -3.5t-16 22.5t-3.5 101q0 56 -3.5 73.5t29.5 24.5
q122 24 161.5 48.5t63.5 144.5q15 74 -25 171.5t-136 25.5q-48 -35 -63 -128t2 -117q3 -6 -118 -11t-151 37z" />
    <glyph glyph-name="four" unicode="4" horiz-adv-x="910" 
d="M460 1612q11 -10 120.5 9t136.5 31q16 6 20.5 -167t5.5 -384.5t3 -390t14 -182.5q13 -5 23.5 -2.5t21.5 3.5q21 0 33 11t19 -4q10 -20 10 -129q0 -105 -6.5 -103.5t-100.5 1.5q-18 0 -8 -129t1 -169q-3 -9 -122.5 -2t-142.5 7q4 0 -7 80q-3 27 -3 53v27q-2 103 -6 110
q-11 14 -42 1q-9 -3 -21 -3t-26 -1q-11 -1 -30.5 -2t-34.5 3q-78 21 -140.5 14.5t-138.5 -6.5q-21 0 -25 52.5t-4 88.5q0 6 1 18t1 16q-10 43 -8 52.5t14 62.5q10 47 67 178t121.5 270.5t116.5 249.5t53 117q6 75 34 112.5t50 106.5zM484 1094l-3 -2.5t-2 -5.5
q3 -51 -65 -186.5t-81 -184.5q-32 -118 -81.5 -149t99.5 -31q100 0 115 3.5t9 76.5q-12 120 -3.5 239.5t12.5 239.5z" />
    <glyph glyph-name="five" unicode="5" horiz-adv-x="807" 
d="M60 1636q4 -2 18 -8q0 -1 77.5 1.5t172.5 5.5t178.5 4.5t96.5 -0.5q87 -18 105.5 -1t18.5 -65q0 -54 16.5 -134.5t-25.5 -62.5q-49 20 -207.5 11.5t-166.5 -2.5q0 -1 -10 -3q2 1 -12 -2q-4 -3 -8.5 -2.5t-6.5 -0.5q-2 -2 -6 -12q-16 -34 -21 -111q-5 -57 -3.5 -107
t2.5 -49q99 49 209.5 44.5t191.5 -93.5q45 -50 49.5 -93t13.5 -84q20 -97 23 -213.5t-17 -215.5q-16 -77 -10.5 -123t1 -84t-35 -78.5t-118.5 -106.5q-49 -36 -135 -43.5t-173.5 13t-158.5 71.5t-89 134q-29 129 -20 156t9 146q0 10 116.5 25.5t130.5 15.5q6 0 -3 -134
t54 -162q75 -34 96.5 -1t32.5 49q61 86 41.5 230t-16.5 227q3 88 -58 98.5t-78 -1.5q-56 -40 -59.5 -60t-0.5 -28.5t-10.5 -8.5h-88.5q-145 0 -156.5 16.5t-4.5 103.5q2 32 6 147.5t10 243t13 232t16 115.5z" />
    <glyph glyph-name="six" unicode="6" horiz-adv-x="838" 
d="M544 1190q-9 8 -18 48.5t-8 47.5q1 56 -35 99t-79.5 44t-80 -54.5t-36.5 -196.5q0 -22 -6.5 -96l-6.5 -74q3 19 120.5 57.5t152.5 26.5q174 -65 213 -184t39 -293q0 -69 -14 -227.5t-53 -207.5q-92 -114 -190 -153t-248 -6q-151 33 -181 114.5t-70 180.5
q-14 32 -19.5 113.5t-7.5 175.5t-3.5 182.5t-6.5 134.5q-7 68 6 250t38 237q52 117 95.5 138t91.5 97q25 39 165 36t164 -26q69 -68 112.5 -100t67 -66t30 -89.5t2.5 -169.5q-2 -27 -102.5 -34.5t-131.5 -4.5zM278 689q14 -3 12 -71.5t-4 -74.5q-20 -57 -9 -43t10 -17
q-10 -226 108 -228.5t132 81.5q18 117 11 191.5t-16 185.5q-8 93 -119 108.5t-125 -132.5z" />
    <glyph glyph-name="seven" unicode="7" horiz-adv-x="831" 
d="M1 1585q9 5 55 2.5t63 -2.5q29 0 136 -0.5t224 -1.5t209 -4t92 -7q-5 -57 3.5 -114t-1.5 -108q-23 -108 -60 -183t-70 -187q-10 -32 -46.5 -175t-37.5 -146q-45 -87 -64.5 -250.5t-73.5 -295.5q-24 -57 -27.5 -87t-81.5 -12q-66 15 -149.5 -8.5t-55.5 18.5
q39 63 59.5 226.5t52.5 199.5q4 4 35 113.5t66.5 242t64.5 246.5t29 128q-3 50 26.5 99.5t-15.5 29.5q-6 -3 -138 0t-156 3q-60 1 -97 -5.5t-34 83.5q0 24 -4.5 108t-3.5 87z" />
    <glyph glyph-name="eight" unicode="8" horiz-adv-x="875" 
d="M168 850q-120 75 -104 189t-3 180q-23 77 19.5 149t112.5 123.5t147.5 75t124.5 3.5q159 -68 197 -99.5t73 -179.5q14 -61 6.5 -135t-7.5 -135q0 -112 -49 -136.5t-18 -45.5q56 -40 67 -61.5t42 -54.5q45 -48 51.5 -195.5t-4.5 -213.5q-37 -226 -252 -305
q-31 -10 -163 -15.5t-165 6.5q-105 38 -132 71t-75 123q-37 70 -28 87.5t1 82.5q-12 102 -4.5 95t13.5 62q12 164 29.5 186.5t120.5 142.5zM447 1368q5 -1 -12 -1q-95 0 -127.5 -95t-20.5 -146q31 -139 50 -145.5t124 -6.5q39 0 59 57t19 127.5t-23.5 134t-68.5 75.5z
M385 709q-36 4 -71 -72t-42 -169t26 -171t133 -78q58 0 85.5 60.5t34.5 136.5t-2.5 144.5t-25.5 84.5q-33 31 -61 49t-77 15z" />
    <glyph glyph-name="nine" unicode="9" horiz-adv-x="884" 
d="M704 1536q75 -27 106.5 -152t20.5 -180q-15 -70 -8 -124t4 -123q-5 -87 3.5 -208.5t6.5 -244.5t-25.5 -231.5t-91.5 -167.5q-53 -46 -76 -54.5t-79 -20.5q-100 -22 -149 -19q-52 3 -107 21q-8 3 -20 4t-18 5q-7 3 -10.5 5.5t-13.5 5.5q-75 15 -92.5 40.5t-37.5 40.5
q-57 38 -66.5 143t-9.5 173q2 0 -2 6.5t6 9.5q5 2 20.5 0t21.5 -1q41 6 91 8.5t50 3.5q12 7 51 -6q9 -4 19.5 -4t19.5 -7q10 -9 6 -11.5t-2 -26.5q1 -36 5.5 -75t38.5 -61q75 -51 127 -12q55 44 52 172t-4 193q-3 95 -22.5 36t-161.5 -59q-94 0 -177 30t-118 132
q-35 99 -47.5 285t23.5 287q63 168 109 203t214 95q87 30 185 -11.5t158 -99.5zM452 1406q-97 -6 -112 -62t-30 -131q-8 -38 -10.5 -158t23.5 -154q40 -55 135 -27t95 194q0 90 -5 181t-75 154q-6 4 -21 3z" />
    <glyph glyph-name="colon" unicode=":" horiz-adv-x="325" 
d="M2 1127q7 3 125 2.5t141 -0.5q42 0 26 -123.5t-4 -145.5q5 -11 -112.5 -9.5t-141.5 1.5q-36 0 -27.5 121t-6.5 154zM15 270q49 16 153 2t133 7q5 4 4.5 -37t-3.5 -91.5t-6.5 -93t-4.5 -42.5q-93 0 -128 -5t-121 -14q-24 -3 -22.5 122t-4.5 152z" />
    <glyph glyph-name="semicolon" unicode=";" horiz-adv-x="349" 
d="M21 1141q8 6 36 6.5t40 -0.5q163 -24 186 -1t23 -119q0 -105 13.5 -135.5t-90.5 -30.5q-191 0 -192.5 14t-12.5 101q-11 84 -6.5 92t3.5 73zM21 264q-1 3 41.5 3h51.5q54 0 94 4.5t76 4.5q14 0 15.5 -91.5t1.5 -113.5q0 -34 -60 -163.5t-63 -129.5q-122 -9 -120.5 -19
t21.5 70q30 122 48.5 148t-77.5 26q-20 0 -22.5 115.5t-6.5 145.5z" />
    <glyph glyph-name="less" unicode="&#x3c;" horiz-adv-x="843" 
d="M803 340q-10 3 -59.5 15t-49.5 13q-20 13 -110.5 46.5t-90.5 34.5q-57 47 -149 68t-134 54q-52 41 -111 51.5t-64 61.5q-5 49 -22 100.5t14 63.5q19 7 102.5 40t176 70t166.5 66.5t75 30.5q25 4 119 50t94 45q4 -33 19.5 -111t15.5 -93q0 -12 -63.5 -39.5t-146 -60
t-161 -65.5t-108.5 -54q-14 -10 78.5 -44.5t93.5 -34.5q55 -5 138 -35.5t143 -50.5q31 -11 32.5 -99t1.5 -123z" />
    <glyph glyph-name="equal" unicode="=" horiz-adv-x="847" 
d="M7 705q0 -3 59 -6.5t65 -2.5q110 3 221.5 11.5t224.5 1.5q95 -7 139 2.5t58.5 4t11 -42t-3.5 -135.5q0 -15 -78.5 -7.5t-108.5 3.5q-100 -16 -278 -17t-293 -1q-30 0 -24.5 80t7.5 109zM3 1076q9 -15 66.5 -16.5t126.5 2.5t131 9.5t81 4.5q124 -9 194 1.5t176 10.5
q29 0 20 -84t-3 -133q-34 -6 -160 -5t-156 8q-82 18 -219 6t-226 -14q-13 0 -15 94t-16 116z" />
    <glyph glyph-name="greater" unicode="&#x3e;" horiz-adv-x="857" 
d="M9 1150q10 -3 59.5 -15.5t50.5 -12.5q18 -14 108.5 -47.5t91.5 -33.5q57 -48 149 -68.5t135 -53.5q51 -42 110 -52t64 -60t22.5 -101.5t-13.5 -63.5q-20 -8 -103.5 -41t-176 -70t-166.5 -66.5t-75 -29.5q-25 -5 -119 -51t-94 -44q-4 33 -19 110.5t-15 94.5q0 10 63 37.5
t145 60t160.5 65.5t109.5 55q14 9 -78.5 44l-92.5 35q-57 4 -140 34.5t-142 51.5q-32 10 -33 98t-1 124z" />
    <glyph glyph-name="question" unicode="?" horiz-adv-x="819" 
d="M40 1063q-30 5 -15.5 13t-12.5 17q0 156 7 186t64 169q48 121 183.5 198t243.5 5q119 -81 134 -85t64 -132q72 -191 55.5 -315t-147.5 -291q-78 -98 -77.5 -156t-20.5 -108q-29 -70 -8 -129t-46 -59h-188t-4 93q-3 84 17 124.5t26 77.5q24 144 87 217.5t80 161.5
q10 56 30.5 175.5t-48.5 158.5q-70 39 -105 12t-48.5 -82.5t-13 -121t0.5 -104.5q0 -32 -112.5 -28.5t-145.5 3.5zM252 273q54 20 116 6t119 9q27 9 25.5 -17.5t-1.5 -51.5q0 -18 5.5 -113.5t2.5 -95.5q-48 0 -71.5 -4t-82.5 2q-31 3 -58.5 3t-51.5 3q0 27 9.5 31t-6.5 75
q-6 22 -4 84.5t-2 68.5z" />
    <glyph glyph-name="at" unicode="@" horiz-adv-x="1577" 
d="M847 541q-46 -38 -135.5 -81.5t-151.5 -13.5q-103 48 -132.5 172t-21.5 228q1 26 14 100t32.5 154t45 145t53.5 74q87 27 160 53.5t177 -57.5q23 -19 22.5 -6t-1 32t10.5 32t58 -6q42 -18 84.5 -11.5t70.5 4t32 -31t-32 -115.5q-9 -20 -20 -97.5t-19.5 -166t-11.5 -163
t6 -86.5q18 -26 68.5 5t64.5 98q8 39 36 131.5t10 145.5q-29 9 -8 57t6 102q-13 42 -29 134.5t-46 119.5q-83 70 -101.5 89.5t-132.5 43.5q-77 15 -156 14t-150 -36q-82 -41 -188 -127t-116 -189q-12 -109 -88.5 -302t5.5 -345q11 -21 29 -130.5t93 -129.5l39.5 -39
t84.5 -42q25 -3 51.5 -29.5t144.5 -26.5h147.5t80.5 8t71 27.5t121 58.5q145 69 117.5 50t-21.5 -156q2 -59 -26 -74.5t-81 -52.5q-125 -87 -279.5 -93t-291.5 39q-134 44 -155.5 68.5t-117.5 99.5q-54 41 -102 109.5t-75 127.5q-74 162 -75.5 331.5t39.5 344.5
q21 94 26.5 104.5t42.5 101.5q84 206 156.5 251.5t241.5 149.5q336 205 673 21q98 -54 176 -172t92 -226q18 -149 27.5 -287.5t-56.5 -279.5q-81 -169 -183.5 -276t-316.5 -49q-36 10 -61 41.5t-28 29.5zM875 1017q0 58 -88 108.5t-120 -109.5q-5 -22 -16.5 -82.5
t-11.5 -120t19.5 -97.5t76.5 -14q75 31 95.5 114.5t36.5 149.5q8 38 8 51z" />
    <glyph glyph-name="A" unicode="A" horiz-adv-x="985" 
d="M285 1611q12 -5 34 -5t19 -9q6 0 13 -4q-2 0 58.5 6.5l60.5 6.5h41h49q-1 0 47.5 -6.5t41.5 -6.5q13 0 13 -9l-2 -9t19 -42l12 -123.5t42 -189.5q1 -3 2.5 -32.5t3.5 -33.5q-3 -2 9.5 -72t29 -156t32 -163.5t18.5 -95.5q-5 3 10 -96.5l15 -99.5q6 4 12 -25.5l6 -29.5
l12.5 -102.5t21.5 -141.5q2 -12 9 -65t17 -59q-1 0 3.5 -17t4.5 -16q0 -12 -25.5 -10.5t-42.5 1.5q-67 0 -65.5 -0.5t-38.5 13.5h-24.5t-12.5 0q-19 0 -25 -5q-1 0 -18.5 -3.5t-24.5 4.5q0 -1 -6.5 2.5t-10.5 24.5l-18 72t-12 63q-1 -2 -11 48l-10 50q0 6 -2.5 6.5
t-2.5 10.5h-16t-13 0q-1 0 -56 -6.5t-85 -6.5h-37.5t-22.5 0l-6.5 -0.5t-16.5 -0.5q-6 -15 -24 -104t-17 -96q6 -7 -5 -34l-4 -17.5t-4 -16.5l-105.5 -2t-108.5 -2q-18 0 -21 9q5 6 -16.5 3t-21.5 6q0 -6 10.5 18t11.5 24q-2 -2 -1.5 8t0.5 9q-2 6 3.5 26.5l5.5 20.5
q-13 12 13 35q-1 -7 4.5 16t12.5 17v15v15q0 -2 0 24v44q0 -2 0 10v16l9.5 32t14.5 41q2 0 1.5 23.5t-0.5 22.5l2.5 15.5t2.5 23.5l2 25l2 25q0 22 13 48q1 -6 11.5 53.5t9.5 83.5q0 -3 -0.5 15.5t4.5 23.5q2 -6 5 12.5t9 20.5q-1 0 2 56t6 60q-7 -19 17 65l30 105
q-2 -3 -1 12t1 13q0 -3 0 9t0 8v17.5t-5 17.5q-1 -1 -0.5 10l0.5 11v12.5v17.5q0 -21 18.5 102.5t29.5 136.5q-9 -16 8 70t17 57q0 45 7 44zM460 1236q9 -82 -31 -236.5t-40 -268.5q0 14 -8.5 -50t-8.5 -121q0 -3 -13 -16l3 -7t6 -6q-1 0 6.5 0h10.5q-5 0 53.5 -4.5
t91.5 -4.5q-2 0 2.5 0h5.5q-2 0 2.5 0h6.5q7 0 8 5h5h8v9v12q0 -6 -3.5 5.5t-5.5 14.5q1 10 -8 10v5.5v7.5l-0.5 4.5t13.5 28.5q-7 8 -3 9q-2 0 -10.5 19t-8.5 20q0 -10 -2 17.5t-2 42.5q0 -2 -8.5 27t-8.5 59q0 -1 -2 5.5t-2 10.5l-2 5.5t-2 11.5l-4.5 13t-4.5 21l-2 23.5
t-2 40.5l0.5 33t-16.5 69l-7 43l-7 43q0 -1 -2 8l-2 9q0 -1 0 13v26q0 3 -5 8q-4 4 -4 13q0 -1 1.5 8.5t1.5 13.5z" />
    <glyph glyph-name="B" unicode="B" 
d="M31 1605q45 2 119 9l74 7h22.5t12.5 0h18.5t10.5 0q36 0 93 6l57 6q18 0 78 -19.5t64 -17.5q26 -23 69 -42q117 -56 126 -138t9 -80q0 -4 2 -36.5l2 -32.5v-48v-98.5v-86.5t0 -10q0 -4 -18 -32t-21 -28q-9 -18 -20 -29q-8 -8 -51 -32.5t-43 -27.5q-3 -2 -19 -7.5
l-16 -5.5q2 -3 5.5 -4l3.5 -1q51 -19 59 -33q10 -7 48 -47t38 -38q-2 -6 7 -22.5t5 -12.5q1 -2 30 -69.5t30 -67.5q0 -54 -4 -138t-4 -79q0 -59 -12.5 -85t-13.5 -58q-2 -24 -33.5 -54.5t-29.5 -28.5q-10 -10 -33 -27t-23 -20q-1 0 -79 -40t-66 -24q-2 -3 -46 -4l-44 -1
h-35.5t-22.5 0h-16.5t-10.5 0h-28.5t-23.5 -8h-8q-3 -5 -21.5 -4.5t-16.5 0.5q-60 0 -126.5 4t-125.5 4q8 2 8 4v14v12v18.5t0 10.5v54.5t0 35.5q0 18 2.5 32.5t2.5 27.5q0 -2 -0.5 18.5t0.5 19.5q-16 19 -10.5 61t1.5 44q1 4 7 35l6 31v31.5t0 19.5q0 56 -8.5 129.5
t-8.5 66.5l6.5 38.5t1.5 38.5q6 1 8.5 41.5t-0.5 49.5q9 17 7 83t-2 60q0 23 -2 50.5l-2 27.5v39.5v36.5q0 14 4 64.5l4 50.5v9.5v4.5q0 24 -4 26.5l-4 2.5q-5 0 -7 5l-2 5v35.5v31.5l-0.5 12.5t1.5 12.5q18 9 13 62l-5 53q0 22 4 22q6 0 5.5 32.5t1.5 41.5zM283 1358
q6 -24 2.5 -74t2.5 -91q0 -1 -4.5 -66t-4.5 -83q0 7 6 -29.5t-3 -44.5q1 0 1 -9l25 1t27 1q-3 0 36.5 5.5t54.5 15.5l14 5.5t14 9.5q7 7 23 16t16 38q0 -12 8 25.5t11 64.5v52t-9 47l-1 14.5t-1 20.5q0 -1 3 9.5t-12 22.5q1 4 -17.5 21l-18.5 17l-35 16t-48 13h-17h-17
q1 0 -4 0h-5l-20 -1t-28 -9q-2 0 1 -8zM284 719q-2 -32 -3.5 -59t-1.5 -58l3.5 -15l3.5 -15q-1 0 -2.5 -94t5.5 -105q9 -16 -4.5 -61.5t-0.5 -57.5q-5 5 -5 -10l22 6.5t24 6.5h39t35 -3q-2 0 15.5 0.5t24.5 0.5l25.5 11.5t59.5 50.5q13 13 13 19q0 -11 3.5 26t3.5 55
l-2.5 9.5l-2.5 9.5q0 15 -1 30t-1 34l-1 26t-1 45q0 -3 -1 12.5t-1 16.5q-4 3 -18.5 19t-17.5 19q-1 0 -2.5 9t-10.5 19l-1.5 2.5t-2.5 2.5q10 0 -23 18l-33 18q0 -1 -2 -1t-4 3l-19 6.5t-28 6.5q2 0 -30.5 0t-35.5 -3q0 1 -15 1q-6 0 -6 -1z" />
    <glyph glyph-name="C" unicode="C" 
d="M537 1278q2 -3 2 -8l-13 38.5t-54 51.5q-50 15 -90 9.5t-30 -5.5q-14 -12 -15 -14q-36 -51 -38.5 -147t-2.5 -166q0 -21 8.5 -68.5t3.5 -56.5q0 7 4 -42t-2 -62q-3 -8 -6 -67t-4.5 -129.5t-0.5 -132t5 -72.5q10 -35 22.5 -59t15.5 -34q15 -57 50 -47.5l35 9.5q18 0 18 4
q3 -2 18.5 3.5l15.5 5.5q6 4 18 14.5t12 11.5q0 15 8 21q19 -9 13.5 95t-8.5 122q-1 3 8 38l9 35q0 3 6.5 10l6.5 7h9h8q-11 0 55 2t51 6q3 6 51.5 5t46.5 0q3 -2 25 -9.5l22 -7.5l-4 -8t-4 -14q0 2 -0.5 -16t2.5 -20q12 -2 -1.5 -43t-13.5 -40q0 -18 4 -92.5t-4 -82.5
q-9 -9 -17.5 -45t-7.5 -36q-16 -13 -14.5 -19.5l1.5 -6.5q-1 0 -6.5 -22t-6.5 -25q-11 -33 -33.5 -50.5t-21.5 -17.5q-4 3 -17 -9l-13 -12q0 -8 -8 -12q-24 -20 -26 -18q-12 -21 -72 -25.5t-56 -4.5q-24 2 -21 -5q-11 -12 -46.5 -8.5t-34.5 5.5q-4 4 -26 3.5l-22 -0.5
q3 5 -9.5 7t-11.5 2h-13q-2 5 -68 25.5t-81 35.5q-24 -12 -83.5 105.5t-61.5 163.5q-2 15 -3 74t-2.5 124t-2.5 117t-1 54q-20 94 -8.5 192t0.5 157q-15 78 -10 103.5l5 25.5q2 2 10 30.5t8 30.5q-1 27 11 102t32 81q12 3 33 42l21 39q0 6 17 18l17 12q0 7 15 18.5l15 11.5
q5 -2 14 8t12 13q-5 -5 29 7.5t40 14.5q3 0 50 21l47 21h46.5h43.5q6 -9 58.5 -19.5t61.5 -10.5q-2 0 16.5 -11t35.5 -15q47 -12 50.5 -16l3.5 -4q9 -9 13 -15t10 -12q0 -2 9 -17.5t6 -11.5q3 0 12.5 -9t10.5 -9q12 -13 11 -15q3 -7 8 -23t7 -17q9 1 18.5 -78.5t9.5 -78.5
q0 -3 -6 -61.5l-6 -58.5q0 -16 4 -44.5t4 -27.5q3 -3 5.5 -21t3.5 -18q-3 0 -21.5 4t-21.5 -1q-15 -21 -118.5 -14l-103.5 7q0 19 4 101.5t-10 102.5z" />
    <glyph glyph-name="D" unicode="D" horiz-adv-x="850" 
d="M20 -21q-3 1 -4.5 5.5l-1.5 4.5v11.5v8.5q0 19 -2.5 54t-1.5 35q-7 8 -6 16t1 5v37.5v31.5q-4 -1 -6 46t-2 44q0 31 2 82.5t2 45.5q0 3 8.5 66t8.5 57q0 33 -8.5 112.5l-8.5 79.5q0 3 -0.5 31.5l-0.5 28.5q-3 8 -3 30.5t0 20.5q0 4 0.5 27.5t-0.5 23.5l9 73t12 55
q-2 66 -15.5 88.5l-13.5 22.5q0 25 2 47l2 22q0 1 6 8.5t6 16.5q0 -3 0 6.5t0 6.5q0 21 -2 40l-2 19q0 36 -2 88.5l-2 52.5v47.5t0 29.5q0 3 -4 33.5l-4 30.5q3 5 16 5h17t8 0q31 0 53.5 -1l22.5 -1q5 0 30.5 7.5t22.5 7.5q27 0 71.5 -4.5t42.5 -4.5q10 0 24.5 4.5l14.5 4.5
q4 -1 50.5 1.5t38.5 2.5q4 0 33 -4.5t23 -4.5q6 0 24.5 -6.5t18.5 -5.5l8 -4q2 -5 32 -18.5t28 -11.5q10 -9 30.5 -24.5t20.5 -13.5q3 -5 31 -30.5t24 -25.5q24 -15 22 -21q2 -5 11.5 -16t10.5 -10q7 -5 20 -36.5t9 -27.5q14 -15 22 -80.5l8 -65.5q12 -36 12.5 -94.5
t0.5 -57.5q0 -37 4.5 -89.5t4.5 -51.5q0 -8 -2.5 -62l-2.5 -54q13 -9 14.5 -71t-2 -132.5t-8.5 -127.5t-3 -57q-9 3 -14 -33l-5 -36q-6 -9 -38 -79t-29 -75q0 -1 -34.5 -45l-34.5 -44q-3 0 -16.5 -8.5t-11.5 -7.5q-1 -1 -31.5 -16.5t-24.5 -9.5q-3 -6 -23.5 -14.5
l-20.5 -8.5q1 -7 -19 -9t-18 -2q-17 0 -45 -2l-28 -2h-9.5t-3.5 0h-43t-25 0q-17 0 -70 -9.5t-49 -6.5q-17 -18 -88 -11.5t-94 9.5zM287 230q0 5 8 5h14.5t6.5 0q2 0 11.5 2t10.5 2q11 3 12 1q3 6 25.5 9t17.5 3q33 0 61.5 41t27.5 40l8 11t5 11q10 0 11.5 55.5t1.5 54.5
q0 9 4.5 56t4.5 48v16v33.5v30.5q0 99 4.5 198t4.5 186l-12.5 40.5t-11.5 41.5q0 3 -10 31t-9 28q-2 49 -16 73.5l-14 24.5q-9 7 -17.5 18.5t-7.5 11.5q-15 14 -28.5 18t-13.5 5q-24 16 -34 14l-10 -2q-3 -1 -31 1t-29 2q5 0 5 -4v-4v-52t0 -33q0 -19 -10 -93t-4 -99
q26 -105 17 -183t-3 -180q3 -71 -1 -86t-4 -81q0 -55 4.5 -100.5t4.5 -87.5l-2.5 -41t-1.5 -66z" />
    <glyph glyph-name="E" unicode="E" horiz-adv-x="779" 
d="M730 1627q-1 -22 3 -45l4 -23q3 -3 0 -91.5t-3 -112.5q0 -17 -7.5 -11.5t-18.5 5.5q3 0 -31 0h-55q3 0 -72 5t-114 -22q-1 0 -21 1t-23 7q0 2 -34.5 6t-42.5 -5q3 0 -13 4q-10 0 -12 4v-9v-12q0 3 -0.5 -12.5t0.5 -17.5q-1 -1 6.5 -38.5t4.5 -46.5q-15 -44 -14.5 -111
t3.5 -115q0 -9 13 -9q-3 0 46 -5t57 6q-2 -1 11 -1h18q-4 0 15 0h28q-2 0 55.5 0h85.5q-2 0 7 -39.5t9 -54.5q0 -36 7.5 -77.5t-28.5 -80.5l-106 4.5t-142 -12.5q2 0 -13.5 0h-20.5q3 0 -10.5 0h-18.5h-9h-9l4.5 -88.5t4.5 -91.5q0 7 6.5 -80.5t-2.5 -132.5q1 1 0.5 -16
t-0.5 -22l-0.5 -4t5.5 -9l4 -4h18q-3 0 22.5 0h41.5q-2 0 70.5 -2t116.5 -2l7.5 -1t9.5 -4q-1 1 17 1q-3 0 19 2t24 2q-2 0 19.5 6.5t35.5 6.5q-3 0 5.5 0h11.5q-1 0 8 -18.5t0 -27.5q0 -1 -2 -103t-2 -125q0 1 -76.5 5t-94.5 4q4 0 -22 -2t-33 -2l-20 -2t-36 -2
q1 0 -119.5 0h-191.5l-24 2t-44 2q9 0 -17.5 4t-16.5 4q-21 0 -16.5 3t-4.5 6q-1 0 5 28.5t8 31.5q-1 -1 -5 19.5t-4 31.5q0 -12 -5 83.5t-8 100.5q0 -1 8.5 104.5t8.5 138.5q0 -12 -4 18.5t-4 49.5l-2.5 28.5t-2.5 31.5q0 -1 -2 101t-2 168q0 -1 8.5 80t-8.5 95v21
q0 -9 8.5 32.5t8.5 56.5q0 -2 -4.5 16t-3.5 18v41.5v44.5q0 -2 0 78.5v134.5q0 -6 0 29v52l7 -3.5t10 -5.5q-1 0 122.5 0h159.5q-7 0 20.5 0h38.5l30 -2t51 -2q-8 0 71 -4t83 -9q-3 3 39 -0.5t51 -3.5q-5 0 14.5 -0.5t19.5 -3.5z" />
    <glyph glyph-name="F" unicode="F" horiz-adv-x="789" 
d="M737 1604q-6 -25 -4.5 -62.5t19.5 -53.5q0 2 -3 -33t-6 -35q-1 0 -0.5 -32.5t0.5 -50.5q-1 -1 -20.5 -1.5t-23.5 -0.5q3 0 -23.5 0t-22.5 0q-54 0 -80.5 2t-76.5 -14q-4 -2 -14.5 -1.5t-7.5 0.5q-4 0 -17 2t-22 2l-38.5 2.5t-37.5 2.5h-7h-6q-14 0 -22 -11
q0 -70 -3 -105.5t0 -108.5q0 -5 -0.5 -26t-0.5 -18v-11.5v-14.5q0 1 -2 -38.5t-2 -33.5v-7.5v-9.5v-5v-8q0 -1 96.5 -4.5t100.5 -3.5q-1 0 52.5 2l53.5 2q6 0 13 -5q-6 1 6.5 -74.5t-2.5 -114.5q-17 -42 -1.5 -63t-24.5 -21q3 0 -11 0t-9 0q-38 0 -86 -8t-61 1q-5 3 -9 3
q-1 0 -22.5 -2t-27.5 -2q3 0 -8.5 0h-13.5q-16 0 -20 -4q-1 -1 -10.5 -0.5t-6.5 0.5q-2 0 -8.5 -83.5t-9.5 -88.5l2.5 -91t23.5 -137q7 -17 -3 -58l-10 -41q0 1 0 -62.5t0 -61.5l-54 -2.5t-57 -2.5q3 0 -13 0t-12 0q-9 0 -35 -2t-26 -1q1 -1 -33.5 -1t-33.5 0q-4 0 -2.5 2
t-6.5 2l-3.5 10l-3.5 10q0 -3 0 22.5t0 24.5q0 39 -16 134t7 133q-4 -9 -0.5 25.5l3.5 34.5q0 -1 -2 61.5t-4.5 137t-4 136.5t-1.5 61q0 25 2.5 124t2.5 131q0 -8 0 31t0 32q0 25 -4 94t-6 143t-0.5 136t12.5 74q2 2 -1 19.5t-2 17.5q-1 0 125.5 2t129.5 2q-1 0 70.5 -0.5
t157 -1.5t157 -1.5z" />
    <glyph glyph-name="G" unicode="G" horiz-adv-x="849" 
d="M540 1097q-2 0 -1.5 13t-0.5 10q9 13 9 48q0 -1 0 29v30q-4 1 -19 65.5t-24 58.5q-15 18 -23.5 17.5t-34.5 -0.5q-66 0 -80.5 -10.5l-14.5 -10.5q-8 -3 -26 -14t-12 -12q0 -1 -21 -55.5t-9 -63.5l-2.5 -10l-2.5 -10q-4 -9 -4 -23v-17q0 6 0 -21t0 -21q0 -4 -0.5 -17.5
t0.5 -13.5q-2 19 -4 -33t-3 -120t-1.5 -122.5t-0.5 -39.5q0 -38 11 -73t11 -60q0 6 0 -24.5t0 -25.5q0 -11 -5.5 -89t5.5 -73q3 -3 5.5 -23.5l2.5 -20.5l19.5 -33.5t18.5 -33.5q0 -1 17 -12t17 -10q1 0 21 -2t17 -2h15.5h15.5q-1 0 29.5 17l30.5 17q-6 -7 12 52t18 60v25
q0 -9 2 29.5l2 38.5q-1 -1 -7 63.5l-6 64.5q2 0 -7 0t-8 0q-1 0 -17.5 4l-16.5 4q-49 0 -49 4q-8 -13 -8.5 38.5t-0.5 42.5v16.5t0 9.5v53.5t0 31.5q0 37 21.5 33.5t81.5 -3.5q-3 0 12.5 0h24.5q39 0 87.5 2.5t88.5 1.5q36 0 32 1q46 -8 45 -35q2 9 -7.5 -25.5t-10.5 -33.5
q1 0 6 -20t5 -19v-20t0 -12q0 -9 -2 -27.5t-2 -21.5q0 3 3.5 -37.5t6.5 -89t4 -88.5t-3 -36q-3 -2 -5.5 -39.5t-3.5 -37.5q3 -59 -40.5 -137t-43.5 -76q-31 -23 -27 -26q1 -6 -68 -42.5t-72 -34.5q-6 -3 -20 -6l-14 -3q-3 -6 -24 -8.5t-19 -2.5q-26 0 -101.5 4.5t-90.5 11.5
q-134 50 -163 116.5l-29 66.5q-42 31 -45.5 143.5t-9.5 142.5q-22 107 -13.5 159t-0.5 126q-18 144 -8.5 217.5t9.5 214.5q0 16 29.5 114t29.5 99l15 22t10 20q7 14 41.5 46t36.5 31q-2 0 30.5 27t27.5 28q9 6 40 29t34 22q23 14 62.5 10t44.5 4q-1 0 65.5 -11.5t66.5 -9.5
q4 1 29 -14t31 -17q105 -51 126 -105.5t33 -60.5q15 -9 25 -63.5t14 -116.5t2.5 -111.5t-9.5 -49.5q9 0 -97 -4t-161 6z" />
    <glyph glyph-name="H" unicode="H" horiz-adv-x="899" 
d="M31 1585l15 3q8 7 26 3t16 -4q12 0 14.5 -2l2.5 -2q30 0 52.5 -2t55.5 -2q-1 0 12 -1.5t20 5.5q3 0 30 -2l27 -2q0 -66 13.5 -76.5t4.5 -47.5q-19 -82 -20.5 -171.5t-1.5 -88.5q0 -30 2 -70t2 -36q0 -25 -2 -60t-2 -34q0 -5 2 -22t1 -17q8 1 6.5 -18.5l-1.5 -19.5
q3 0 125.5 4l122.5 4q0 3 -4.5 20.5l-4.5 17.5q0 123 -0.5 216t4.5 222q0 2 -10.5 74l-10.5 72q0 4 2 23.5l2 19.5q68 0 170.5 6.5l102.5 6.5q3 0 16.5 -6.5l13.5 -6.5q12 3 3 -82t-2 -71q-3 -2 -2 -110t1 -107q0 -11 1.5 -62t-1.5 -44q2 -3 8 -59.5t4 -66.5
q-33 -138 -12 -171t21 -32q0 -23 1 -22q-15 -8 -19 -78.5t-3 -151.5t5 -145.5t4 -59.5v-16t0 -9q0 -1 -6 -19.5t-6 -21.5q-1 -3 7 -131t9 -128q-3 1 -8 -1.5l-5 -2.5q-7 0 -29.5 -1.5t-21.5 -1.5q-2 -2 -33.5 -9.5t-31.5 -8.5q-11 12 -57.5 21t-43.5 9h-31.5h-28.5v44v24
q0 50 -2.5 208.5t-2.5 157.5q10 11 3 88.5t-7 69.5q0 3 -2 29.5l-2 26.5h-12h-9q-41 0 -97.5 2.5l-56.5 2.5q-3 0 -33.5 -4.5l-30.5 -4.5q-4 -4 -4 -8q0 -13 3 -13q1 -2 1 -13v-8.5t0 -3.5q0 -21 -2 -63t-2 -40q0 -9 4 -30.5t4 -20.5v-25.5t0 -13.5v-105t0 -61q0 -5 -2 -22
t-2 -16q0 -32 2 -80.5t2 -43.5v-13.5t0 -7.5v-22t0 -13q0 -33 18 -33h-8.5t-4.5 0h-27.5t-15.5 0h-13.5t-7.5 0h-58t-36 0h-37.5t-31.5 1q-10 -6 -43 -9t-34 -5q9 6 9 18t0 10q0 5 0.5 26.5t-1.5 20.5q-12 14 -5 116t-5 150q-2 4 -2 102t0.5 215.5t2.5 218.5t6 112
q-16 12 -10 98.5t6 80.5v26t0 16q0 28 -3 49.5t2 58.5q11 80 5 156t15 127z" />
    <glyph glyph-name="I" unicode="I" horiz-adv-x="417" 
d="M26 1618q78 -28 126 -18.5t119 9.5q-4 0 14 0h25q8 0 13 -4q-1 0 3.5 -20.5t4.5 -31.5q0 1 -5.5 -127.5t-12.5 -233.5q-2 -25 -5 -168.5t10 -156.5q-1 0 -2.5 -45t-1.5 -44q0 -60 2.5 -96.5t1.5 -102.5v-124.5v-146.5l-6 -56.5t6 -105.5q-1 0 -1 -43.5t6 -63.5
q-1 0 -1 -28l-12 -6q-3 1 -26 0t-30 1q-6 -7 -67.5 -10t-86.5 -3q3 0 -9.5 0h-16.5q4 0 -2 2.5t-15 2.5q-12 0 -13 2q0 1 -8 1q2 0 -5 2t-16 2l3 17.5t9 21.5l2.5 18t2.5 25q0 -4 0.5 33.5t-3.5 43.5q-1 -1 -1 30q0 -1 2 79t2 134q0 -2 1 18.5t-4 26.5q-7 6 -6.5 145.5
t0.5 171.5q0 -5 0 18t0 20q0 57 -6 88t-6 88q0 -3 2 14t2 20q0 -7 4 43.5t4 80.5q0 -5 0 26v46q0 -1 2.5 96t2.5 100q0 -3 -1.5 31.5t1.5 52.5q-8 3 -9.5 59t7.5 66z" />
    <glyph glyph-name="J" unicode="J" horiz-adv-x="600" 
d="M285 1606q55 -7 133.5 -6.5t139.5 0.5q-2 0 1 -37t3 -49q0 3 -7 -96.5t16 -81.5q1 -11 -16 -143t3 -144q1 -39 4.5 -66t-12.5 -56q-20 -36 -4 -74t16 -37q6 -7 -1.5 -67t-7.5 -75q0 -83 6 -236.5t-27 -207.5q0 1 -4.5 -20t-4.5 -22l-75.5 -89.5t-213.5 -89.5q1 0 -43 0
h-73q2 0 -8.5 0h-17.5q1 0 -38 8.5t-40 10.5q-3 59 14.5 151t17.5 82l1 11.5t3 14.5q0 17 4 17l9.5 -1.5t12.5 -3.5q-3 0 3 -2l6 -2q-3 -1 39 -7t63 -6l24 13.5t36 29.5q-8 -3 10 16t19 18q-12 4 4.5 112.5t3.5 83.5q1 3 -6 38.5t-2 56.5v9.5v11.5q0 -4 -3.5 40.5t-6 101
t-2 106t7.5 55.5q0 -4 0 71v166v167t0 73q0 4 -4.5 38t-4.5 61q0 -3 0 8.5t0 7.5q0 3 3.5 7t5.5 11q-1 0 2.5 5.5t6.5 6.5q10 10 4 10z" />
    <glyph glyph-name="K" unicode="K" horiz-adv-x="959" 
d="M30 1585q36 28 82 18.5t115 -9.5q-1 0 39.5 -1.5t40.5 -28.5q0 -6 -10 -78t7 -80q-2 -3 -4.5 -58t-4.5 -121.5t-3.5 -124.5t-1.5 -67l-4 -50.5t8 -23.5q11 27 20.5 25.5t9.5 31.5l15 42t15 43q-1 0 16 50t28 64q6 8 14 26t11 18q-6 0 9.5 23.5t24.5 32.5q-9 -9 5.5 16
t24.5 35l17.5 37t29.5 77q2 6 8.5 27.5t12.5 24.5q-6 -5 1 8t7 14q0 4 17 17q-3 0 6.5 -0.5t11.5 -0.5q-10 0 53.5 1t84.5 -5q-9 1 12.5 0.5t24.5 -0.5q-5 0 37.5 0h64.5q-1 0 -12 -21.5t-17 -25.5q-1 0 -12 -21.5l-11 -21.5l-45.5 -58t-47.5 -103q0 -6 -67.5 -114.5
t-55.5 -120.5q-16 -24 -23 -50t-34 -53l-10.5 -32.5t-10.5 -30.5q-2 -14 -4 -18v-7v-10l-5 -4t-8 -4l2 -22t2 -25q0 15 48 -108t64 -138q-3 -6 17.5 -49t20.5 -45q13 -8 16 -28.5t12 -14.5q1 -2 20 -46t25 -54q-3 2 2.5 -17.5t18.5 -33.5l6 -12t12 -33l35.5 -73t47.5 -85
q11 -12 19 -45.5t17 -41.5q-1 0 8 -8t-5 -8q4 0 -22.5 0t-36.5 1q-3 6 -53 5t-67 -1l-19 -2.5t-28 -2.5q3 0 -9 0h-17q4 0 -15 0t-14 0q-24 3 -28 11t-15 27l-10.5 37t-10.5 44q-1 -4 -15.5 27.5t-15.5 36.5q3 3 -26 79.5t-32 78.5q-2 -1 -5.5 28.5t-12.5 48.5q0 -1 -9.5 19
t-27.5 39q-4 3 -3.5 0.5t-6.5 5.5q2 -3 -4 3t-4 10q0 -11 -7 9t-7 21q2 -3 -0.5 7t-7.5 9q-4 0 -4 13q0 8 -13 17q5 -6 -2 10l-7 16q1 0 -17 -18q8 8 -11 -34t-26 -50q-1 -1 -2 -21.5t-3 -22.5v-32.5t13 -57.5q-2 3 -1 -12t1 -18q0 6 0 -19v-32q0 1 -8.5 -93t8.5 -89
q-1 0 -0.5 -20t0.5 -23q0 2 0 -11.5v-18.5l-11.5 -2t-14.5 -2q8 0 -73.5 5.5t-102.5 -6.5q-4 -4 -29 -4q3 0 -14 0h-24l-7 0.5t-19 12.5l6.5 67.5t8.5 70.5q7 21 7 47v50q0 -4 0 17v30q0 -1 0 66.5v117.5q0 -2 -6.5 20.5t-6.5 34.5l-2 -4t-2 21q0 -3 6.5 40t10.5 46
q-1 -1 -0.5 26.5t0.5 36.5v35v38q0 -3 0 20.5v35.5q0 -4 0 9.5v19.5q0 -3 -4.5 23.5t-4.5 28.5q0 -4 -3.5 11t-3.5 18q-4 0 1.5 47.5t5.5 63.5v26.5v29.5q0 -23 0.5 13t1 87.5t1.5 98.5t2 48q0 -4 -4.5 21t-4.5 35q0 -4 0 18v33l2 23t2 32q0 -9 5 28t8 40z" />
    <glyph glyph-name="L" unicode="L" horiz-adv-x="762" 
d="M30 1624q12 -4 45 -4q-1 0 58.5 -4t91.5 -4l38.5 -4t41.5 0q0 -1 2 -38t2 -40l-2 -15.5t-2 -18.5l2 -15.5t2 -18.5q0 3 2.5 -24.5t2.5 -43.5l4 -21t-5 -27q0 -2 -8 -39.5t-8 -49.5q0 3 0 -23.5v-39.5l-6.5 -43.5t-6.5 -46.5l3 -23.5t6 -23.5l6 -32.5t6 -52.5l-9.5 -52
t1.5 -64q4 0 5.5 -52.5t0.5 -117t-2 -121t0 -64.5v-23v-23l-9 -65.5t9 -83.5q-4 4 -4 -26q0 -4 4 -8h11.5h14.5q-3 0 20.5 0t21.5 0q30 -6 49 -5l19 1q65 0 112 2t115 2q-3 0 21.5 0t25.5 -9l-1.5 -9t-7.5 -12q-2 -39 11 -57t-7 -68q-3 -9 -3.5 -46.5t8.5 -46.5l3 -12
t-40 -12q-12 0 -20.5 1.5t-20.5 1.5q1 0 -41.5 0t-38.5 9q-60 10 -127 5t-126 -5l-85 -4.5t-80 -4.5q-3 0 -27.5 -1.5l-24.5 -1.5l-20 6t-22 6q-3 3 -16.5 0t-22.5 7l8.5 9.5t8.5 8.5q0 1 -7.5 29t-4.5 31q-6 11 2 51.5t11 60.5q6 6 8 38q-3 1 -0.5 87.5t-4.5 101.5
q-6 11 -4 26t-4 15q0 -1 -1 62t-0.5 144t3.5 157t11 101q-4 3 -4 56.5v121.5t-0.5 131.5t-4.5 87.5v16.5v18.5q0 -1 2.5 97t2.5 95v7v10q0 -5 3 18.5z" />
    <glyph glyph-name="M" unicode="M" horiz-adv-x="1181" 
d="M32 600q-3 38 -10.5 133.5t-15.5 112.5l2.5 29.5t2.5 43.5q0 -3 4 21t4 39q0 -6 4.5 36t4.5 70q0 -1 0 51v56q0 -5 0 24v44q0 -4 -6.5 41t-10.5 48q0 -1 6.5 27.5t6.5 37.5q0 -6 0 32.5v60.5q0 -1 -5.5 34.5t9.5 54.5q0 13 -4 9q12 12 52 8t63 -4q-1 0 94.5 0h157.5
q-1 0 12 -47.5t17 -60.5q0 -2 15.5 -95.5t15.5 -94.5q4 -86 23 -178.5t19 -172.5q0 13 7 -25t16.5 -89.5t18 -97.5t10.5 -48q-1 1 -0.5 -27.5t4.5 -40.5l-1.5 -14.5t-2.5 -26.5l1 -5q5 10 7 13q-1 -1 4.5 40.5t8.5 65.5q-2 0 15 98t19 98q-1 0 7.5 57.5t19 127.5t19.5 128
t10 59q-6 -6 16 81t22 88q-1 1 -0.5 39t0.5 48q0 17 9 42q-2 0 7.5 22t13.5 25q1 2 18 -0.5t25 -8.5q-4 1 30 -3h210q28 2 37 4q-1 -1 35 -1h46q-1 0 -13.5 -103.5t-12.5 -106.5l13 -107t1 -181q-10 -56 -12 -139.5t-2 -143.5l2 -87.5t2 -86.5q0 -22 2.5 -41t2.5 -36
q0 -1 -9 -17l-0.5 -102t12.5 -119q0 -1 -6 -101t-6 -123v-18.5v-19.5l-1 -14t10 -24l4.5 -14.5t-7.5 -10.5q3 0 -14 -2t-31 -2l-66 -4.5t-105 -4.5q3 0 -7 0h-10q12 0 -4.5 -1.5t-20.5 -1.5q-13 0 -10.5 65t2.5 88q0 -8 -4 57t-5 66l2 104t2 131q0 -3 0 22v38q0 -1 0 21.5
v25.5q0 -6 0 33.5v60.5q0 -7 -2 30.5t-2 58.5q0 -3 0 12.5v22.5q0 -4 0 23v40q0 -3 0 9.5v16.5q0 -8 0 38v64q0 -1 -11.5 -85.5t-25 -185.5t-25.5 -185.5t-12 -85.5q-3 -8 -22 -130.5t-19 -142.5l-10.5 -73.5t-10.5 -76.5q0 3 0 -2.5v-5.5q0 -6 -5 -4q-8 0 -8 -18v-2.5
t-6 -4.5l-2 -9h-236l-5 28q-2 0 -2 1q-9 9 -9 35q0 -5 -7.5 60t-23.5 90q-8 12 -8 34q0 -11 -2 14.5t-2 36.5q0 -3 -2 17t-2 26q0 -2 -11 47.5l-11 49.5q0 92 -38 214t-34 241q0 4 -13 72.5t-13 79.5q0 -33 2 -168.5t20 -150.5q0 -2 -2.5 -59.5l-2.5 -57.5l-7.5 -46
t-13.5 -104v-173q2 -10 9 -14q-6 -11 -1 -72.5t5 -77.5l7 -51t-20 -68v-4h-218v8h-30v13v18q0 -2 2.5 11.5t2.5 22.5q0 -3 4 13.5t4 24.5q0 -5 2 131t2 219q0 -1 -2 9t-2 21q0 -3 4.5 34.5t12.5 45.5v15z" />
    <glyph glyph-name="N" unicode="N" horiz-adv-x="908" 
d="M78 1597q15 0 90 3.5t82 -12.5q-9 -13 60 2.5t81 -22.5q10 -33 40.5 -156.5t26.5 -147.5q0 -1 20 -75t43.5 -163.5t43 -166t18.5 -83.5q-3 4 5.5 -8t7.5 -21q-5 0 3.5 21t8.5 23q-1 -1 -3 96t-5 115q-5 21 -3.5 111t3.5 190t1 181.5t-10 86.5q-1 0 -7 17.5t41 20.5
q6 0 24 -8.5t45 -8.5q-2 0 24.5 0h43.5q-1 0 44 3.5t45 -20.5q0 -30 -2.5 -109t-3.5 -165t1 -159.5t10 -91.5v-25t-9 -31q-1 0 -0.5 -69t2.5 -159.5t5.5 -180t9.5 -128.5q1 -12 -3.5 -85t-10 -155.5t-7.5 -147.5t4 -59q0 -8 -110 -12t-164 20q1 -1 -23.5 61t-22.5 89
q0 -1 -7 35.5t-6 36.5q-4 0 -10.5 47t-6.5 48q0 -1 -13.5 49.5t-29.5 111t-29.5 111.5t-12.5 51q-1 6 -11.5 36.5t-10.5 32.5q0 -1 -19.5 74t-31.5 79q0 -1 -21.5 58.5t-20.5 62.5q0 -1 -8.5 9.5l-8.5 10.5l-1 5.5t-4 6.5q-1 0 0 -71.5t2.5 -158t2.5 -158.5t1 -73
q-1 -2 -1 -70v-153t-0.5 -162.5t-0.5 -97.5l2.5 -28t2.5 -35q0 3 0 -6.5t0 -5.5q0 -7 -122.5 -5.5t-146.5 1.5l-3 55t12 64q0 -3 6 39.5t6 41.5q0 34 2.5 121l2.5 87q-20 21 -16.5 164.5t3.5 173.5q0 -1 -1 45.5t-12 44.5q-1 -1 10 93.5t11 93.5q0 6 0.5 34.5t-2.5 30.5
q-12 3 -11 110t1 128q0 -1 -1 126.5t8 130.5q17 4 47 4z" />
    <glyph glyph-name="O" unicode="O" horiz-adv-x="866" 
d="M242 1607q6 1 11 1l13 7t9 1q3 7 13.5 8t7.5 1q4 0 9 4q7 5 12 5t9 4l4 4h34t21 0q26 0 63 -2t31 -2q9 0 13 -4.5l4 -4.5q6 0 14 -4l8 -4q48 0 124 -55t72 -52q15 -8 45 -61.5t27 -48.5q18 -21 25.5 -130t5.5 -91q0 -3 -2 -35t-2 -26q0 -7 2 -29t2 -25v-34v-27
q0 5 0 -49.5t0 -48.5q0 -12 2 -32.5t2 -14.5q0 -26 2 -54t2 -27q0 -45 -2 -93t-1 -47q-6 -12 -5.5 -39t0.5 -21q0 -48 2 -123t2 -69q0 -5 -0.5 -20.5t1.5 -14.5q-9 -5 -6 -13t0 -9q-12 -20 -12 -39q-3 -4 -6 -14.5t-2 -9.5q-23 -26 -17 -31q-1 -2 -6.5 -14t-6.5 -6
q0 -1 -11 -28.5t-11 -25.5q-18 -6 -3 -6q-9 0 -18 -13.5t-8 -11.5q-1 -2 -13 -14t-9 -8q-5 -7 -58.5 -35.5l-53.5 -28.5l-11.5 -8t-8.5 -5q-25 -25 -31 -21q-10 -4 -30.5 -6.5t-19.5 -2.5h-32.5t-18.5 0q-5 0 -27.5 0.5t-19.5 -1.5q-1 1 -32 7.5t-32 6.5q2 0 -6.5 2t-6.5 2
h-17l-71 48.5t-65 55.5q-24 28 -47 45q-60 49 -71 142t-11 92q0 16 -2 30t-2 9q-1 6 -5 52t-4 47q6 18 5 106.5t0 88.5q-5 5 -4.5 54.5t3.5 105.5t6 99t3 36q0 20 -6.5 61l-6.5 41q0 38 11 104.5l11 66.5l13.5 23.5t7.5 18.5q3 3 18.5 33.5t15.5 32.5q17 25 17 37l7 17.5
l7 17.5q21 33 33 39q0 3 36 41.5t55 41.5zM545 892q-9 90 -5 147t4 148q0 -6 0 6v18q0 -1 -4.5 35t-13.5 38l1 9.5t-5 7.5l-2 9.5t-2 16.5q0 2 -9 4q2 1 -13 17l-4.5 8.5t-12.5 17.5q5 -6 -7 3t-13 10q4 4 -5 4q9 0 -10 4t-37 4l1 -2t-6 -2q-3 0 -8 -5q2 2 -2.5 0t-10.5 -8
l1 -2t-5 -2q4 0 -10 -10.5t-16 -11.5q3 2 -4.5 -7.5l-7.5 -9.5q0 -3 -14 -13q0 -1 -4 -9q4 4 -2 -11t-6 -18l-3 -7.5t-6 -9.5q1 0 1 -12t-5 -9q1 -1 -3.5 -15t-4.5 -15q0 3 -4.5 -93t-4.5 -147q0 4 0 -15.5v-26.5l2.5 -31.5t2.5 -58.5l-4.5 -25.5t-4.5 -42.5q0 3 2 -42
t2 -60q0 2 3 -27.5t10 -32.5l1 -32t-5 -32v-17q0 1 0 -84.5t16 -85.5q3 0 6 -33t25 -44q4 4 4 -13q0 5 15 -10.5t24 -15.5l15.5 -2t35.5 -2q-3 0 5.5 1.5t14.5 1.5q9 0 26 17q-4 -4 10.5 16t14.5 21q-5 6 11.5 18t16.5 45q3 0 3.5 12.5t0.5 17.5q6 6 5.5 18l-0.5 12
q0 18 3.5 28.5t3.5 18.5q0 -4 -6.5 19.5t-6.5 40.5q0 -3 -2 19t-2 36q0 -1 6.5 57.5t6.5 117.5q0 -4 0 16v31l2 22t2 37l-1.5 9.5t-1.5 12.5z" />
    <glyph glyph-name="P" unicode="P" horiz-adv-x="827" 
d="M76 1622h33h30q-3 0 84.5 -4t133.5 -4q-1 0 18 0.5t28 -4.5l13.5 -2.5t22.5 -2.5l40 -9q131 -18 206 -97h1v-0.5v-0.5q90 -97 92 -287q10 -57 10 -114l-2 -31.5t-8 -67.5q-2 -391 -369 -392q-31 -12 -43 -12h-15.5h-15.5q3 0 -12 -0.5t-24 -1.5q-2 -2 0 -28.5t2 -29.5
q0 16 -5.5 -57.5t-8.5 -160.5v-162q0 -8 2 -16q-2 0 3.5 -15.5t13.5 -18.5q-1 -1 -1 -20.5t1 -22.5q1 0 -7 -28h-3.5h-8.5v-26h-251v11h-17l-2 -0.5t-11 9.5l1 82t16 130q3 10 -5 82.5t11 72.5q-2 5 -8 101.5t-6 99.5q0 -3 0 37.5v64.5q0 -3 0 17.5v29.5q0 -3 0 13v25
q0 -9 8 119.5t-8 156.5q2 4 7.5 61t5.5 69l-6.5 65.5t-6.5 117.5q0 -1 2.5 66.5t2.5 60.5q0 20 4.5 53t8.5 71h21h22zM287 1016q0 -31 0.5 -86t0.5 -67q0 9 18 -4q-1 0 41.5 3t54.5 3q-2 0 8 3.5t11 3.5l15 6t17 9q11 -2 34 21l12.5 29t12.5 71l5.5 47.5t-0.5 87.5
q-6 32 -6 78t-15 80q-9 18 -16 25l-11.5 13t-32.5 16q-10 1 -17.5 6.5t-25.5 11.5h-100v-0.5v-0.5q-14 -31 -1 -61q9 -3 2.5 -42.5t-7.5 -60.5v-10q3 -24 7.5 -82.5t-7.5 -79.5v-20z" />
    <glyph glyph-name="Q" unicode="Q" horiz-adv-x="931" 
d="M762 1422q-14 20 -4.5 -14.5t9.5 -25.5q0 -17 17 -96.5t17 -121.5q0 3 0 -19.5t0 -18.5q0 -39 3 -76t6 -76q7 -6 12 -54.5t8 -104.5t4.5 -100.5t1.5 -40.5q0 -39 -4.5 -103l-4.5 -64q0 -3 -10.5 -33.5l-10.5 -30.5q0 -38 -15.5 -99.5t-14.5 -53.5q-1 -6 -4.5 -22.5
t-3.5 -15.5q-3 -3 -12.5 -19l-9.5 -16q0 -4 3 -7q20 -28 33.5 -38t14.5 -11q18 0 27 -4t36 -4q3 0 15 -12.5l12 -12.5l-13 -18q1 0 -3 -21.5t6 -8.5q-17 -6 -47.5 -70.5t-29.5 -64.5q-5 -13 -13 -13q-3 -1 -3.5 5t-9.5 8q-68 18 -42.5 8t-71.5 32q0 1 -36 8l-36 7
q-2 2 -14 22t-11 20q-5 0 -29.5 -10.5t-21.5 -10.5q-26 -36 -142.5 -13t-92.5 25q-3 2 -12.5 8t-9.5 5q-2 3 -40.5 35t-42.5 35q-9 -10 -36.5 42.5t-30.5 55.5q-12 9 -48.5 117t-36.5 107q0 2 -1.5 50t-4 101.5t-4.5 93t-2 24.5v67v67q0 45 10.5 122t10.5 78q-6 93 6 129.5
t24 104.5q30 167 33 170q5 5 31.5 39.5t23.5 38.5q2 3 13.5 13.5t12.5 11.5q6 -3 20 7.5t10 9.5q7 3 20.5 12l13.5 9q33 32 106.5 44t126.5 12q12 0 59.5 -13t48.5 -12q10 -5 69.5 -48t60.5 -42l26.5 -52.5t27.5 -52.5zM529 673q-14 39 -3 106.5t-2 77.5q0 -1 2.5 174
t-15.5 261q2 -1 -17.5 46.5t-33.5 47.5l-39 16.5t-60 -4.5q-8 -8 -7 -8q-1 0 -10 -21q0 -1 -6 -13l-6 -12q1 -4 -6 -7t-7 -20q0 -4 -13 -17l-14 -110.5t1 -148.5q2 -8 -4 -77.5t-12 -154.5t-7.5 -161.5t10.5 -98.5q9 -20 11.5 -80.5t6.5 -64.5l2 -34t11 -43q0 -16 34 -51
q-9 8 35 -12h16q-3 0 8 0h14q6 0 7 2q-5 -6 -12 9t14 24q-2 -2 8.5 10t16.5 11l4 8l20 25.5t23 25.5l7.5 -9t10.5 -1q5 19 10.5 38.5t5.5 27.5v117v118q0 -5 -4 3z" />
    <glyph glyph-name="R" unicode="R" horiz-adv-x="889" 
d="M41 1605q57 0 69.5 7t68.5 -11q3 -2 126 -4t129 -14q-6 0 12 0.5t12 0.5q71 0 80.5 -7t9.5 -6q0 6 64.5 -32t63.5 -41l8.5 -13.5t9.5 -16.5q-1 0 20.5 -13.5t47.5 -63.5q5 -10 13 -33t8 -21q0 -72 20 -131.5t1 -143.5q-10 -46 -49 -169.5t-108 -114.5l-5.5 -3t-7.5 -2
l37 -31.5t39 -34.5q3 -5 38 -75t22 -72l3.5 -14t5.5 -17q-2 -3 4.5 -56t13 -114t9 -110.5t-5.5 -45.5q15 -66 11.5 -95.5t35.5 -106.5l-90.5 -4t-93.5 -4q1 0 -34 0t-33 0h-11h-11q6 0 -14 30t-16 24q3 1 -3 49t-5 60q-5 -3 -5 28.5t0 29.5q0 17 5 22v9.5v16.5q0 -4 0 9.5
t4 11.5q0 -3 2 24l2 27q0 -3 -5 15.5t-5 14.5q0 13 4 27q-1 -9 -0.5 10.5t0.5 13.5v20v23l-5 32.5t-14 35.5q-1 0 5 -4t-6 16q-1 -9 -13 21.5t-12 19.5q0 6 -30.5 22t-29.5 16q-10 3 -10 4q0 -1 -8.5 5.5t-13.5 3.5q0 -1 -29 7t-27 8h-21.5h-18.5q0 3 0 -13t0 -12v-132v-142
l4 -42.5t5 -41.5q0 -2 -2.5 -15t-2.5 -19q2 -3 -8.5 -73.5t-7.5 -90.5q-2 5 3 -21t14 -33q2 -9 -26.5 -4t-22.5 2q-11 -3 -40 8t-44 11q-4 0 -8 -4l-56.5 -5t-56.5 -4h-8.5t-2.5 0q-7 0 -10 12.5l-3 12.5q-8 -8 -8 31q0 -4 0 7t0 9v16.5v18.5q0 -2 0 63.5v116.5q0 -8 0 13.5
v24.5q0 -3 2 11t2 13l1 19.5t4 19.5q-1 0 3.5 73t-4.5 90v19t1 18q-3 1 -6 52.5t-5 111.5t-2 107t4 41q-21 37 -4.5 113t16.5 114q0 -5 -6 40.5t-6 82.5q0 -1 2 85.5t2 153.5q0 -3 0 10.5v19.5q0 -1 4.5 35.5t8.5 36.5zM312 1355q-2 -7 -3.5 -30t5.5 -28q-3 3 -1.5 -69
t1.5 -84l-2 -29.5t-2 -51.5l-1.5 -12t5.5 -18q-1 0 -0.5 -13t0.5 -17q0 7 -4.5 -37.5t-4.5 -73.5q0 2 0 -3v-5q0 2 0 -5v-11q0 -1 48 1t51 2q10 0 13 4q-1 1 8 3l9 2q-2 0 16 9q2 -3 18 13q0 -1 8 4t9 8l7 9t10 8q-4 0 1 5.5t11 7.5q-8 3 5 18q4 5 4 12q0 -3 0 1.5v6.5
q-1 0 7.5 37t4.5 49q6 -5 5.5 8.5t-0.5 12.5q0 9 -1.5 34t-10.5 30q-1 0 -1 13q0 -4 0 13v29v9.5v12.5q0 -3 -2 8.5t-2 21.5q0 -3 -6.5 6t-6.5 12q2 -6 -1 1.5t-4 10.5q-12 12 -12 25q0 -8 -17 9q1 -2 -7.5 4.5t-14.5 12.5l-4.5 4t-7.5 4l-10 3t-12 6l-9 2t-12 2
q2 0 -21.5 0h-40.5q-14 0 -25 -7z" />
    <glyph glyph-name="S" unicode="S" horiz-adv-x="830" 
d="M389 1375q-3 0 -15.5 -4t-8.5 -4q0 -3 -23 -21.5t-11 -12.5q-19 -9 -31.5 -51.5t-7.5 -48.5q0 1 -2 -31t-2 -30q0 -15 10 -48t16 -39q-2 1 7 -7.5t10 -23.5q22 -38 118 -137.5t108 -91.5q-1 0 37 -53.5t63 -74.5q21 -19 49 -61t31 -43q24 -18 39 -78.5t15 -59.5
q0 -46 -6.5 -79.5t-15.5 -74.5q-6 -24 -43.5 -105t-36.5 -84q-1 0 -33.5 -28.5l-32.5 -28.5q-45 -45 -114.5 -53t-127.5 -8q1 0 -42 2.5t-42 1.5q-3 2 -19 4.5t-16 3.5q-4 2 -36 14t-32 11l-72 47t-81 94q-16 74 -23.5 85.5t-7.5 107.5q0 -6 0 28.5t0 30.5v17v13
q-1 3 -4.5 10l-3.5 7q-1 0 8 2t8 2q1 8 43.5 8.5t41.5 0.5q26 0 90 6.5t64 5.5q18 -5 18 5v-23.5v-24.5q0 6 0 -26t0 -23v-37t0 -24q5 -3 15 -25.5t6 -16.5q6 -9 9.5 -22l3.5 -13q61 -56 96.5 -41l35.5 15q65 26 60.5 111.5l-4.5 85.5q-1 -1 -22.5 52t-26.5 57q-15 8 -58 58
t-42 50q-9 13 -55.5 61t-99.5 101l-97 97t-46 51q-39 99 -33 208.5l6 109.5q6 -1 13.5 44t7.5 46q1 3 6.5 6t7.5 23q-1 -1 29.5 63.5t31.5 64.5q46 44 128.5 66.5l82.5 22.5q3 4 21 8.5l18 4.5h25h26q-3 0 30 -3.5t49 -8.5q21 -9 77.5 -40t69.5 -28q3 -3 12 -12.5l9 -9.5
q3 0 31 -34.5t29 -38.5q2 -15 16 -36.5t14 -22.5q0 4 0.5 -16t4.5 -14q-3 0 4.5 -24t7.5 -36l4.5 -47t4.5 -81l2 -9t2 -13l-0.5 -7t-1.5 -7q-4 -2 -10 -2q-16 0 -61 -1.5t-51 -2.5l-44.5 6.5t-83.5 6.5q-22 0 -23 35t-7 77.5t-29 77.5t-87 35z" />
    <glyph glyph-name="T" unicode="T" horiz-adv-x="851" 
d="M4 1608q13 3 88.5 14.5t85.5 -9.5q14 -4 63.5 0t70.5 4q-1 0 118.5 4.5t188.5 4.5q-2 0 71 -2.5t113 2.5q-2 -2 3 -92t-4 -92q0 1 0 -26.5t9 -24.5q-2 -11 -8 -17q-15 -15 -30 -4q-4 -4 -13 -4q-8 0 -36 -4t-33 -1q4 0 -62.5 -2t-64.5 -2h-6t-3 0l-4 -1t-4 -3l-2.5 -28.5
t-2.5 -31.5l-8 -41.5t4 -52.5q0 -1 2 -14.5t2 -10.5q0 -126 -7 -168t20 -174q3 -18 -5.5 -97.5t8.5 -134.5q1 -5 -1.5 -82t-5.5 -168.5t-4.5 -168.5t1.5 -81q12 -21 5.5 -56l-6.5 -35q0 -1 -103 -2.5t-102 -1.5q-9 0 -17.5 -2.5l-8.5 -2.5h-21.5h-21.5h-13q8 11 4.5 18
t4.5 13q1 -1 -4 73t-5 93q7 6 10.5 105.5t5 222t2 232.5t0.5 136q0 -3 -8.5 134.5t-8.5 236.5v14.5v15.5q0 -2 2 26l2 28l-3 2.5t-6 2.5l-68 -4.5t-116 -4.5q1 0 -35.5 -3t-36.5 33q0 24 6.5 67.5l6.5 43.5q4 4 -3 12.5t-5 4.5q3 5 -0.5 55.5t-0.5 50.5z" />
    <glyph glyph-name="U" unicode="U" horiz-adv-x="820" 
d="M26 768q-2 40 -3 122.5t-1 94.5q0 -1 -2.5 37t-2.5 53q0 -3 -2 99.5t-2 168.5q0 -1 2 79t2 134q0 -3 0 13.5v25.5q0 -3 -0.5 11t-0.5 22q21 6 58 7.5t37 2.5q1 -3 15.5 -6t19.5 -3q-1 0 54 6t91 6q-1 0 -6 -71t10 -96q-2 -4 -3.5 -81t-10.5 -110q4 2 6 -84t3 -189.5
t0.5 -190.5t0.5 -87q-4 -7 5.5 -81.5t-2.5 -104.5q1 -2 -1 -75t13 -92q1 -1 9 -49t27 -59q-8 -14 51.5 -17t72.5 -3q-1 0 17.5 11t15.5 20q15 23 14 36t-1 44l6.5 24.5t6.5 52.5q0 -1 -4.5 12t-4.5 22q0 -1 6.5 26t6.5 47q0 -11 -10 53.5t11 69.5q-1 0 2 114t-12 123
q0 1 -2 117t-2 137q0 -6 -4 38.5t-7 102t-2 109.5t10 61q-1 -1 1 16t2 23q0 -2 0 52t3 75q6 0 6 9q0 8 41 8h58q-3 0 55 0h85l-0.5 -8.5t-0.5 -22.5h9v-506q5 -37 5 -67v-79v-81l2 -50.5t-7 -72.5v-356q0 -135 -46 -224q-29 -87 -67 -101.5t-66 -52.5l-40.5 -16.5
l-40.5 -16.5l-74.5 -4t-84.5 3q0 1 -22.5 7.5t-28.5 9.5h-16l-9 4t-22 11q-208 66 -227 324q-11 53 -11 67q0 -9 -2 36.5t-3 105.5t2 116t12 68v20z" />
    <glyph glyph-name="V" unicode="V" horiz-adv-x="983" 
d="M35 1604q15 15 105.5 6.5t122.5 -8.5l27.5 2l27.5 2q11 -24 6.5 -85t23.5 -108q0 -1 6.5 -63t16.5 -141t20.5 -153t19.5 -99q3 -12 10.5 -83.5t16 -151.5t18 -144t17.5 -60q8 -8 12 -57t4 -58q0 7 0.5 -18t7.5 26q6 52 17.5 184t29.5 164q2 4 15.5 104.5t28.5 219
t27 216.5t13 100q3 4 8.5 39t5.5 27q0 28 2.5 60.5t2.5 63.5q0 -1 103 10.5t127 10.5q16 -1 38 -6.5t21 -5.5l-12.5 -33.5t-12.5 -65.5q0 23 -11.5 -52t-27.5 -177t-32.5 -196.5t-26.5 -110.5q-1 -2 -4.5 -89t-28.5 -123q-4 -6 -1.5 -40.5t-8.5 -34.5q4 1 -2.5 -9.5
t-10.5 -12.5q0 1 -4 -31.5t-4 -31.5q0 -67 -37.5 -244t-31.5 -239q1 1 1 -12l-4.5 -2l-4.5 -2l-7.5 -25t-9.5 -27q1 1 2.5 -24.5t1.5 -24.5q0 -10 -15.5 -3.5t-13.5 6.5q-43 0 -135.5 2.5t-91.5 2.5l-13 4.5t-13 7.5h-12h-21.5h-17.5l-12.5 -1t-12.5 5q0 -2 -6.5 8t-6.5 52
q0 -1 -13.5 73.5t-37.5 92.5q-1 -1 -16 103.5t-18 115.5q-5 13 -4.5 24.5t-4.5 17.5q0 -1 1.5 36t-25.5 94q-20 41 3 70q-1 4 0.5 29.5t-4.5 30.5q-15 -7 -34 122t-22 135q0 -2 -4.5 13t-3.5 15q-3 0 -14.5 79t-11.5 88l-17 86t-17 89l-1.5 8.5t14.5 29.5q-3 -2 -0.5 8
t-8.5 22q5 -6 -3.5 9t-11.5 17q-1 -1 -5.5 30.5t-4.5 33.5q0 -2 -5.5 24.5t-7.5 26.5l2.5 2t6.5 2q13 0 15 2z" />
    <glyph glyph-name="W" unicode="W" horiz-adv-x="1346" 
d="M7 1611q30 -3 31.5 -6.5t14.5 -3.5q-3 0 6.5 0.5t6.5 3.5q-1 -1 106 1.5t133 2.5q-2 0 8 -106t24 -239t28 -253.5t20 -149.5q12 -52 7 -146.5t19 -190.5q3 -14 3.5 -42.5t5.5 -37.5q-1 0 6 53t15 120t15 128.5t6 79.5q-3 57 11.5 161t10.5 199q0 2 10 79t11 103
q1 54 22 131t21 141q0 -1 17.5 1.5t24.5 2.5q-1 0 50.5 -2t86.5 -2q-3 0 13 0t13 0q9 0 18 -57t17.5 -129t15.5 -139.5t12 -88.5q46 -223 60 -414q2 -28 14.5 -161t24.5 -142v-12.5v-8.5q0 31 6.5 95.5t18.5 111.5q17 68 25 182t13 233t12 222.5t22 150.5q10 33 10 60.5
v27.5v5v4q0 -3 0 6.5t0 6.5q0 -1 76.5 7.5t82.5 14.5q-17 3 36 -1t38 -4q8 -30 17.5 0t9.5 -24q0 -15 -10.5 -62t-15.5 -50l-7 -68.5t-15.5 -155.5t-16 -167.5t-7.5 -103.5q0 -8 -2.5 -19.5t-2.5 -23.5q0 1 -5 -4.5t-4 -8.5l-11.5 -98.5t-23.5 -140.5q-2 -7 -13 -97.5
t-23.5 -200t-23.5 -204.5t-11 -111q0 -21 -17 -52q-5 1 -104 -8t-116 -9q-11 0 -57 0.5t-30 3.5q0 -2 -5 10t-4 11q-5 3 -7.5 23t-0.5 20q-7 -1 -19 91t-11 92q0 -1 -9 165t-34 227q-3 6 -18.5 68t-15.5 65q0 10 -16.5 -135t-13.5 -208q0 -30 -17 -175t-29 -176
q0 -1 -2.5 -33l-2.5 -32h-135h-185q-13 0 -17 4q0 -1 -11.5 97.5t-14.5 140.5q-3 38 -31 91t-7 188q1 6 -16.5 118t-17.5 176q0 3 -6.5 22.5t-6.5 20.5q0 -1 -5.5 44.5t-12 100.5t-12.5 101t-6 48q-2 3 -8 59.5t-14 124.5t-17.5 125.5t-18.5 62.5q-7 -8 -6.5 30t-5.5 39z
" />
    <glyph glyph-name="X" unicode="X" horiz-adv-x="1025" 
d="M43 1607q69 -5 151.5 -8t146.5 -3l35.5 -118.5t40.5 -156.5q0 -9 10 -36t16 -34q-6 -4 24 -99.5t31 -101.5q0 1 23.5 52.5t23.5 78.5q-1 3 25.5 81t29.5 111l45.5 118.5t48.5 122.5l1 7t4 10q-1 -1 119.5 1t127.5 7l7 -3t10 0q14 -9 -32.5 -101t-47.5 -132
q-2 -22 -50.5 -164t-69.5 -172q-27 -37 -57 -116.5t-29 -79.5l-4.5 -6.5t-4.5 -10.5q8 -3 -4.5 -11t12.5 -26q1 -2 17.5 -55t38 -119.5t42 -128t29.5 -79.5q17 -36 54 -131t37 -94q10 -22 24.5 -66.5t14.5 -43.5q-1 -1 20 -48.5t23 -46.5q0 1 -133 -9.5t-132 -10.5
q-14 0 -21 9q6 -6 10.5 16.5t-23.5 63.5q-3 3 -4 16t0 13q-14 3 -36.5 74t-48 158t-50.5 165t-44 98l-5 7t-4 10l-4.5 -14t-4.5 -17q-3 0 -33.5 -108.5l-30.5 -108.5l-2.5 -17t-8.5 -29q-12 -3 -51.5 -141.5t-60.5 -159.5q0 -2 -41 2.5t-49 4.5l-64.5 -6.5t-67.5 -6.5
l-23.5 0.5t-31.5 -5.5q-1 1 19 28t19 39q-5 25 61 155t66 188q0 3 6 25.5t8 24.5q-1 1 25 80t26 58q0 23 36.5 102.5t40.5 106.5q-3 -3 4 6t4 7q-3 -3 -21.5 45t-39 107t-37 109t-16.5 51q-1 -1 -24.5 59t-52 134.5t-53.5 140.5t-28 78q-2 3 -12 29.5l-10 26.5l3.5 -1
t6.5 -1z" />
    <glyph glyph-name="Y" unicode="Y" horiz-adv-x="954" 
d="M850 1604q16 0 27 3.5t29 8.5q2 8 3 9q-10 -10 -8 -14q-2 -2 -7 -12.5t-1 -6.5q-3 -4 -8.5 -19.5t-5.5 -6.5q0 -20 -27.5 -100t-18.5 -75q-6 -3 -11.5 -26.5l-5.5 -23.5q-11 -19 -46 -154t-62 -163q-15 -15 -35.5 -74t-39 -121.5t-31.5 -109.5t-13 -37q0 -53 8.5 -138.5
t-9.5 -127.5q-8 -18 -7.5 -84.5t4 -139.5t7.5 -130.5l4 -57.5h-29.5t-15.5 0q-9 0 -25 1t-19 8q-9 -2 -85 3l-76 5v5.5t0 2.5q0 20 -6.5 125t-6.5 106q3 0 4 60.5t1 132.5t-0.5 131.5t-0.5 58.5q0 5 -8.5 28.5t-9.5 23.5q-3 5 -5 18t-2 12q0 5 -2.5 15.5t-2.5 9.5
q0 10 -10.5 29t-10.5 18q-1 9 -21.5 51t-16.5 50q-11 25 -44 98t-33 91q-3 1 -19.5 49t-35.5 105.5t-33.5 107t-13.5 54.5q-7 3 -19 41.5t-15 40.5q-2 4 -6 32t-3 31q1 10 -12.5 41.5l-13.5 31.5h16.5t8.5 0h17t9 0q12 0 113 -9.5t101 -3.5q0 -3 7 -25.5t5 -16.5
q15 -26 35 -94.5t38 -139.5t30.5 -124.5t12.5 -47.5q0 -12 6.5 -30.5t5.5 -15.5q10 -15 14 -42.5t4 -26.5q1 -22 13.5 -58.5l12.5 -36.5q0 -40 10 6l10 46q6 60 28.5 165t23.5 104q-1 9 8.5 23.5t12.5 25.5q8 27 36.5 153t28.5 129q-5 8 77 15.5t76 7.5q36 0 41 -10.5
t49 -10.5z" />
    <glyph glyph-name="Z" unicode="Z" horiz-adv-x="854" 
d="M35 1593q0 -5 10 -5q89 3 256 7t251 -10q122 -22 151.5 -5t92.5 17q18 0 9 -138.5t-27 -159.5q-12 -14 -38.5 -80.5t-54 -141.5t-49.5 -136.5t-24 -64.5q-53 -62 -97.5 -229t-44.5 -168q-59 -84 -55.5 -120t-50.5 -87q-17 -16 24 -22t99.5 -6.5t114.5 2.5t69 5
q57 6 89 -3q7 -2 16 1t14 1q4 -3 4 -11t3 -11q4 -6 6 -8q8 -13 8 -43q0 -3 -5 -4.5t-5 -4.5q-1 -12 2 -27t0 -29q-6 -25 -10.5 -52t6.5 -54q4 -13 -46 -12.5t-113.5 6t-120.5 11.5t-64 3q-14 -6 -73 -8t-130 -2t-136 1t-89 1t-20.5 63t-5.5 86q-12 32 28 109.5t46 81.5
q13 10 39 67t53 123.5t49.5 122.5t27.5 64q54 81 109 300t127 305q10 13 -44.5 14t-126.5 -3t-137 -9.5t-75 -5.5q-91 0 -59 36t6 74q-21 29 -13.5 73t4.5 86z" />
    <glyph glyph-name="bracketleft" unicode="[" horiz-adv-x="520" 
d="M443 1593q2 -6 10 -53.5t11 -99.5t-5 -90.5t-37 -25.5q-46 18 -94 -2.5t-18 -79.5q4 -9 -2 -170t8 -226q0 -1 -2 -65t-4 -142t-4.5 -145.5t-2.5 -74.5q-4 -31 -8.5 -109.5t33.5 -78.5q22 0 78 2t58 -11q5 -38 18.5 -135.5t-38.5 -97.5q-18 0 -81.5 -2t-133 -2.5t-124.5 3
t-54 13.5q3 90 3.5 189.5t-23.5 188.5q-17 63 -13.5 191.5t11.5 271.5t12.5 273.5t-10.5 198.5q-6 24 -2.5 149t4.5 125q84 0 140.5 10t159.5 2q21 -2 57.5 0t52.5 -7z" />
    <glyph glyph-name="backslash" unicode="\" horiz-adv-x="960" 
d="M1 1619q19 3 142 -7.5t123 -16.5q0 -87 78.5 -263t117.5 -277q54 -143 81 -205.5t65 -218.5q0 -2 31.5 -69.5t70.5 -152.5t75 -163t45 -100q47 -120 66 -129.5t-40 -11.5q-1 0 -123 15.5t-129 13.5q-22 72 -34 146.5t-56 146.5q-58 94 -101.5 213.5t-75.5 224.5
q-36 117 -59.5 178t-70.5 172q-33 75 -63.5 143t-57.5 147q-16 42 -36.5 81t-18.5 81l-13.5 22.5t-16.5 29.5z" />
    <glyph glyph-name="bracketright" unicode="]" horiz-adv-x="500" 
d="M13 1640q13 8 31 8q96 -4 191 6.5t180 10.5q18 0 22.5 -105.5t4 -238t-1.5 -254t6 -154.5q6 -36 7.5 -192.5t4.5 -159.5q19 -28 14.5 -97.5t-15.5 -150.5t-18.5 -158t6.5 -120q3 -12 -119.5 -19t-146.5 -7q-114 0 -131 11.5t-17 93.5q0 101 6.5 132t24 31t47 -11t75.5 9
q14 6 9.5 95.5t-4.5 115.5q-6 114 4.5 217.5t3.5 205.5q-3 53 3 205t6 154q-27 129 -23.5 130.5t-121.5 1.5q-66 0 -47 90t-1 150z" />
    <glyph glyph-name="asciicircum" unicode="^" horiz-adv-x="914" 
d="M10 874q-8 12 30.5 95t47.5 97q25 45 75 167t56 130q69 106 88 157.5t34 70.5t49 17.5t133 -1.5q-3 -28 43.5 -117.5t53.5 -109.5q38 -109 110.5 -251.5t140.5 -233.5q-2 -1 -118.5 -3t-131.5 -2q0 64 -69 222.5t-99 230.5q-12 28 -57.5 -83.5t-51.5 -130.5
q-15 -41 -54 -123.5t-36 -111.5q2 -32 -107.5 -25t-136.5 5z" />
    <glyph glyph-name="underscore" unicode="_" horiz-adv-x="1209" 
d="M17 237q12 -10 51 -14t57 0q108 24 279 -1t237 -7q102 27 151 19.5t163 -7.5q57 0 117.5 10.5t78.5 10.5q1 0 -1.5 -98t-2.5 -120q0 -12 -102.5 -13.5t-120.5 2.5q-33 6 -152.5 7.5t-258 0.5t-262 -5t-163.5 -9q-46 -6 -53 1.5t-10 37.5q-4 30 -12 98t4 87z" />
    <glyph glyph-name="a" unicode="a" horiz-adv-x="985" 
d="M285 1611q12 -5 34 -5t19 -9q6 0 13 -4q-2 0 58.5 6.5l60.5 6.5h41h49q-1 0 47.5 -6.5t41.5 -6.5q13 0 13 -9l-2 -9t19 -42l12 -123.5t42 -189.5q1 -3 2.5 -32.5t3.5 -33.5q-3 -2 9.5 -72t29 -156t32 -163.5t18.5 -95.5q-5 3 10 -96.5l15 -99.5q6 4 12 -25.5l6 -29.5
l12.5 -102.5t21.5 -141.5q2 -12 9 -65t17 -59q-1 0 3.5 -17t4.5 -16q0 -12 -25.5 -10.5t-42.5 1.5q-67 0 -65.5 -0.5t-38.5 13.5h-24.5t-12.5 0q-19 0 -25 -5q-1 0 -18.5 -3.5t-24.5 4.5q0 -1 -6.5 2.5t-10.5 24.5l-18 72t-12 63q-1 -2 -11 48l-10 50q0 6 -2.5 6.5
t-2.5 10.5h-16t-13 0q-1 0 -56 -6.5t-85 -6.5h-37.5t-22.5 0l-6.5 -0.5t-16.5 -0.5q-6 -15 -24 -104t-17 -96q6 -7 -5 -34l-4 -17.5t-4 -16.5l-105.5 -2t-108.5 -2q-18 0 -21 9q5 6 -16.5 3t-21.5 6q0 -6 10.5 18t11.5 24q-2 -2 -1.5 8t0.5 9q-2 6 3.5 26.5l5.5 20.5
q-13 12 13 35q-1 -7 4.5 16t12.5 17v15v15q0 -2 0 24v44q0 -2 0 10v16l9.5 32t14.5 41q2 0 1.5 23.5t-0.5 22.5l2.5 15.5t2.5 23.5l2 25l2 25q0 22 13 48q1 -6 11.5 53.5t9.5 83.5q0 -3 -0.5 15.5t4.5 23.5q2 -6 5 12.5t9 20.5q-1 0 2 56t6 60q-7 -19 17 65l30 105
q-2 -3 -1 12t1 13q0 -3 0 9t0 8v17.5t-5 17.5q-1 -1 -0.5 10l0.5 11v12.5v17.5q0 -21 18.5 102.5t29.5 136.5q-9 -16 8 70t17 57q0 45 7 44zM460 1236q9 -82 -31 -236.5t-40 -268.5q0 14 -8.5 -50t-8.5 -121q0 -3 -13 -16l3 -7t6 -6q-1 0 6.5 0h10.5q-5 0 53.5 -4.5
t91.5 -4.5q-2 0 2.5 0h5.5q-2 0 2.5 0h6.5q7 0 8 5h5h8v9v12q0 -6 -3.5 5.5t-5.5 14.5q1 10 -8 10v5.5v7.5l-0.5 4.5t13.5 28.5q-7 8 -3 9q-2 0 -10.5 19t-8.5 20q0 -10 -2 17.5t-2 42.5q0 -2 -8.5 27t-8.5 59q0 -1 -2 5.5t-2 10.5l-2 5.5t-2 11.5l-4.5 13t-4.5 21l-2 23.5
t-2 40.5l0.5 33t-16.5 69l-7 43l-7 43q0 -1 -2 8l-2 9q0 -1 0 13v26q0 3 -5 8q-4 4 -4 13q0 -1 1.5 8.5t1.5 13.5z" />
    <glyph glyph-name="b" unicode="b" 
d="M31 1605q45 2 119 9l74 7h22.5t12.5 0h18.5t10.5 0q36 0 93 6l57 6q18 0 78 -19.5t64 -17.5q26 -23 69 -42q117 -56 126 -138t9 -80q0 -4 2 -36.5l2 -32.5v-48v-98.5v-86.5t0 -10q0 -4 -18 -32t-21 -28q-9 -18 -20 -29q-8 -8 -51 -32.5t-43 -27.5q-3 -2 -19 -7.5
l-16 -5.5q2 -3 5.5 -4l3.5 -1q51 -19 59 -33q10 -7 48 -47t38 -38q-2 -6 7 -22.5t5 -12.5q1 -2 30 -69.5t30 -67.5q0 -54 -4 -138t-4 -79q0 -59 -12.5 -85t-13.5 -58q-2 -24 -33.5 -54.5t-29.5 -28.5q-10 -10 -33 -27t-23 -20q-1 0 -79 -40t-66 -24q-2 -3 -46 -4l-44 -1
h-35.5t-22.5 0h-16.5t-10.5 0h-28.5t-23.5 -8h-8q-3 -5 -21.5 -4.5t-16.5 0.5q-60 0 -126.5 4t-125.5 4q8 2 8 4v14v12v18.5t0 10.5v54.5t0 35.5q0 18 2.5 32.5t2.5 27.5q0 -2 -0.5 18.5t0.5 19.5q-16 19 -10.5 61t1.5 44q1 4 7 35l6 31v31.5t0 19.5q0 56 -8.5 129.5
t-8.5 66.5l6.5 38.5t1.5 38.5q6 1 8.5 41.5t-0.5 49.5q9 17 7 83t-2 60q0 23 -2 50.5l-2 27.5v39.5v36.5q0 14 4 64.5l4 50.5v9.5v4.5q0 24 -4 26.5l-4 2.5q-5 0 -7 5l-2 5v35.5v31.5l-0.5 12.5t1.5 12.5q18 9 13 62l-5 53q0 22 4 22q6 0 5.5 32.5t1.5 41.5zM283 1358
q6 -24 2.5 -74t2.5 -91q0 -1 -4.5 -66t-4.5 -83q0 7 6 -29.5t-3 -44.5q1 0 1 -9l25 1t27 1q-3 0 36.5 5.5t54.5 15.5l14 5.5t14 9.5q7 7 23 16t16 38q0 -12 8 25.5t11 64.5v52t-9 47l-1 14.5t-1 20.5q0 -1 3 9.5t-12 22.5q1 4 -17.5 21l-18.5 17l-35 16t-48 13h-17h-17
q1 0 -4 0h-5l-20 -1t-28 -9q-2 0 1 -8zM284 719q-2 -32 -3.5 -59t-1.5 -58l3.5 -15l3.5 -15q-1 0 -2.5 -94t5.5 -105q9 -16 -4.5 -61.5t-0.5 -57.5q-5 5 -5 -10l22 6.5t24 6.5h39t35 -3q-2 0 15.5 0.5t24.5 0.5l25.5 11.5t59.5 50.5q13 13 13 19q0 -11 3.5 26t3.5 55
l-2.5 9.5l-2.5 9.5q0 15 -1 30t-1 34l-1 26t-1 45q0 -3 -1 12.5t-1 16.5q-4 3 -18.5 19t-17.5 19q-1 0 -2.5 9t-10.5 19l-1.5 2.5t-2.5 2.5q10 0 -23 18l-33 18q0 -1 -2 -1t-4 3l-19 6.5t-28 6.5q2 0 -30.5 0t-35.5 -3q0 1 -15 1q-6 0 -6 -1z" />
    <glyph glyph-name="c" unicode="c" 
d="M537 1278q2 -3 2 -8l-13 38.5t-54 51.5q-50 15 -90 9.5t-30 -5.5q-14 -12 -15 -14q-36 -51 -38.5 -147t-2.5 -166q0 -21 8.5 -68.5t3.5 -56.5q0 7 4 -42t-2 -62q-3 -8 -6 -67t-4.5 -129.5t-0.5 -132t5 -72.5q10 -35 22.5 -59t15.5 -34q15 -57 50 -47.5l35 9.5q18 0 18 4
q3 -2 18.5 3.5l15.5 5.5q6 4 18 14.5t12 11.5q0 15 8 21q19 -9 13.5 95t-8.5 122q-1 3 8 38l9 35q0 3 6.5 10l6.5 7h9h8q-11 0 55 2t51 6q3 6 51.5 5t46.5 0q3 -2 25 -9.5l22 -7.5l-4 -8t-4 -14q0 2 -0.5 -16t2.5 -20q12 -2 -1.5 -43t-13.5 -40q0 -18 4 -92.5t-4 -82.5
q-9 -9 -17.5 -45t-7.5 -36q-16 -13 -14.5 -19.5l1.5 -6.5q-1 0 -6.5 -22t-6.5 -25q-11 -33 -33.5 -50.5t-21.5 -17.5q-4 3 -17 -9l-13 -12q0 -8 -8 -12q-24 -20 -26 -18q-12 -21 -72 -25.5t-56 -4.5q-24 2 -21 -5q-11 -12 -46.5 -8.5t-34.5 5.5q-4 4 -26 3.5l-22 -0.5
q3 5 -9.5 7t-11.5 2h-13q-2 5 -68 25.5t-81 35.5q-24 -12 -83.5 105.5t-61.5 163.5q-2 15 -3 74t-2.5 124t-2.5 117t-1 54q-20 94 -8.5 192t0.5 157q-15 78 -10 103.5l5 25.5q2 2 10 30.5t8 30.5q-1 27 11 102t32 81q12 3 33 42l21 39q0 6 17 18l17 12q0 7 15 18.5l15 11.5
q5 -2 14 8t12 13q-5 -5 29 7.5t40 14.5q3 0 50 21l47 21h46.5h43.5q6 -9 58.5 -19.5t61.5 -10.5q-2 0 16.5 -11t35.5 -15q47 -12 50.5 -16l3.5 -4q9 -9 13 -15t10 -12q0 -2 9 -17.5t6 -11.5q3 0 12.5 -9t10.5 -9q12 -13 11 -15q3 -7 8 -23t7 -17q9 1 18.5 -78.5t9.5 -78.5
q0 -3 -6 -61.5l-6 -58.5q0 -16 4 -44.5t4 -27.5q3 -3 5.5 -21t3.5 -18q-3 0 -21.5 4t-21.5 -1q-15 -21 -118.5 -14l-103.5 7q0 19 4 101.5t-10 102.5z" />
    <glyph glyph-name="d" unicode="d" horiz-adv-x="850" 
d="M20 -21q-3 1 -4.5 5.5l-1.5 4.5v11.5v8.5q0 19 -2.5 54t-1.5 35q-7 8 -6 16t1 5v37.5v31.5q-4 -1 -6 46t-2 44q0 31 2 82.5t2 45.5q0 3 8.5 66t8.5 57q0 33 -8.5 112.5l-8.5 79.5q0 3 -0.5 31.5l-0.5 28.5q-3 8 -3 30.5t0 20.5q0 4 0.5 27.5t-0.5 23.5l9 73t12 55
q-2 66 -15.5 88.5l-13.5 22.5q0 25 2 47l2 22q0 1 6 8.5t6 16.5q0 -3 0 6.5t0 6.5q0 21 -2 40l-2 19q0 36 -2 88.5l-2 52.5v47.5t0 29.5q0 3 -4 33.5l-4 30.5q3 5 16 5h17t8 0q31 0 53.5 -1l22.5 -1q5 0 30.5 7.5t22.5 7.5q27 0 71.5 -4.5t42.5 -4.5q10 0 24.5 4.5l14.5 4.5
q4 -1 50.5 1.5t38.5 2.5q4 0 33 -4.5t23 -4.5q6 0 24.5 -6.5t18.5 -5.5l8 -4q2 -5 32 -18.5t28 -11.5q10 -9 30.5 -24.5t20.5 -13.5q3 -5 31 -30.5t24 -25.5q24 -15 22 -21q2 -5 11.5 -16t10.5 -10q7 -5 20 -36.5t9 -27.5q14 -15 22 -80.5l8 -65.5q12 -36 12.5 -94.5
t0.5 -57.5q0 -37 4.5 -89.5t4.5 -51.5q0 -8 -2.5 -62l-2.5 -54q13 -9 14.5 -71t-2 -132.5t-8.5 -127.5t-3 -57q-9 3 -14 -33l-5 -36q-6 -9 -38 -79t-29 -75q0 -1 -34.5 -45l-34.5 -44q-3 0 -16.5 -8.5t-11.5 -7.5q-1 -1 -31.5 -16.5t-24.5 -9.5q-3 -6 -23.5 -14.5
l-20.5 -8.5q1 -7 -19 -9t-18 -2q-17 0 -45 -2l-28 -2h-9.5t-3.5 0h-43t-25 0q-17 0 -70 -9.5t-49 -6.5q-17 -18 -88 -11.5t-94 9.5zM287 230q0 5 8 5h14.5t6.5 0q2 0 11.5 2t10.5 2q11 3 12 1q3 6 25.5 9t17.5 3q33 0 61.5 41t27.5 40l8 11t5 11q10 0 11.5 55.5t1.5 54.5
q0 9 4.5 56t4.5 48v16v33.5v30.5q0 99 4.5 198t4.5 186l-12.5 40.5t-11.5 41.5q0 3 -10 31t-9 28q-2 49 -16 73.5l-14 24.5q-9 7 -17.5 18.5t-7.5 11.5q-15 14 -28.5 18t-13.5 5q-24 16 -34 14l-10 -2q-3 -1 -31 1t-29 2q5 0 5 -4v-4v-52t0 -33q0 -19 -10 -93t-4 -99
q26 -105 17 -183t-3 -180q3 -71 -1 -86t-4 -81q0 -55 4.5 -100.5t4.5 -87.5l-2.5 -41t-1.5 -66z" />
    <glyph glyph-name="e" unicode="e" horiz-adv-x="779" 
d="M730 1627q-1 -22 3 -45l4 -23q3 -3 0 -91.5t-3 -112.5q0 -17 -7.5 -11.5t-18.5 5.5q3 0 -31 0h-55q3 0 -72 5t-114 -22q-1 0 -21 1t-23 7q0 2 -34.5 6t-42.5 -5q3 0 -13 4q-10 0 -12 4v-9v-12q0 3 -0.5 -12.5t0.5 -17.5q-1 -1 6.5 -38.5t4.5 -46.5q-15 -44 -14.5 -111
t3.5 -115q0 -9 13 -9q-3 0 46 -5t57 6q-2 -1 11 -1h18q-4 0 15 0h28q-2 0 55.5 0h85.5q-2 0 7 -39.5t9 -54.5q0 -36 7.5 -77.5t-28.5 -80.5l-106 4.5t-142 -12.5q2 0 -13.5 0h-20.5q3 0 -10.5 0h-18.5h-9h-9l4.5 -88.5t4.5 -91.5q0 7 6.5 -80.5t-2.5 -132.5q1 1 0.5 -16
t-0.5 -22l-0.5 -4t5.5 -9l4 -4h18q-3 0 22.5 0h41.5q-2 0 70.5 -2t116.5 -2l7.5 -1t9.5 -4q-1 1 17 1q-3 0 19 2t24 2q-2 0 19.5 6.5t35.5 6.5q-3 0 5.5 0h11.5q-1 0 8 -18.5t0 -27.5q0 -1 -2 -103t-2 -125q0 1 -76.5 5t-94.5 4q4 0 -22 -2t-33 -2l-20 -2t-36 -2
q1 0 -119.5 0h-191.5l-24 2t-44 2q9 0 -17.5 4t-16.5 4q-21 0 -16.5 3t-4.5 6q-1 0 5 28.5t8 31.5q-1 -1 -5 19.5t-4 31.5q0 -12 -5 83.5t-8 100.5q0 -1 8.5 104.5t8.5 138.5q0 -12 -4 18.5t-4 49.5l-2.5 28.5t-2.5 31.5q0 -1 -2 101t-2 168q0 -1 8.5 80t-8.5 95v21
q0 -9 8.5 32.5t8.5 56.5q0 -2 -4.5 16t-3.5 18v41.5v44.5q0 -2 0 78.5v134.5q0 -6 0 29v52l7 -3.5t10 -5.5q-1 0 122.5 0h159.5q-7 0 20.5 0h38.5l30 -2t51 -2q-8 0 71 -4t83 -9q-3 3 39 -0.5t51 -3.5q-5 0 14.5 -0.5t19.5 -3.5z" />
    <glyph glyph-name="f" unicode="f" horiz-adv-x="789" 
d="M737 1604q-6 -25 -4.5 -62.5t19.5 -53.5q0 2 -3 -33t-6 -35q-1 0 -0.5 -32.5t0.5 -50.5q-1 -1 -20.5 -1.5t-23.5 -0.5q3 0 -23.5 0t-22.5 0q-54 0 -80.5 2t-76.5 -14q-4 -2 -14.5 -1.5t-7.5 0.5q-4 0 -17 2t-22 2l-38.5 2.5t-37.5 2.5h-7h-6q-14 0 -22 -11
q0 -70 -3 -105.5t0 -108.5q0 -5 -0.5 -26t-0.5 -18v-11.5v-14.5q0 1 -2 -38.5t-2 -33.5v-7.5v-9.5v-5v-8q0 -1 96.5 -4.5t100.5 -3.5q-1 0 52.5 2l53.5 2q6 0 13 -5q-6 1 6.5 -74.5t-2.5 -114.5q-17 -42 -1.5 -63t-24.5 -21q3 0 -11 0t-9 0q-38 0 -86 -8t-61 1q-5 3 -9 3
q-1 0 -22.5 -2t-27.5 -2q3 0 -8.5 0h-13.5q-16 0 -20 -4q-1 -1 -10.5 -0.5t-6.5 0.5q-2 0 -8.5 -83.5t-9.5 -88.5l2.5 -91t23.5 -137q7 -17 -3 -58l-10 -41q0 1 0 -62.5t0 -61.5l-54 -2.5t-57 -2.5q3 0 -13 0t-12 0q-9 0 -35 -2t-26 -1q1 -1 -33.5 -1t-33.5 0q-4 0 -2.5 2
t-6.5 2l-3.5 10l-3.5 10q0 -3 0 22.5t0 24.5q0 39 -16 134t7 133q-4 -9 -0.5 25.5l3.5 34.5q0 -1 -2 61.5t-4.5 137t-4 136.5t-1.5 61q0 25 2.5 124t2.5 131q0 -8 0 31t0 32q0 25 -4 94t-6 143t-0.5 136t12.5 74q2 2 -1 19.5t-2 17.5q-1 0 125.5 2t129.5 2q-1 0 70.5 -0.5
t157 -1.5t157 -1.5z" />
    <glyph glyph-name="g" unicode="g" horiz-adv-x="849" 
d="M540 1097q-2 0 -1.5 13t-0.5 10q9 13 9 48q0 -1 0 29v30q-4 1 -19 65.5t-24 58.5q-15 18 -23.5 17.5t-34.5 -0.5q-66 0 -80.5 -10.5l-14.5 -10.5q-8 -3 -26 -14t-12 -12q0 -1 -21 -55.5t-9 -63.5l-2.5 -10l-2.5 -10q-4 -9 -4 -23v-17q0 6 0 -21t0 -21q0 -4 -0.5 -17.5
t0.5 -13.5q-2 19 -4 -33t-3 -120t-1.5 -122.5t-0.5 -39.5q0 -38 11 -73t11 -60q0 6 0 -24.5t0 -25.5q0 -11 -5.5 -89t5.5 -73q3 -3 5.5 -23.5l2.5 -20.5l19.5 -33.5t18.5 -33.5q0 -1 17 -12t17 -10q1 0 21 -2t17 -2h15.5h15.5q-1 0 29.5 17l30.5 17q-6 -7 12 52t18 60v25
q0 -9 2 29.5l2 38.5q-1 -1 -7 63.5l-6 64.5q2 0 -7 0t-8 0q-1 0 -17.5 4l-16.5 4q-49 0 -49 4q-8 -13 -8.5 38.5t-0.5 42.5v16.5t0 9.5v53.5t0 31.5q0 37 21.5 33.5t81.5 -3.5q-3 0 12.5 0h24.5q39 0 87.5 2.5t88.5 1.5q36 0 32 1q46 -8 45 -35q2 9 -7.5 -25.5t-10.5 -33.5
q1 0 6 -20t5 -19v-20t0 -12q0 -9 -2 -27.5t-2 -21.5q0 3 3.5 -37.5t6.5 -89t4 -88.5t-3 -36q-3 -2 -5.5 -39.5t-3.5 -37.5q3 -59 -40.5 -137t-43.5 -76q-31 -23 -27 -26q1 -6 -68 -42.5t-72 -34.5q-6 -3 -20 -6l-14 -3q-3 -6 -24 -8.5t-19 -2.5q-26 0 -101.5 4.5t-90.5 11.5
q-134 50 -163 116.5l-29 66.5q-42 31 -45.5 143.5t-9.5 142.5q-22 107 -13.5 159t-0.5 126q-18 144 -8.5 217.5t9.5 214.5q0 16 29.5 114t29.5 99l15 22t10 20q7 14 41.5 46t36.5 31q-2 0 30.5 27t27.5 28q9 6 40 29t34 22q23 14 62.5 10t44.5 4q-1 0 65.5 -11.5t66.5 -9.5
q4 1 29 -14t31 -17q105 -51 126 -105.5t33 -60.5q15 -9 25 -63.5t14 -116.5t2.5 -111.5t-9.5 -49.5q9 0 -97 -4t-161 6z" />
    <glyph glyph-name="h" unicode="h" horiz-adv-x="899" 
d="M31 1585l15 3q8 7 26 3t16 -4q12 0 14.5 -2l2.5 -2q30 0 52.5 -2t55.5 -2q-1 0 12 -1.5t20 5.5q3 0 30 -2l27 -2q0 -66 13.5 -76.5t4.5 -47.5q-19 -82 -20.5 -171.5t-1.5 -88.5q0 -30 2 -70t2 -36q0 -25 -2 -60t-2 -34q0 -5 2 -22t1 -17q8 1 6.5 -18.5l-1.5 -19.5
q3 0 125.5 4l122.5 4q0 3 -4.5 20.5l-4.5 17.5q0 123 -0.5 216t4.5 222q0 2 -10.5 74l-10.5 72q0 4 2 23.5l2 19.5q68 0 170.5 6.5l102.5 6.5q3 0 16.5 -6.5l13.5 -6.5q12 3 3 -82t-2 -71q-3 -2 -2 -110t1 -107q0 -11 1.5 -62t-1.5 -44q2 -3 8 -59.5t4 -66.5
q-33 -138 -12 -171t21 -32q0 -23 1 -22q-15 -8 -19 -78.5t-3 -151.5t5 -145.5t4 -59.5v-16t0 -9q0 -1 -6 -19.5t-6 -21.5q-1 -3 7 -131t9 -128q-3 1 -8 -1.5l-5 -2.5q-7 0 -29.5 -1.5t-21.5 -1.5q-2 -2 -33.5 -9.5t-31.5 -8.5q-11 12 -57.5 21t-43.5 9h-31.5h-28.5v44v24
q0 50 -2.5 208.5t-2.5 157.5q10 11 3 88.5t-7 69.5q0 3 -2 29.5l-2 26.5h-12h-9q-41 0 -97.5 2.5l-56.5 2.5q-3 0 -33.5 -4.5l-30.5 -4.5q-4 -4 -4 -8q0 -13 3 -13q1 -2 1 -13v-8.5t0 -3.5q0 -21 -2 -63t-2 -40q0 -9 4 -30.5t4 -20.5v-25.5t0 -13.5v-105t0 -61q0 -5 -2 -22
t-2 -16q0 -32 2 -80.5t2 -43.5v-13.5t0 -7.5v-22t0 -13q0 -33 18 -33h-8.5t-4.5 0h-27.5t-15.5 0h-13.5t-7.5 0h-58t-36 0h-37.5t-31.5 1q-10 -6 -43 -9t-34 -5q9 6 9 18t0 10q0 5 0.5 26.5t-1.5 20.5q-12 14 -5 116t-5 150q-2 4 -2 102t0.5 215.5t2.5 218.5t6 112
q-16 12 -10 98.5t6 80.5v26t0 16q0 28 -3 49.5t2 58.5q11 80 5 156t15 127z" />
    <glyph glyph-name="i" unicode="i" horiz-adv-x="417" 
d="M26 1618q78 -28 126 -18.5t119 9.5q-4 0 14 0h25q8 0 13 -4q-1 0 3.5 -20.5t4.5 -31.5q0 1 -5.5 -127.5t-12.5 -233.5q-2 -25 -5 -168.5t10 -156.5q-1 0 -2.5 -45t-1.5 -44q0 -60 2.5 -96.5t1.5 -102.5v-124.5v-146.5l-6 -56.5t6 -105.5q-1 0 -1 -43.5t6 -63.5
q-1 0 -1 -28l-12 -6q-3 1 -26 0t-30 1q-6 -7 -67.5 -10t-86.5 -3q3 0 -9.5 0h-16.5q4 0 -2 2.5t-15 2.5q-12 0 -13 2q0 1 -8 1q2 0 -5 2t-16 2l3 17.5t9 21.5l2.5 18t2.5 25q0 -4 0.5 33.5t-3.5 43.5q-1 -1 -1 30q0 -1 2 79t2 134q0 -2 1 18.5t-4 26.5q-7 6 -6.5 145.5
t0.5 171.5q0 -5 0 18t0 20q0 57 -6 88t-6 88q0 -3 2 14t2 20q0 -7 4 43.5t4 80.5q0 -5 0 26v46q0 -1 2.5 96t2.5 100q0 -3 -1.5 31.5t1.5 52.5q-8 3 -9.5 59t7.5 66z" />
    <glyph glyph-name="j" unicode="j" horiz-adv-x="600" 
d="M285 1606q55 -7 133.5 -6.5t139.5 0.5q-2 0 1 -37t3 -49q0 3 -7 -96.5t16 -81.5q1 -11 -16 -143t3 -144q1 -39 4.5 -66t-12.5 -56q-20 -36 -4 -74t16 -37q6 -7 -1.5 -67t-7.5 -75q0 -83 6 -236.5t-27 -207.5q0 1 -4.5 -20t-4.5 -22l-75.5 -89.5t-213.5 -89.5q1 0 -43 0
h-73q2 0 -8.5 0h-17.5q1 0 -38 8.5t-40 10.5q-3 59 14.5 151t17.5 82l1 11.5t3 14.5q0 17 4 17l9.5 -1.5t12.5 -3.5q-3 0 3 -2l6 -2q-3 -1 39 -7t63 -6l24 13.5t36 29.5q-8 -3 10 16t19 18q-12 4 4.5 112.5t3.5 83.5q1 3 -6 38.5t-2 56.5v9.5v11.5q0 -4 -3.5 40.5t-6 101
t-2 106t7.5 55.5q0 -4 0 71v166v167t0 73q0 4 -4.5 38t-4.5 61q0 -3 0 8.5t0 7.5q0 3 3.5 7t5.5 11q-1 0 2.5 5.5t6.5 6.5q10 10 4 10z" />
    <glyph glyph-name="k" unicode="k" horiz-adv-x="959" 
d="M30 1585q36 28 82 18.5t115 -9.5q-1 0 39.5 -1.5t40.5 -28.5q0 -6 -10 -78t7 -80q-2 -3 -4.5 -58t-4.5 -121.5t-3.5 -124.5t-1.5 -67l-4 -50.5t8 -23.5q11 27 20.5 25.5t9.5 31.5l15 42t15 43q-1 0 16 50t28 64q6 8 14 26t11 18q-6 0 9.5 23.5t24.5 32.5q-9 -9 5.5 16
t24.5 35l17.5 37t29.5 77q2 6 8.5 27.5t12.5 24.5q-6 -5 1 8t7 14q0 4 17 17q-3 0 6.5 -0.5t11.5 -0.5q-10 0 53.5 1t84.5 -5q-9 1 12.5 0.5t24.5 -0.5q-5 0 37.5 0h64.5q-1 0 -12 -21.5t-17 -25.5q-1 0 -12 -21.5l-11 -21.5l-45.5 -58t-47.5 -103q0 -6 -67.5 -114.5
t-55.5 -120.5q-16 -24 -23 -50t-34 -53l-10.5 -32.5t-10.5 -30.5q-2 -14 -4 -18v-7v-10l-5 -4t-8 -4l2 -22t2 -25q0 15 48 -108t64 -138q-3 -6 17.5 -49t20.5 -45q13 -8 16 -28.5t12 -14.5q1 -2 20 -46t25 -54q-3 2 2.5 -17.5t18.5 -33.5l6 -12t12 -33l35.5 -73t47.5 -85
q11 -12 19 -45.5t17 -41.5q-1 0 8 -8t-5 -8q4 0 -22.5 0t-36.5 1q-3 6 -53 5t-67 -1l-19 -2.5t-28 -2.5q3 0 -9 0h-17q4 0 -15 0t-14 0q-24 3 -28 11t-15 27l-10.5 37t-10.5 44q-1 -4 -15.5 27.5t-15.5 36.5q3 3 -26 79.5t-32 78.5q-2 -1 -5.5 28.5t-12.5 48.5q0 -1 -9.5 19
t-27.5 39q-4 3 -3.5 0.5t-6.5 5.5q2 -3 -4 3t-4 10q0 -11 -7 9t-7 21q2 -3 -0.5 7t-7.5 9q-4 0 -4 13q0 8 -13 17q5 -6 -2 10l-7 16q1 0 -17 -18q8 8 -11 -34t-26 -50q-1 -1 -2 -21.5t-3 -22.5v-32.5t13 -57.5q-2 3 -1 -12t1 -18q0 6 0 -19v-32q0 1 -8.5 -93t8.5 -89
q-1 0 -0.5 -20t0.5 -23q0 2 0 -11.5v-18.5l-11.5 -2t-14.5 -2q8 0 -73.5 5.5t-102.5 -6.5q-4 -4 -29 -4q3 0 -14 0h-24l-7 0.5t-19 12.5l6.5 67.5t8.5 70.5q7 21 7 47v50q0 -4 0 17v30q0 -1 0 66.5v117.5q0 -2 -6.5 20.5t-6.5 34.5l-2 -4t-2 21q0 -3 6.5 40t10.5 46
q-1 -1 -0.5 26.5t0.5 36.5v35v38q0 -3 0 20.5v35.5q0 -4 0 9.5v19.5q0 -3 -4.5 23.5t-4.5 28.5q0 -4 -3.5 11t-3.5 18q-4 0 1.5 47.5t5.5 63.5v26.5v29.5q0 -23 0.5 13t1 87.5t1.5 98.5t2 48q0 -4 -4.5 21t-4.5 35q0 -4 0 18v33l2 23t2 32q0 -9 5 28t8 40z" />
    <glyph glyph-name="l" unicode="l" horiz-adv-x="762" 
d="M30 1624q12 -4 45 -4q-1 0 58.5 -4t91.5 -4l38.5 -4t41.5 0q0 -1 2 -38t2 -40l-2 -15.5t-2 -18.5l2 -15.5t2 -18.5q0 3 2.5 -24.5t2.5 -43.5l4 -21t-5 -27q0 -2 -8 -39.5t-8 -49.5q0 3 0 -23.5v-39.5l-6.5 -43.5t-6.5 -46.5l3 -23.5t6 -23.5l6 -32.5t6 -52.5l-9.5 -52
t1.5 -64q4 0 5.5 -52.5t0.5 -117t-2 -121t0 -64.5v-23v-23l-9 -65.5t9 -83.5q-4 4 -4 -26q0 -4 4 -8h11.5h14.5q-3 0 20.5 0t21.5 0q30 -6 49 -5l19 1q65 0 112 2t115 2q-3 0 21.5 0t25.5 -9l-1.5 -9t-7.5 -12q-2 -39 11 -57t-7 -68q-3 -9 -3.5 -46.5t8.5 -46.5l3 -12
t-40 -12q-12 0 -20.5 1.5t-20.5 1.5q1 0 -41.5 0t-38.5 9q-60 10 -127 5t-126 -5l-85 -4.5t-80 -4.5q-3 0 -27.5 -1.5l-24.5 -1.5l-20 6t-22 6q-3 3 -16.5 0t-22.5 7l8.5 9.5t8.5 8.5q0 1 -7.5 29t-4.5 31q-6 11 2 51.5t11 60.5q6 6 8 38q-3 1 -0.5 87.5t-4.5 101.5
q-6 11 -4 26t-4 15q0 -1 -1 62t-0.5 144t3.5 157t11 101q-4 3 -4 56.5v121.5t-0.5 131.5t-4.5 87.5v16.5v18.5q0 -1 2.5 97t2.5 95v7v10q0 -5 3 18.5z" />
    <glyph glyph-name="m" unicode="m" horiz-adv-x="1181" 
d="M32 600q-3 38 -10.5 133.5t-15.5 112.5l2.5 29.5t2.5 43.5q0 -3 4 21t4 39q0 -6 4.5 36t4.5 70q0 -1 0 51v56q0 -5 0 24v44q0 -4 -6.5 41t-10.5 48q0 -1 6.5 27.5t6.5 37.5q0 -6 0 32.5v60.5q0 -1 -5.5 34.5t9.5 54.5q0 13 -4 9q12 12 52 8t63 -4q-1 0 94.5 0h157.5
q-1 0 12 -47.5t17 -60.5q0 -2 15.5 -95.5t15.5 -94.5q4 -86 23 -178.5t19 -172.5q0 13 7 -25t16.5 -89.5t18 -97.5t10.5 -48q-1 1 -0.5 -27.5t4.5 -40.5l-1.5 -14.5t-2.5 -26.5l1 -5q5 10 7 13q-1 -1 4.5 40.5t8.5 65.5q-2 0 15 98t19 98q-1 0 7.5 57.5t19 127.5t19.5 128
t10 59q-6 -6 16 81t22 88q-1 1 -0.5 39t0.5 48q0 17 9 42q-2 0 7.5 22t13.5 25q1 2 18 -0.5t25 -8.5q-4 1 30 -3h210q28 2 37 4q-1 -1 35 -1h46q-1 0 -13.5 -103.5t-12.5 -106.5l13 -107t1 -181q-10 -56 -12 -139.5t-2 -143.5l2 -87.5t2 -86.5q0 -22 2.5 -41t2.5 -36
q0 -1 -9 -17l-0.5 -102t12.5 -119q0 -1 -6 -101t-6 -123v-18.5v-19.5l-1 -14t10 -24l4.5 -14.5t-7.5 -10.5q3 0 -14 -2t-31 -2l-66 -4.5t-105 -4.5q3 0 -7 0h-10q12 0 -4.5 -1.5t-20.5 -1.5q-13 0 -10.5 65t2.5 88q0 -8 -4 57t-5 66l2 104t2 131q0 -3 0 22v38q0 -1 0 21.5
v25.5q0 -6 0 33.5v60.5q0 -7 -2 30.5t-2 58.5q0 -3 0 12.5v22.5q0 -4 0 23v40q0 -3 0 9.5v16.5q0 -8 0 38v64q0 -1 -11.5 -85.5t-25 -185.5t-25.5 -185.5t-12 -85.5q-3 -8 -22 -130.5t-19 -142.5l-10.5 -73.5t-10.5 -76.5q0 3 0 -2.5v-5.5q0 -6 -5 -4q-8 0 -8 -18v-2.5
t-6 -4.5l-2 -9h-236l-5 28q-2 0 -2 1q-9 9 -9 35q0 -5 -7.5 60t-23.5 90q-8 12 -8 34q0 -11 -2 14.5t-2 36.5q0 -3 -2 17t-2 26q0 -2 -11 47.5l-11 49.5q0 92 -38 214t-34 241q0 4 -13 72.5t-13 79.5q0 -33 2 -168.5t20 -150.5q0 -2 -2.5 -59.5l-2.5 -57.5l-7.5 -46
t-13.5 -104v-173q2 -10 9 -14q-6 -11 -1 -72.5t5 -77.5l7 -51t-20 -68v-4h-218v8h-30v13v18q0 -2 2.5 11.5t2.5 22.5q0 -3 4 13.5t4 24.5q0 -5 2 131t2 219q0 -1 -2 9t-2 21q0 -3 4.5 34.5t12.5 45.5v15z" />
    <glyph glyph-name="n" unicode="n" horiz-adv-x="908" 
d="M78 1597q15 0 90 3.5t82 -12.5q-9 -13 60 2.5t81 -22.5q10 -33 40.5 -156.5t26.5 -147.5q0 -1 20 -75t43.5 -163.5t43 -166t18.5 -83.5q-3 4 5.5 -8t7.5 -21q-5 0 3.5 21t8.5 23q-1 -1 -3 96t-5 115q-5 21 -3.5 111t3.5 190t1 181.5t-10 86.5q-1 0 -7 17.5t41 20.5
q6 0 24 -8.5t45 -8.5q-2 0 24.5 0h43.5q-1 0 44 3.5t45 -20.5q0 -30 -2.5 -109t-3.5 -165t1 -159.5t10 -91.5v-25t-9 -31q-1 0 -0.5 -69t2.5 -159.5t5.5 -180t9.5 -128.5q1 -12 -3.5 -85t-10 -155.5t-7.5 -147.5t4 -59q0 -8 -110 -12t-164 20q1 -1 -23.5 61t-22.5 89
q0 -1 -7 35.5t-6 36.5q-4 0 -10.5 47t-6.5 48q0 -1 -13.5 49.5t-29.5 111t-29.5 111.5t-12.5 51q-1 6 -11.5 36.5t-10.5 32.5q0 -1 -19.5 74t-31.5 79q0 -1 -21.5 58.5t-20.5 62.5q0 -1 -8.5 9.5l-8.5 10.5l-1 5.5t-4 6.5q-1 0 0 -71.5t2.5 -158t2.5 -158.5t1 -73
q-1 -2 -1 -70v-153t-0.5 -162.5t-0.5 -97.5l2.5 -28t2.5 -35q0 3 0 -6.5t0 -5.5q0 -7 -122.5 -5.5t-146.5 1.5l-3 55t12 64q0 -3 6 39.5t6 41.5q0 34 2.5 121l2.5 87q-20 21 -16.5 164.5t3.5 173.5q0 -1 -1 45.5t-12 44.5q-1 -1 10 93.5t11 93.5q0 6 0.5 34.5t-2.5 30.5
q-12 3 -11 110t1 128q0 -1 -1 126.5t8 130.5q17 4 47 4z" />
    <glyph glyph-name="o" unicode="o" horiz-adv-x="866" 
d="M242 1607q6 1 11 1l13 7t9 1q3 7 13.5 8t7.5 1q4 0 9 4q7 5 12 5t9 4l4 4h34t21 0q26 0 63 -2t31 -2q9 0 13 -4.5l4 -4.5q6 0 14 -4l8 -4q48 0 124 -55t72 -52q15 -8 45 -61.5t27 -48.5q18 -21 25.5 -130t5.5 -91q0 -3 -2 -35t-2 -26q0 -7 2 -29t2 -25v-34v-27
q0 5 0 -49.5t0 -48.5q0 -12 2 -32.5t2 -14.5q0 -26 2 -54t2 -27q0 -45 -2 -93t-1 -47q-6 -12 -5.5 -39t0.5 -21q0 -48 2 -123t2 -69q0 -5 -0.5 -20.5t1.5 -14.5q-9 -5 -6 -13t0 -9q-12 -20 -12 -39q-3 -4 -6 -14.5t-2 -9.5q-23 -26 -17 -31q-1 -2 -6.5 -14t-6.5 -6
q0 -1 -11 -28.5t-11 -25.5q-18 -6 -3 -6q-9 0 -18 -13.5t-8 -11.5q-1 -2 -13 -14t-9 -8q-5 -7 -58.5 -35.5l-53.5 -28.5l-11.5 -8t-8.5 -5q-25 -25 -31 -21q-10 -4 -30.5 -6.5t-19.5 -2.5h-32.5t-18.5 0q-5 0 -27.5 0.5t-19.5 -1.5q-1 1 -32 7.5t-32 6.5q2 0 -6.5 2t-6.5 2
h-17l-71 48.5t-65 55.5q-24 28 -47 45q-60 49 -71 142t-11 92q0 16 -2 30t-2 9q-1 6 -5 52t-4 47q6 18 5 106.5t0 88.5q-5 5 -4.5 54.5t3.5 105.5t6 99t3 36q0 20 -6.5 61l-6.5 41q0 38 11 104.5l11 66.5l13.5 23.5t7.5 18.5q3 3 18.5 33.5t15.5 32.5q17 25 17 37l7 17.5
l7 17.5q21 33 33 39q0 3 36 41.5t55 41.5zM545 892q-9 90 -5 147t4 148q0 -6 0 6v18q0 -1 -4.5 35t-13.5 38l1 9.5t-5 7.5l-2 9.5t-2 16.5q0 2 -9 4q2 1 -13 17l-4.5 8.5t-12.5 17.5q5 -6 -7 3t-13 10q4 4 -5 4q9 0 -10 4t-37 4l1 -2t-6 -2q-3 0 -8 -5q2 2 -2.5 0t-10.5 -8
l1 -2t-5 -2q4 0 -10 -10.5t-16 -11.5q3 2 -4.5 -7.5l-7.5 -9.5q0 -3 -14 -13q0 -1 -4 -9q4 4 -2 -11t-6 -18l-3 -7.5t-6 -9.5q1 0 1 -12t-5 -9q1 -1 -3.5 -15t-4.5 -15q0 3 -4.5 -93t-4.5 -147q0 4 0 -15.5v-26.5l2.5 -31.5t2.5 -58.5l-4.5 -25.5t-4.5 -42.5q0 3 2 -42
t2 -60q0 2 3 -27.5t10 -32.5l1 -32t-5 -32v-17q0 1 0 -84.5t16 -85.5q3 0 6 -33t25 -44q4 4 4 -13q0 5 15 -10.5t24 -15.5l15.5 -2t35.5 -2q-3 0 5.5 1.5t14.5 1.5q9 0 26 17q-4 -4 10.5 16t14.5 21q-5 6 11.5 18t16.5 45q3 0 3.5 12.5t0.5 17.5q6 6 5.5 18l-0.5 12
q0 18 3.5 28.5t3.5 18.5q0 -4 -6.5 19.5t-6.5 40.5q0 -3 -2 19t-2 36q0 -1 6.5 57.5t6.5 117.5q0 -4 0 16v31l2 22t2 37l-1.5 9.5t-1.5 12.5z" />
    <glyph glyph-name="p" unicode="p" horiz-adv-x="827" 
d="M76 1622h33h30q-3 0 84.5 -4t133.5 -4q-1 0 18 0.5t28 -4.5l13.5 -2.5t22.5 -2.5l40 -9q131 -18 206 -97h1v-0.5v-0.5q90 -97 92 -287q10 -57 10 -114l-2 -31.5t-8 -67.5q-2 -391 -369 -392q-31 -12 -43 -12h-15.5h-15.5q3 0 -12 -0.5t-24 -1.5q-2 -2 0 -28.5t2 -29.5
q0 16 -5.5 -57.5t-8.5 -160.5v-162q0 -8 2 -16q-2 0 3.5 -15.5t13.5 -18.5q-1 -1 -1 -20.5t1 -22.5q1 0 -7 -28h-3.5h-8.5v-26h-251v11h-17l-2 -0.5t-11 9.5l1 82t16 130q3 10 -5 82.5t11 72.5q-2 5 -8 101.5t-6 99.5q0 -3 0 37.5v64.5q0 -3 0 17.5v29.5q0 -3 0 13v25
q0 -9 8 119.5t-8 156.5q2 4 7.5 61t5.5 69l-6.5 65.5t-6.5 117.5q0 -1 2.5 66.5t2.5 60.5q0 20 4.5 53t8.5 71h21h22zM287 1016q0 -31 0.5 -86t0.5 -67q0 9 18 -4q-1 0 41.5 3t54.5 3q-2 0 8 3.5t11 3.5l15 6t17 9q11 -2 34 21l12.5 29t12.5 71l5.5 47.5t-0.5 87.5
q-6 32 -6 78t-15 80q-9 18 -16 25l-11.5 13t-32.5 16q-10 1 -17.5 6.5t-25.5 11.5h-100v-0.5v-0.5q-14 -31 -1 -61q9 -3 2.5 -42.5t-7.5 -60.5v-10q3 -24 7.5 -82.5t-7.5 -79.5v-20z" />
    <glyph glyph-name="q" unicode="q" horiz-adv-x="931" 
d="M762 1422q-14 20 -4.5 -14.5t9.5 -25.5q0 -17 17 -96.5t17 -121.5q0 3 0 -19.5t0 -18.5q0 -39 3 -76t6 -76q7 -6 12 -54.5t8 -104.5t4.5 -100.5t1.5 -40.5q0 -39 -4.5 -103l-4.5 -64q0 -3 -10.5 -33.5l-10.5 -30.5q0 -38 -15.5 -99.5t-14.5 -53.5q-1 -6 -4.5 -22.5
t-3.5 -15.5q-3 -3 -12.5 -19l-9.5 -16q0 -4 3 -7q20 -28 33.5 -38t14.5 -11q18 0 27 -4t36 -4q3 0 15 -12.5l12 -12.5l-13 -18q1 0 -3 -21.5t6 -8.5q-17 -6 -47.5 -70.5t-29.5 -64.5q-5 -13 -13 -13q-3 -1 -3.5 5t-9.5 8q-68 18 -42.5 8t-71.5 32q0 1 -36 8l-36 7
q-2 2 -14 22t-11 20q-5 0 -29.5 -10.5t-21.5 -10.5q-26 -36 -142.5 -13t-92.5 25q-3 2 -12.5 8t-9.5 5q-2 3 -40.5 35t-42.5 35q-9 -10 -36.5 42.5t-30.5 55.5q-12 9 -48.5 117t-36.5 107q0 2 -1.5 50t-4 101.5t-4.5 93t-2 24.5v67v67q0 45 10.5 122t10.5 78q-6 93 6 129.5
t24 104.5q30 167 33 170q5 5 31.5 39.5t23.5 38.5q2 3 13.5 13.5t12.5 11.5q6 -3 20 7.5t10 9.5q7 3 20.5 12l13.5 9q33 32 106.5 44t126.5 12q12 0 59.5 -13t48.5 -12q10 -5 69.5 -48t60.5 -42l26.5 -52.5t27.5 -52.5zM529 673q-14 39 -3 106.5t-2 77.5q0 -1 2.5 174
t-15.5 261q2 -1 -17.5 46.5t-33.5 47.5l-39 16.5t-60 -4.5q-8 -8 -7 -8q-1 0 -10 -21q0 -1 -6 -13l-6 -12q1 -4 -6 -7t-7 -20q0 -4 -13 -17l-14 -110.5t1 -148.5q2 -8 -4 -77.5t-12 -154.5t-7.5 -161.5t10.5 -98.5q9 -20 11.5 -80.5t6.5 -64.5l2 -34t11 -43q0 -16 34 -51
q-9 8 35 -12h16q-3 0 8 0h14q6 0 7 2q-5 -6 -12 9t14 24q-2 -2 8.5 10t16.5 11l4 8l20 25.5t23 25.5l7.5 -9t10.5 -1q5 19 10.5 38.5t5.5 27.5v117v118q0 -5 -4 3z" />
    </font>
</defs>
</svg>
